<svg width="3" height="3" viewBox="0 0 3 3" fill="none" xmlns="http://www.w3.org/2000/svg">
<path d="M2.20791 0.283946C2.31224 0.445243 2.35184 0.639973 2.31878 0.829201C2.23732 1.04187 2.39119 1.04187 2.10834 1.29979C1.90378 1.5187 1.78769 1.80568 1.78251 2.10523C1.74404 2.32017 1.66485 2.68669 1.58112 2.74551C1.4974 2.80433 1.47704 2.85863 1.37521 2.88126C1.27339 2.90388 1.34805 3.1075 1.13083 2.92424C0.722178 2.59608 0.409516 2.16389 0.225724 1.6731C0.135867 1.49586 0.0805763 1.30314 0.0628048 1.10522C0.0379144 0.851826 -0.00960115 0.496619 0.00171267 0.426482C0.0130265 0.356346 -0.0525934 0.252272 0.27777 0.150461C0.444133 0.0838508 0.619575 0.0426629 0.798203 0.0282858C1.00999 -0.00942861 1.22678 -0.00942861 1.43857 0.0282858C1.55602 0.0577008 1.67553 0.0781231 1.79608 0.0893734L2.12645 0.186661L2.20791 0.283946Z" fill="#8C5325"/>
</svg>
