<svg width="3" height="3" viewBox="0 0 3 3" fill="none" xmlns="http://www.w3.org/2000/svg">
<path d="M0.0708617 2.5602C-0.00999284 2.38527 -0.0221225 2.18635 0.0368773 2.0029C0.147898 1.80354 -0.00390535 1.77636 0.313295 1.56794C0.546594 1.3789 0.701577 1.11014 0.748316 0.813555C0.814022 0.605136 0.945431 0.253998 1.03606 0.206424C1.12669 0.15885 1.15614 0.109009 1.26263 0.102213C1.36912 0.0954165 1.32381 -0.124329 1.51413 0.102213C1.87214 0.482953 2.12237 0.952088 2.23916 1.46147C2.30288 1.64946 2.3313 1.84762 2.32299 2.04594C2.31166 2.30194 2.30939 2.65987 2.28673 2.72557C2.26408 2.79127 2.31619 2.90681 1.97633 2.95211C1.58853 3.02818 1.18838 3.01344 0.80722 2.90907C0.694665 2.8627 0.578788 2.82483 0.460566 2.7958L0.147902 2.65534L0.0708617 2.5602Z" fill="#8C5325"/>
</svg>
