<svg width="16" height="16" viewBox="0 0 16 16" fill="none" xmlns="http://www.w3.org/2000/svg">
<path d="M10.6666 5.99325V13.5666C10.6666 14.5333 9.97331 14.9399 9.12665 14.4732L6.50665 13.0132C6.22665 12.8599 5.77331 12.8599 5.49331 13.0132L2.87331 14.4732C2.02664 14.9399 1.33331 14.5333 1.33331 13.5666V5.99325C1.33331 4.85325 2.26664 3.91992 3.40664 3.91992H8.59332C9.73332 3.91992 10.6666 4.85325 10.6666 5.99325Z" stroke="#4D4D4D" stroke-width="1.5" stroke-linecap="round" stroke-linejoin="round"/>
<path d="M14.6666 3.40633V10.9797C14.6666 11.9463 13.9733 12.353 13.1266 11.8863L10.6666 10.513V5.993C10.6666 4.853 9.73332 3.91968 8.59332 3.91968H5.33331V3.40633C5.33331 2.26633 6.26664 1.33301 7.40664 1.33301H12.5933C13.7333 1.33301 14.6666 2.26633 14.6666 3.40633Z" stroke="#4D4D4D" stroke-width="1.5" stroke-linecap="round" stroke-linejoin="round"/>
<path d="M4.66669 8H7.33335" stroke="#4D4D4D" stroke-width="1.5" stroke-linecap="round" stroke-linejoin="round"/>
<path d="M6 9.33366V6.66699" stroke="#4D4D4D" stroke-width="1.5" stroke-linecap="round" stroke-linejoin="round"/>
</svg>
