<svg width="9" height="7" viewBox="0 0 9 7" fill="none" xmlns="http://www.w3.org/2000/svg">
<path opacity="0.5" d="M0.173379 4.53437C0.285941 4.5084 0.417984 4.68587 0.56518 4.7811C1.20836 5.02797 1.8645 5.23967 2.53068 5.41526C2.67138 5.43258 2.98093 5.59924 3.28831 5.46721C3.52931 5.39912 3.7476 5.26756 3.92038 5.08628C4.15849 4.84171 4.38578 4.71618 4.51999 4.58631C4.69414 4.4643 4.89048 4.37754 5.09795 4.33092C5.35794 4.28728 5.62447 4.30356 5.87722 4.37854C6.07853 4.46295 6.32963 4.56034 6.52661 4.65774C6.70967 4.74961 6.90507 4.8145 7.10674 4.85037C7.16085 4.83954 7.30372 4.91313 7.2561 4.73782C7.20847 4.5625 7.11756 3.95215 7.10458 3.88506C7.09634 3.65217 7.05703 3.42143 6.98768 3.19896C6.89244 3.01066 6.91841 2.9717 6.81018 2.88946C6.69056 2.80028 6.57568 2.70492 6.466 2.60376C6.35128 2.50203 6.21491 2.44792 6.14564 2.2791C6.06522 2.11988 6.00765 1.95011 5.97463 1.77481C5.88804 1.40254 5.83393 1.25104 5.79496 1.05408C5.77115 0.945861 5.67807 -0.00646003 5.76033 3.30487e-05C5.84258 0.00652613 5.94432 0.142881 6.11966 0.45022C6.21707 0.562767 6.16079 0.536796 6.37725 0.647178C6.39673 0.683972 6.47466 0.636356 6.59372 1.32029C6.62804 1.49143 6.67879 1.65886 6.74524 1.82026C6.77286 1.9145 6.82149 2.00124 6.88748 2.07397C6.95347 2.1467 7.0351 2.20352 7.12622 2.24015C7.25882 2.2976 7.37873 2.38072 7.47905 2.48472C7.56781 2.57562 7.63275 2.5951 7.67171 2.68817C7.72366 2.8137 7.82756 2.88946 7.80592 3.0085C7.78427 3.12754 7.69552 3.41539 7.67821 3.4998C7.66089 3.58421 7.99857 3.97813 8.01589 4.11232C8.03321 4.24651 8.20854 4.32876 8.21937 4.3807C8.23019 4.43264 8.20205 4.69453 8.26916 4.73782C8.33626 4.78111 8.66096 5.02568 8.66096 5.02568C8.66096 5.02568 9.09388 5.24212 8.98132 5.34168C8.86876 5.44124 8.69559 5.87411 8.61766 5.88277C8.457 5.89068 8.29752 5.85157 8.15876 5.77022L7.84055 5.58625C7.84055 5.58625 7.7215 5.70745 7.74314 5.74857C7.76479 5.7897 7.74314 5.86978 7.84488 5.91956C7.95319 5.97179 8.05373 6.0388 8.1436 6.11868C8.16092 6.14898 8.23235 6.23772 8.20421 6.26802C8.15064 6.34558 8.1022 6.42656 8.05918 6.51043C7.85787 6.85889 7.69985 6.78963 7.59811 6.7615C7.47674 6.73846 7.36074 6.69295 7.2561 6.62731C7.18899 6.5732 7.11324 6.62731 6.86863 6.47797C6.81884 6.44766 6.81235 6.38057 6.77122 6.34377C6.71157 6.25388 6.67924 6.14864 6.67814 6.04076C6.67983 5.99384 6.67208 5.94706 6.65535 5.90319C6.63862 5.85932 6.61324 5.81925 6.58073 5.78537C6.55048 5.77879 6.51912 5.77927 6.48908 5.78677C6.45905 5.79428 6.43115 5.80861 6.40756 5.82866C6.3106 5.85768 6.20795 5.86214 6.10884 5.84164C6.04438 5.83041 5.97847 5.83041 5.91402 5.84164C5.91402 5.84164 5.29493 6.61432 4.8317 6.70739C4.58926 6.75717 4.33166 6.87188 4.08273 6.77448C3.8309 6.67977 3.56966 6.61229 3.30346 6.5732C3.12812 6.55155 2.60861 6.48229 2.45492 6.45632C2.23547 6.43065 2.01835 6.38796 1.80552 6.32862C1.73842 6.28534 1.16695 5.67932 1.115 5.64252C1.06305 5.60573 0.742682 5.32869 0.682072 5.30488C0.621462 5.28107 0.420154 5.46937 0.327074 5.46504C0.233994 5.46071 0.0500005 5.46504 0.0305187 5.32652C0.00850293 5.13471 -0.00162127 4.94171 0.000210515 4.74864C0.0240216 4.70752 0.0608179 4.55818 0.173379 4.53437Z" fill="#A8632A"/>
</svg>
