<svg width="9" height="8" viewBox="0 0 9 8" fill="none" xmlns="http://www.w3.org/2000/svg">
<path d="M6.37099 6.90296C6.30195 6.90296 5.9093 6.88138 5.9093 6.88138C5.9093 6.88138 4.99885 8.14333 3.99564 7.81975C3.54848 7.66091 3.08179 7.56367 2.6084 7.53069C2.274 7.46166 1.90075 7.53069 1.71521 7.29987C1.40267 6.96949 1.06511 6.66371 0.705529 6.38524C0.599814 6.31621 0.0863409 6.83177 0.0237749 6.29464C-0.0387911 5.7575 0.0237746 5.63239 0.192056 5.55257C0.360337 5.47276 -0.0236882 4.86228 0.381912 4.23238C0.787513 3.60249 2.06904 2.74394 2.35814 2.59294C2.64723 2.44194 2.40344 1.23393 2.91907 0.739936C3.4347 0.245945 4.21354 -0.166076 4.42929 0.066898C4.59355 0.303416 4.72356 0.561955 4.81547 0.834848C4.89098 0.979378 4.72917 1.08077 5.11536 1.07214C5.50154 1.06351 5.84457 0.944864 5.99559 1.35041C6.14661 1.75596 6.42708 1.6028 6.52201 2.13562C6.61694 2.66844 6.80464 3.1991 7.0247 3.26813C7.24476 3.33716 7.88768 3.80311 7.75607 4.17198C7.62447 4.54086 7.63525 4.79109 7.70213 4.89248C7.76902 4.99387 7.79059 4.98955 8.0538 4.93562C8.31701 4.88169 8.62768 4.61205 8.73987 5.27645C8.85205 5.94086 9.14547 6.24718 8.91247 6.45426C8.67946 6.66135 8.75497 7.03454 8.39036 6.92668C8.02575 6.81883 7.8359 6.55781 7.78628 6.6592C7.73666 6.76058 7.64173 6.84903 7.80138 6.95473C7.96103 7.06043 8.28681 7.19849 8.13578 7.36675C7.98476 7.535 7.94162 7.97722 7.46482 7.77876C6.98802 7.58031 6.78306 7.57383 6.69892 7.26967C6.61478 6.96551 6.63635 6.96336 6.56947 6.86197C6.50259 6.76058 6.37099 6.90296 6.37099 6.90296Z" fill="#EAE0C7"/>
</svg>
