<svg width="2" height="4" viewBox="0 0 2 4" fill="none" xmlns="http://www.w3.org/2000/svg">
<path opacity="0.6" d="M1.88391 2.94092L1.90363 2.89712L2.00002 2.6781L1.71525 2.02104C1.60136 1.89258 1.53963 1.72617 1.5422 1.55452C1.53125 1.24133 1.5882 1.18219 1.33629 0.923747C1.15828 0.720289 0.96013 0.535369 0.744866 0.371817C0.601068 0.277161 0.450211 0.193688 0.293627 0.122134C0.175341 0.0805206 0.0745786 -0.0421282 0.0198165 0.0148169C-0.0349456 0.071762 0.0395317 0.233834 0.0548651 0.292969C0.0701984 0.352105 0.173148 0.450664 0.352768 0.590836C0.532387 0.731009 0.758006 0.914985 0.871911 1.02888C0.985816 1.14277 1.11287 1.1581 1.15449 1.33769C1.1922 1.45219 1.21143 1.57196 1.21144 1.69251C1.21144 1.78888 1.17201 1.7385 1.26182 1.95971C1.35163 2.18092 1.38229 2.2291 1.46772 2.39775C1.55315 2.56639 1.62982 2.55106 1.63639 2.70876C1.64297 2.86645 1.69554 2.69342 1.63639 2.86645C1.6013 2.95162 1.57986 3.0418 1.57287 3.13365C1.57287 3.23221 1.40858 3.46438 1.62544 3.33077C1.75855 3.23891 1.85112 3.09928 1.88391 2.94092Z" fill="#A8632A"/>
</svg>
