<svg width="16" height="16" viewBox="0 0 16 16" fill="none" xmlns="http://www.w3.org/2000/svg">
<path d="M8.86668 5.40641L9.74668 7.16641C9.86668 7.40641 10.1867 7.6464 10.4533 7.6864L12.0467 7.95307C13.0667 8.1264 13.3067 8.85974 12.5733 9.59307L11.3334 10.8331C11.1267 11.0397 11.0067 11.4464 11.0733 11.7397L11.4267 13.2797C11.7067 14.4931 11.06 14.9664 9.98669 14.3331L8.49335 13.4464C8.22001 13.2864 7.78002 13.2864 7.50669 13.4464L6.01334 14.3331C4.94001 14.9664 4.29334 14.4931 4.57334 13.2797L4.92669 11.7397C4.99336 11.4531 4.87335 11.0464 4.66668 10.8331L3.42669 9.59307C2.69336 8.85974 2.93335 8.11973 3.95335 7.95307L5.54669 7.6864C5.81336 7.63974 6.13335 7.40641 6.25335 7.16641L7.13336 5.40641C7.60669 4.45307 8.39334 4.45307 8.86668 5.40641Z" stroke="#10A7FC" stroke-width="1.5" stroke-linecap="round" stroke-linejoin="round"/>
<path d="M4 5.99967V1.33301" stroke="#10A7FC" stroke-width="1.5" stroke-linecap="round" stroke-linejoin="round"/>
<path d="M12 5.99967V1.33301" stroke="#10A7FC" stroke-width="1.5" stroke-linecap="round" stroke-linejoin="round"/>
<path d="M8 2.66634V1.33301" stroke="#10A7FC" stroke-width="1.5" stroke-linecap="round" stroke-linejoin="round"/>
</svg>
