<svg width="2" height="2" viewBox="0 0 2 2" fill="none" xmlns="http://www.w3.org/2000/svg">
<path opacity="0.6" d="M1.99999 0.637444C1.93185 0.444816 1.88722 0.141779 1.71337 0.144128C1.53951 0.146477 1.34214 -0.135416 1.08371 0.083052C0.825269 0.30152 0.378886 0.24279 0.181534 0.569318C0.1063 0.674665 0.0527948 0.79394 0.024155 0.92018C-0.00448478 1.04642 -0.00769086 1.1771 0.0147194 1.30459L0.0382223 1.58649C0.163287 1.61233 0.292753 1.60745 0.415516 1.57226C0.538279 1.53707 0.650673 1.47263 0.743051 1.38446C1.04378 1.07908 1.12836 0.947527 1.30222 0.86061C1.4615 0.791532 1.62768 0.739559 1.79794 0.705567L1.99999 0.637444Z" fill="#A8632A"/>
</svg>
