<svg width="2" height="2" viewBox="0 0 2 2" fill="none" xmlns="http://www.w3.org/2000/svg">
<path opacity="0.6" d="M0.0171625 1.85919C0.195853 1.81894 0.368283 1.75474 0.529778 1.66832C0.687574 1.57893 0.831984 1.46775 0.958748 1.33806C1.10226 1.22367 1.23313 1.09426 1.34911 0.952038C1.42204 0.834087 1.52499 0.686109 1.5636 0.581025C1.62214 0.453097 1.67369 0.322085 1.71803 0.188569C1.72177 0.164518 1.73036 0.141479 1.74326 0.120838C1.75616 0.100197 1.77312 0.0823825 1.7931 0.0684739C1.84457 0.0255826 1.86602 -0.0494753 1.9175 0.0470302C1.96897 0.143536 2.01616 0.192861 1.99471 0.261487C1.98755 0.358312 1.95336 0.451187 1.89605 0.529558C1.78666 0.698979 1.68156 0.885553 1.57646 1.01637C1.47137 1.14719 1.12819 1.46244 1.03597 1.5761C0.901128 1.71303 0.740835 1.82231 0.564096 1.89779C0.476717 1.94876 0.375827 1.97177 0.274985 1.96372C0.174144 1.95567 0.0781824 1.91694 0 1.85276L0.0171625 1.85919Z" fill="#A8632A"/>
</svg>
