<svg width="34" height="42" viewBox="0 0 34 42" fill="none" xmlns="http://www.w3.org/2000/svg">
<path d="M26.3993 21.5601C26.3652 20.7709 25.8614 20.1193 25.1237 19.8482C24.4191 19.5901 23.7376 19.3411 23.0792 19.1021C23.0551 19.093 23.0531 19.08 23.0722 19.064C23.6021 18.596 23.8992 18.0197 23.9635 17.3359C23.9896 17.0617 23.9665 16.7796 23.8942 16.4884C23.4807 14.8175 21.5516 14.0333 20.0883 14.927C19.9177 15.0314 19.6979 15.2051 19.4299 15.4471C19.0525 15.7885 18.6671 16.1289 18.2747 16.4683C18.2626 16.4783 18.2566 16.4763 18.2546 16.4612C18.1623 15.8276 18.0699 15.2101 17.9786 14.6097C17.8662 13.8696 17.529 13.2913 16.9669 12.8726C16.5584 12.5683 16.0827 12.3986 15.5407 12.3625H15.3912C14.8281 12.3806 14.3323 12.5532 13.9048 12.8786C13.152 13.4519 12.7435 14.4129 12.9191 15.3718C12.9222 15.3849 12.9091 15.3959 12.8971 15.3909C12.3692 15.2031 11.8061 14.9973 11.2099 14.7754C10.943 14.676 10.7202 14.6127 10.5395 14.5846C10.2906 14.5464 10.0437 14.5614 9.79777 14.6287C9.32204 14.7593 8.95068 15.0294 8.68471 15.4401C8.59237 15.5827 8.48398 15.8267 8.36154 16.1721C8.12668 16.8328 7.88881 17.4894 7.64793 18.1431C7.51043 18.5157 7.67704 18.8681 8.04538 19.0017C11.1346 20.1263 14.3935 21.3132 17.8231 22.5633C17.8572 22.5753 17.8562 22.5814 17.82 22.5814C14.7328 22.5844 11.6365 22.5834 8.53116 22.5793C8.33444 22.5793 8.19192 22.5974 8.1026 22.6346C7.95907 22.6938 7.84767 22.8032 7.77039 22.9649C7.73526 23.0362 7.7182 23.223 7.7182 23.5242C7.7192 26.3528 7.72021 29.1814 7.72322 32.011C7.72422 32.4317 7.83061 32.7982 8.04238 33.1095C8.39567 33.6266 8.90049 33.9068 9.55789 33.9509H22.2883C22.4118 33.9289 22.5453 33.9269 22.6567 33.9008C22.8946 33.8435 23.0993 33.7561 23.2739 33.6386C23.846 33.25 24.1321 32.6918 24.1321 31.9638C24.1331 29.7256 24.1341 27.3669 24.1341 24.8888C24.1341 24.8697 24.1431 24.8637 24.1602 24.8707C24.3047 24.9229 24.4522 24.9782 24.6038 25.0334C24.9491 25.1589 25.3063 24.9972 25.4348 24.6488C25.7329 23.8375 26.0149 23.0603 26.2809 22.3183C26.3692 22.0662 26.4094 21.8132 26.3993 21.5601ZM14.0302 32.6647C14.0302 32.6797 14.0232 32.6878 14.0071 32.6878C12.5588 32.6868 11.1025 32.6868 9.63719 32.6878C9.24977 32.6888 8.98081 32.4006 8.98181 32.022C8.98382 29.3993 8.98379 26.6812 8.98279 23.8676C8.98279 23.8526 8.98981 23.8455 9.00386 23.8455H13.9901C14.0172 23.8455 14.0302 23.8596 14.0302 23.8857V32.6647ZM16.5554 32.6757C16.5554 32.6817 16.5504 32.6878 16.5434 32.6878H15.3059C15.2999 32.6878 15.2948 32.6827 15.2948 32.6757V23.8576C15.2948 23.8516 15.2999 23.8455 15.3059 23.8455H16.5434C16.5494 23.8455 16.5554 23.8506 16.5554 23.8576V32.6757ZM18.9331 17.5738C19.453 17.117 19.9849 16.646 20.5309 16.161C20.9304 15.8066 21.4814 15.7182 21.9511 15.9371C22.2091 16.0576 22.4028 16.2293 22.5312 16.4512C23.0592 17.3609 22.3887 18.4363 21.362 18.4143C21.2255 18.4112 20.9866 18.346 20.6463 18.2195C20.0672 18.0036 19.4971 17.7958 18.9371 17.5969C18.9281 17.5919 18.9251 17.5799 18.9331 17.5738ZM15.5779 13.6427C16.1489 13.71 16.6287 14.1397 16.718 14.7201C16.8324 15.4652 16.9398 16.1861 17.0402 16.882C17.0422 16.893 17.0322 16.9021 17.0211 16.8991C17.0131 16.8971 17.0051 16.895 16.997 16.892C16.3677 16.6581 15.7083 16.4171 15.0198 16.1681C14.6766 16.0445 14.4277 15.8257 14.2741 15.5114C13.8235 14.5896 14.5551 13.5212 15.5779 13.6427ZM14.9716 20.1694C14.9686 20.1755 14.9626 20.1785 14.9566 20.1765L9.05305 18.0277C9.04201 18.0236 9.03599 18.0116 9.04001 17.9996C9.2297 17.4885 9.4224 16.9573 9.61911 16.404C9.68536 16.2192 9.75059 16.0938 9.81784 16.0255C9.98645 15.8538 10.1832 15.7935 10.407 15.8437C10.4853 15.8618 10.5716 15.8879 10.665 15.922C12.2798 16.5135 13.9961 17.1391 15.8137 17.7988C15.8227 17.8018 15.8278 17.8128 15.8248 17.8219L14.9716 20.1694ZM17.3463 21.03C17.3433 21.038 17.3343 21.043 17.3262 21.039L16.171 20.6183C16.163 20.6153 16.158 20.6062 16.162 20.5972L17.0141 18.2536C17.0171 18.2456 17.0271 18.2405 17.0342 18.2446L18.1904 18.6653C18.1984 18.6683 18.2034 18.6783 18.1994 18.6864L17.3463 21.03ZM22.8694 31.8072C22.8694 32.013 22.8654 32.1345 22.8594 32.1727C22.8022 32.4749 22.5362 32.6867 22.2261 32.6867C20.7638 32.6877 19.3004 32.6877 17.8371 32.6867C17.8271 32.6867 17.821 32.6807 17.821 32.6707V23.8616C17.821 23.8525 17.8281 23.8455 17.8371 23.8455H21.3068C21.3319 23.8455 21.3559 23.8495 21.38 23.8586L22.8514 24.3958C22.8644 24.3998 22.8705 24.4088 22.8705 24.4229V31.8072H22.8694ZM25.0344 22.0662C24.8396 22.5814 24.65 23.1005 24.4653 23.6256C24.4633 23.6316 24.4572 23.6347 24.4502 23.6327L18.5417 21.4799C18.5336 21.4768 18.5296 21.4678 18.5326 21.4607L19.3867 19.1141C19.3897 19.1061 19.3988 19.1011 19.4068 19.1051C21.1843 19.7557 22.8986 20.3803 24.5516 20.9798C24.7463 21.05 24.8728 21.1123 24.929 21.1655C25.0795 21.3071 25.1498 21.4728 25.1417 21.6606C25.1367 21.755 25.1006 21.8895 25.0344 22.0662Z" fill="#CCCCCC"/>
<path d="M17 41.1684C7.62581 41.1684 0 33.5392 0 24.1607C0 14.7823 7.62581 7.15305 17 7.15305C26.3742 7.15305 34 14.7823 34 24.1607C33.999 33.5392 26.3732 41.1684 17 41.1684ZM17 9.74264C9.05301 9.74264 2.58842 16.2101 2.58842 24.1607C2.58842 32.1113 9.05301 38.5788 17 38.5788C24.947 38.5788 31.4116 32.1113 31.4116 24.1607C31.4116 16.2112 24.946 9.74264 17 9.74264Z" fill="#CCCCCC"/>
<path d="M17.6213 0.621566C17.6213 0.964973 17.3432 1.24307 17 1.24307C16.6567 1.24307 16.3787 0.964973 16.3787 0.621566C16.3787 0.278158 16.6567 0 17 0C17.3432 0 17.6213 0.278158 17.6213 0.621566Z" fill="#CCCCCC"/>
<path d="M25.8231 3.22153L23.9764 8.76322C21.8496 7.79827 19.484 7.27011 17.0029 7.27011C14.5138 7.27011 12.1482 7.8063 10.0124 8.76322L8.17474 3.22153C8.16671 3.20547 8.17473 3.18838 8.18276 3.17232C8.20785 3.15625 8.22392 3.13917 8.24901 3.13113C8.26507 3.1231 8.28214 3.13113 8.2982 3.13916L12.7002 7.01509C12.7996 7.09743 12.9472 7.08135 13.0134 6.97391L16.5995 1.59689C16.5995 1.58886 16.6155 1.5888 16.6246 1.5888C16.8715 1.68821 17.1194 1.68827 17.3663 1.59689C17.3823 1.58886 17.3994 1.59689 17.4074 1.60492L20.9845 6.98194C21.0587 7.08134 21.1993 7.10546 21.2976 7.01509L25.6997 3.13916C25.7157 3.13113 25.7328 3.13113 25.7489 3.13113C25.7739 3.13917 25.79 3.14722 25.8151 3.17232C25.8321 3.18939 25.8322 3.20547 25.8231 3.22153Z" fill="#CCCCCC"/>
<path d="M8.26409 2.28676C8.26409 2.63017 7.98609 2.90832 7.64284 2.90832C7.29959 2.90832 7.02158 2.63017 7.02158 2.28676C7.02158 1.94335 7.29959 1.66525 7.64284 1.66525C7.98609 1.66525 8.26409 1.94235 8.26409 2.28676Z" fill="#CCCCCC"/>
<path d="M26.9784 2.28676C26.9784 2.63017 26.7004 2.90832 26.3571 2.90832C26.0138 2.90832 25.7358 2.63017 25.7358 2.28676C25.7358 1.94335 26.0138 1.66525 26.3571 1.66525C26.7004 1.66525 26.9784 1.94235 26.9784 2.28676Z" fill="#CCCCCC"/>
<path d="M12.8388 3.11892C12.8388 3.34786 12.6531 3.53359 12.4243 3.53359C12.1954 3.53359 12.0098 3.34786 12.0098 3.11892C12.0098 2.88999 12.1954 2.7042 12.4243 2.7042C12.6531 2.7042 12.8388 2.88999 12.8388 3.11892Z" fill="#CCCCCC"/>
<path d="M21.9882 3.11892C21.9882 3.34786 21.8025 3.53359 21.5737 3.53359C21.3448 3.53359 21.1592 3.34786 21.1592 3.11892C21.1592 2.88999 21.3448 2.7042 21.5737 2.7042C21.8025 2.7042 21.9882 2.88999 21.9882 3.11892Z" fill="#CCCCCC"/>
<path d="M12.0028 3.8309C12.2447 3.98955 12.605 3.98755 12.8499 3.8309C12.8739 3.81584 12.893 3.81988 12.9091 3.84298L13.7391 5.08807C13.7512 5.10614 13.7512 5.12319 13.7391 5.14127L12.8127 6.52995C12.8067 6.53899 12.7927 6.54103 12.7846 6.534L11.1386 5.08507C11.1306 5.07804 11.1296 5.06699 11.1346 5.05896L11.9436 3.84298C11.9586 3.81988 11.9787 3.81484 12.0028 3.8309Z" fill="#CCCCCC"/>
<path d="M21.1511 3.83211C21.401 3.99478 21.7503 3.98373 21.9992 3.83211C22.0223 3.81806 22.0424 3.82207 22.0584 3.84517L22.8603 5.05116C22.8694 5.06522 22.8674 5.08528 22.8543 5.09633L21.2244 6.53122C21.2123 6.54227 21.1933 6.53925 21.1842 6.5262L20.2599 5.13947C20.2498 5.12441 20.2498 5.11035 20.2599 5.09529L21.0929 3.84517C21.1069 3.82006 21.127 3.81605 21.1511 3.83211Z" fill="#CCCCCC"/>
</svg>
