<svg width="4" height="2" viewBox="0 0 4 2" fill="none" xmlns="http://www.w3.org/2000/svg">
<g style="mix-blend-mode:lighten" opacity="0.5">
<path d="M0 1.7036C0.179952 1.35592 0.421684 1.04384 0.713389 0.782589C1.0047 0.511992 1.34591 0.300612 1.71801 0.160229C1.90592 0.092259 2.10041 0.04404 2.29832 0.0163552C2.49661 -0.00545174 2.6967 -0.00545174 2.89499 0.0163552C3.28585 0.0619326 3.66252 0.190118 3.99998 0.392389C3.63873 0.273229 3.26297 0.203564 2.88299 0.185298C2.51113 0.176365 2.14096 0.238134 1.79219 0.367319C1.61723 0.429934 1.44851 0.508754 1.28824 0.602748C1.12571 0.696344 0.969735 0.800856 0.821377 0.915563C0.520393 1.14839 0.245049 1.41256 0 1.7036Z" fill="white"/>
</g>
</svg>
