<svg width="50" height="72" viewBox="0 0 50 72" fill="none" xmlns="http://www.w3.org/2000/svg">
<path d="M49.8462 1.72123C49.4245 1.19174 48.8903 0.762653 48.2823 0.465023C47.6742 0.167392 47.0076 0.00866846 46.3307 0.0003452C45.6538 -0.00797806 44.9835 0.134308 44.3683 0.416899C43.7532 0.699489 43.2086 1.11531 42.7739 1.63427C42.3448 1.1242 41.8093 0.714134 41.2049 0.432815C40.6006 0.151496 39.942 0.00572514 39.2754 0.00572514C38.6087 0.00572514 37.9501 0.151496 37.3458 0.432815C36.7414 0.714134 36.2059 1.1242 35.7768 1.63427C35.348 1.12393 34.8127 0.713608 34.2085 0.432098C33.6043 0.150587 32.9458 0.00471188 32.2792 0.00471188C31.6126 0.00471188 30.9541 0.150587 30.3498 0.432098C29.7456 0.713608 29.2103 1.12393 28.7816 1.63427C28.3526 1.12423 27.8173 0.714191 27.2131 0.432882C26.6089 0.151572 25.9505 0.00580958 25.284 0.00580958C24.6175 0.00580958 23.9591 0.151572 23.3549 0.432882C22.7507 0.714191 22.2153 1.12423 21.7864 1.63427C21.3574 1.12423 20.8221 0.714191 20.2179 0.432882C19.6137 0.151572 18.9553 0.00580958 18.2888 0.00580958C17.6223 0.00580958 16.9639 0.151572 16.3597 0.432882C15.7555 0.714191 15.2201 1.12423 14.7912 1.63427C14.3731 1.13803 13.8541 0.73655 13.2687 0.456561C12.6833 0.176572 12.045 0.0245022 11.3963 0.0104778C10.7475 -0.00354657 10.1032 0.120798 9.50625 0.375228C8.90931 0.629659 8.37344 1.00834 7.93432 1.48604C7.49128 1.00754 6.95098 0.629357 6.3497 0.376869C5.74842 0.12438 5.10006 0.00343525 4.44817 0.0221545C3.79628 0.0408737 3.15594 0.19882 2.57014 0.485396C1.98434 0.771972 1.46664 1.18054 1.05179 1.68368H0.458813L0.52206 2.47421C0.120851 3.23958 -0.0549756 4.10305 0.0150001 4.96434C0.0849758 5.82562 0.397882 6.64939 0.917381 7.33997L6.1119 72L37.9352 68.9644C37.9352 68.9644 49.5043 3.63828 49.8462 1.72123Z" fill="#F7E8DF"/>
</svg>
