<svg width="24" height="29" viewBox="0 0 24 29" fill="none" xmlns="http://www.w3.org/2000/svg">
<g clip-path="url(#clip0_47_5750)">
<path d="M20.0095 27.84C18.4646 29.3654 16.7601 29.1276 15.1354 28.4084C13.4081 27.6747 11.829 27.6283 10.0048 28.4084C7.73304 29.406 6.52734 29.116 5.15917 27.84C-2.5653 19.749 -1.42515 7.42405 7.35394 6.96005C9.48315 7.07605 10.9739 8.15775 12.228 8.24765C14.0922 7.86195 15.8765 6.75705 17.8717 6.90205C20.2689 7.09925 22.0618 8.06205 23.2589 9.79335C18.3278 12.8093 19.4965 19.4213 24.0257 21.2773C23.1193 23.6988 21.9563 26.0913 20.0067 27.8603L20.0095 27.84ZM12.057 6.87305C11.8261 3.27705 14.6908 0.319053 17.9858 0.0290527C18.439 4.17605 14.2803 7.27905 12.057 6.87305Z" fill="black"/>
</g>
<defs>
<clipPath id="clip0_47_5750">
<rect width="24" height="29" fill="white"/>
</clipPath>
</defs>
</svg>
