<svg width="12" height="12" viewBox="0 0 12 12" fill="none" xmlns="http://www.w3.org/2000/svg">
<path d="M7.95009 1.11071C7.92742 0.960963 7.87027 0.81853 7.78316 0.694637C7.69604 0.570744 7.58133 0.468776 7.44807 0.39677C7.00405 0.180789 6.89005 -0.149181 6.56004 0.074799C6.23002 0.298779 4.57595 0.588753 4.34594 2.66257C4.34594 2.66257 4.14594 2.14061 3.28991 1.90063C2.43387 1.66066 2.40787 2.2386 1.93985 2.21661C1.47183 2.19461 1.46383 1.75065 1.05382 2.16861C0.6438 2.58657 0.0877767 2.2606 0.371788 3.03253C0.630886 3.7397 0.9906 4.40583 1.43983 5.01035C1.80385 5.47631 1.69584 5.75428 1.47984 6.19824C1.26383 6.6422 0.895805 5.95426 0.379784 6.87218C-0.136237 7.7901 -0.0202275 7.67211 0.115778 8.20006C0.251784 8.72802 0.339785 8.53003 0.869807 8.938C1.39983 9.34596 1.20182 9.15598 1.09781 9.81992C0.993809 10.4839 0.999815 11.0378 1.55384 11.3078C2.10786 11.5778 3.2939 11.1538 3.39991 10.7078C3.50591 10.2619 3.3399 10.2679 3.92193 10.5079C4.50395 10.7478 4.86797 11.0518 5.22198 10.6338C5.576 10.2159 5.33398 10.6878 5.822 10.2979C6.31002 9.90791 5.52 10.5479 6.50404 9.54394L7.49008 8.54403C7.49008 8.54403 8.18811 9.28197 8.89014 8.72402C9.59216 8.16607 10.0422 7.88409 10.0902 7.55212C10.1382 7.22016 10.0082 7.58012 9.67016 6.86618C9.33215 6.15225 9.11014 6.04226 9.55016 5.92827C9.99018 5.81428 10.2982 6.05826 10.7922 5.66629C11.2862 5.27433 11.4802 5.41231 11.3382 5.05435C11.1962 4.69638 10.3942 4.56639 10.6402 4.25442C10.8862 3.94245 10.9702 3.97445 10.9962 3.78046C11.0222 3.58648 11.6362 4.30042 11.8263 3.99445C11.9199 3.82756 11.9773 3.64277 11.9945 3.45219C12.0117 3.2616 11.9885 3.06952 11.9263 2.88855C11.8123 2.44659 12.0263 1.88864 11.9143 1.56266C11.8023 1.23669 11.8823 1.2027 11.2462 1.07071C10.6102 0.93872 10.4682 0.692742 10.2462 0.914722C10.0242 1.1367 9.78017 1.44468 9.64616 1.36268C9.51215 1.28069 10.1362 0.640748 9.64616 0.534758C9.44207 0.481883 9.22841 0.477679 9.0224 0.522488C8.81639 0.567297 8.62379 0.659865 8.46011 0.792733C8.31678 0.93647 8.14226 1.04527 7.95009 1.11071Z" fill="#D8CBA4"/>
</svg>
