<svg width="12" height="12" viewBox="0 0 12 12" fill="none" xmlns="http://www.w3.org/2000/svg">
<path d="M4.47002 8.46445L3.05501 7.04941C2.58501 6.57941 2.58501 6.10443 3.05501 5.63443L5.41502 3.27441L8.01002 5.86942C8.14002 5.99942 8.14002 6.20945 8.01002 6.33945L5.88502 8.46445C5.41502 8.93445 4.94002 8.93445 4.47002 8.46445Z" stroke="white" stroke-miterlimit="10" stroke-linecap="round" stroke-linejoin="round"/>
<path d="M4.94 2.7998L5.41499 3.26981" stroke="white" stroke-miterlimit="10" stroke-linecap="round" stroke-linejoin="round"/>
<path d="M2.72003 6.31995L8.06503 6.08496" stroke="white" stroke-miterlimit="10" stroke-linecap="round" stroke-linejoin="round"/>
<path d="M8.64999 7.40527C8.64999 7.40527 7.995 8.11523 7.995 8.55023C7.995 8.91023 8.28999 9.20526 8.64999 9.20526C9.00999 9.20526 9.30499 8.91023 9.30499 8.55023C9.29999 8.11523 8.64999 7.40527 8.64999 7.40527Z" stroke="white" stroke-linecap="round" stroke-linejoin="round"/>
<path d="M11 7.5V4.5C11 2 10 1 7.5 1H4.5C2 1 1 2 1 4.5V7.5C1 10 2 11 4.5 11H7.5C10 11 11 10 11 7.5Z" stroke="white" stroke-linecap="round" stroke-linejoin="round"/>
</svg>
