<svg width="5" height="5" viewBox="0 0 5 5" fill="none" xmlns="http://www.w3.org/2000/svg">
<path d="M3.19847 0C3.22324 0.0540369 3.56551 0.0337758 3.48895 0.551629C3.41239 1.06948 3.25026 1.40496 3.33808 1.65038C3.4259 1.89579 3.47319 1.85527 3.78845 2.08492C4.1037 2.31458 4.55632 2.37988 4.61262 2.76038C4.66892 3.14089 4.80177 3.53266 4.5901 3.80059C4.37843 4.06853 4.63738 4.55035 4.00237 4.50307C3.36735 4.45579 3.02958 4.5391 2.69631 4.37924C2.36304 4.21938 2.33601 4.40851 2.37204 4.58863C2.40807 4.76875 2.73234 4.95563 2.54994 4.99391C2.36754 5.03218 1.9532 4.88584 1.90817 4.68545C1.86313 4.48506 2.01175 4.22388 2.08156 4.03701C2.15136 3.85013 2.10407 3.54392 1.94644 3.48313C1.78882 3.42233 1.62894 3.31651 1.53211 3.48313C1.43528 3.64974 1.40151 3.78258 1.28216 3.85688C1.18045 3.90495 1.06757 3.92441 0.95564 3.91317L0.989416 3.35029L1.05923 2.81442C0.834885 2.67893 0.633462 2.5087 0.462489 2.31008C0.284594 2.06016 0.111208 1.91606 0.0526606 1.63462C-0.00588704 1.35318 -0.0869543 0.972666 0.255324 0.959156C0.597602 0.945647 1.04346 0.80605 1.11327 1.06273C1.18308 1.3194 1.15155 1.59409 1.25063 1.76971C1.34971 1.94533 1.701 2.16598 1.86538 2.11194C2.02977 2.0579 2.27972 2.05791 2.36979 1.86427C2.44518 1.70996 2.47487 1.53731 2.45536 1.36668C2.4125 1.23493 2.38898 1.09766 2.38555 0.959156C2.39907 0.842077 2.28647 0.734004 2.51841 0.569642C2.68162 0.434993 2.83795 0.292213 2.9868 0.141848L3.19847 0Z" fill="#8C5325"/>
</svg>
