<svg width="16" height="16" viewBox="0 0 16 16" fill="none" xmlns="http://www.w3.org/2000/svg">
<path d="M2.13124 8.79361C1.57084 7.84947 1.37441 6.7332 1.57885 5.65447C1.78329 4.57574 2.37454 3.60875 3.24154 2.93513C4.10854 2.2615 5.19165 1.92759 6.28745 1.99609C7.38324 2.06459 8.41633 2.5308 9.19269 3.30716C9.96905 4.08352 10.4353 5.11661 10.5038 6.2124C10.5723 7.3082 10.2383 8.39131 9.56472 9.25831C8.8911 10.1253 7.92411 10.7166 6.84538 10.921C5.76665 11.1254 4.65038 10.929 3.70624 10.3686L2.14999 10.8124C2.08587 10.8304 2.0181 10.831 1.95366 10.8142C1.88922 10.7973 1.83042 10.7636 1.78333 10.7165C1.73623 10.6694 1.70252 10.6106 1.68568 10.5462C1.66884 10.4818 1.66946 10.414 1.68749 10.3499L2.13124 8.79361Z" stroke="#10A7FC" stroke-width="1.5" stroke-linecap="round" stroke-linejoin="round"/>
<path d="M5.75626 10.9934C5.97653 11.6214 6.33356 12.1927 6.80155 12.6659C7.26953 13.1391 7.83678 13.5025 8.46233 13.7297C9.08787 13.957 9.75608 14.0424 10.4187 13.9799C11.0813 13.9174 11.7217 13.7086 12.2938 13.3684V13.3684L13.85 13.8121C13.9141 13.8301 13.9819 13.8308 14.0463 13.8139C14.1108 13.7971 14.1696 13.7634 14.2167 13.7163C14.2638 13.6692 14.2975 13.6104 14.3143 13.5459C14.3312 13.4815 14.3305 13.4137 14.3125 13.3496L13.8688 11.7934C14.2649 11.1284 14.4826 10.3723 14.5007 9.59847C14.5188 8.82463 14.3367 8.05923 13.972 7.37645C13.6074 6.69367 13.0725 6.11666 12.4193 5.70133C11.7661 5.286 11.0167 5.04644 10.2438 5.00586" stroke="#10A7FC" stroke-width="1.5" stroke-linecap="round" stroke-linejoin="round"/>
</svg>
