<svg width="300" height="178" viewBox="0 0 300 178" fill="none" xmlns="http://www.w3.org/2000/svg">
<path d="M105.276 0.00139263C147.715 -0.176597 187.092 16.6424 192.407 49.5688C197.723 82.4953 169.124 131.587 136.474 154.766C103.896 178.191 67.1213 175.643 38.8707 151.339C10.62 127.036 -8.88558 80.8468 4.11318 49.1649C17.1119 17.483 62.6898 0.120975 105.276 0.00139263Z" fill="white" fill-opacity="0.05"/>
<path d="M169.519 39.551C195.506 31.8622 225.126 24.5474 250.241 34.713C275.257 44.7101 295.539 72.3577 299.371 98.8012C303.061 125.189 290.215 150.599 268.527 164.12C246.653 177.698 215.795 179.333 181.252 175.244C146.807 171.324 108.678 161.681 94.3522 141.94C80.1695 122.254 89.7474 92.5832 105.643 73.6886C121.494 54.9069 143.718 47.1825 169.519 39.551Z" fill="white" fill-opacity="0.07"/>
</svg>
