<svg width="53" height="66" viewBox="0 0 53 66" fill="none" xmlns="http://www.w3.org/2000/svg">
<path fill-rule="evenodd" clip-rule="evenodd" d="M0 20.5832V29.2267C0 38.3349 2.39082 46.6043 8.76357 53.5144C13.668 58.8318 20.0197 62.4151 26.5 65.6591C32.9809 62.4157 39.3327 58.8318 44.2364 53.5144C50.6092 46.6043 53 38.3349 53 29.2267V20.5832C49.3514 19.3665 46.3206 17.0256 44.1881 13.9076C42.1414 10.9146 41.0905 7.37847 41.2832 3.80619C41.2043 3.78047 41.1254 3.75537 41.0459 3.73026C36.2827 2.20681 31.4292 0.920318 26.4994 0C21.5701 0.919706 16.7166 2.2062 11.9534 3.73026C11.8745 3.75537 11.795 3.78108 11.7161 3.80619C11.9083 7.37847 10.8579 10.914 8.81128 13.9076C6.6794 17.0262 3.64793 19.3665 0 20.5832Z" fill="#9E9E9E"/>
</svg>
