<svg width="34" height="41" viewBox="0 0 34 41" fill="none" xmlns="http://www.w3.org/2000/svg">
<path d="M25.8234 14.9313H25.7735C25.7495 14.9403 25.7255 14.9493 25.7005 14.9583C19.8157 17.1013 14.3159 19.1053 9.20295 20.9723C8.91202 21.0793 8.99002 21.4942 9.30495 21.4942H14.7008C14.7098 21.4942 14.7178 21.5003 14.7198 21.5093C15.0577 22.7722 15.3937 24.0292 15.7296 25.2812C15.7866 25.4952 16.0445 25.5562 16.1975 25.3902C16.9973 24.5262 17.7872 23.6722 18.568 22.8272C18.576 22.8182 18.586 22.8142 18.598 22.8142C20.2556 22.8132 21.9063 22.8132 23.5489 22.8142C23.7049 22.8142 23.8039 22.7452 23.8449 22.6082C24.3078 21.0833 25.0476 18.6233 26.0634 15.2283V15.1663C26.0334 15.0363 25.9534 14.9583 25.8234 14.9313ZM16.2595 22.5113C16.1575 23.0132 16.0585 23.5092 15.9615 23.9972C15.9545 24.0302 15.9475 24.0312 15.9385 23.9972L15.2317 21.3583C15.2297 21.3503 15.2327 21.3433 15.2397 21.3393C15.9425 20.9453 16.6574 20.5432 17.3862 20.1332C17.7112 19.9502 17.4582 19.4772 17.1033 19.6772C16.3775 20.0882 15.6356 20.5072 14.8768 20.9352C14.8488 20.9512 14.8178 20.9593 14.7848 20.9593C13.5111 20.9593 12.2063 20.9583 10.8716 20.9593C10.8616 20.9593 10.8516 20.9563 10.8426 20.9523C10.8306 20.9463 10.8306 20.9402 10.8436 20.9352C10.8576 20.9302 10.8726 20.9243 10.8876 20.9183C14.3649 19.6583 18.2421 18.2453 22.5191 16.6783C22.5231 16.6773 22.5271 16.6793 22.5281 16.6833V16.6853L22.5271 16.6843L22.5252 16.6833C22.5252 16.6833 22.5232 16.6833 22.5212 16.6843C22.5192 16.6863 22.5172 16.6883 22.5162 16.6903C22.5142 16.6933 22.5112 16.6963 22.5072 16.6983C21.0405 17.5063 19.5688 18.3173 18.0931 19.1303C17.8871 19.2443 17.8941 19.5213 18.1071 19.6172C18.2031 19.6602 18.298 19.6293 18.387 19.5803C20.0047 18.6873 21.5773 17.8213 23.104 16.9813C23.106 16.9803 23.108 16.9823 23.108 16.9823L23.109 16.9853L23.108 16.9883C20.8615 18.7683 18.615 20.5483 16.3704 22.3272C16.3115 22.3732 16.2745 22.4343 16.2595 22.5113ZM17.8411 22.8322L16.4624 24.3212C16.4544 24.3292 16.4404 24.3222 16.4424 24.3112L16.7424 22.8232C16.7434 22.8182 16.7474 22.8142 16.7534 22.8142L17.8321 22.8133C17.8421 22.8133 17.8471 22.8252 17.8411 22.8322ZM25.2766 15.9673C25.1476 16.4233 24.9956 16.9403 24.8207 17.5183C24.3418 19.0973 23.8659 20.6762 23.395 22.2552C23.39 22.2702 23.38 22.2772 23.365 22.2772C19.3418 22.2772 17.3283 22.2772 17.3283 22.2772C17.3103 22.2802 17.3073 22.2722 17.3182 22.2542C17.3262 22.2412 19.9767 20.1433 25.2686 15.9603C25.2766 15.9533 25.2796 15.9563 25.2766 15.9673Z" fill="#CCCCCC"/>
<path d="M21.6104 24.6324C21.2065 25.2954 20.8235 25.9194 20.4626 26.5054C20.4526 26.5214 20.4446 26.5204 20.4396 26.5024C20.4007 26.3624 20.3556 26.2184 20.2817 26.0914C20.0177 25.6424 19.5238 25.3784 18.9999 25.4364C18.666 25.4734 18.3881 25.6134 18.1671 25.8564C17.6152 26.4614 17.7332 27.4294 18.4361 27.8644C18.761 28.0664 19.1169 28.1164 19.5018 28.0174C19.6578 27.9784 19.8058 27.9184 19.9467 27.8394C19.9557 27.8344 19.9667 27.8414 19.9647 27.8514C19.8988 28.3054 19.7418 28.7394 19.4948 29.1534C19.4089 29.2974 19.3239 29.4344 19.2399 29.5644C19.1989 29.6284 19.1699 29.6894 19.1529 29.7474C19.1099 29.8964 19.2329 30.0623 19.3869 30.0683C19.4938 30.0723 19.5748 30.0334 19.6298 29.9504C19.8448 29.6264 20.0837 29.2414 20.2247 28.9024C20.4286 28.4104 20.5326 27.9054 20.5346 27.3864C20.5346 27.3734 20.5386 27.3614 20.5466 27.3504C20.6246 27.2414 20.7056 27.1344 20.7766 27.0184C21.2165 26.3004 21.6504 25.5924 22.0783 24.8945C22.2752 24.5735 21.8213 24.2864 21.6104 24.6324ZM19.9787 27.1714C19.7128 27.4054 19.2959 27.6044 18.9379 27.5094C18.2451 27.3244 18.1381 26.3814 18.778 26.0514C18.9859 25.9444 19.1999 25.9324 19.4198 26.0174C19.6788 26.1174 19.8418 26.3074 19.9087 26.5874C19.9507 26.7614 19.9787 26.9454 19.9927 27.1394C19.9927 27.1514 19.9877 27.1624 19.9787 27.1714Z" fill="#CCCCCC"/>
<path d="M13.852 25.4817C13.0772 26.2567 12.3114 27.0227 11.5546 27.7807C11.5426 27.7927 11.5365 27.7897 11.5385 27.7727C11.5505 27.5457 11.5625 27.3257 11.5125 27.0957C11.4356 26.7387 11.2676 26.4367 11.0067 26.1897C10.8397 26.0307 10.6317 25.9097 10.3818 25.8257C9.45199 25.5127 8.43519 26.0837 8.21224 27.0467C8.10926 27.4887 8.17826 27.9117 8.41621 28.3147C8.60217 28.6287 8.87811 28.8587 9.24404 29.0027C9.426 29.0747 9.60396 29.1147 9.77893 29.1207C10.0989 29.1337 10.4248 29.0827 10.7317 28.9767C10.7477 28.9707 10.7537 28.9767 10.7477 28.9927C10.5108 29.6597 10.1398 30.2507 9.63595 30.7657C9.47399 30.9307 9.30101 31.1026 9.11705 31.2826C9.02207 31.3756 8.9531 31.4856 9.00309 31.6206C9.07307 31.8096 9.30301 31.8506 9.44398 31.7126C9.8099 31.3556 10.1928 30.9916 10.4928 30.5926C10.9377 30.0007 11.2326 29.3556 11.4096 28.6457C11.4126 28.6327 11.4196 28.6217 11.4306 28.6137C11.5515 28.5217 11.6595 28.4287 11.7535 28.3347C12.5443 27.5447 13.3712 26.7187 14.234 25.8557C14.5079 25.5827 14.129 25.2037 13.852 25.4817ZM11.0057 27.6897C10.9927 27.8967 10.9687 28.0947 10.9357 28.2827C10.9337 28.2927 10.9277 28.3007 10.9187 28.3067C10.5088 28.5397 9.92889 28.6747 9.48898 28.5287C8.75913 28.2857 8.4562 27.3867 8.9201 26.7557C9.08207 26.5347 9.293 26.3887 9.55095 26.3177C10.1558 26.1517 10.8007 26.5087 10.9667 27.1177C11.0077 27.2647 11.0207 27.4547 11.0057 27.6897Z" fill="#CCCCCC"/>
<path d="M14.6369 30.4755C14.5529 30.5935 14.389 30.6216 14.271 30.5376L14.263 30.5315C14.145 30.4475 14.117 30.2836 14.201 30.1656L15.2388 28.7056C15.3228 28.5876 15.4868 28.5595 15.6047 28.6435L15.6127 28.6496C15.7307 28.7336 15.7587 28.8975 15.6747 29.0155L14.6369 30.4755Z" fill="#CCCCCC"/>
<path d="M8.09525 33.1917H8.04527C7.9113 33.1647 7.83132 33.0837 7.80533 32.9487V32.8977C7.82033 32.8287 7.8453 32.7767 7.88029 32.7397C8.06226 32.5458 8.24321 32.3547 8.42217 32.1647C8.48116 32.1027 8.52717 32.0637 8.56216 32.0457C8.77911 31.9367 9.01605 32.1587 8.92207 32.3827C8.90707 32.4197 8.87108 32.4677 8.81509 32.5267C8.63313 32.7207 8.44919 32.9147 8.26623 33.1087C8.22924 33.1477 8.17223 33.1757 8.09525 33.1917Z" fill="#CCCCCC"/>
<path d="M16.9344 40.9996C7.59639 40.9996 0 33.4017 0 24.0618C0 14.7219 7.59639 7.12405 16.9344 7.12405C26.2725 7.12405 33.8689 14.7219 33.8689 24.0618C33.8679 33.4017 26.2715 40.9996 16.9344 40.9996ZM16.9344 9.703C9.01809 9.703 2.57844 16.1439 2.57844 24.0618C2.57844 31.9797 9.01809 38.4206 16.9344 38.4206C24.8508 38.4206 31.2904 31.9797 31.2904 24.0618C31.2904 16.1449 24.8498 9.703 16.9344 9.703Z" fill="#CCCCCC"/>
<path d="M17.5533 0.61901C17.5533 0.961006 17.2763 1.23796 16.9344 1.23796C16.5925 1.23796 16.3155 0.961006 16.3155 0.61901C16.3155 0.277015 16.5925 0 16.9344 0C17.2763 0 17.5533 0.277015 17.5533 0.61901Z" fill="#CCCCCC"/>
<path d="M25.7235 3.20783L23.8839 8.72674C21.7653 7.76576 19.4088 7.23976 16.9373 7.23976C14.4578 7.23976 12.1013 7.77376 9.97377 8.72674L8.14316 3.20783C8.13517 3.19183 8.14316 3.17482 8.15116 3.15882C8.17615 3.14282 8.19216 3.12581 8.21715 3.11781C8.23315 3.10981 8.25016 3.1178 8.26615 3.1258L12.6512 6.9858C12.7502 7.0678 12.8972 7.05178 12.9632 6.94478L16.5354 1.58987C16.5354 1.58187 16.5514 1.58182 16.5604 1.58182C16.8063 1.68082 17.0533 1.68087 17.2992 1.58987C17.3152 1.58187 17.3322 1.58987 17.3402 1.59787L20.9035 6.95278C20.9775 7.05178 21.1174 7.0758 21.2154 6.9858L25.6005 3.1258C25.6165 3.1178 25.6335 3.11781 25.6495 3.11781C25.6745 3.12581 25.6905 3.13382 25.7154 3.15882C25.7324 3.17582 25.7325 3.19183 25.7235 3.20783Z" fill="#CCCCCC"/>
<path d="M8.23219 2.27712C8.23219 2.61911 7.95526 2.89613 7.61333 2.89613C7.27141 2.89613 6.99448 2.61911 6.99448 2.27712C6.99448 1.93512 7.27141 1.65817 7.61333 1.65817C7.95526 1.65817 8.23219 1.93412 8.23219 2.27712Z" fill="#CCCCCC"/>
<path d="M26.8742 2.27712C26.8742 2.61911 26.5973 2.89613 26.2554 2.89613C25.9134 2.89613 25.6365 2.61911 25.6365 2.27712C25.6365 1.93512 25.9134 1.65817 26.2554 1.65817C26.5973 1.65817 26.8742 1.93412 26.8742 2.27712Z" fill="#CCCCCC"/>
<path d="M12.7893 3.10583C12.7893 3.33383 12.6043 3.51879 12.3764 3.51879C12.1484 3.51879 11.9635 3.33383 11.9635 3.10583C11.9635 2.87783 12.1484 2.69281 12.3764 2.69281C12.6043 2.69281 12.7893 2.87783 12.7893 3.10583Z" fill="#CCCCCC"/>
<path d="M21.9033 3.10583C21.9033 3.33383 21.7184 3.51879 21.4904 3.51879C21.2625 3.51879 21.0775 3.33383 21.0775 3.10583C21.0775 2.87783 21.2625 2.69281 21.4904 2.69281C21.7184 2.69281 21.9033 2.87783 21.9033 3.10583Z" fill="#CCCCCC"/>
<path d="M11.9564 3.81507C12.1973 3.97306 12.5562 3.97106 12.8002 3.81507C12.8242 3.80007 12.8432 3.80409 12.8592 3.82709L13.686 5.06706C13.698 5.08506 13.698 5.10204 13.686 5.12004L12.7632 6.50302C12.7572 6.51202 12.7432 6.51405 12.7352 6.50705L11.0956 5.06407C11.0876 5.05707 11.0866 5.04607 11.0916 5.03807L11.8974 3.82709C11.9124 3.80409 11.9324 3.79907 11.9564 3.81507Z" fill="#CCCCCC"/>
<path d="M21.0695 3.81627C21.3184 3.97827 21.6664 3.96727 21.9143 3.81627C21.9373 3.80227 21.9573 3.80627 21.9733 3.82927L22.7721 5.03031C22.7811 5.04431 22.7791 5.06429 22.7661 5.07529L21.1425 6.50429C21.1305 6.51529 21.1115 6.51228 21.1025 6.49928L20.1817 5.11826C20.1717 5.10326 20.1717 5.08925 20.1817 5.07425L21.0115 3.82927C21.0255 3.80427 21.0455 3.80027 21.0695 3.81627Z" fill="#CCCCCC"/>
</svg>
