<svg width="16" height="16" viewBox="0 0 16 16" fill="none" xmlns="http://www.w3.org/2000/svg">
<path d="M8 14C11.3137 14 14 11.3137 14 8C14 4.68629 11.3137 2 8 2C4.68629 2 2 4.68629 2 8C2 11.3137 4.68629 14 8 14Z" stroke="#10A7FC" stroke-linecap="round" stroke-linejoin="round"/>
<path d="M8.0001 5.375L5.50635 7.1875L6.45635 10.125H9.54385L10.4938 7.1875L8.0001 5.375Z" stroke="#10A7FC" stroke-linecap="round" stroke-linejoin="round"/>
<path d="M8 4V5.375" stroke="#10A7FC" stroke-linecap="round" stroke-linejoin="round"/>
<path d="M10.1875 2.4126L8 4.0001L5.8125 2.4126" stroke="#10A7FC" stroke-linecap="round" stroke-linejoin="round"/>
<path d="M4.19385 6.7627L5.50635 7.1877" stroke="#10A7FC" stroke-linecap="round" stroke-linejoin="round"/>
<path d="M3.3626 4.19385L4.19385 6.7626L2.00635 8.35635" stroke="#10A7FC" stroke-linecap="round" stroke-linejoin="round"/>
<path d="M5.6499 11.2375L6.45615 10.125" stroke="#10A7FC" stroke-linecap="round" stroke-linejoin="round"/>
<path d="M2.94385 11.2373H5.6501L6.4876 13.8061" stroke="#10A7FC" stroke-linecap="round" stroke-linejoin="round"/>
<path d="M10.35 11.2375L9.5437 10.125" stroke="#10A7FC" stroke-linecap="round" stroke-linejoin="round"/>
<path d="M9.51245 13.8061L10.35 11.2373H13.0562" stroke="#10A7FC" stroke-linecap="round" stroke-linejoin="round"/>
<path d="M11.8062 6.7627L10.4937 7.1877" stroke="#10A7FC" stroke-linecap="round" stroke-linejoin="round"/>
<path d="M13.9937 8.35635L11.8062 6.7626L12.6374 4.19385" stroke="#10A7FC" stroke-linecap="round" stroke-linejoin="round"/>
</svg>
