<svg width="3" height="2" viewBox="0 0 3 2" fill="none" xmlns="http://www.w3.org/2000/svg">
<path opacity="0.6" d="M0 0.196495C0.0576902 0.153233 0.306998 -0.116639 0.628415 0.0584694C0.949832 0.233577 1.18059 0.227398 1.30009 0.451948C1.41016 0.613304 1.48977 0.793441 1.53497 0.983453C1.54106 1.11359 1.59119 1.23781 1.67714 1.33573C1.73277 1.37693 2.05419 1.54174 2.05213 1.63238C2.05007 1.72303 2.28083 1.82397 2.11394 1.90019C1.94705 1.97642 1.78016 2.0547 1.63181 1.94758C1.45199 1.84888 1.30781 1.69608 1.21974 1.51084C1.09163 1.2329 0.90545 0.985636 0.673743 0.785682C0.48831 0.653836 0.230763 0.386025 0.15659 0.332462C0.100361 0.292003 0.0479455 0.246491 0 0.196495Z" fill="#A8632A"/>
</svg>
