<svg width="1" height="2" viewBox="0 0 1 2" fill="none" xmlns="http://www.w3.org/2000/svg">
<path opacity="0.6" d="M0.388582 0C0.305594 0.0267668 -0.0129756 -1.46779e-06 0.000409564 0.136509C0.0225677 0.277936 0.0765826 0.41248 0.158361 0.529981C0.2509 0.64453 0.323314 0.773959 0.37252 0.912747C0.37252 0.990371 0.30827 1.04658 0.404643 1.22324C0.501016 1.3999 0.300238 1.24197 0.503692 1.3999C0.707146 1.55782 0.73124 1.6408 0.822259 1.58995C0.861529 1.56988 0.895985 1.54154 0.923252 1.50689C0.950518 1.47223 0.969946 1.43208 0.980202 1.3892C1.01121 1.26446 1.00563 1.13343 0.964141 1.01178C0.885548 0.899966 0.800643 0.792721 0.709828 0.690579L0.495661 0.404176L0.463538 0.171307L0.388582 0Z" fill="#A8632A"/>
</svg>
