<svg width="16" height="16" viewBox="0 0 16 16" fill="none" xmlns="http://www.w3.org/2000/svg">
<path d="M15.0438 7.61206L13.5 8.38081L11.5 4.55581L13.0625 3.77456C13.1786 3.71537 13.3134 3.70449 13.4375 3.7443C13.5616 3.7841 13.665 3.87137 13.725 3.98706L15.2625 6.93081C15.2937 6.98973 15.3128 7.0543 15.3186 7.12071C15.3245 7.18712 15.317 7.25403 15.2966 7.3175C15.2762 7.38098 15.2434 7.43974 15.1999 7.49032C15.1565 7.54091 15.1034 7.5823 15.0438 7.61206V7.61206Z" stroke="#A8A6A6" stroke-linecap="round" stroke-linejoin="round"/>
<path d="M2.5 8.31923L0.956251 7.54423C0.89681 7.5151 0.843834 7.47432 0.800473 7.4243C0.757112 7.37428 0.724251 7.31606 0.703844 7.25309C0.683436 7.19012 0.6759 7.12368 0.681681 7.05774C0.687463 6.9918 0.706446 6.92769 0.737501 6.86923L2.275 3.92548C2.33515 3.80988 2.43805 3.72232 2.56179 3.68146C2.68554 3.6406 2.82034 3.64967 2.9375 3.70673L4.5 4.48798L2.5 8.31923Z" stroke="#A8A6A6" stroke-linecap="round" stroke-linejoin="round"/>
<path d="M13.5 8.38086L12.5 9.55586L10.2 11.8559C10.1373 11.9145 10.0614 11.957 9.97864 11.9799C9.89592 12.0028 9.80889 12.0052 9.725 11.9871L6.1 11.0809C6.03378 11.0624 5.97208 11.0305 5.91875 10.9871L2.5 8.31836" stroke="#A8A6A6" stroke-linecap="round" stroke-linejoin="round"/>
<path d="M12.5 9.55664L9.74999 7.55664L8.94999 8.15664C8.6034 8.41533 8.18248 8.55509 7.74999 8.55509C7.3175 8.55509 6.89659 8.41533 6.54999 8.15664L6.21249 7.90039C6.15542 7.857 6.10822 7.80199 6.074 7.73899C6.03979 7.67598 6.01935 7.60643 6.01403 7.53494C6.00871 7.46344 6.01864 7.39163 6.04316 7.32426C6.06767 7.25689 6.10622 7.1955 6.15624 7.14414L8.60624 4.70039C8.65227 4.6546 8.70687 4.61833 8.76693 4.59366C8.82699 4.569 8.89132 4.55642 8.95624 4.55664H11.5" stroke="#A8A6A6" stroke-linecap="round" stroke-linejoin="round"/>
<path d="M4.53751 4.48812L7.74376 3.55062C7.85768 3.51795 7.97951 3.52681 8.08751 3.57562L10.25 4.55687" stroke="#A8A6A6" stroke-linecap="round" stroke-linejoin="round"/>
<path d="M7 13.3062L5.11875 12.8313C5.04209 12.8139 4.97111 12.7774 4.9125 12.725L3.5 11.5" stroke="#A8A6A6" stroke-linecap="round" stroke-linejoin="round"/>
</svg>
