<svg width="2" height="2" viewBox="0 0 2 2" fill="none" xmlns="http://www.w3.org/2000/svg">
<path opacity="0.6" d="M0.920212 0.00841619C0.736439 0.113341 0.545982 0.2061 0.350064 0.286093C0.160715 0.351304 -0.0517795 0.370234 0.0113368 0.559558C0.027561 0.639003 0.0595716 0.714381 0.105468 0.781229C0.151364 0.848077 0.21021 0.905036 0.278527 0.948725C0.44894 1.07073 0.554139 1.20326 0.631982 1.17381C0.72627 1.13017 0.81826 1.08172 0.90759 1.02866C0.90759 1.02866 0.878134 1.35051 0.73507 1.39048C0.592007 1.43045 -0.0559893 1.056 0.272215 1.51669C0.60042 1.97738 0.67616 2.03418 0.766627 1.9858C0.877944 1.93402 0.979119 1.86279 1.06538 1.77544C1.11798 1.69971 1.14743 1.37786 1.23158 1.18012C1.31574 0.982384 1.44197 0.696291 1.37465 0.538521C1.35354 0.453187 1.31161 0.374411 1.25262 0.309229C1.18997 0.212567 1.13911 0.108752 1.10114 0L0.920212 0.00841619Z" fill="white"/>
</svg>
