<svg width="16" height="16" viewBox="0 0 16 16" fill="none" xmlns="http://www.w3.org/2000/svg">
<path d="M8.43997 1.67843L8.41997 1.7251L6.48664 6.21176H4.58664C4.13331 6.21176 3.69997 6.3051 3.30664 6.47176L4.47331 3.6851L4.49997 3.61843L4.54664 3.51176C4.55997 3.47176 4.57331 3.43176 4.59331 3.39843C5.46664 1.37843 6.45331 0.918432 8.43997 1.67843Z" stroke="#10A7FC" stroke-width="1.5" stroke-linecap="round" stroke-linejoin="round"/>
<path d="M12.0334 6.34538C11.7334 6.25204 11.4134 6.21204 11.0934 6.21204H6.48669L8.42003 1.72538L8.44003 1.67871C8.54003 1.71204 8.63336 1.75871 8.73336 1.79871L10.2067 2.41871C11.0267 2.75871 11.6 3.11204 11.9467 3.53871C12.0134 3.61871 12.0667 3.69204 12.1134 3.77871C12.1734 3.87204 12.22 3.96538 12.2467 4.06538C12.2734 4.12538 12.2934 4.18538 12.3067 4.23871C12.4867 4.79871 12.38 5.48538 12.0334 6.34538Z" stroke="#10A7FC" stroke-width="1.5" stroke-linecap="round" stroke-linejoin="round"/>
<path d="M14.3478 9.46525V10.7652C14.3478 10.8986 14.3411 11.0319 14.3345 11.1652C14.2078 13.4919 12.9078 14.6652 10.4411 14.6652H5.24113C5.08113 14.6652 4.92113 14.6519 4.76779 14.6319C2.64779 14.4919 1.51446 13.3586 1.37446 11.2386C1.35446 11.0852 1.34113 10.9252 1.34113 10.7652V9.46525C1.34113 8.12525 2.15446 6.97191 3.31446 6.47191C3.71446 6.30525 4.14113 6.21191 4.59446 6.21191H11.1011C11.4278 6.21191 11.7478 6.25858 12.0411 6.34525C13.3678 6.75191 14.3478 7.99191 14.3478 9.46525Z" stroke="#10A7FC" stroke-width="1.5" stroke-linecap="round" stroke-linejoin="round"/>
<path d="M4.47331 3.68555L3.30665 6.47221C2.14665 6.97221 1.33331 8.12555 1.33331 9.46555V7.51221C1.33331 5.61888 2.67998 4.03888 4.47331 3.68555Z" stroke="#10A7FC" stroke-width="1.5" stroke-linecap="round" stroke-linejoin="round"/>
<path d="M14.3457 7.5121V9.46543C14.3457 7.99876 13.3724 6.7521 12.0391 6.3521C12.3857 5.48543 12.4857 4.80543 12.3191 4.23876C12.3057 4.17876 12.2857 4.11876 12.2591 4.06543C13.4991 4.70543 14.3457 6.01876 14.3457 7.5121Z" stroke="#10A7FC" stroke-width="1.5" stroke-linecap="round" stroke-linejoin="round"/>
</svg>
