<svg width="2" height="3" viewBox="0 0 2 3" fill="none" xmlns="http://www.w3.org/2000/svg">
<path d="M0 1.88333C0 1.88333 0.944928 1.83885 1.23095 1.29442C1.51697 0.749992 1.47036 0.523326 1.59536 0.355972C1.72036 0.188619 1.75426 -0.0338133 1.80723 0.0043178C1.8602 0.0424489 1.81782 0.372918 1.80723 0.665256C1.79664 0.957595 1.66104 0.968188 1.74579 1.23934C1.80132 1.40958 1.88748 1.56823 2.00003 1.70751C2.00003 1.70751 1.69494 1.94689 1.57629 2.05916C1.45765 2.17144 1.39409 2.33455 1.13561 2.22228C0.877134 2.11 0.802982 2.09517 0.680099 2.11212C0.557216 2.12907 0.449159 2.2138 0.317801 2.11212L0 1.88333Z" fill="#8C5325"/>
</svg>
