<svg width="14" height="14" viewBox="0 0 14 14" fill="none" xmlns="http://www.w3.org/2000/svg">
<path d="M1.06531 5.08167C0.896995 5.1352 0.743435 5.22714 0.616772 5.35022C0.49011 5.47329 0.393813 5.62414 0.33549 5.79083C0.166913 6.33966 -0.192852 6.53083 0.129911 6.86999C0.452675 7.20916 1.08176 9.0571 3.50762 8.94404C3.50762 8.94404 2.94226 9.26676 2.82097 10.2986C2.69968 11.3305 3.37193 11.2483 3.43772 11.793C3.5035 12.3378 2.98955 12.422 3.54462 12.8208C4.09969 13.2196 3.82421 13.9144 4.65887 13.4477C5.42555 13.0222 6.12694 12.4884 6.74142 11.8629C7.2122 11.3593 7.54935 11.4333 8.10031 11.6019C8.65127 11.7704 7.92556 12.3172 9.07271 12.7448C10.2199 13.1723 10.0718 13.0654 10.6475 12.8064C11.2231 12.5474 10.9867 12.4899 11.3608 11.8074C11.735 11.125 11.55 11.384 12.3332 11.384C13.1165 11.384 13.7497 11.2771 13.9614 10.5905C14.1732 9.90398 13.468 8.61926 12.9335 8.57815C12.399 8.53704 12.436 8.72615 12.6108 8.01288C12.7855 7.2996 13.0651 6.82888 12.5203 6.49588C11.9755 6.16289 12.5635 6.35816 12.0228 5.86072C11.4821 5.36328 12.3661 6.16289 11.034 5.21117L9.70179 4.26151C9.70179 4.26151 10.4254 3.32624 9.65451 2.61707C8.88358 1.90791 8.48064 1.44541 8.08798 1.44541C7.69532 1.44541 8.13526 1.5338 7.37461 2.06207C6.61396 2.59035 6.52967 2.85551 6.31792 2.3704C6.10617 1.88529 6.33437 1.48858 5.79369 0.991134C5.25301 0.493691 5.38252 0.247025 4.98986 0.473135C4.5972 0.699245 4.59926 1.64685 4.20454 1.42074C3.80982 1.19463 3.82216 1.09186 3.58779 1.09802C3.35343 1.10419 4.06885 0.275804 3.68236 0.105193C3.29587 -0.065417 2.87854 -0.0222529 2.39336 0.189468C1.90819 0.40119 1.22977 0.253191 0.870004 0.444357C0.510236 0.635523 0.45884 0.54508 0.425946 1.29947C0.393053 2.05385 0.131965 2.26146 0.425946 2.47318C0.719928 2.6849 1.11876 2.91101 1.04269 3.08984C0.966626 3.26868 0.123744 2.65613 0.0908505 3.24812C0.0579574 3.84012 0.308764 4.35401 0.604802 4.56573C0.795396 4.70062 0.952863 4.87704 1.06531 5.08167Z" fill="#D8CBA4"/>
</svg>
