<svg width="22" height="22" viewBox="0 0 22 22" fill="none" xmlns="http://www.w3.org/2000/svg">
<path d="M20.1391 16.8022C20.1391 17.1322 20.0658 17.4714 19.91 17.8014C19.7541 18.1314 19.5525 18.4431 19.2866 18.7364C18.8375 19.2314 18.3425 19.5889 17.7833 19.818C17.2333 20.0472 16.6375 20.1664 15.9958 20.1664C15.0608 20.1664 14.0617 19.9464 13.0075 19.4972C11.9533 19.0481 10.8992 18.4431 9.85417 17.6822C8.80001 16.9122 7.80085 16.0597 6.84752 15.1156C5.90336 14.1622 5.05086 13.1631 4.29003 12.1181C3.53837 11.0731 2.93337 10.0281 2.49337 8.99226C2.05337 7.94727 1.83337 6.9481 1.83337 5.99477C1.83337 5.37144 1.94337 4.77561 2.16337 4.22562C2.38337 3.66645 2.7317 3.15312 3.21754 2.69479C3.8042 2.11729 4.44586 1.83313 5.12419 1.83313C5.38086 1.83313 5.63752 1.88813 5.86669 1.99813C6.10502 2.10812 6.31585 2.27312 6.48085 2.51146L8.60751 5.50894C8.77251 5.73811 8.89168 5.94894 8.97418 6.15061C9.05668 6.34311 9.10251 6.53561 9.10251 6.70977C9.10251 6.92977 9.03834 7.14977 8.91001 7.3606C8.79084 7.57143 8.61668 7.79143 8.39668 8.01143L7.70001 8.7356C7.59918 8.83643 7.55335 8.95559 7.55335 9.10226C7.55335 9.17559 7.56252 9.23976 7.58085 9.31309C7.60835 9.38643 7.63585 9.44143 7.65418 9.49643C7.81918 9.79892 8.10335 10.1931 8.50668 10.6698C8.91918 11.1464 9.35917 11.6322 9.83584 12.1181C10.3308 12.6039 10.8075 13.0531 11.2933 13.4656C11.77 13.8689 12.1642 14.1439 12.4758 14.3089C12.5217 14.3272 12.5767 14.3547 12.6408 14.3822C12.7142 14.4097 12.7875 14.4189 12.87 14.4189C13.0258 14.4189 13.145 14.3639 13.2458 14.2631L13.9425 13.5756C14.1717 13.3464 14.3917 13.1722 14.6025 13.0622C14.8133 12.9339 15.0241 12.8697 15.2533 12.8697C15.4275 12.8697 15.6108 12.9064 15.8125 12.9889C16.0141 13.0714 16.225 13.1906 16.4541 13.3464L19.4883 15.5006C19.7266 15.6656 19.8916 15.8581 19.9925 16.0872C20.0841 16.3164 20.1391 16.5456 20.1391 16.8022Z" stroke="white" stroke-width="1.5" stroke-miterlimit="10"/>
</svg>
