<svg width="8" height="8" viewBox="0 0 8 8" fill="none" xmlns="http://www.w3.org/2000/svg">
<path opacity="0.5" d="M7.96029 0.810143C7.88015 0.896944 7.66423 0.823495 7.48393 0.825721C6.79563 0.99175 6.11652 1.19382 5.44942 1.4311C5.31809 1.49787 4.95971 1.53571 4.78164 1.82504C4.61694 2.02378 4.50787 2.26262 4.46555 2.51722C4.40545 2.8622 4.28747 3.10034 4.24295 3.28952C4.16595 3.49485 4.04949 3.68311 3.90016 3.84371C3.70423 4.03023 3.46929 4.17087 3.21234 4.25546C2.98974 4.29997 2.72263 4.36006 2.49336 4.39567C2.28562 4.4239 2.08314 4.48239 1.89235 4.56928C1.85229 4.61156 1.68756 4.62937 1.8278 4.74955C1.96803 4.86974 2.4021 5.33935 2.45107 5.38609C2.59396 5.58 2.76244 5.75369 2.95191 5.90244C3.14111 6.00705 3.14111 6.05601 3.28134 6.06046C3.42158 6.06491 3.58407 6.0805 3.73989 6.10275C3.89804 6.09325 4.05597 6.12468 4.19843 6.194C4.36218 6.28137 4.51219 6.39236 4.64362 6.5234C4.93522 6.78825 5.06655 6.88396 5.21569 7.03085C5.29805 7.10875 5.93245 7.86324 5.85677 7.90553C5.78108 7.94782 5.61859 7.88995 5.29137 7.73193C5.14223 7.68964 5.20456 7.68074 4.95748 7.7119C4.91741 7.69409 4.8818 7.77867 4.37428 7.26677C4.24551 7.14202 4.10541 7.02952 3.9558 6.9307C3.8779 6.86691 3.78658 6.82156 3.68867 6.79805C3.59076 6.77454 3.4888 6.77347 3.39042 6.79493C3.24369 6.82639 3.09196 6.82639 2.94523 6.79493C2.81612 6.77267 2.75157 6.79493 2.66253 6.73484C2.57349 6.67474 2.41322 6.65471 2.36425 6.54121C2.31528 6.4277 2.22179 6.13168 2.1884 6.04933C2.15501 5.96699 1.63637 5.82677 1.54511 5.72662C1.45384 5.62646 1.25796 5.65762 1.21789 5.61756C1.17782 5.57749 1.04872 5.34157 0.966358 5.34157C0.883998 5.34157 0.467748 5.326 0.467748 5.326C0.467748 5.326 -0.024186 5.39722 0.0225589 5.24365C0.0693037 5.09008 -0.0464455 4.62714 0.0225589 4.57595C0.151622 4.47763 0.306065 4.41818 0.467748 4.40458L0.843934 4.37787C0.843934 4.37787 0.875093 4.20649 0.8328 4.18201C0.790507 4.15753 0.761573 4.07963 0.64805 4.09966C0.525462 4.11658 0.401129 4.11658 0.278541 4.09966C0.245152 4.08408 0.133856 4.04847 0.140534 4.00841C0.140425 3.91169 0.134474 3.81507 0.122722 3.71907C0.0915592 3.3051 0.265184 3.27394 0.367578 3.23833C0.483338 3.18652 0.608095 3.1578 0.734858 3.15376C0.826122 3.15376 0.857286 3.07141 1.15334 3.0536C1.21121 3.0536 1.25573 3.10479 1.31361 3.11147C1.41541 3.15402 1.50331 3.22417 1.56737 3.31401C1.60966 3.38745 1.74099 3.48315 1.78996 3.47425C1.83893 3.46535 1.89458 3.38745 1.91016 3.33848C1.92574 3.28952 2.0593 3.20272 2.15724 3.15376C2.21583 3.12212 2.26914 3.08157 2.31528 3.03357C2.31528 3.03357 2.39319 2.01645 2.73153 1.66034C2.90738 1.47561 3.06097 1.22856 3.33031 1.16847C3.59733 1.10138 3.85687 1.00742 4.10495 0.888039C4.26744 0.803464 4.75047 0.560868 4.89515 0.491872C5.09766 0.38554 5.30831 0.295486 5.5251 0.222567C5.60746 0.222567 6.44219 0.405073 6.50897 0.402848C6.57574 0.400622 7.00758 0.454035 7.06323 0.445132C7.11888 0.43623 7.19233 0.153573 7.27246 0.102383C7.3526 0.0511927 7.49506 -0.0645414 7.60414 0.0467414C7.73438 0.196868 7.85483 0.355217 7.96474 0.520807C7.987 0.578674 8.03374 0.723342 7.96029 0.810143Z" fill="#A8632A"/>
</svg>
