<svg width="59" height="59" viewBox="0 0 59 59" fill="none" xmlns="http://www.w3.org/2000/svg">
<path d="M58.1645 29.4963C58.1645 35.1648 56.4834 40.7059 53.3338 45.4191C50.1842 50.1323 45.7075 53.8058 40.4699 55.9752C35.2323 58.1445 29.4689 58.7122 23.9086 57.6065C18.3483 56.5007 13.2407 53.7713 9.23186 49.7632C5.22298 45.7551 2.4928 40.6484 1.38655 35.0889C0.280297 29.5294 0.847663 23.7668 3.01691 18.5297C5.18615 13.2926 8.85984 8.81626 13.5734 5.66674C18.287 2.51722 23.8288 0.835965 29.498 0.835573C33.2625 0.835051 36.9903 1.57601 40.4684 3.01614C43.9464 4.45627 47.1067 6.56735 49.7687 9.22882C52.4307 11.8903 54.5423 15.05 55.9829 18.5275C57.4234 22.0051 58.1647 25.7323 58.1645 29.4963Z" stroke="#9E8B7D" stroke-width="1.66374" stroke-miterlimit="10"/>
</svg>
