<svg width="16" height="16" viewBox="0 0 16 16" fill="none" xmlns="http://www.w3.org/2000/svg">
<path d="M13 6.49989C13 10.9999 8.00002 14.4999 8.00002 14.4999C8.00002 14.4999 3 10.9999 3 6.49989C3 5.1738 3.52679 3.90203 4.46447 2.96434C5.40216 2.02666 6.67393 1.49987 8.00002 1.49987C9.3261 1.49987 10.5979 2.02666 11.5356 2.96434C12.4732 3.90203 13 5.1738 13 6.49989Z" fill="white" stroke="white" stroke-width="0.951907" stroke-linecap="round" stroke-linejoin="round"/>
<path d="M8.00001 8.50014C9.10458 8.50014 10 7.60471 10 6.50013C10 5.39556 9.10458 4.50013 8.00001 4.50013C6.89543 4.50013 6 5.39556 6 6.50013C6 7.60471 6.89543 8.50014 8.00001 8.50014Z" stroke="#222121" stroke-width="0.951907" stroke-linecap="round" stroke-linejoin="round"/>
</svg>
