<svg width="2" height="4" viewBox="0 0 2 4" fill="none" xmlns="http://www.w3.org/2000/svg">
<path opacity="0.6" d="M1.32282 0.120509L1.26943 0.138303L1.01517 0.219657L0.679543 0.982335C0.656246 1.17892 0.561179 1.35998 0.412574 1.49079C0.158315 1.74501 0.0566113 1.74501 0.0311854 2.1594C-0.00559545 2.47166 -0.00985284 2.7869 0.0184755 3.10004C0.0473364 3.2977 0.0932693 3.49248 0.15577 3.68221C0.211707 3.81695 0.183739 3.99745 0.275272 3.99999C0.366805 4.00254 0.448167 3.81441 0.488849 3.74577C0.533927 3.58699 0.541757 3.41995 0.511731 3.25766C0.493933 2.99072 0.473594 2.65514 0.481221 2.46955C0.488849 2.28397 0.404949 2.16448 0.526994 1.98653C0.593441 1.86492 0.679328 1.755 0.781253 1.66112C0.872786 1.59248 0.852446 1.66112 0.971947 1.40689C1.09145 1.15267 1.10924 1.09165 1.19569 0.880642C1.28214 0.669635 1.19569 0.626418 1.33045 0.496762C1.4652 0.367107 1.27197 0.453544 1.46012 0.369649C1.56184 0.333272 1.65711 0.280923 1.74235 0.214572C1.83134 0.145931 2.15425 0.097628 1.86948 0.0162757C1.77604 -0.00409143 1.67945 -0.00535668 1.5855 0.0125556C1.49156 0.0304678 1.40221 0.0671886 1.32282 0.120509Z" fill="#A8632A"/>
</svg>
