<svg width="2" height="2" viewBox="0 0 2 2" fill="none" xmlns="http://www.w3.org/2000/svg">
<path d="M0.631666 0.244103C0.631666 0.244103 0.631672 0.213567 0.589674 0.194479C0.442979 0.131379 0.290922 0.0815523 0.13533 0.0455965C0.13533 0.0455965 -0.109028 -0.0918345 0.0589647 0.110493C0.226957 0.312821 0.303316 0.545687 0.368223 0.591498C0.433129 0.637308 0.559127 0.862541 0.646942 0.877811C0.75282 0.907439 0.854251 0.951089 0.948556 1.0076C0.994372 1.04196 1.16238 1.21757 1.16238 1.21757C1.15319 1.31636 1.16224 1.416 1.18909 1.51152C1.25715 1.6486 1.34178 1.77681 1.44108 1.89327C1.50599 1.93908 1.54036 1.98871 1.6129 1.99252C1.6897 1.99726 1.766 1.97718 1.83053 1.93526C1.88016 1.90091 2.07106 1.84746 1.97179 1.61841C1.88908 1.36378 1.74936 1.13138 1.56326 0.938892C1.338 0.744199 1.338 0.7442 1.13182 0.587682C0.925652 0.431164 0.631666 0.259373 0.631666 0.244103Z" fill="#8C5325"/>
</svg>
