<svg width="16" height="16" viewBox="0 0 16 16" fill="none" xmlns="http://www.w3.org/2000/svg">
<path d="M8 10.5C9.38071 10.5 10.5 9.38071 10.5 8C10.5 6.61929 9.38071 5.5 8 5.5C6.61929 5.5 5.5 6.61929 5.5 8C5.5 9.38071 6.61929 10.5 8 10.5Z" stroke="#4D4D4D" stroke-linecap="round" stroke-linejoin="round"/>
<path d="M11.3188 12.9996C10.2051 13.739 8.87634 14.0853 7.54342 13.9836C6.21049 13.8819 4.94971 13.3379 3.96113 12.438C2.97255 11.5382 2.3128 10.3339 2.08656 9.01642C1.86032 7.69889 2.08055 6.34355 2.71231 5.16545C3.34407 3.98735 4.35116 3.05396 5.5738 2.5134C6.79644 1.97284 8.16458 1.85607 9.46114 2.18161C10.7577 2.50715 11.9084 3.25636 12.7307 4.31036C13.553 5.36435 13.9997 6.66277 14 7.99957C14 9.38082 13.5 10.4996 12.25 10.4996C11 10.4996 10.5 9.38082 10.5 7.99957V5.49957" stroke="#4D4D4D" stroke-linecap="round" stroke-linejoin="round"/>
</svg>
