<svg width="22" height="22" viewBox="0 0 22 22" fill="none" xmlns="http://www.w3.org/2000/svg">
<path d="M16.4812 9.88925V13.5558C16.4812 13.7942 16.472 14.0233 16.4445 14.2433C16.2337 16.7183 14.7762 17.9466 12.0905 17.9466H11.7238C11.4946 17.9466 11.2746 18.0566 11.1371 18.2399L10.0372 19.7065C9.55135 20.3574 8.76302 20.3574 8.2772 19.7065L7.17721 18.2399C7.05805 18.0841 6.79223 17.9466 6.59057 17.9466H6.22392C3.29981 17.9466 1.83317 17.2224 1.83317 13.5558V9.88925C1.83317 7.20347 3.07065 5.746 5.53643 5.53517C5.75643 5.50767 5.98559 5.4985 6.22392 5.4985H12.0905C15.0146 5.4985 16.4812 6.96514 16.4812 9.88925Z" stroke="white" stroke-width="1.33969" stroke-miterlimit="10" stroke-linecap="round" stroke-linejoin="round"/>
<path d="M20.148 6.22492V9.89151C20.148 12.5865 18.9105 14.0348 16.4447 14.2456C16.4722 14.0256 16.4814 13.7964 16.4814 13.5581V9.89151C16.4814 6.96741 15.0147 5.50076 12.0906 5.50076H6.22407C5.98574 5.50076 5.75658 5.50994 5.53658 5.53743C5.74741 3.07165 7.20488 1.83417 9.89066 1.83417H15.7572C18.6813 1.83417 20.148 3.30081 20.148 6.22492Z" stroke="white" stroke-width="1.33969" stroke-miterlimit="10" stroke-linecap="round" stroke-linejoin="round"/>
<path d="M12.3707 12.1449H12.3789" stroke="white" stroke-width="1.78626" stroke-linecap="round" stroke-linejoin="round"/>
<path d="M9.16237 12.1449H9.17062" stroke="white" stroke-width="1.78626" stroke-linecap="round" stroke-linejoin="round"/>
<path d="M5.95407 12.1449H5.96232" stroke="white" stroke-width="1.78626" stroke-linecap="round" stroke-linejoin="round"/>
</svg>
