<svg width="21" height="21" viewBox="0 0 21 21" fill="none" xmlns="http://www.w3.org/2000/svg">
<path d="M5.91476 19.2493H15.0845C17.4995 19.2493 18.462 17.7705 18.5757 15.9681L19.0307 8.74075C19.1532 6.8508 17.6482 5.24958 15.7495 5.24958C15.2158 5.24958 14.7258 4.94334 14.4808 4.47085L13.8508 3.20213C13.4483 2.4059 12.3984 1.74967 11.5059 1.74967H9.50218C8.60095 1.74967 7.55097 2.4059 7.14848 3.20213L6.51849 4.47085C6.2735 4.94334 5.78351 5.24958 5.24977 5.24958C3.35107 5.24958 1.8461 6.8508 1.9686 8.74075L2.42359 15.9681C2.52859 17.7705 3.49981 19.2493 5.91476 19.2493Z" fill="#F5FBFF" stroke="#F5FBFF" stroke-width="2" stroke-linecap="round" stroke-linejoin="round"/>
<path d="M9.18725 6.99967H11.8122H9.18725Z" fill="#F5FBFF"/>
<path d="M9.18725 6.99967H11.8122" stroke="#F5FBFF" stroke-width="2" stroke-linecap="round" stroke-linejoin="round"/>
<path d="M10.4997 15.75C12.0659 15.75 13.3434 14.4725 13.3434 12.9063C13.3434 11.3401 12.0659 10.0626 10.4997 10.0626C8.93351 10.0626 7.65604 11.3401 7.65604 12.9063C7.65604 14.4725 8.93351 15.75 10.4997 15.75Z" fill="#39748F" stroke="#39748F" stroke-linecap="round" stroke-linejoin="round"/>
</svg>
