<svg width="18" height="14" viewBox="0 0 18 14" fill="none" xmlns="http://www.w3.org/2000/svg">
<mask id="mask0_364_4959" style="mask-type:luminance" maskUnits="userSpaceOnUse" x="0" y="0" width="18" height="14">
<path d="M0 0H18V13.5H0V0Z" fill="white"/>
</mask>
<g mask="url(#mask0_364_4959)">
<path fill-rule="evenodd" clip-rule="evenodd" d="M0 0H18V13.5H0V0Z" fill="#F7FCFF"/>
<path fill-rule="evenodd" clip-rule="evenodd" d="M0 8.24996V9.37496H18V8.24996H0Z" fill="#E31D1C"/>
<path fill-rule="evenodd" clip-rule="evenodd" d="M0 10.3125V11.4375H18V10.3125H0Z" fill="#E31D1C"/>
<path fill-rule="evenodd" clip-rule="evenodd" d="M0 4.1251V5.2501H18V4.1251H0Z" fill="#E31D1C"/>
<path fill-rule="evenodd" clip-rule="evenodd" d="M0 12.3751V13.5001H18V12.3751H0Z" fill="#E31D1C"/>
<path fill-rule="evenodd" clip-rule="evenodd" d="M0 6.18741V7.31241H18V6.18741H0Z" fill="#E31D1C"/>
<path fill-rule="evenodd" clip-rule="evenodd" d="M0 0V1.125H18V0H0Z" fill="#E31D1C"/>
<path fill-rule="evenodd" clip-rule="evenodd" d="M0 2.06255V3.18755H18V2.06255H0Z" fill="#E31D1C"/>
<path d="M0 0H11.25V7.3125H0V0Z" fill="#2E42A5"/>
<path fill-rule="evenodd" clip-rule="evenodd" d="M0.968599 1.65289L0.56029 1.93913L0.698137 1.42973L0.335486 1.1069H0.809158L0.968025 0.691176L1.15431 1.1069H1.5581L1.24083 1.42973L1.36366 1.93913L0.968599 1.65289ZM3.2186 1.65289L2.81029 1.93913L2.94814 1.42973L2.58549 1.1069H3.05916L3.21803 0.691176L3.40431 1.1069H3.8081L3.49083 1.42973L3.61366 1.93913L3.2186 1.65289ZM5.06029 1.93913L5.4686 1.65289L5.86366 1.93913L5.74081 1.42973L6.05812 1.1069H5.6543L5.46802 0.691176L5.30916 1.1069H4.83549L5.19814 1.42973L5.06029 1.93913ZM7.71862 1.65289L7.3103 1.93913L7.44817 1.42973L7.08547 1.1069H7.55915L7.71805 0.691176L7.9043 1.1069H8.30812L7.99081 1.42973L8.11366 1.93913L7.71862 1.65289ZM0.56029 4.18913L0.968599 3.90289L1.36366 4.18913L1.24083 3.67973L1.5581 3.3569H1.15431L0.968025 2.94118L0.809158 3.3569H0.335486L0.698137 3.67973L0.56029 4.18913ZM3.2186 3.90289L2.81029 4.18913L2.94814 3.67973L2.58549 3.3569H3.05916L3.21803 2.94118L3.40431 3.3569H3.8081L3.49083 3.67973L3.61366 4.18913L3.2186 3.90289ZM5.06029 4.18913L5.4686 3.90289L5.86366 4.18913L5.74081 3.67973L6.05812 3.3569H5.6543L5.46802 2.94118L5.30916 3.3569H4.83549L5.19814 3.67973L5.06029 4.18913ZM7.71862 3.90289L7.3103 4.18913L7.44817 3.67973L7.08547 3.3569H7.55915L7.71805 2.94118L7.9043 3.3569H8.30812L7.99081 3.67973L8.11366 4.18913L7.71862 3.90289ZM0.56029 6.43914L0.968599 6.15288L1.36366 6.43914L1.24083 5.92974L1.5581 5.6069H1.15431L0.968025 5.19118L0.809158 5.6069H0.335486L0.698137 5.92974L0.56029 6.43914ZM3.2186 6.15288L2.81029 6.43914L2.94814 5.92974L2.58549 5.6069H3.05916L3.21803 5.19118L3.40431 5.6069H3.8081L3.49083 5.92974L3.61366 6.43914L3.2186 6.15288ZM5.06029 6.43914L5.4686 6.15288L5.86366 6.43914L5.74081 5.92974L6.05812 5.6069H5.6543L5.46802 5.19118L5.30916 5.6069H4.83549L5.19814 5.92974L5.06029 6.43914ZM7.71862 6.15288L7.3103 6.43914L7.44817 5.92974L7.08547 5.6069H7.55915L7.71805 5.19118L7.9043 5.6069H8.30812L7.99081 5.92974L8.11366 6.43914L7.71862 6.15288ZM9.5603 1.93913L9.96862 1.65289L10.3637 1.93913L10.2408 1.42973L10.5581 1.1069H10.1543L9.96805 0.691176L9.80915 1.1069H9.33547L9.69817 1.42973L9.5603 1.93913ZM9.96862 3.90289L9.5603 4.18913L9.69817 3.67973L9.33547 3.3569H9.80915L9.96805 2.94118L10.1543 3.3569H10.5581L10.2408 3.67973L10.3637 4.18913L9.96862 3.90289ZM9.5603 6.43914L9.96862 6.15288L10.3637 6.43914L10.2408 5.92974L10.5581 5.6069H10.1543L9.96805 5.19118L9.80915 5.6069H9.33547L9.69817 5.92974L9.5603 6.43914ZM2.0936 2.77789L1.68529 3.06413L1.82314 2.55473L1.46049 2.2319H1.93416L2.09302 1.81618L2.27931 2.2319H2.6831L2.36583 2.55473L2.48866 3.06413L2.0936 2.77789ZM3.93529 3.06413L4.3436 2.77789L4.73866 3.06413L4.61583 2.55473L4.9331 2.2319H4.52931L4.34303 1.81618L4.18416 2.2319H3.71049L4.07314 2.55473L3.93529 3.06413ZM6.59362 2.77789L6.1853 3.06413L6.32317 2.55473L5.96047 2.2319H6.43415L6.59305 1.81618L6.7793 2.2319H7.18312L6.86581 2.55473L6.98866 3.06413L6.59362 2.77789ZM1.68529 5.31413L2.0936 5.02789L2.48866 5.31413L2.36583 4.80473L2.6831 4.4819H2.27931L2.09302 4.06618L1.93416 4.4819H1.46049L1.82314 4.80473L1.68529 5.31413ZM4.3436 5.02789L3.93529 5.31413L4.07314 4.80473L3.71049 4.4819H4.18416L4.34303 4.06618L4.52931 4.4819H4.9331L4.61583 4.80473L4.73866 5.31413L4.3436 5.02789ZM6.1853 5.31413L6.59362 5.02789L6.98866 5.31413L6.86581 4.80473L7.18312 4.4819H6.7793L6.59305 4.06618L6.43415 4.4819H5.96047L6.32317 4.80473L6.1853 5.31413ZM8.84362 2.77789L8.4353 3.06413L8.57317 2.55473L8.21047 2.2319H8.68415L8.84305 1.81618L9.0293 2.2319H9.43312L9.11581 2.55473L9.23866 3.06413L8.84362 2.77789ZM8.4353 5.31413L8.84362 5.02789L9.23866 5.31413L9.11581 4.80473L9.43312 4.4819H9.0293L8.84305 4.06618L8.68415 4.4819H8.21047L8.57317 4.80473L8.4353 5.31413Z" fill="#F7FCFF"/>
</g>
</svg>
