<svg width="40" height="40" viewBox="0 0 40 40" fill="none" xmlns="http://www.w3.org/2000/svg">
<path d="M23.3333 26.6666C23.3333 29.6166 22.05 32.2833 20 34.0999C18.2333 35.6999 15.9 36.6666 13.3333 36.6666C7.81668 36.6666 3.33334 32.1833 3.33334 26.6666C3.33334 22.0666 6.46668 18.1666 10.7 17.0166C11.85 19.9166 14.3167 22.1499 17.3667 22.9833C18.2 23.2166 19.0833 23.3333 20 23.3333C20.9167 23.3333 21.8 23.2166 22.6333 22.9833C23.0833 24.1166 23.3333 25.3666 23.3333 26.6666Z" stroke="white" stroke-width="3" stroke-linecap="round" stroke-linejoin="round"/>
<path d="M30 13.333C30 14.633 29.75 15.883 29.3 17.0163C28.15 19.9163 25.6833 22.1497 22.6333 22.983C21.8 23.2163 20.9167 23.333 20 23.333C19.0833 23.333 18.2 23.2163 17.3667 22.983C14.3167 22.1497 11.85 19.9163 10.7 17.0163C10.25 15.883 10 14.633 10 13.333C10 7.81634 14.4833 3.33301 20 3.33301C25.5167 3.33301 30 7.81634 30 13.333Z" stroke="white" stroke-width="3" stroke-linecap="round" stroke-linejoin="round"/>
<path d="M36.6667 26.6666C36.6667 32.1833 32.1833 36.6666 26.6667 36.6666C24.1 36.6666 21.7667 35.6999 20 34.0999C22.05 32.2833 23.3333 29.6166 23.3333 26.6666C23.3333 25.3666 23.0833 24.1166 22.6333 22.9833C25.6833 22.1499 28.15 19.9166 29.3 17.0166C33.5333 18.1666 36.6667 22.0666 36.6667 26.6666Z" stroke="white" stroke-width="3" stroke-linecap="round" stroke-linejoin="round"/>
</svg>
