<svg width="10" height="10" viewBox="0 0 10 10" fill="none" xmlns="http://www.w3.org/2000/svg">
<path d="M9.35667 4.9912C9.35828 5.8531 9.10415 6.69611 8.62641 7.41354C8.14868 8.13097 7.46883 8.69058 6.67289 9.02154C5.87696 9.35249 5.00072 9.43992 4.15507 9.27276C3.30942 9.1056 2.53236 8.69137 1.92225 8.08249C1.31215 7.4736 0.896405 6.69743 0.727639 5.85221C0.558873 5.00699 0.644668 4.1307 0.974173 3.33425C1.30368 2.5378 1.86208 1.85699 2.57871 1.37797C3.29533 0.898954 4.13798 0.643264 5 0.643262C6.15421 0.64272 7.26142 1.10037 8.07834 1.91565C8.89526 2.73093 9.35504 3.83714 9.35667 4.9912Z" stroke="#9E8B7D" stroke-width="1.24548" stroke-miterlimit="10"/>
</svg>
