<svg width="1" height="1" viewBox="0 0 1 1" fill="none" xmlns="http://www.w3.org/2000/svg">
<path opacity="0.6" d="M0 0.349642C0.0753329 0.269193 0.161252 0.199351 0.255394 0.142034C0.3426 0.110893 0.425657 0.0195454 0.54401 0.0153933C0.662362 0.0112411 0.7288 -0.0282043 0.824312 0.0382303C0.850666 0.0525625 0.873134 0.0730939 0.889775 0.0980519C0.906415 0.12301 0.916733 0.151645 0.919829 0.18148C0.919829 0.18148 1.11708 0.295663 0.892835 0.27075C0.767815 0.245241 0.639463 0.240333 0.512859 0.256219C0.429805 0.270752 0.263701 0.318502 0.263701 0.318502C0.263701 0.318502 0.12043 0.411925 0.0664448 0.395316C0.0124596 0.378708 0 0.349642 0 0.349642Z" fill="#A8632A"/>
</svg>
