<svg width="3" height="2" viewBox="0 0 3 2" fill="none" xmlns="http://www.w3.org/2000/svg">
<path d="M2.99999 1.37224C2.99999 1.37224 2.14865 0.689786 1.48568 0.94173C0.822712 1.19367 0.688161 1.43094 0.453309 1.47497C0.218456 1.519 0.0178519 1.69267 0.000727283 1.61929C-0.0163974 1.54591 0.272272 1.29152 0.509571 1.04936C0.746869 0.807197 0.866742 0.897702 0.998846 0.599283C1.07974 0.40924 1.12614 0.20631 1.13585 0C1.13585 0 1.58109 0.0244583 1.7768 0.0244583C1.97251 0.0244583 2.1462 -0.0758293 2.28319 0.220144C2.42019 0.516117 2.47402 0.58216 2.59389 0.662879C2.71376 0.743599 2.87033 0.748494 2.90947 0.93684C2.94862 1.12519 2.99999 1.37224 2.99999 1.37224Z" fill="#8C5325"/>
</svg>
