<svg width="8" height="8" viewBox="0 0 8 8" fill="none" xmlns="http://www.w3.org/2000/svg">
<path d="M1.62045 3.68215C1.67617 3.64294 1.9651 3.40357 1.9651 3.40357C1.9651 3.40357 1.82064 1.92402 2.74522 1.51956C3.16609 1.35023 3.56242 1.12538 3.92366 0.850978C4.2064 0.687959 4.42723 0.399063 4.70997 0.450651C5.14448 0.488053 5.58122 0.492191 6.01636 0.463032C6.13606 0.446524 6.17734 -0.248888 6.56327 0.0957226C6.9492 0.440333 6.97603 0.574465 6.91205 0.73542C6.84807 0.896376 7.49818 1.0986 7.61169 1.80227C7.7252 2.50594 7.34132 3.93803 7.22781 4.22899C7.1143 4.51995 8.05334 5.23187 7.99762 5.9149C7.94189 6.59793 7.63645 7.38826 7.34133 7.35937C7.07373 7.29287 6.81672 7.18939 6.57772 7.0519C6.43119 6.99412 6.48485 6.81873 6.21242 7.07048C5.94 7.32223 5.7687 7.62351 5.40547 7.42747C5.04224 7.23143 4.92873 7.52446 4.53042 7.19842C4.1321 6.87238 3.65536 6.61237 3.45311 6.7011C3.25085 6.78984 2.49551 6.86412 2.35517 6.51539C2.21483 6.16665 2.05179 5.99538 1.94241 5.96442C1.83302 5.93347 1.81857 5.95204 1.66172 6.15633C1.50487 6.36062 1.45534 6.75269 0.95384 6.34618C0.452334 5.93966 0.0498935 5.90458 0.0849783 5.60949C0.120063 5.31441 -0.168871 5.09361 0.161338 4.94091C0.491547 4.78821 0.792864 4.85424 0.761907 4.75106C0.73095 4.64788 0.747458 4.52201 0.565843 4.54471C0.384228 4.56741 0.0643389 4.67471 0.0643389 4.4601C0.0643389 4.24549 -0.181257 3.89676 0.287227 3.73993C0.755712 3.5831 0.90637 3.45516 1.15815 3.61818C1.40994 3.7812 1.39756 3.79977 1.509 3.82453C1.62045 3.84929 1.62045 3.68215 1.62045 3.68215Z" fill="#D8CBA4"/>
</svg>
