<svg width="16" height="16" viewBox="0 0 16 16" fill="none" xmlns="http://www.w3.org/2000/svg">
<path d="M2.36879 12.9936L5.7313 3.73727C5.76008 3.65807 5.80842 3.58742 5.87182 3.5319C5.93522 3.47638 6.01163 3.43778 6.09394 3.4197C6.17625 3.40162 6.2618 3.40463 6.34263 3.42846C6.42347 3.4523 6.49697 3.49618 6.5563 3.55602L12.4438 9.44354C12.5037 9.50288 12.5475 9.57638 12.5714 9.65721C12.5952 9.73804 12.5982 9.82359 12.5801 9.9059C12.5621 9.98821 12.5235 10.0646 12.4679 10.128C12.4124 10.1914 12.3418 10.2398 12.2626 10.2685L3.00629 13.6311C2.91724 13.6651 2.82023 13.6726 2.727 13.6527C2.63376 13.6329 2.54827 13.5864 2.48086 13.519C2.41344 13.4516 2.36699 13.3661 2.3471 13.2728C2.32722 13.1796 2.33475 13.0826 2.36879 12.9936Z" fill="white" stroke="white" stroke-width="0.951907" stroke-linecap="round" stroke-linejoin="round"/>
<path d="M10.5 4.49988C10.5 4.49988 10.5 2.99988 12 2.99988C13.5 2.99988 13.5 1.49987 13.5 1.49987" stroke="white" stroke-width="0.951907" stroke-linecap="round" stroke-linejoin="round"/>
<path d="M6.40003 12.4004L3.60003 9.60041" stroke="#222121" stroke-width="0.951907" stroke-linecap="round" stroke-linejoin="round"/>
<path d="M9 1.00026V2.50026" stroke="white" stroke-width="0.951907" stroke-linecap="round" stroke-linejoin="round"/>
<path d="M13.5 6.99974L14.5 7.99975" stroke="white" stroke-width="0.951907" stroke-linecap="round" stroke-linejoin="round"/>
<path d="M13.5 5.00013L15 4.50013" stroke="white" stroke-width="0.951907" stroke-linecap="round" stroke-linejoin="round"/>
<path d="M4.79995 6.29956L9.69996 11.1996" stroke="#222121" stroke-width="0.951907" stroke-linecap="round" stroke-linejoin="round"/>
</svg>
