<svg width="4" height="5" viewBox="0 0 4 5" fill="none" xmlns="http://www.w3.org/2000/svg">
<path d="M0.0729229 3.83819C0.0875529 3.78386 -0.167425 3.59369 0.198324 3.27188C0.564072 2.95006 0.875483 2.81005 0.959083 2.58227C1.04268 2.35449 0.986249 2.35658 0.896379 2.00133C0.80651 1.64608 0.526454 1.33053 0.710373 1.03588C0.894293 0.741231 1.03641 0.373442 1.34782 0.308661C1.65923 0.24388 1.76582 -0.249292 2.18381 0.162381C2.60181 0.574055 2.8965 0.718246 3.03862 1.0317C3.18074 1.34516 3.31241 1.22605 3.39392 1.07559C3.47543 0.925126 3.3563 0.599133 3.50887 0.682721C3.66143 0.76631 3.86626 1.11529 3.78057 1.28456C3.69488 1.45382 3.42945 1.55204 3.26852 1.63981C3.10759 1.72758 2.9592 1.97834 3.03444 2.11627C3.10968 2.25419 3.15984 2.42345 3.33331 2.35658C3.50678 2.28971 3.60501 2.22284 3.73459 2.24165C3.8353 2.26854 3.92695 2.32195 4.00001 2.39629L3.63844 2.77661L3.26852 3.11724C3.34728 3.3467 3.3889 3.58725 3.39183 3.82983C3.36675 4.11403 3.40645 4.31882 3.27897 4.55496C3.15148 4.7911 2.98219 5.10873 2.72721 4.91857C2.47223 4.72841 2.07723 4.55496 2.17964 4.33345C2.28205 4.11194 2.47014 3.93223 2.50358 3.74833C2.53702 3.56444 2.42834 3.20292 2.27368 3.13814C2.11902 3.07335 1.94765 2.92916 1.76791 3.01066C1.62156 3.0752 1.4968 3.18036 1.40843 3.31367C1.35995 3.43319 1.29449 3.5451 1.21406 3.64594C1.13464 3.72116 1.15345 3.85491 0.885932 3.84237C0.618413 3.82983 0.392695 3.87371 0.298645 3.86536C0.204596 3.857 0.0729229 3.83819 0.0729229 3.83819Z" fill="#8C5325"/>
</svg>
