<svg width="22" height="22" viewBox="0 0 22 22" fill="none" xmlns="http://www.w3.org/2000/svg">
<path d="M15.093 0.767442H6.90698C2.81395 0.767442 0.767442 2.81395 0.767442 6.90698V20.2093C0.767442 20.7721 1.22791 21.2326 1.7907 21.2326H15.093C19.186 21.2326 21.2326 19.186 21.2326 15.093V6.90698C21.2326 2.81395 19.186 0.767442 15.093 0.767442Z" stroke="#4D4D4D" stroke-width="1.5" stroke-linecap="round" stroke-linejoin="round"/>
<path d="M11.9312 6.74341L6.62047 12.0541C6.41582 12.2588 6.22141 12.6578 6.18048 12.9443L5.89397 14.9704C5.79164 15.7071 6.30326 16.2188 7.04001 16.1164L9.06603 15.8299C9.35255 15.789 9.75164 15.5946 9.95629 15.3899L15.267 10.0792C16.1777 9.16853 16.6177 8.10434 15.267 6.75364C13.9163 5.39271 12.8521 5.82248 11.9312 6.74341Z" stroke="#4D4D4D" stroke-width="1.5" stroke-miterlimit="10" stroke-linecap="round" stroke-linejoin="round"/>
<path d="M11.174 7.50055C11.6242 9.10706 12.8828 10.3759 14.4995 10.8261" stroke="#4D4D4D" stroke-width="1.5" stroke-miterlimit="10" stroke-linecap="round" stroke-linejoin="round"/>
</svg>
