<svg width="22" height="22" viewBox="0 0 22 22" fill="none" xmlns="http://www.w3.org/2000/svg">
<path d="M10.5047 12.5865C11.9272 12.5865 13.0805 11.4332 13.0805 10.0107C13.0805 8.58811 11.9272 7.4349 10.5047 7.4349C9.08211 7.4349 7.9289 8.58811 7.9289 10.0107C7.9289 11.4332 9.08211 12.5865 10.5047 12.5865Z" stroke="white" stroke-width="1.33969" stroke-linecap="round" stroke-linejoin="round"/>
<path d="M15.2622 18.5167C15.2622 16.3809 13.1356 14.6393 10.5048 14.6393C7.87406 14.6393 5.74744 16.3718 5.74744 18.5167" stroke="white" stroke-width="1.33969" stroke-linecap="round" stroke-linejoin="round"/>
<path d="M19.2496 11.4584C19.2496 16.2708 15.3539 20.1666 10.5414 20.1666C5.72905 20.1666 1.83329 16.2708 1.83329 11.4584C1.83329 6.64601 5.72905 2.75025 10.5414 2.75025C11.7423 2.75025 12.8881 2.98857 13.933 3.42856C13.8139 3.79522 13.7497 4.18022 13.7497 4.58355C13.7497 5.27103 13.9422 5.92185 14.2814 6.47184C14.4647 6.7835 14.703 7.06764 14.978 7.30597C15.6197 7.89262 16.4722 8.25014 17.4163 8.25014C17.8196 8.25014 18.2046 8.18595 18.5621 8.05762C19.0021 9.1026 19.2496 10.2576 19.2496 11.4584Z" stroke="white" stroke-width="1.33969" stroke-linecap="round" stroke-linejoin="round"/>
<path d="M21.0829 4.58267C21.0829 4.876 21.0463 5.16016 20.9729 5.43515C20.8904 5.80181 20.7438 6.15931 20.5513 6.47097C20.1113 7.21345 19.4055 7.79092 18.5622 8.05675C18.2047 8.18508 17.8197 8.24927 17.4163 8.24927C16.4722 8.24927 15.6197 7.89175 14.9781 7.30509C14.7031 7.06676 14.4647 6.78263 14.2814 6.47097C13.9422 5.92098 13.7497 5.27016 13.7497 4.58267C13.7497 4.17935 13.8139 3.79435 13.9331 3.42769C14.1072 2.89603 14.4006 2.41941 14.7856 2.02525C15.4547 1.33776 16.3897 0.916082 17.4163 0.916082C18.498 0.916082 19.4788 1.38359 20.1388 2.13524C20.7254 2.78606 21.0829 3.64769 21.0829 4.58267Z" stroke="white" stroke-width="1.33969" stroke-miterlimit="10" stroke-linecap="round" stroke-linejoin="round"/>
<path d="M18.7822 4.56638H16.0506" stroke="white" stroke-width="1.33969" stroke-miterlimit="10" stroke-linecap="round" stroke-linejoin="round"/>
<path d="M17.4165 3.22733V5.9681" stroke="white" stroke-width="1.33969" stroke-miterlimit="10" stroke-linecap="round" stroke-linejoin="round"/>
</svg>
