<svg width="16" height="16" viewBox="0 0 16 16" fill="none" xmlns="http://www.w3.org/2000/svg">
<path d="M5.77998 9.33398H2.66665C1.93331 9.33398 1.33331 9.93398 1.33331 10.6673V14.6673H5.77998V9.33398Z" stroke="white" stroke-miterlimit="10" stroke-linecap="round" stroke-linejoin="round"/>
<path d="M8.88665 6.66602H7.10665C6.37332 6.66602 5.77332 7.26602 5.77332 7.99935V14.666H10.22V7.99935C10.22 7.26602 9.62665 6.66602 8.88665 6.66602Z" stroke="white" stroke-miterlimit="10" stroke-linecap="round" stroke-linejoin="round"/>
<path d="M13.3333 11.334H10.22V14.6673H14.6666V12.6673C14.6666 11.934 14.0666 11.334 13.3333 11.334Z" stroke="white" stroke-miterlimit="10" stroke-linecap="round" stroke-linejoin="round"/>
<path d="M8.3467 1.37988L8.70003 2.08655C8.7467 2.18655 8.87337 2.27988 8.98003 2.29321L9.62003 2.39988C10.0267 2.46655 10.1267 2.76653 9.83336 3.0532L9.33336 3.5532C9.2467 3.63987 9.20003 3.79987 9.2267 3.91321L9.3667 4.52655C9.48003 5.01322 9.22003 5.19989 8.79336 4.94655L8.19337 4.59322C8.0867 4.52655 7.9067 4.52655 7.80003 4.59322L7.20003 4.94655C6.77336 5.19989 6.51336 5.01322 6.6267 4.52655L6.7667 3.91321C6.79337 3.79987 6.7467 3.6332 6.66003 3.5532L6.1667 3.05987C5.87336 2.76654 5.9667 2.4732 6.38003 2.40653L7.02003 2.29989C7.1267 2.27989 7.25336 2.18655 7.30003 2.09322L7.65336 1.38653C7.8467 0.999868 8.15336 0.999882 8.3467 1.37988Z" stroke="white" stroke-linecap="round" stroke-linejoin="round"/>
</svg>
