<svg width="16" height="16" viewBox="0 0 16 16" fill="none" xmlns="http://www.w3.org/2000/svg">
<path d="M2.36873 12.9937L5.73123 3.73742C5.76001 3.65822 5.80835 3.58757 5.87175 3.53205C5.93515 3.47653 6.01156 3.43793 6.09387 3.41985C6.17618 3.40177 6.26173 3.40478 6.34256 3.42861C6.4234 3.45245 6.49689 3.49633 6.55623 3.55617L12.4437 9.44367C12.5036 9.50301 12.5475 9.57651 12.5713 9.65734C12.5951 9.73817 12.5981 9.82372 12.5801 9.90603C12.562 9.98834 12.5234 10.0647 12.4679 10.1281C12.4123 10.1916 12.3417 10.2399 12.2625 10.2687L3.00623 13.6312C2.91718 13.6652 2.82017 13.6727 2.72694 13.6529C2.6337 13.633 2.54821 13.5865 2.4808 13.5191C2.41339 13.4517 2.36693 13.3662 2.34704 13.273C2.32716 13.1797 2.33469 13.0827 2.36873 12.9937Z" fill="#10A7FC" stroke="#10A7FC" stroke-linecap="round" stroke-linejoin="round"/>
<path d="M10.5 4.5C10.5 4.5 10.5 3 12 3C13.5 3 13.5 1.5 13.5 1.5" stroke="#10A7FC" stroke-linecap="round" stroke-linejoin="round"/>
<path d="M6.4001 12.4001L3.6001 9.6001" stroke="white" stroke-linecap="round" stroke-linejoin="round"/>
<path d="M9 1V2.5" stroke="#10A7FC" stroke-linecap="round" stroke-linejoin="round"/>
<path d="M13.5 7L14.5 8" stroke="#10A7FC" stroke-linecap="round" stroke-linejoin="round"/>
<path d="M13.5 5L15 4.5" stroke="#10A7FC" stroke-linecap="round" stroke-linejoin="round"/>
<path d="M4.80005 6.2998L9.70005 11.1998" stroke="white" stroke-linecap="round" stroke-linejoin="round"/>
</svg>
