<svg width="12" height="12" viewBox="0 0 12 12" fill="none" xmlns="http://www.w3.org/2000/svg">
<path d="M1.77655 9.74574L4.29842 2.80356C4.32001 2.74415 4.35626 2.69117 4.40381 2.64953C4.45136 2.60788 4.50867 2.57894 4.5704 2.56538C4.63213 2.55181 4.6963 2.55407 4.75692 2.57195C4.81755 2.58982 4.87267 2.62273 4.91717 2.66762L9.3328 7.08324C9.37768 7.12774 9.41059 7.18287 9.42846 7.24349C9.44634 7.30412 9.4486 7.36828 9.43504 7.43001C9.42148 7.49175 9.39253 7.54905 9.35089 7.5966C9.30925 7.64415 9.25626 7.6804 9.19686 7.70199L2.25467 10.2239C2.18788 10.2494 2.11513 10.255 2.0452 10.2401C1.97527 10.2252 1.91116 10.1904 1.8606 10.1398C1.81004 10.0893 1.7752 10.0251 1.76028 9.95521C1.74537 9.88528 1.75102 9.81253 1.77655 9.74574Z" fill="#10A7FC" stroke="#10A7FC" stroke-linecap="round" stroke-linejoin="round"/>
<path d="M7.875 3.375C7.875 3.375 7.875 2.25 9 2.25C10.125 2.25 10.125 1.125 10.125 1.125" stroke="#10A7FC" stroke-linecap="round" stroke-linejoin="round"/>
<path d="M4.80001 9.30019L2.70001 7.2002" stroke="white" stroke-linecap="round" stroke-linejoin="round"/>
<path d="M6.75 0.75V1.875" stroke="#10A7FC" stroke-linecap="round" stroke-linejoin="round"/>
<path d="M10.125 5.25L10.875 6" stroke="#10A7FC" stroke-linecap="round" stroke-linejoin="round"/>
<path d="M10.125 3.75L11.25 3.375" stroke="#10A7FC" stroke-linecap="round" stroke-linejoin="round"/>
<path d="M3.59998 4.72461L7.27498 8.39961" stroke="white" stroke-linecap="round" stroke-linejoin="round"/>
</svg>
