<svg width="21" height="74" viewBox="0 0 21 74" fill="none" xmlns="http://www.w3.org/2000/svg">
<path d="M15.1053 5.22468C15.1467 4.58771 15.0969 3.94809 14.9571 3.32526L14.9151 2.79286L14.801 2.78085C14.4227 1.69404 13.7361 0.953485 12.9013 0.885434C12.2087 0.827391 11.5421 1.2437 11.0217 1.96024C10.6213 1.15964 10.0348 0.649257 9.3422 0.591214C8.64959 0.533171 7.98501 0.949482 7.46255 1.66802C7.0622 0.867421 6.47769 0.355037 5.78508 0.296994C5.09247 0.238951 4.42589 0.655262 3.90543 1.3738C3.50508 0.573201 2.92056 0.0608195 2.22796 0.00477765C1.53535 -0.0512642 0.826727 0.389065 0.298263 1.14963L0 1.11561L0.068059 1.51591L1.24709 8.55716L11.5702 70.1792L20.6581 74L15.1053 5.22468Z" fill="#FCF2E8"/>
</svg>
