<svg width="15" height="15" viewBox="0 0 15 15" fill="none" xmlns="http://www.w3.org/2000/svg">
<path d="M2.46676 2.81272H12.5332C12.6242 2.81275 12.7131 2.83922 12.7893 2.88891C12.8654 2.9386 12.9255 3.00937 12.9621 3.09258C12.9987 3.1758 13.0104 3.26787 12.9956 3.35759C12.9808 3.44731 12.9403 3.5308 12.8789 3.59788L9.0293 7.83424C8.94918 7.92 8.90512 8.03329 8.90625 8.15065V11.4671C8.90697 11.545 8.88801 11.6218 8.85114 11.6904C8.81427 11.759 8.76067 11.8173 8.69531 11.8597L6.8203 13.1077C6.74997 13.154 6.66845 13.1806 6.58432 13.1845C6.5002 13.1884 6.41656 13.1696 6.34222 13.13C6.26788 13.0905 6.20557 13.0316 6.16184 12.9596C6.11811 12.8876 6.09459 12.8052 6.09373 12.721V8.15065C6.09486 8.03329 6.05081 7.92 5.97069 7.83424L2.12105 3.59788C2.05968 3.5308 2.01914 3.44731 2.00437 3.35759C1.98961 3.26787 2.00126 3.1758 2.0379 3.09258C2.07454 3.00937 2.13459 2.9386 2.21073 2.88891C2.28688 2.83922 2.37583 2.81275 2.46676 2.81272V2.81272Z" stroke="white" stroke-width="1.5" stroke-linecap="round" stroke-linejoin="round"/>
</svg>
