<svg width="4" height="5" viewBox="0 0 4 5" fill="none" xmlns="http://www.w3.org/2000/svg">
<path d="M3.92129 1.03758C4.01741 1.13165 3.87016 1.43225 3.66564 1.79215C3.46113 2.15206 4.2158 2.25839 3.93766 2.69396C3.65951 3.12952 3.19525 3.75526 2.98665 3.66324C2.77804 3.57122 2.22584 4.89018 1.88634 4.78385C1.54685 4.67751 1.49982 3.80843 1.15418 3.17246C0.808548 2.5365 0.595842 1.76557 0.366783 1.53654C0.137724 1.30751 -0.185416 0.92307 0.133631 0.673592C0.452677 0.424114 0.728778 -0.123923 1.03146 0.025355C1.33415 0.174633 1.26257 0.512047 1.52844 0.810603C1.64705 0.961858 1.80591 1.07662 1.98678 1.14172C2.16765 1.20682 2.36321 1.21964 2.55102 1.17868C2.99892 1.10916 3.80881 0.931249 3.92129 1.03758Z" fill="#8C5325"/>
</svg>
