<svg width="78" height="45" viewBox="0 0 78 45" fill="none" xmlns="http://www.w3.org/2000/svg">
<path d="M7.18374 0C4.79114 6.15253 2.39656 12.3037 0 18.4536C19.8916 37.0183 50.649 26.4433 70.8083 44.4846C73.2022 38.3347 75.5995 32.1835 78 26.0309C57.8328 7.99168 27.0753 18.5666 7.18374 0ZM1.4197 18.8006C1.02313 18.4298 0.82485 18.2395 0.428287 17.8489L1.37607 15.4163C1.77264 15.8129 1.97092 15.9953 2.36748 16.366L1.4197 18.8006ZM7.09055 4.23276C6.69399 3.864 6.4957 3.67367 6.09914 3.28311L7.04494 0.848533C7.4415 1.24504 7.63979 1.42942 8.03635 1.79818L7.09055 4.23276ZM4.2234 21.136C3.80304 20.8208 3.59484 20.6582 3.18044 20.3252C3.56114 19.3517 3.7495 18.864 4.12822 17.8906C4.54263 18.2256 4.75082 18.3862 5.17118 18.7014C4.79246 19.6788 4.60211 20.1646 4.2234 21.138V21.136ZM9.89425 6.57019C9.47389 6.25496 9.26371 6.09239 8.85129 5.75734C9.23 4.78391 9.42035 4.29818 9.79907 3.32276C10.2115 3.65782 10.4197 3.82038 10.842 4.13561C10.4613 5.11102 10.273 5.59873 9.89425 6.57217V6.57019ZM7.16391 23.1206C6.72373 22.8549 6.50562 22.724 6.07336 22.4326C6.45208 21.4592 6.64045 20.9734 7.02115 20C7.4534 20.2835 7.67151 20.4203 8.1117 20.686L7.16391 23.1206ZM12.8328 8.55472C12.3946 8.28708 12.1765 8.15821 11.7422 7.86678C12.1229 6.89334 12.3113 6.40563 12.69 5.4322C13.1243 5.7157 13.3424 5.8525 13.7806 6.12015C13.4018 7.09556 13.2135 7.58129 12.8328 8.55671V8.55472ZM10.2274 24.7918C9.76933 24.5678 9.54329 24.4528 9.09319 24.2149C9.47191 23.2415 9.66028 22.7538 10.041 21.7803C10.4911 22.0183 10.7171 22.1332 11.1732 22.3573L10.2274 24.7918ZM15.8962 10.224C15.4402 10.002 15.2141 9.887 14.7621 9.64711C15.1428 8.67368 15.3311 8.18795 15.7098 7.21452C16.1619 7.45243 16.388 7.56741 16.844 7.78946L15.8962 10.224ZM13.3979 26.1796C12.926 25.9953 12.692 25.9001 12.226 25.7018L13.1738 23.2673C13.6398 23.4655 13.8738 23.5607 14.3457 23.7451C13.967 24.7205 13.7766 25.2062 13.3979 26.1796ZM19.0687 11.6138C18.5968 11.4294 18.3629 11.3323 17.8969 11.136C18.2756 10.1606 18.466 9.67487 18.8447 8.70144C19.3106 8.89969 19.5446 8.99485 20.0165 9.17923L19.0687 11.6138ZM16.6636 27.3275C16.1798 27.1749 15.9399 27.0976 15.46 26.931C15.8387 25.9576 16.0271 25.4699 16.4078 24.4964C16.8857 24.661 17.1276 24.7383 17.6114 24.893L16.6636 27.3275ZM22.3344 12.7597C21.8506 12.609 21.6087 12.5297 21.1289 12.3632C21.5096 11.3898 21.6979 10.9021 22.0767 9.92863C22.5565 10.0912 22.7984 10.1705 23.2822 10.3251L22.3344 12.7597ZM20.0106 28.2693C19.5149 28.1443 19.269 28.071 18.7773 27.9461L19.725 25.5115C20.2168 25.6463 20.4627 25.7098 20.9584 25.8347C20.5777 26.8081 20.3893 27.2958 20.0106 28.2693ZM25.6794 13.7014C25.1857 13.5785 24.9399 13.5131 24.4481 13.3783L25.3959 10.9457C25.8857 11.0785 26.1335 11.1439 26.6272 11.2688C26.2485 12.2423 26.0601 12.728 25.6794 13.7014ZM23.421 29.0424C22.9174 28.9394 22.6675 28.8858 22.1679 28.7768L23.1137 26.3422C23.6153 26.4532 23.8652 26.5048 24.3688 26.6079L23.421 29.0424ZM29.0919 14.4727C28.5882 14.3715 28.3384 14.318 27.8367 14.207L28.7845 11.7744C29.2842 11.8834 29.536 11.937 30.0397 12.0381C29.6609 13.0155 29.4706 13.5012 29.0919 14.4727ZM26.883 29.6828C26.3734 29.5976 26.1196 29.5539 25.612 29.4608L26.5598 27.0282C27.0674 27.1194 27.3212 27.163 27.8308 27.2482C27.4521 28.2237 27.2617 28.7094 26.883 29.6828ZM32.5539 15.117C32.0443 15.0297 31.7905 14.9861 31.2829 14.8949L32.2287 12.4604C32.7363 12.5516 32.9921 12.5952 33.5016 12.6824L32.5539 15.117ZM30.3827 30.23C29.8672 30.1547 29.6114 30.117 29.0998 30.0317L30.0456 27.5972C30.5592 27.6765 30.8149 27.7141 31.3305 27.7954C30.9498 28.7689 30.7614 29.2566 30.3827 30.23ZM36.0516 15.6622L34.7746 15.4639L35.7224 13.0294C36.236 13.1067 36.4917 13.1463 37.0053 13.2276C36.6206 14.201 36.4323 14.6887 36.0516 15.6622ZM33.9042 30.7177L32.6133 30.5432L33.5611 28.1087L34.8519 28.2831C34.4712 29.2566 34.2829 29.7383 33.9042 30.7177ZM39.573 16.1499L38.2842 15.9774C38.6629 15.002 38.8533 14.5163 39.232 13.5428L40.5208 13.7153C40.1421 14.6907 39.9537 15.1765 39.573 16.1499ZM37.4336 31.1836L36.1428 31.0131L37.0886 28.5785L38.3814 28.749L37.4336 31.1836ZM43.1024 16.6178L41.8096 16.4473C42.1884 15.4719 42.3787 14.9861 42.7574 14.0127L44.0482 14.1832L43.1024 16.6178ZM40.9551 31.6654L39.6682 31.485C40.0469 30.5115 40.2353 30.0258 40.616 29.0504L41.9028 29.2308C41.5261 30.2062 41.3358 30.6919 40.957 31.6654H40.9551ZM46.6259 17.0995L45.3371 16.9191C45.7178 15.9457 45.9061 15.458 46.2849 14.4845L47.5737 14.665C47.195 15.6384 47.0066 16.1261 46.6279 17.0995H46.6259ZM44.4587 32.2007C43.9471 32.1154 43.6913 32.0758 43.1798 32.0024L44.1276 29.5678C44.6391 29.6471 44.8949 29.6868 45.4065 29.7661C45.0297 30.7395 44.8394 31.2252 44.4607 32.2007H44.4587ZM50.1295 17.6328C49.618 17.5496 49.3622 17.5079 48.8506 17.4346L49.7984 15C50.31 15.0793 50.5658 15.1209 51.0773 15.1983C50.6986 16.1717 50.5102 16.6535 50.1315 17.6328H50.1295ZM47.9266 32.8232C47.423 32.7221 47.1712 32.6745 46.6636 32.5813L47.6114 30.1487C48.117 30.2399 48.3708 30.2895 48.8744 30.3886C48.4977 31.362 48.3093 31.8497 47.9286 32.8232H47.9266ZM53.5975 18.2554C53.0938 18.1562 52.84 18.1087 52.3344 18.0155C52.7131 17.042 52.9015 16.5543 53.2822 15.5809C53.7878 15.6741 54.0416 15.7217 54.5453 15.8208L53.5975 18.2554ZM51.351 33.5706C50.8533 33.4497 50.6054 33.3922 50.1057 33.2812C50.4845 32.3057 50.6728 31.82 51.0535 30.8466C51.5532 30.9576 51.8011 31.0171 52.2987 31.136C51.918 32.1174 51.7297 32.5972 51.351 33.5706ZM57.0198 19.0048C56.5241 18.8838 56.2743 18.8263 55.7746 18.7133C56.1553 17.7399 56.3437 17.2522 56.7224 16.2788C57.2221 16.3918 57.4719 16.4493 57.9676 16.5702C57.5889 17.5436 57.4005 18.0412 57.0198 19.0048ZM54.7079 34.4826C54.2221 34.3359 53.9782 34.2645 53.4884 34.1277L54.4362 31.6931C54.926 31.8299 55.1699 31.9013 55.6556 32.048L54.7079 34.4826ZM60.3787 19.9148C59.8929 19.7681 59.649 19.6967 59.1573 19.5599C59.538 18.5865 59.7264 18.1007 60.1051 17.1273C60.5948 17.2621 60.8407 17.3255 61.3265 17.4802L60.3787 19.9148ZM57.9894 35.5928C57.5155 35.4144 57.2776 35.3271 56.7997 35.1606L57.7475 32.726C58.2254 32.8926 58.4653 32.9798 58.9372 33.1582L57.9894 35.5928ZM63.6583 21.025C63.1844 20.8466 62.9465 20.7613 62.4686 20.5948C62.8473 19.6194 63.0377 19.1336 63.4164 18.1602C63.8942 18.3267 64.1322 18.412 64.6061 18.5904C64.2274 19.5658 64.037 20.0516 63.6583 21.025ZM61.1758 36.939C60.7178 36.7229 60.4858 36.6178 60.0218 36.4176C60.4005 35.4421 60.5909 34.9564 60.9696 33.983C61.4336 34.1812 61.6656 34.2883 62.1236 34.5044C61.7409 35.4877 61.5565 35.9655 61.1758 36.939ZM66.8467 22.3711C66.3886 22.1551 66.1566 22.052 65.6927 21.8497C66.0714 20.8763 66.2597 20.3886 66.6404 19.4152C67.1044 19.6134 67.3344 19.7205 67.7944 19.9366C67.4157 20.912 67.2254 21.3977 66.8467 22.3711ZM64.2591 38.5587C63.8169 38.299 63.5929 38.1741 63.1447 37.9322L64.0925 35.4976C64.5406 35.7395 64.7647 35.8644 65.2069 36.1241L64.2591 38.5587ZM69.9299 23.9889C69.4858 23.7312 69.2637 23.6063 68.8156 23.3624L69.7614 20.9278C70.2115 21.1717 70.4336 21.2966 70.8757 21.5543L69.9299 23.9889ZM67.2214 40.4858C66.7971 40.1785 66.5829 40.0298 66.1527 39.7403C66.5314 38.7669 66.7198 38.2812 67.1005 37.3077C67.5307 37.5952 67.7449 37.7439 68.1672 38.0512L67.2214 40.4858ZM72.8903 25.9179C72.466 25.6106 72.2538 25.462 71.8215 25.1745L72.7693 22.7399C73.2016 23.0274 73.4137 23.1761 73.8381 23.4834L72.8903 25.9179ZM70.0469 42.7597C69.6504 42.4009 69.4402 42.2245 69.0297 41.8854L69.9775 39.4528C70.388 39.7938 70.5922 39.9683 70.9947 40.3272C70.616 41.3026 70.4256 41.7883 70.0469 42.7617V42.7597ZM75.7178 28.1939C75.3212 27.8331 75.111 27.6586 74.7006 27.3176L75.6464 24.883C76.0588 25.224 76.2611 25.3985 76.6656 25.7593C76.2868 26.7348 76.0965 27.2205 75.7178 28.1959V28.1939Z" fill="#F9F1D2"/>
</svg>
