<svg width="2" height="3" viewBox="0 0 2 3" fill="none" xmlns="http://www.w3.org/2000/svg">
<path opacity="0.6" d="M1.99999 0C1.9629 0.0979999 1.98675 0.529729 1.71655 0.794593C1.44635 1.05946 1.30595 1.32432 1.43311 1.58919C1.58499 1.81737 1.6703 2.08335 1.67946 2.35729C1.63444 2.56977 1.56879 2.77735 1.48344 2.97707C1.27743 2.79412 1.08939 2.5919 0.921852 2.37318C0.77134 2.14485 0.593415 1.93581 0.392054 1.75075C0.268472 1.67563 0.136994 1.61435 0 1.568L0.206621 1.16011C0.206621 1.16011 0.34172 1.24221 1.00132 0.791942C1.66092 0.341673 1.62913 0.360218 1.65033 0.341677C1.67152 0.323137 1.99999 0 1.99999 0Z" fill="white"/>
</svg>
