<svg width="16" height="16" viewBox="0 0 16 16" fill="none" xmlns="http://www.w3.org/2000/svg">
<path d="M14.6667 5.67967V2.65301C14.6667 1.71301 14.24 1.33301 13.18 1.33301H10.4867C9.42667 1.33301 9 1.71301 9 2.65301V5.67301C9 6.61967 9.42667 6.99301 10.4867 6.99301H13.18C14.24 6.99967 14.6667 6.61967 14.6667 5.67967Z" stroke="white" stroke-width="1.5" stroke-linecap="round" stroke-linejoin="round"/>
<path d="M14.6667 13.18V10.4867C14.6667 9.42667 14.24 9 13.18 9H10.4867C9.42667 9 9 9.42667 9 10.4867V13.18C9 14.24 9.42667 14.6667 10.4867 14.6667H13.18C14.24 14.6667 14.6667 14.24 14.6667 13.18Z" stroke="white" stroke-width="1.5" stroke-linecap="round" stroke-linejoin="round"/>
<path d="M7.00004 5.67967V2.65301C7.00004 1.71301 6.57337 1.33301 5.51337 1.33301H2.82004C1.76004 1.33301 1.33337 1.71301 1.33337 2.65301V5.67301C1.33337 6.61967 1.76004 6.99301 2.82004 6.99301H5.51337C6.57337 6.99967 7.00004 6.61967 7.00004 5.67967Z" stroke="white" stroke-width="1.5" stroke-linecap="round" stroke-linejoin="round"/>
<path d="M7.00004 13.18V10.4867C7.00004 9.42667 6.57337 9 5.51337 9H2.82004C1.76004 9 1.33337 9.42667 1.33337 10.4867V13.18C1.33337 14.24 1.76004 14.6667 2.82004 14.6667H5.51337C6.57337 14.6667 7.00004 14.24 7.00004 13.18Z" stroke="white" stroke-width="1.5" stroke-linecap="round" stroke-linejoin="round"/>
</svg>
