<svg width="16" height="16" viewBox="0 0 16 16" fill="none" xmlns="http://www.w3.org/2000/svg">
<path d="M6 14H10" stroke="#4D4D4D" stroke-width="1.5" stroke-linecap="round" stroke-linejoin="round"/>
<path d="M3.5125 6.50007C3.51167 5.90731 3.62812 5.32024 3.85514 4.77267C4.08217 4.2251 4.41528 3.72786 4.8353 3.30959C5.25532 2.89131 5.75394 2.56027 6.30244 2.33552C6.85095 2.11078 7.4385 1.99677 8.03125 2.00007C10.5063 2.01882 12.4875 4.07507 12.4875 6.55632V7.00007C12.4875 9.23757 12.9563 10.5376 13.3688 11.2501C13.4126 11.3259 13.4357 11.412 13.4357 11.4996C13.4358 11.5872 13.4129 11.6734 13.3692 11.7493C13.3255 11.8253 13.2626 11.8884 13.1869 11.9324C13.1111 11.9764 13.0251 11.9998 12.9375 12.0001H3.0625C2.97488 11.9998 2.88888 11.9764 2.81312 11.9324C2.73735 11.8884 2.67448 11.8253 2.63081 11.7493C2.58713 11.6734 2.56418 11.5872 2.56426 11.4996C2.56434 11.412 2.58744 11.3259 2.63125 11.2501C3.04375 10.5376 3.5125 9.23757 3.5125 7.00007V6.50007Z" stroke="#4D4D4D" stroke-width="1.5" stroke-linecap="round" stroke-linejoin="round"/>
</svg>
