<svg width="16" height="16" viewBox="0 0 16 16" fill="none" xmlns="http://www.w3.org/2000/svg">
<path d="M4 6.66699H6" stroke="#F5FBFF" stroke-linecap="round" stroke-linejoin="round"/>
<path d="M4.50659 14.6668H11.4933C13.3333 14.6668 14.0666 13.5402 14.1533 12.1668L14.4999 6.66017C14.5399 6.04017 14.3466 5.46017 14.0066 5.00684" stroke="#F5FBFF" stroke-linecap="round" stroke-linejoin="round"/>
<path d="M11.9999 3.99967C11.5933 3.99967 11.2199 3.76634 11.0333 3.40634L10.5533 2.43967C10.2466 1.83301 9.44662 1.33301 8.76662 1.33301H7.23995C6.55328 1.33301 5.75328 1.83301 5.44662 2.43967L4.96662 3.40634C4.77995 3.76634 4.40662 3.99967 3.99995 3.99967C2.55328 3.99967 1.40662 5.21967 1.49995 6.65967L1.84662 12.1663C1.87995 12.713 2.01995 13.2263 2.29328 13.6397" stroke="#F5FBFF" stroke-linecap="round" stroke-linejoin="round"/>
<path d="M6.66675 11.5397C7.03341 11.8264 7.50008 11.9997 8.00008 11.9997C9.19341 11.9997 10.1667 11.0264 10.1667 9.83302C10.1667 9.40635 10.0467 9.01302 9.83342 8.67969" stroke="#F5FBFF" stroke-linecap="round" stroke-linejoin="round"/>
<path d="M14.6666 1.33301L1.33325 14.6663" stroke="#F5FBFF" stroke-linecap="round" stroke-linejoin="round"/>
</svg>
