<svg width="12" height="12" viewBox="0 0 12 12" fill="none" xmlns="http://www.w3.org/2000/svg">
<path d="M1.77661 9.74574L4.29848 2.80356C4.32007 2.74415 4.35632 2.69117 4.40387 2.64953C4.45142 2.60788 4.50873 2.57894 4.57046 2.56538C4.6322 2.55181 4.69636 2.55407 4.75698 2.57195C4.81761 2.58982 4.87273 2.62273 4.91723 2.66762L9.33286 7.08324C9.37774 7.12774 9.41065 7.18287 9.42853 7.24349C9.4464 7.30412 9.44866 7.36828 9.4351 7.43001C9.42154 7.49175 9.39259 7.54905 9.35095 7.5966C9.30931 7.64415 9.25632 7.6804 9.19692 7.70199L2.25473 10.2239C2.18794 10.2494 2.11519 10.255 2.04526 10.2401C1.97533 10.2252 1.91122 10.1904 1.86066 10.1398C1.8101 10.0893 1.77526 10.0251 1.76034 9.95521C1.74543 9.88528 1.75108 9.81253 1.77661 9.74574Z" fill="#10A7FC" stroke="#10A7FC" stroke-linecap="round" stroke-linejoin="round"/>
<path d="M7.875 3.375C7.875 3.375 7.875 2.25 9 2.25C10.125 2.25 10.125 1.125 10.125 1.125" stroke="#10A7FC" stroke-linecap="round" stroke-linejoin="round"/>
<path d="M4.79995 9.29922L2.69995 7.19922" stroke="#EEFFD0" stroke-linecap="round" stroke-linejoin="round"/>
<path d="M6.75 0.75V1.875" stroke="#10A7FC" stroke-linecap="round" stroke-linejoin="round"/>
<path d="M10.125 5.25L10.875 6" stroke="#10A7FC" stroke-linecap="round" stroke-linejoin="round"/>
<path d="M10.125 3.75L11.25 3.375" stroke="#10A7FC" stroke-linecap="round" stroke-linejoin="round"/>
<path d="M3.59998 4.72461L7.27498 8.39961" stroke="#EEFFD0" stroke-linecap="round" stroke-linejoin="round"/>
</svg>
