<svg width="43" height="43" viewBox="0 0 43 43" fill="none" xmlns="http://www.w3.org/2000/svg">
<g style="mix-blend-mode:soft-light" opacity="0.3">
<path opacity="0.8" d="M42.7922 21.4952C42.7926 25.706 41.5441 29.8224 39.2047 33.3237C36.8652 36.825 33.5398 39.5541 29.6491 41.1657C25.7584 42.7772 21.4771 43.199 17.3466 42.3776C13.2161 41.5562 9.42203 39.5286 6.44414 36.5511C3.46625 33.5736 1.43833 29.78 0.616825 25.6501C-0.204676 21.5201 0.217147 17.2394 1.82895 13.3492C3.44075 9.45895 6.17014 6.13402 9.67193 3.79486C13.1737 1.4557 17.2906 0.20738 21.502 0.207773C24.2979 0.207512 27.0665 0.757951 29.6497 1.82765C32.2329 2.89735 34.58 4.46536 36.557 6.44213C38.5341 8.4189 40.1023 10.7657 41.1721 13.3485C42.242 15.9314 42.7925 18.6996 42.7922 21.4952Z" stroke="#2D2D2D" stroke-width="0.413611" stroke-miterlimit="10"/>
<path opacity="0.8" d="M40.9574 21.4954C40.9574 25.3436 39.8161 29.1054 37.6778 32.305C35.5396 35.5047 32.5005 37.9985 28.9447 39.4712C25.389 40.9438 21.4763 41.3291 17.7016 40.5784C13.9268 39.8277 10.4595 37.9746 7.73801 35.2535C5.01656 32.5324 3.16323 29.0655 2.41238 25.2912C1.66154 21.517 2.0469 17.6048 3.51973 14.0495C4.99257 10.4943 7.48674 7.45551 10.6868 5.31756C13.8869 3.17961 17.6492 2.03848 21.4979 2.03848C26.6589 2.03848 31.6085 4.0884 35.2578 7.73727C38.9072 11.3861 40.9574 16.3351 40.9574 21.4954Z" stroke="#2D2D2D" stroke-width="1.66374" stroke-miterlimit="10"/>
<path opacity="0.8" d="M38.531 21.4954C38.531 24.8629 37.5322 28.1549 35.6611 30.9549C33.7899 33.755 31.1303 35.9373 28.0187 37.226C24.907 38.5147 21.4831 38.8519 18.1798 38.1949C14.8765 37.538 11.8422 35.9163 9.46065 33.5351C7.0791 31.1539 5.45724 28.12 4.80018 24.8171C4.14311 21.5142 4.48034 18.0907 5.76922 14.9795C7.05811 11.8683 9.24076 9.20904 12.0412 7.33812C14.8416 5.46719 18.134 4.46859 21.502 4.46859C23.7383 4.46833 25.9528 4.90856 28.019 5.76415C30.0852 6.61973 31.9625 7.8739 33.5439 9.45503C35.1252 11.0362 36.3795 12.9133 37.2352 14.9792C38.0909 17.0451 38.5312 19.2593 38.531 21.4954Z" stroke="#2D2D2D" stroke-width="1.45461" stroke-miterlimit="10"/>
<path opacity="0.8" d="M35.8357 24.8952C37.7103 16.9848 32.8164 9.05266 24.9049 7.17833C16.9934 5.304 9.0602 10.1972 7.18563 18.1077C5.31106 26.0182 10.2049 33.9503 18.1164 35.8246C26.0279 37.699 33.9611 32.8057 35.8357 24.8952Z" stroke="#2D2D2D" stroke-width="0.831868" stroke-miterlimit="10"/>
<path opacity="0.8" d="M34.0949 21.4953C34.0949 23.9853 33.3564 26.4193 31.9729 28.4896C30.5894 30.5599 28.6229 32.1735 26.3222 33.1264C24.0215 34.0793 21.4898 34.3286 19.0474 33.8428C16.605 33.357 14.3615 32.158 12.6006 30.3974C10.8397 28.6367 9.64051 26.3935 9.15468 23.9514C8.66886 21.5093 8.9182 18.978 9.87119 16.6776C10.8242 14.3771 12.438 12.4109 14.5086 11.0276C16.5792 9.64426 19.0135 8.90591 21.5038 8.90591C24.8432 8.90591 28.0457 10.2323 30.407 12.5933C32.7683 14.9542 34.0949 18.1564 34.0949 21.4953Z" stroke="#2D2D2D" stroke-width="0.413611" stroke-miterlimit="10"/>
</g>
</svg>
