<svg width="59" height="76" viewBox="0 0 59 76" fill="none" xmlns="http://www.w3.org/2000/svg">
<path fill-rule="evenodd" clip-rule="evenodd" d="M12.6527 4.53778C12.9909 4.42257 13.329 4.30858 13.6678 4.19645C18.8165 2.48484 24.0729 1.04187 29.4033 0.0184831L29.5 0L29.5973 0.0184831C34.9271 1.04187 40.1841 2.48484 45.3328 4.19645C45.6716 4.3092 46.0097 4.42318 46.3473 4.53778L46.7335 4.66902L46.6934 5.07505C46.3122 8.93264 47.3223 12.7372 49.4498 15.9707C51.6432 19.3052 54.8066 21.7506 58.6329 22.8966L59 23.0062V33.6154C59 43.986 56.344 53.4054 49.3654 61.2703C43.9463 67.3774 36.9985 71.4179 29.8301 75.1289L29.5 75.3002L29.1698 75.1289C22.0015 71.4173 15.0537 67.3768 9.63397 61.2703C2.65533 53.406 0 43.986 0 33.6154V23.0075L0.367098 22.8978C4.19334 21.7518 7.35682 19.3064 9.5502 15.9719C11.6777 12.7385 12.6878 8.93325 12.3065 5.07628L12.2665 4.67026L12.6527 4.53778Z" fill="#666666"/>
</svg>
