<svg width="44" height="44" viewBox="0 0 44 44" fill="none" xmlns="http://www.w3.org/2000/svg">
<path d="M44 21.9971C44 26.3477 42.7097 30.6006 40.2923 34.2181C37.8749 37.8355 34.439 40.6549 30.419 42.3198C26.3991 43.9847 21.9756 44.4203 17.708 43.5716C13.4404 42.7228 9.52041 40.6278 6.44366 37.5514C3.36691 34.4751 1.27161 30.5556 0.422734 26.2885C-0.42614 22.0215 0.00953056 17.5986 1.67466 13.5792C3.33979 9.55974 6.15958 6.12426 9.77746 3.70718C13.3953 1.29011 17.6488 0 22 0C27.8348 0 33.4306 2.31755 37.5563 6.44281C41.6821 10.5681 44 16.1631 44 21.9971Z" fill="#4C4139"/>
</svg>
