<svg width="17" height="16" viewBox="0 0 17 16" fill="none" xmlns="http://www.w3.org/2000/svg">
<path d="M14.75 4.95345V8.95345C14.75 9.95345 14.4166 10.7868 13.83 11.3735C13.25 11.9535 12.4166 12.2868 11.4166 12.2868V13.7068C11.4166 14.2401 10.8233 14.5601 10.3833 14.2668L7.41663 12.2868H6.0033C6.05663 12.0868 6.08329 11.8801 6.08329 11.6668C6.08329 10.9868 5.82329 10.3601 5.39663 9.8868C4.91663 9.34013 4.20329 9.00012 3.41663 9.00012C2.66996 9.00012 1.98996 9.3068 1.5033 9.8068C1.4433 9.54014 1.41663 9.25345 1.41663 8.95345V4.95345C1.41663 2.95345 2.74996 1.62012 4.74996 1.62012H11.4166C13.4166 1.62012 14.75 2.95345 14.75 4.95345Z" stroke="#10A7FC" stroke-width="1.5" stroke-miterlimit="10" stroke-linecap="round" stroke-linejoin="round"/>
<path d="M6.08333 11.6667C6.08333 12.4667 5.73001 13.18 5.17668 13.6667C4.70334 14.08 4.09 14.3333 3.41667 14.3333C1.94333 14.3333 0.75 13.14 0.75 11.6667C0.75 10.8267 1.13667 10.0733 1.75 9.58667C2.21 9.22 2.79 9 3.41667 9C4.89 9 6.08333 10.1933 6.08333 11.6667Z" stroke="#10A7FC" stroke-width="1.5" stroke-miterlimit="10" stroke-linecap="round" stroke-linejoin="round"/>
<path d="M3.58333 10.833V11.833L2.75 12.333" stroke="#10A7FC" stroke-width="1.5" stroke-miterlimit="10" stroke-linecap="round" stroke-linejoin="round"/>
<path d="M5.75 7H10.4167" stroke="#10A7FC" stroke-width="1.5" stroke-miterlimit="10" stroke-linecap="round" stroke-linejoin="round"/>
</svg>
