<svg width="64" height="64" viewBox="0 0 64 64" fill="none" xmlns="http://www.w3.org/2000/svg">
<path d="M52 52H12C10.9391 52 9.92172 51.5786 9.17157 50.8284C8.42143 50.0783 8 49.0609 8 48V20C8 18.9391 8.42143 17.9217 9.17157 17.1716C9.92172 16.4214 10.9391 16 12 16H20L24 10H40L44 16H52C53.0609 16 54.0783 16.4214 54.8284 17.1716C55.5786 17.9217 56 18.9391 56 20V48C56 49.0609 55.5786 50.0783 54.8284 50.8284C54.0783 51.5786 53.0609 52 52 52Z" fill="white" stroke="white" stroke-width="2" stroke-linecap="round" stroke-linejoin="round"/>
<path d="M32 42C36.9706 42 41 37.9706 41 33C41 28.0294 36.9706 24 32 24C27.0294 24 23 28.0294 23 33C23 37.9706 27.0294 42 32 42Z" stroke="#10A7FC" stroke-width="2" stroke-linecap="round" stroke-linejoin="round"/>
</svg>
