<svg width="40" height="48" viewBox="0 0 40 48" fill="none" xmlns="http://www.w3.org/2000/svg">
<path d="M5.29945 26.836V26.8164C5.72617 26.8794 6.14462 26.9817 6.55274 27.1212C6.76766 27.1946 6.95569 27.3165 7.11481 27.4859C7.13237 27.5045 7.14167 27.5004 7.14374 27.4756C7.17164 27.0189 7.22639 26.5612 7.30802 26.1014C7.31112 26.0859 7.29977 26.0704 7.28324 26.0694C7.12309 26.0539 6.97326 26.0043 6.83274 25.9216C6.48661 25.7181 6.26447 25.4267 6.16838 25.0455C6.07745 24.6901 6.01753 24.2664 5.98653 23.7757C5.98447 23.7519 5.9948 23.7447 6.01753 23.754C6.41325 23.9183 6.77901 24.1053 7.11481 24.315C7.33075 24.4493 7.48781 24.6085 7.58493 24.7893C7.59009 24.7986 7.60352 24.7975 7.60662 24.7872L7.95378 23.7529C7.95998 23.7333 7.94863 23.7127 7.929 23.7065C7.78642 23.6682 7.65622 23.6011 7.53844 23.505C7.2016 23.2291 7.02906 22.8561 7.02182 22.387C7.01562 22.011 7.04145 21.6142 7.09931 21.1968C7.10138 21.1865 7.10654 21.1834 7.11481 21.1896C7.45577 21.4127 7.77505 21.6607 8.07365 21.9345C8.27823 22.1215 8.40944 22.3158 8.46627 22.5183C8.47453 22.5482 8.4859 22.5493 8.50037 22.5214C8.69048 22.1515 8.89403 21.7981 9.10894 21.4603C9.11617 21.4489 9.11203 21.4344 9.10066 21.4282C8.63675 21.1865 8.37018 20.6234 8.42701 20.114C8.47764 19.6635 8.5696 19.2358 8.70185 18.8287C8.70495 18.8204 8.71528 18.8183 8.72148 18.8235C9.08001 19.1479 9.42097 19.5034 9.68237 19.9032C9.78156 20.0561 9.83736 20.2142 9.84769 20.3785C9.84873 20.393 9.86629 20.3981 9.87456 20.3868C10.1566 20.0303 10.4625 19.6831 10.7931 19.3442C10.8065 19.3298 10.8055 19.3081 10.79 19.2957C10.6794 19.2089 10.5895 19.0973 10.5213 18.963C10.3343 18.5983 10.3023 18.2336 10.4222 17.8688C10.5369 17.5227 10.7218 17.1249 10.977 16.6775C10.9873 16.6579 10.9997 16.6579 11.0132 16.6765C11.2539 17.0226 11.4595 17.3832 11.63 17.7573C11.7292 17.9753 11.7747 18.1964 11.7664 18.4206C11.7654 18.4309 11.7788 18.4381 11.7871 18.4309L12.6054 17.8079C12.6209 17.7955 12.6333 17.7789 12.6405 17.7603C12.844 17.2479 13.217 16.9513 13.7626 16.8697C14.1418 16.8139 14.5447 16.7902 14.9725 16.8005C14.9942 16.8015 15.0014 16.8108 14.9911 16.8315C14.8175 17.189 14.6036 17.5413 14.3494 17.8885C14.1149 18.2077 13.806 18.3927 13.4185 18.4391C13.3421 18.4484 13.2739 18.4753 13.2129 18.5208C13.028 18.6582 12.8451 18.7915 12.6632 18.9196C12.6322 18.9423 12.6364 18.9558 12.6736 18.9609C12.8275 18.9847 12.9742 19.024 13.1158 19.0787C13.4485 19.2099 13.7884 19.3753 14.1366 19.5747C14.1511 19.5829 14.1511 19.5912 14.1376 19.6005C13.807 19.8361 13.4464 20.0427 13.0548 20.2194C12.624 20.4147 12.1952 20.3981 11.7695 20.1698C11.6724 20.1181 11.6031 20.0489 11.5267 19.9714C11.5091 19.9528 11.4916 19.9538 11.474 19.9724L10.8696 20.6358C10.8541 20.6533 10.8572 20.6616 10.8809 20.6616C11.3748 20.675 11.8883 20.767 12.4225 20.9395C12.4463 20.9468 12.4494 20.9602 12.4328 20.9777C12.1353 21.296 11.8367 21.5729 11.536 21.8085C11.2012 22.0719 10.82 22.1649 10.3932 22.0864C10.2331 22.0575 10.0946 21.9975 9.97789 21.9076C9.95516 21.8901 9.93656 21.8932 9.92209 21.918L9.47677 22.6701C9.46954 22.6815 9.47986 22.696 9.4933 22.6919C9.63691 22.6557 9.77743 22.636 9.91175 22.6319C10.3023 22.6195 10.7032 22.6433 11.1134 22.7011C11.1341 22.7042 11.1392 22.7146 11.1279 22.7322C10.882 23.1124 10.6247 23.4378 10.3581 23.7096C9.94172 24.1342 9.44576 24.2541 8.86922 24.0722C8.84856 24.066 8.8341 24.0732 8.8279 24.0929L8.59955 24.749C8.59542 24.7624 8.60886 24.7748 8.62126 24.7686C8.74731 24.7045 8.8775 24.658 9.01078 24.626C9.37241 24.5423 9.77433 24.4876 10.2186 24.4597C10.2403 24.4576 10.2476 24.4679 10.2383 24.4875C10.0399 24.968 9.83839 25.3554 9.63278 25.6499C9.30834 26.1138 8.8527 26.3101 8.26686 26.2399C8.2462 26.2368 8.23379 26.2471 8.23069 26.2678L8.10671 27.1822C8.10465 27.1946 8.11911 27.2039 8.12945 27.1956C8.2555 27.1005 8.38981 27.02 8.53343 26.9528C8.87026 26.7968 9.22156 26.6666 9.58732 26.5602C9.61109 26.5529 9.62039 26.5622 9.61625 26.586C9.55426 26.9724 9.4561 27.365 9.32385 27.7639C9.20606 28.1193 8.98702 28.3859 8.66569 28.5656C8.47661 28.671 8.28753 28.7227 8.09845 28.7206C8.08295 28.7206 8.07055 28.734 8.07159 28.7495L8.13771 29.6577C8.14081 29.699 8.15527 29.7042 8.18007 29.6711C8.25446 29.574 8.34022 29.4842 8.43838 29.4025C8.74318 29.1473 9.08518 28.9148 9.46334 28.702C9.48194 28.6917 9.49226 28.6979 9.4933 28.7185C9.52223 29.1266 9.51809 29.5317 9.47986 29.9336C9.43337 30.4233 9.19676 30.7932 8.76798 31.0443C8.66465 31.1042 8.56237 31.1238 8.44768 31.1424C8.42081 31.1466 8.41048 31.1621 8.41771 31.189L8.63572 31.9639C8.64502 31.999 8.65949 32 8.67499 31.968C8.73492 31.8543 8.80517 31.7541 8.8837 31.6683C9.16267 31.3667 9.4902 31.0784 9.8663 30.8015C9.8849 30.7881 9.89625 30.7932 9.90038 30.8149C9.98097 31.2137 10.0233 31.6095 10.0295 32.0021C10.0388 32.6282 9.76917 33.0756 9.22053 33.3452C9.20297 33.3535 9.1978 33.367 9.2071 33.3845L9.56252 34.0809C9.56872 34.0933 9.58732 34.0912 9.59145 34.0778C9.63795 33.93 9.7051 33.7895 9.79086 33.6573C10.012 33.3184 10.2651 32.9981 10.5503 32.6974C10.5658 32.6809 10.5772 32.6829 10.5854 32.7046C10.7745 33.1861 10.8964 33.5984 10.9501 33.9404C11.039 34.5107 10.853 34.9705 10.3901 35.3187C10.3819 35.3249 10.3798 35.3373 10.387 35.3455L10.9016 35.9944C10.9202 36.0182 10.9315 36.014 10.9346 35.9851C10.9584 35.8022 11.0111 35.6152 11.0938 35.423C11.2477 35.0676 11.4244 34.7339 11.6228 34.4208C11.6269 34.4146 11.6362 34.4146 11.6403 34.4208C11.7922 34.6564 11.9358 34.9075 12.0702 35.173C12.2293 35.4871 12.3181 35.7423 12.3367 35.9386C12.377 36.3694 12.253 36.7342 11.9617 37.0307C11.9441 37.0493 11.9451 37.0658 11.9637 37.0823L12.5702 37.6C12.5806 37.6093 12.5981 37.601 12.5971 37.5866C12.5878 37.4295 12.6043 37.2735 12.6446 37.1185C12.7542 36.698 12.905 36.294 13.0962 35.9066C13.1023 35.8942 13.1096 35.8931 13.1189 35.9035C13.3772 36.2165 13.6066 36.5472 13.807 36.8922C14.0602 37.3293 14.0849 37.7694 13.8804 38.2127C13.8494 38.2788 13.8039 38.3325 13.7688 38.3955C13.7595 38.4131 13.7626 38.4265 13.7812 38.4358L14.5768 38.8781C14.6088 38.8956 14.6191 38.8874 14.6067 38.8522C14.5303 38.6394 14.5189 38.4162 14.5633 38.1786C14.6388 37.7674 14.7586 37.3561 14.9229 36.9449C14.9312 36.9253 14.9425 36.9233 14.957 36.9388C15.237 37.228 15.4891 37.5411 15.7123 37.8769C16.0357 38.3635 16.0584 38.8615 15.7805 39.3719C15.7712 39.3895 15.7763 39.4009 15.7939 39.4081C16.2961 39.592 16.8158 39.7439 17.3551 39.8648C17.3737 39.8689 17.3851 39.8627 17.3913 39.8451C17.6186 39.1632 18.0412 38.6559 18.659 38.3222C19.5466 37.8418 20.6511 37.9523 21.4425 38.5691C21.8672 38.8997 22.1637 39.3255 22.3311 39.8462C22.3353 39.8596 22.3497 39.8679 22.3642 39.8648C22.8963 39.7449 23.4222 39.591 23.9429 39.4029C23.9502 39.3998 23.9533 39.3926 23.9502 39.3854C23.6702 38.8812 23.6836 38.3883 23.9925 37.9068C24.1889 37.601 24.4461 37.2787 24.7623 36.9398C24.7778 36.9222 24.7912 36.9253 24.7995 36.947C24.9431 37.3097 25.0588 37.6909 25.1446 38.0897C25.2055 38.3718 25.1942 38.6291 25.1126 38.8626C25.1022 38.8915 25.1105 38.8977 25.1363 38.8832L25.934 38.439C25.9546 38.4286 25.9588 38.4131 25.9464 38.3925C25.6467 37.9203 25.623 37.445 25.8761 36.9687C26.0487 36.6422 26.2884 36.2899 26.5921 35.9117C26.6076 35.8921 26.6211 35.8942 26.6324 35.9159C26.7998 36.2661 26.9403 36.6339 27.054 37.0224C27.1119 37.2187 27.1356 37.4088 27.1263 37.5938C27.1253 37.6031 27.1366 37.6093 27.1449 37.6031L27.7721 37.0679C27.7824 37.0586 27.7824 37.042 27.7731 37.0327C27.6564 36.9294 27.5675 36.8065 27.5055 36.6639C27.3412 36.2847 27.333 35.9169 27.4797 35.5604C27.645 35.1596 27.8454 34.7783 28.081 34.4177C28.0872 34.4084 28.0934 34.4084 28.0986 34.4177C28.3104 34.7463 28.4964 35.1017 28.6565 35.484C28.7257 35.6483 28.7702 35.8156 28.7888 35.9861C28.7919 36.015 28.8022 36.0171 28.8198 35.9954L29.3364 35.3435C29.3477 35.329 29.3436 35.3083 29.3281 35.3001C28.8849 35.0366 28.6854 34.4363 28.7681 33.9693C28.8456 33.5333 28.9716 33.1066 29.1442 32.6881C29.1473 32.6809 29.1566 32.6799 29.1618 32.685C29.4686 33.0043 29.7352 33.3432 29.9625 33.7017C30.0379 33.8195 30.0937 33.9424 30.1299 34.0706C30.1382 34.1005 30.1495 34.1016 30.163 34.0737L30.5153 33.3824C30.5246 33.3638 30.5205 33.3504 30.5019 33.3411C29.9491 33.0673 29.6804 32.6168 29.6939 31.9876C29.7021 31.5815 29.7476 31.1838 29.8282 30.7932C29.8292 30.788 29.8365 30.7849 29.8406 30.7891C30.1971 31.0422 30.5236 31.3284 30.8201 31.6477C30.9141 31.7489 30.9916 31.8595 31.0536 31.9783C31.0608 31.9917 31.0794 31.9897 31.0836 31.9752L31.3088 31.1796C31.314 31.16 31.3067 31.1487 31.2871 31.1445C31.158 31.1218 31.0701 31.098 31.0247 31.0753C30.5473 30.8314 30.2859 30.4378 30.2415 29.8954C30.2095 29.4955 30.2064 29.1029 30.2332 28.7175C30.2353 28.6948 30.2456 28.6886 30.2653 28.701C30.6382 28.9128 30.9709 29.139 31.2654 29.3818C31.3708 29.4686 31.4669 29.5668 31.5537 29.6784C31.5743 29.7042 31.5857 29.7011 31.5878 29.6681L31.6529 28.7464C31.6539 28.732 31.6425 28.7196 31.6281 28.7196C31.1146 28.7206 30.6165 28.3301 30.445 27.8713C30.2849 27.4456 30.1754 27.0127 30.1134 26.5726C30.1113 26.5581 30.1175 26.5529 30.132 26.5571C30.6135 26.6924 31.1776 26.8918 31.596 27.1925C31.6074 27.1997 31.6208 27.1915 31.6198 27.1791L31.4948 26.2533C31.4917 26.2337 31.4731 26.2213 31.4545 26.2264C31.3295 26.2595 31.2065 26.2678 31.0836 26.2502C30.6475 26.1862 30.3179 25.9878 30.0958 25.6551C29.8737 25.3234 29.6712 24.9339 29.4862 24.4865C29.4779 24.4679 29.4841 24.4586 29.5048 24.4597C29.8675 24.4772 30.2415 24.5258 30.6279 24.6053C30.7891 24.6384 30.9441 24.6901 31.0929 24.7603C31.1228 24.7748 31.1321 24.7655 31.1218 24.7345L30.8955 24.0825C30.8883 24.0608 30.8635 24.0515 30.8428 24.0619C30.7426 24.1135 30.6393 24.1425 30.5329 24.1497C30.0865 24.1797 29.7197 24.0546 29.4325 23.7726C29.1494 23.4957 28.8714 23.1495 28.5976 22.7332C28.5852 22.7156 28.5904 22.7042 28.6121 22.7022C28.9324 22.6546 29.2744 22.6298 29.6402 22.6267C29.8458 22.6247 30.04 22.6454 30.2239 22.6877C30.2373 22.6908 30.2487 22.6753 30.2415 22.664L29.7951 21.9025C29.7889 21.8932 29.7786 21.8901 29.7693 21.8952C29.6794 21.9448 29.604 22.0079 29.5048 22.0389C29.0161 22.1876 28.578 22.1101 28.1905 21.8074C27.8651 21.5532 27.5623 21.2712 27.2813 20.9612C27.2741 20.954 27.2782 20.9426 27.2865 20.9395C27.6874 20.8145 28.0717 20.7288 28.4406 20.6823C28.5739 20.6657 28.7092 20.6605 28.8487 20.6667C28.8621 20.6678 28.8694 20.6513 28.8611 20.6409L28.2443 19.9631C28.2319 19.9497 28.2112 19.9507 28.1998 19.9642C28.1058 20.0727 27.9922 20.1564 27.8578 20.2153C27.4559 20.394 27.0664 20.3971 26.6882 20.2246C26.3008 20.0479 25.934 19.8402 25.5878 19.5995C25.5775 19.5922 25.5785 19.5767 25.5889 19.5705C25.9019 19.3856 26.2357 19.2223 26.5901 19.0818C26.7389 19.0229 26.8928 18.9795 27.0529 18.9547C27.085 18.9496 27.0881 18.9372 27.0612 18.9175C26.8804 18.7874 26.6944 18.651 26.5033 18.5094C26.3814 18.4185 26.2264 18.4319 26.0869 18.3906C25.8089 18.309 25.5868 18.1581 25.4184 17.9381C25.157 17.5961 24.9276 17.2241 24.7292 16.8212C24.7199 16.8026 24.7261 16.7922 24.7468 16.7922C25.1952 16.7871 25.6064 16.8129 25.9805 16.8697C26.5105 16.9503 26.8783 17.2468 27.085 17.7603C27.0922 17.7789 27.1046 17.7944 27.1201 17.8068L27.9364 18.4288C27.9457 18.4361 27.9581 18.4288 27.9581 18.4175C27.9488 18.1963 27.9922 17.9784 28.0883 17.7655C28.2505 17.407 28.4571 17.0423 28.7072 16.6734C28.7206 16.6548 28.7319 16.6548 28.7433 16.6745C28.951 17.0257 29.1297 17.3998 29.2775 17.7965C29.4097 18.1509 29.4004 18.5063 29.2486 18.8628C29.1711 19.0446 29.0646 19.1882 28.9272 19.2957C28.9128 19.3071 28.9117 19.3277 28.9241 19.3401C29.2475 19.6656 29.5523 20.0096 29.8375 20.3733C29.8561 20.3971 29.8664 20.3929 29.8695 20.364C29.8954 20.1625 29.9728 19.9745 30.102 19.7999C30.3593 19.4527 30.6599 19.1242 31.004 18.8152C31.0102 18.8101 31.0143 18.8111 31.0174 18.8183C31.1425 19.211 31.2323 19.6108 31.2861 20.0158C31.346 20.4632 31.2282 20.8527 30.9317 21.1844C30.8428 21.2846 30.7416 21.3621 30.629 21.4158C30.6114 21.4241 30.6052 21.4458 30.6155 21.4623C30.8377 21.8085 31.0391 22.1598 31.221 22.5183C31.2355 22.5462 31.2468 22.5451 31.2551 22.5152C31.3057 22.3395 31.3997 22.1814 31.5392 22.0409C31.8513 21.7279 32.2015 21.4458 32.59 21.1947C32.6096 21.1823 32.621 21.1875 32.6231 21.2102C32.6882 21.6783 32.7119 22.0978 32.6944 22.4687C32.6706 22.9512 32.4536 23.3283 32.0445 23.598C31.9628 23.6517 31.8771 23.6724 31.7893 23.7054C31.7655 23.7137 31.7593 23.7292 31.7686 23.7529C31.9009 24.0918 32.0166 24.4349 32.1147 24.7841C32.1178 24.7944 32.1323 24.7965 32.1364 24.7872C32.2418 24.5991 32.403 24.439 32.6189 24.3047C32.9744 24.0846 33.336 23.9017 33.7028 23.755C33.7224 23.7468 33.7317 23.7529 33.7307 23.7746C33.7214 24.1332 33.6697 24.533 33.5747 24.9763C33.4993 25.3286 33.3226 25.6096 33.0426 25.8194C32.8421 25.9702 32.6396 26.0529 32.4371 26.0663C32.4216 26.0673 32.4113 26.0818 32.4133 26.0963C32.4929 26.5405 32.5476 27.0014 32.5786 27.4777C32.5807 27.5087 32.5921 27.5128 32.6117 27.488C32.7429 27.331 32.9206 27.2131 33.1459 27.1326C33.5457 26.99 33.958 26.8856 34.3837 26.8206C34.4064 26.8164 34.4147 26.8257 34.4085 26.8484C34.2773 27.302 34.1171 27.7122 33.926 28.08C33.6914 28.5326 33.1294 28.8622 32.6241 28.7774C32.5983 28.7733 32.5848 28.7847 32.5838 28.8095C32.5631 29.2806 32.5228 29.7197 32.4619 30.1247C32.4577 30.1537 32.4681 30.1609 32.4929 30.1454C32.6613 30.0421 32.8349 29.979 33.0126 29.9563C33.4156 29.9047 33.8578 29.8964 34.3372 29.9305C34.3589 29.9326 34.3641 29.9429 34.3548 29.9615C34.1615 30.3117 33.9322 30.6506 33.6656 30.9813C33.4052 31.3026 33.0694 31.4782 32.6572 31.5061C32.5115 31.5154 32.373 31.4989 32.2408 31.4566C32.2191 31.4493 32.2046 31.4576 32.1974 31.4793L31.905 32.4608C31.8978 32.4866 31.906 32.4928 31.9298 32.4825C32.1054 32.403 32.3028 32.3647 32.5228 32.3689C32.9341 32.3761 33.3453 32.4195 33.7576 32.499C33.7813 32.5032 33.7855 32.5156 33.771 32.5342C33.5581 32.8287 33.306 33.1231 33.0147 33.4196C32.6417 33.7978 32.2005 33.9373 31.689 33.8391C31.594 33.8205 31.5154 33.775 31.4307 33.7327C31.409 33.7223 31.3915 33.7265 31.3801 33.7492L30.88 34.706C30.8666 34.7308 30.8738 34.7411 30.9017 34.7349C31.0918 34.6946 31.2819 34.6936 31.4721 34.7318C31.8977 34.8165 32.3048 34.9374 32.6933 35.0955C32.714 35.1037 32.7161 35.1151 32.7006 35.1306C32.3689 35.4416 32.0352 35.7041 31.7004 35.919C31.3946 36.1153 31.0546 36.1793 30.6796 36.1091C30.476 36.0719 30.3045 35.9892 30.164 35.8611C30.1506 35.8487 30.1289 35.8508 30.1175 35.8652C29.9005 36.1659 29.666 36.4573 29.4128 36.7414C29.4046 36.7507 29.4108 36.7652 29.4232 36.7652C29.6112 36.7683 29.7858 36.8024 29.948 36.8675C30.3355 37.0224 30.7188 37.2218 31.098 37.4677C31.1177 37.4801 31.1177 37.4925 31.098 37.5049C30.7529 37.726 30.3851 37.9151 29.9956 38.0742C29.6298 38.2241 29.2641 38.2189 28.8962 38.0618C28.7258 37.9895 28.5852 37.8841 28.4747 37.7457C28.4643 37.7322 28.4447 37.7312 28.4323 37.7415L27.7121 38.3594C27.6915 38.377 27.6946 38.3883 27.7214 38.3914C27.8795 38.4152 28.0283 38.4638 28.1668 38.5371C28.5139 38.721 28.8776 38.968 29.2558 39.2769C29.2723 39.2914 29.2713 39.3027 29.2517 39.312C28.921 39.468 28.5584 39.6075 28.1668 39.7294C27.7111 39.8699 27.2896 39.81 26.9021 39.5476C26.7657 39.4546 26.6624 39.3368 26.5911 39.1942C26.5787 39.1705 26.5622 39.1653 26.5394 39.1798L25.9505 39.5383C25.9288 39.5517 25.9288 39.5651 25.9515 39.5775C26.3752 39.7997 26.7833 40.1034 27.1759 40.4888C27.1914 40.5043 27.1893 40.5157 27.1687 40.5239C26.7719 40.6779 26.3793 40.7947 25.9908 40.8721C25.5072 40.9693 25.0816 40.8463 24.7137 40.5033C24.6269 40.4227 24.5846 40.3328 24.5298 40.2336C24.5195 40.215 24.504 40.2088 24.4844 40.2161C24.038 40.3731 23.5886 40.5405 23.1236 40.6541C22.9004 40.7089 22.6855 40.7647 22.4789 40.8195C22.4613 40.8236 22.4479 40.8381 22.4458 40.8567C22.4138 41.0736 22.3859 41.2947 22.3084 41.5024C22.0418 42.2112 21.5748 42.7164 20.9073 43.0192C20.5994 43.1586 20.2771 43.231 19.9402 43.2372C19.2469 43.2506 18.6487 43.0316 18.1466 42.5801C17.6372 42.1234 17.351 41.551 17.2859 40.8649C17.2838 40.8432 17.2683 40.8246 17.2477 40.8195C16.7951 40.7006 16.3518 40.6015 15.9158 40.4506C15.6833 40.369 15.4612 40.2915 15.2473 40.2171C15.2256 40.2099 15.2091 40.215 15.1988 40.2357C15.1492 40.3235 15.1058 40.4175 15.0324 40.4868C14.6532 40.8463 14.2131 40.9744 13.7109 40.868C13.3038 40.7823 12.9174 40.6665 12.5496 40.5209C12.5351 40.5157 12.5341 40.5064 12.5454 40.4961C12.7851 40.2688 13.0383 40.058 13.3038 39.8638C13.4526 39.7553 13.6179 39.6705 13.7791 39.5827C13.8029 39.5693 13.8039 39.5569 13.7801 39.5424L13.1881 39.1808C13.1705 39.1705 13.1561 39.1736 13.1457 39.1901C13.0962 39.2676 13.0579 39.3513 12.9897 39.4164C12.7356 39.654 12.4411 39.7832 12.1043 39.8049C11.8987 39.8183 11.6207 39.7625 11.2694 39.6385C10.9811 39.5362 10.7166 39.4267 10.4738 39.3099C10.4604 39.3037 10.4594 39.2955 10.4707 39.2862C10.8241 38.9927 11.1795 38.7499 11.5349 38.5557C11.6827 38.4751 11.8397 38.4214 12.0051 38.3945C12.035 38.3904 12.0381 38.378 12.0154 38.3584L11.2911 37.7405C11.2828 37.7333 11.2694 37.7343 11.2622 37.7436C11.1692 37.8614 11.0607 37.9533 10.9336 38.0174C10.5265 38.224 10.1163 38.2406 9.70304 38.0649C9.33625 37.9089 8.97979 37.724 8.63469 37.5091C8.61403 37.4956 8.61403 37.4832 8.63469 37.4708C9.00355 37.2332 9.37137 37.039 9.73817 36.8871C9.91898 36.8116 10.106 36.7724 10.2982 36.7683C10.324 36.7672 10.3292 36.7579 10.3126 36.7373L9.62038 35.8766C9.60488 35.857 9.58629 35.8539 9.56563 35.8683C9.49847 35.9128 9.43854 35.9789 9.36518 36.0099C8.8992 36.2062 8.46523 36.1814 8.06331 35.9355C7.73371 35.7351 7.39068 35.4675 7.03526 35.1337C7.01872 35.1182 7.02079 35.1058 7.04249 35.0976C7.47851 34.925 7.89904 34.801 8.30303 34.7277C8.49314 34.6925 8.67085 34.6967 8.8341 34.739C8.86303 34.7463 8.87026 34.737 8.85579 34.7111L8.35365 33.7502C8.34332 33.7296 8.32678 33.7244 8.30612 33.7337C8.22966 33.7699 8.1532 33.8195 8.07055 33.836C7.56737 33.9383 7.13754 33.8205 6.78315 33.4837C6.50727 33.2212 6.23347 32.9061 5.95967 32.5373C5.94624 32.5187 5.95037 32.5073 5.9731 32.5042C6.30993 32.4401 6.65606 32.3978 7.01046 32.3761C7.32766 32.3565 7.5932 32.3937 7.80811 32.4877C7.82877 32.497 7.83704 32.4897 7.8298 32.468L7.53844 31.4927C7.53224 31.472 7.51778 31.4627 7.49711 31.4679C6.93194 31.5878 6.47111 31.4441 6.11465 31.0391C5.8708 30.7612 5.6249 30.4037 5.37796 29.9656C5.36659 29.946 5.37176 29.9356 5.39552 29.9336C5.86461 29.9015 6.35436 29.8933 6.81208 29.977C6.97532 30.007 7.12101 30.0669 7.24913 30.1568C7.25947 30.164 7.27393 30.1557 7.27289 30.1423C7.20883 29.7135 7.16751 29.2692 7.14891 28.8095C7.14788 28.7919 7.13237 28.7785 7.11481 28.7816C6.9185 28.8136 6.71806 28.7888 6.51245 28.7051C6.16528 28.5635 5.91421 28.328 5.75922 27.9963C5.6404 27.7432 5.53605 27.4973 5.44823 27.2287C5.39657 27.0964 5.35007 26.9662 5.29945 26.836Z" fill="url(#paint0_linear_791_8487)"/>
<path d="M24.2167 26.7125V26.7135C24.2456 27.1206 22.2257 28.4328 22.204 28.7541C22.1823 29.0682 22.9107 31.4218 22.5419 31.7917C22.2422 32.0924 20.0094 30.5271 19.8451 30.5178H19.8431C19.7015 30.5178 17.9306 31.8207 17.3199 31.831C17.2579 31.8321 17.2073 31.8196 17.1732 31.7917C16.7796 31.4766 17.541 29.0052 17.5142 28.7996C17.4873 28.5929 15.3857 27.1898 15.4942 26.6722C15.5841 26.2434 18.2436 26.2062 18.4038 26.0822C18.5629 25.9582 19.3017 23.5075 19.8503 23.5075C19.8803 23.5075 19.9113 23.5178 19.9443 23.5364L19.9464 23.5375C20.432 23.8133 21.2162 25.9665 21.3092 26.0988C21.4084 26.2403 23.9336 26.1783 24.2053 26.6722C24.2126 26.6836 24.2157 26.697 24.2167 26.7125Z" fill="url(#paint1_linear_791_8487)"/>
<path opacity="0.2" d="M19.8473 27.9429L17.5153 28.7984C17.4884 28.5917 15.3868 27.1887 15.4953 26.671L19.8473 27.9429Z" fill="#DA0553"/>
<path opacity="0.2" d="M21.3082 26.0988L19.8462 27.9431L19.8493 23.5075L19.9434 23.5364L19.9454 23.5375C20.431 23.8123 21.2163 25.9665 21.3082 26.0988Z" fill="#DA0553"/>
<path opacity="0.2" d="M24.2167 26.7123V26.7133C24.2457 27.1204 22.2257 28.4326 22.204 28.7539L19.8472 27.9429L24.2054 26.672L24.2167 26.7123Z" fill="#DA0553"/>
<path opacity="0.2" d="M19.8472 27.9429L19.8452 30.5176V30.5197C19.8441 30.5176 19.8431 30.5176 19.8431 30.5176C19.7016 30.5176 17.9306 31.8205 17.32 31.8308L17.1733 31.7916L19.8472 27.9429Z" fill="#DA0553"/>
<path d="M19.8472 27.9434L15.4953 26.6725C15.5852 26.2438 18.2447 26.2066 18.4049 26.0826L19.8472 27.9434Z" fill="white"/>
<path d="M20.9507 27.2937C21.4817 28.1874 20.867 29.1369 20.0321 29.2857C19.1973 29.4335 18.2302 28.6596 18.5495 27.5788C18.8687 26.4981 20.4847 26.5084 20.9507 27.2937Z" fill="url(#paint2_linear_791_8487)"/>
<path d="M20.0332 29.2858C20.6624 29.1742 21.1676 28.606 21.149 27.9499C21.0591 28.7 20.5126 29.354 19.4225 29.0968C19.2892 29.0658 18.5505 28.7227 18.4885 27.9468C18.4565 28.8292 19.2965 29.416 20.0332 29.2858Z" fill="url(#paint3_linear_791_8487)"/>
<path opacity="0.5" d="M18.5949 27.452C18.6414 27.5635 19.2211 26.9984 19.1446 26.8796C18.907 26.9974 18.7076 27.1854 18.5949 27.452Z" fill="url(#paint4_linear_791_8487)"/>
<path d="M18.7829 27.5357C18.4192 28.2869 19.565 29.8367 20.6065 28.6599C21.7586 27.356 19.5692 25.9115 18.7829 27.5357Z" fill="url(#paint5_linear_791_8487)"/>
<path d="M19.0825 27.5303C18.8583 27.9808 19.0257 28.4395 19.4349 28.7195C19.906 29.0419 20.4836 28.6606 20.683 28.2659C20.9682 27.7018 20.4247 27.116 20.0879 27.0199C19.751 26.9238 19.2437 27.209 19.0825 27.5303Z" fill="url(#paint6_linear_791_8487)"/>
<path opacity="0.4" d="M19.0029 27.9273C18.9864 27.9986 19.0029 28.3943 19.3036 28.5999C19.6043 28.8055 19.8171 28.8406 19.8399 28.8065C19.8626 28.7724 19.8616 28.4986 19.8481 28.4852C19.8337 28.4707 19.5991 28.3561 19.4855 28.2C19.3718 28.044 19.3336 27.9893 19.3015 27.9862C19.2705 27.9841 19.0143 27.8787 19.0029 27.9273Z" fill="#B82774"/>
<path d="M19.3646 27.9697C19.3223 28.1526 19.8451 28.4925 19.8926 28.4863C20.1179 28.4543 20.3896 27.9562 20.3947 27.7951C20.3978 27.6855 19.9773 27.3332 19.842 27.3756C19.7087 27.4169 19.3977 27.8271 19.3646 27.9697Z" fill="white"/>
<path opacity="0.8" d="M19.8926 28.4847C19.8306 28.5106 19.8523 28.7937 19.874 28.7968C20.1106 28.8247 20.3544 28.6924 20.5921 28.3835C20.7842 28.1324 20.7687 27.7946 20.6861 27.6912C20.6561 27.653 20.3957 27.7491 20.3947 27.7935C20.3885 28.0642 20.0982 28.399 19.8926 28.4847Z" fill="#B82774"/>
<path opacity="0.75" d="M18.9865 27.8635C18.9834 27.9059 19.2954 28.0082 19.3192 27.9823C19.3574 27.94 19.8275 27.3861 19.8296 27.351C19.8327 27.2963 19.8461 27.0266 19.7666 27.0235C19.7397 27.0225 19.3998 27.1237 19.1952 27.3686C18.9896 27.6135 18.9896 27.8098 18.9865 27.8635Z" fill="white"/>
<path d="M19.0825 27.5305C19.0825 27.5305 19.2282 27.2825 19.4844 27.141C19.4844 27.141 19.6229 27.1833 19.5144 27.358C19.407 27.5336 19.0825 27.5305 19.0825 27.5305Z" fill="white"/>
<path d="M19.7356 28.4012C19.7263 28.4167 19.8265 28.6119 19.8534 28.6068C19.8813 28.6016 19.9867 28.4477 19.9732 28.4487C19.9608 28.4497 19.7563 28.3681 19.7356 28.4012Z" fill="white"/>
<path d="M20.3523 27.7043C20.312 27.7539 20.3472 27.9254 20.3709 27.9306C20.3937 27.9358 20.498 27.7415 20.4846 27.7291C20.4712 27.7178 20.3895 27.6589 20.3523 27.7043Z" fill="white"/>
<path d="M19.5 29.0297C19.5 29.0297 20.0672 29.2033 20.6056 28.6609C21.0994 28.1618 20.8969 27.607 20.8752 27.5522C20.8752 27.5522 21.242 28.2083 20.6004 28.8076C20.0486 29.3232 19.5 29.0297 19.5 29.0297Z" fill="#FFD2FF"/>
<path opacity="0.5" d="M19.3036 28.927C18.9968 28.5375 18.6073 27.7378 19.1404 27.1861C19.6735 26.6354 20.4784 27.1551 20.7119 27.2615C20.7119 27.2615 20.2108 26.3843 19.1817 26.8689C18.7881 27.0538 18.6858 27.3318 18.7188 27.9599C18.7498 28.5354 19.3036 28.927 19.3036 28.927Z" fill="#D42F55"/>
<path d="M19.8545 48.0003C8.9064 48.0003 0 39.0941 0 28.1462C0 17.1984 8.90744 8.2921 19.8545 8.2921C30.8015 8.2921 39.7089 17.1984 39.7089 28.1462C39.7089 39.0941 30.8015 48.0003 19.8545 48.0003ZM19.8545 11.3917C10.6154 11.3917 3.09968 18.9073 3.09968 28.1462C3.09968 37.3852 10.6154 44.9007 19.8545 44.9007C29.0925 44.9007 36.6092 37.3852 36.6092 28.1462C36.6092 18.9073 29.0925 11.3917 19.8545 11.3917Z" fill="url(#paint7_linear_791_8487)"/>
<path d="M20.5787 0.724267C20.5787 1.12515 20.2543 1.44856 19.8544 1.44856C19.4546 1.44856 19.1301 1.12412 19.1301 0.724267C19.1301 0.323382 19.4546 0 19.8544 0C20.2543 0 20.5787 0.324415 20.5787 0.724267Z" fill="url(#paint8_linear_791_8487)"/>
<path d="M30.1381 3.7537L27.9858 10.2102C25.5071 9.08607 22.7495 8.47133 19.8585 8.47133C16.9572 8.47133 14.1995 9.09537 11.7115 10.2102L9.56966 3.7537C9.56036 3.73407 9.56966 3.71547 9.57896 3.69584C9.60789 3.67621 9.62648 3.65762 9.65541 3.64728C9.67504 3.63798 9.69363 3.64729 9.71327 3.65659L14.8432 8.17169C14.959 8.26778 15.1315 8.24816 15.208 8.12314L19.3874 1.85982C19.3874 1.85052 19.407 1.85052 19.4163 1.85052C19.7046 1.96624 19.9928 1.96624 20.2811 1.85982C20.3007 1.85052 20.3193 1.85983 20.3286 1.86913L24.4977 8.13244C24.5845 8.24816 24.7477 8.27707 24.8624 8.17065L29.9924 3.65554C30.012 3.64625 30.0306 3.64624 30.0502 3.64624C30.0792 3.65554 30.0978 3.66587 30.1267 3.6948C30.1474 3.71443 30.1474 3.73407 30.1381 3.7537Z" fill="url(#paint9_linear_791_8487)"/>
<path d="M9.67299 2.66389C9.67299 3.06477 9.34857 3.38815 8.94872 3.38815C8.54886 3.38815 8.22442 3.06374 8.22442 2.66389C8.22442 2.263 8.54886 1.93962 8.94872 1.93962C9.34857 1.93962 9.67299 2.263 9.67299 2.66389Z" fill="url(#paint10_linear_791_8487)"/>
<path d="M31.4833 2.66389C31.4833 3.06477 31.1589 3.38815 30.7591 3.38815C30.3592 3.38815 30.0348 3.06374 30.0348 2.66389C30.0348 2.263 30.3592 1.93962 30.7591 1.93962C31.1589 1.93962 31.4833 2.263 31.4833 2.66389Z" fill="url(#paint11_linear_791_8487)"/>
<path d="M15.0044 3.63229C15.0044 3.89886 14.7885 4.11481 14.5219 4.11481C14.2553 4.11481 14.0394 3.89886 14.0394 3.63229C14.0394 3.36572 14.2553 3.1498 14.5219 3.1498C14.7885 3.1498 15.0044 3.36572 15.0044 3.63229Z" fill="url(#paint12_linear_791_8487)"/>
<path d="M25.6673 3.63229C25.6673 3.89886 25.4514 4.11481 25.1848 4.11481C24.9182 4.11481 24.7023 3.89886 24.7023 3.63229C24.7023 3.36572 24.9182 3.1498 25.1848 3.1498C25.4514 3.1498 25.6673 3.36572 25.6673 3.63229Z" fill="url(#paint13_linear_791_8487)"/>
<path d="M14.0301 4.46255C14.3121 4.6475 14.7316 4.64544 15.0168 4.46359C15.0447 4.44603 15.0674 4.4512 15.086 4.47806L16.0531 5.92868C16.0665 5.94934 16.0665 5.97 16.0531 5.99067L14.9734 7.60868C14.9661 7.62005 14.9507 7.62108 14.9403 7.61281L13.0216 5.92455C13.0123 5.91628 13.0102 5.90389 13.0175 5.89355L13.9598 4.47702C13.9784 4.44913 14.0022 4.44499 14.0301 4.46255Z" fill="url(#paint14_linear_791_8487)"/>
<path d="M24.692 4.46307C24.9823 4.65318 25.3904 4.63974 25.6797 4.46203C25.7066 4.44549 25.7304 4.45068 25.7479 4.47754L26.683 5.88165C26.6944 5.89818 26.6913 5.9209 26.6758 5.93433L24.7767 7.60607C24.7622 7.61847 24.7405 7.61536 24.7292 7.59986L23.6515 5.98393C23.6401 5.9674 23.6401 5.94986 23.6515 5.93332L24.6217 4.4765C24.6413 4.44964 24.6641 4.44447 24.692 4.46307Z" fill="url(#paint15_linear_791_8487)"/>
<defs>
<linearGradient id="paint0_linear_791_8487" x1="19.3049" y1="40.6431" x2="20.7103" y2="7.71748" gradientUnits="userSpaceOnUse">
<stop stop-color="#FFCA57"/>
<stop offset="0.2151" stop-color="#9C642C"/>
<stop offset="0.2516" stop-color="#A76F31"/>
<stop offset="0.379" stop-color="#C6903E"/>
<stop offset="0.5105" stop-color="#DFA949"/>
<stop offset="0.6459" stop-color="#F1BC51"/>
<stop offset="0.7877" stop-color="#FCC656"/>
<stop offset="0.9462" stop-color="#FFCA57"/>
</linearGradient>
<linearGradient id="paint1_linear_791_8487" x1="19.8538" y1="23.5074" x2="19.8538" y2="31.8304" gradientUnits="userSpaceOnUse">
<stop stop-color="#FFAB00"/>
<stop offset="0.486" stop-color="#FFBA00"/>
<stop offset="1" stop-color="#EF6C00"/>
</linearGradient>
<linearGradient id="paint2_linear_791_8487" x1="19.8181" y1="29.3102" x2="19.8181" y2="26.8871" gradientUnits="userSpaceOnUse">
<stop stop-color="#FFEA34"/>
<stop offset="0.6341" stop-color="#FF8100"/>
<stop offset="0.6955" stop-color="#FFA400"/>
<stop offset="1" stop-color="#FFBA00"/>
</linearGradient>
<linearGradient id="paint3_linear_791_8487" x1="21.149" y1="28.625" x2="18.4873" y2="28.625" gradientUnits="userSpaceOnUse">
<stop stop-color="#FF5900"/>
<stop offset="1" stop-color="#F63F00"/>
</linearGradient>
<linearGradient id="paint4_linear_791_8487" x1="19.1517" y1="27.173" x2="18.5948" y2="27.173" gradientUnits="userSpaceOnUse">
<stop stop-color="#EBBD38"/>
<stop offset="1" stop-color="#FFF29E"/>
</linearGradient>
<linearGradient id="paint5_linear_791_8487" x1="20.9346" y1="27.9509" x2="18.7142" y2="27.9509" gradientUnits="userSpaceOnUse">
<stop stop-color="#832645"/>
<stop offset="1" stop-color="#B41E2D"/>
</linearGradient>
<linearGradient id="paint6_linear_791_8487" x1="20.4803" y1="28.5397" x2="19.2508" y2="27.3101" gradientUnits="userSpaceOnUse">
<stop stop-color="#EB175A"/>
<stop offset="1" stop-color="#FF1F19"/>
</linearGradient>
<linearGradient id="paint7_linear_791_8487" x1="19.0071" y1="47.9826" x2="20.7004" y2="8.31028" gradientUnits="userSpaceOnUse">
<stop stop-color="#FFCA57"/>
<stop offset="0.2151" stop-color="#9C642C"/>
<stop offset="0.2516" stop-color="#A76F31"/>
<stop offset="0.379" stop-color="#C6903E"/>
<stop offset="0.5105" stop-color="#DFA949"/>
<stop offset="0.6459" stop-color="#F1BC51"/>
<stop offset="0.7877" stop-color="#FCC656"/>
<stop offset="0.9462" stop-color="#FFCA57"/>
</linearGradient>
<linearGradient id="paint8_linear_791_8487" x1="19.226" y1="1.08704" x2="20.4815" y2="0.362122" gradientUnits="userSpaceOnUse">
<stop offset="0.0376" stop-color="#9C642C"/>
<stop offset="0.303" stop-color="#D7A146"/>
<stop offset="0.5" stop-color="#FFCA57"/>
<stop offset="1" stop-color="#9C642C"/>
</linearGradient>
<linearGradient id="paint9_linear_791_8487" x1="12.0675" y1="10.8259" x2="28.7027" y2="1.22147" gradientUnits="userSpaceOnUse">
<stop offset="0.0376" stop-color="#9C642C"/>
<stop offset="0.303" stop-color="#D7A146"/>
<stop offset="0.5" stop-color="#FFCA57"/>
<stop offset="1" stop-color="#9C642C"/>
</linearGradient>
<linearGradient id="paint10_linear_791_8487" x1="8.32061" y1="3.02592" x2="9.57606" y2="2.3011" gradientUnits="userSpaceOnUse">
<stop offset="0.0376" stop-color="#9C642C"/>
<stop offset="0.303" stop-color="#D7A146"/>
<stop offset="0.5" stop-color="#FFCA57"/>
<stop offset="1" stop-color="#9C642C"/>
</linearGradient>
<linearGradient id="paint11_linear_791_8487" x1="30.1314" y1="3.02592" x2="31.3868" y2="2.30109" gradientUnits="userSpaceOnUse">
<stop offset="0.0376" stop-color="#9C642C"/>
<stop offset="0.303" stop-color="#D7A146"/>
<stop offset="0.5" stop-color="#FFCA57"/>
<stop offset="1" stop-color="#9C642C"/>
</linearGradient>
<linearGradient id="paint12_linear_791_8487" x1="14.1034" y1="3.87428" x2="14.9398" y2="3.39135" gradientUnits="userSpaceOnUse">
<stop offset="0.0376" stop-color="#9C642C"/>
<stop offset="0.303" stop-color="#D7A146"/>
<stop offset="0.5" stop-color="#FFCA57"/>
<stop offset="1" stop-color="#9C642C"/>
</linearGradient>
<linearGradient id="paint13_linear_791_8487" x1="24.7664" y1="3.87428" x2="25.6028" y2="3.39134" gradientUnits="userSpaceOnUse">
<stop offset="0.0376" stop-color="#9C642C"/>
<stop offset="0.303" stop-color="#D7A146"/>
<stop offset="0.5" stop-color="#FFCA57"/>
<stop offset="1" stop-color="#9C642C"/>
</linearGradient>
<linearGradient id="paint14_linear_791_8487" x1="13.4314" y1="6.63736" x2="15.7045" y2="5.32495" gradientUnits="userSpaceOnUse">
<stop offset="0.0376" stop-color="#9C642C"/>
<stop offset="0.303" stop-color="#D7A146"/>
<stop offset="0.5" stop-color="#FFCA57"/>
<stop offset="1" stop-color="#9C642C"/>
</linearGradient>
<linearGradient id="paint15_linear_791_8487" x1="23.9369" y1="6.47812" x2="26.2551" y2="5.13967" gradientUnits="userSpaceOnUse">
<stop offset="0.0376" stop-color="#9C642C"/>
<stop offset="0.303" stop-color="#D7A146"/>
<stop offset="0.5" stop-color="#FFCA57"/>
<stop offset="1" stop-color="#9C642C"/>
</linearGradient>
</defs>
</svg>
