<svg width="16" height="16" viewBox="0 0 16 16" fill="none" xmlns="http://www.w3.org/2000/svg">
<path d="M11.1333 12.6532H4.86668C4.58668 12.6532 4.27334 12.4332 4.18001 12.1666L1.42001 4.44658C1.02668 3.33991 1.48668 2.99991 2.43334 3.67991L5.03334 5.53991C5.46668 5.83991 5.96001 5.68658 6.14668 5.19991L7.32001 2.07324C7.69334 1.07324 8.31334 1.07324 8.68668 2.07324L9.86001 5.19991C10.0467 5.68658 10.54 5.83991 10.9667 5.53991L13.4067 3.79991C14.4467 3.05324 14.9467 3.43324 14.52 4.63991L11.8267 12.1799C11.7267 12.4332 11.4133 12.6532 11.1333 12.6532Z" stroke="#4D4D4D" stroke-width="1.5" stroke-linecap="round" stroke-linejoin="round"/>
<path d="M4.33331 14.667H11.6666" stroke="#4D4D4D" stroke-width="1.5" stroke-linecap="round" stroke-linejoin="round"/>
<path d="M6.33331 9.33301H9.66665" stroke="#4D4D4D" stroke-width="1.5" stroke-linecap="round" stroke-linejoin="round"/>
</svg>
