<svg width="65" height="74" viewBox="0 0 65 74" fill="none" xmlns="http://www.w3.org/2000/svg">
<mask id="mask0_363_6050" style="mask-type:luminance" maskUnits="userSpaceOnUse" x="0" y="0" width="65" height="74">
<path d="M64.9132 2.82219C64.4862 2.2861 63.9453 1.85166 63.3297 1.55031C62.7141 1.24897 62.0391 1.08826 61.3538 1.07983C60.6684 1.07141 59.9897 1.21547 59.3669 1.50159C58.7441 1.7877 58.1927 2.20872 57.7526 2.73415C57.3181 2.21771 56.7759 1.80253 56.164 1.5177C55.5521 1.23287 54.8853 1.08528 54.2104 1.08528C53.5354 1.08528 52.8686 1.23287 52.2567 1.5177C51.6448 1.80253 51.1026 2.21771 50.6681 2.73415C50.234 2.21744 49.692 1.802 49.0803 1.51697C48.4685 1.23195 47.8018 1.08426 47.1269 1.08426C46.452 1.08426 45.7852 1.23195 45.1735 1.51697C44.5617 1.802 44.0197 2.21744 43.5856 2.73415C43.1513 2.21775 42.6093 1.80259 41.9976 1.51777C41.3858 1.23295 40.7192 1.08537 40.0444 1.08537C39.3696 1.08537 38.7029 1.23295 38.0912 1.51777C37.4795 1.80259 36.9374 2.21775 36.5031 2.73415C36.0688 2.21775 35.5268 1.80259 34.9151 1.51777C34.3033 1.23295 33.6367 1.08537 32.9619 1.08537C32.2871 1.08537 31.6204 1.23295 31.0087 1.51777C30.397 1.80259 29.855 2.21775 29.4206 2.73415C28.9974 2.23172 28.4719 1.82523 27.8792 1.54174C27.2865 1.25826 26.6402 1.10429 25.9834 1.09009C25.3265 1.07589 24.6742 1.20179 24.0698 1.4594C23.4654 1.717 22.9228 2.1004 22.4782 2.58407C22.0297 2.0996 21.4826 1.7167 20.8738 1.46106C20.2651 1.20542 19.6086 1.08296 18.9486 1.10192C18.2886 1.12087 17.6402 1.28079 17.0471 1.57094C16.454 1.86109 15.9299 2.27476 15.5098 2.78417H14.9095L14.9535 3.32444L14.9115 2.79218L14.7974 2.78017C14.4191 1.69362 13.7327 0.953252 12.8982 0.885218C12.2057 0.827189 11.5393 1.2434 11.019 1.95976C10.6187 1.15935 10.0324 0.649099 9.33992 0.59107C8.64748 0.533041 7.98306 0.949251 7.46073 1.66761C7.06048 0.86721 6.47611 0.354951 5.78367 0.296922C5.09123 0.238892 4.4248 0.655103 3.90447 1.37346C3.50422 0.573061 2.91985 0.0608046 2.22741 0.00477648C1.53497 -0.0512517 0.826525 0.38897 0.29819 1.14935L0 1.11533L0.0680424 1.51553L1.24679 8.55507L11.5733 70.1841L20.6471 74H20.6591L52.8655 70.9264C52.8655 70.9264 64.5669 4.76317 64.9132 2.82219Z" fill="white"/>
</mask>
<g mask="url(#mask0_363_6050)">
<path d="M64.2166 1.41739L51.6366 73.1975L52.4751 72.9794L65.2412 1.88362L64.2166 1.41739Z" fill="#3657FB"/>
<path d="M14.5453 -0.897828L20.9354 77.9238L21.6899 77.4996L15.656 -0.707729L14.5453 -0.897828Z" fill="#3657FB"/>
<path d="M-0.166063 0.342913L12.7881 78.054L13.4145 77.6177L0.828567 0.504993L-0.166063 0.342913Z" fill="#3657FB"/>
<path d="M3.33206 -0.41152L15.0655 77.4916L15.6959 77.0674L4.32269 -0.23543L3.33206 -0.41152Z" fill="#3657FB"/>
<path d="M6.87435 -0.64565L16.7346 77.5176L17.377 77.1074L7.86098 -0.443552L6.87435 -0.64565Z" fill="#3657FB"/>
<path d="M10.5367 -0.579762L18.4717 77.8036L19.1242 77.4074L11.5193 -0.353647L10.5367 -0.579762Z" fill="#3657FB"/>
<path d="M21.9639 -0.937879L26.1826 78.0298L26.9491 77.6256L23.0686 -0.717767L21.9639 -0.937879Z" fill="#3657FB"/>
<path d="M28.8543 -0.973728L31.7762 78.05L32.5506 77.6598L29.955 -0.737611L28.8543 -0.973728Z" fill="#3657FB"/>
<path d="M35.6865 -0.909818L37.2435 78.1539L38.022 77.7778L36.7832 -0.65369L35.6865 -0.909818Z" fill="#3657FB"/>
<path d="M42.9152 -1.02181L41.5644 78.0439L42.3569 77.6958L44.0019 -0.72567L42.9152 -1.02181Z" fill="#3657FB"/>
<path d="M50.3359 -1.05593L44.9464 77.8397L45.7569 77.5316L51.4065 -0.703754L50.3359 -1.05593Z" fill="#3657FB"/>
<path d="M57.7226 -0.429568L48.3666 78.0939L49.1912 77.8278L58.7732 -0.0253667L57.7226 -0.429568Z" fill="#3657FB"/>
</g>
</svg>
