<svg width="60" height="60" viewBox="0 0 60 60" fill="none" xmlns="http://www.w3.org/2000/svg">
<path d="M30.004 2.62607e-07C24.0704 -0.000784607 18.2698 1.75779 13.3358 5.05332C8.4018 8.34885 4.556 13.0333 2.28476 18.5143C0.0135269 23.9953 -0.581136 30.0266 0.575972 35.8456C1.73308 41.6645 4.58999 47.0097 8.78541 51.2051C12.9808 55.4005 18.3263 58.2577 24.1458 59.4155C29.9654 60.5732 35.9976 59.9794 41.4796 57.7092C46.9616 55.439 51.6472 51.5943 54.9438 46.6614C58.2404 41.7285 60 35.9289 60 29.9961C60 22.0413 56.8398 14.4123 51.2146 8.78705C45.5894 3.16181 37.9598 0.00105262 30.004 2.62607e-07ZM27.3866 27.8611C27.5122 27.8611 27.6349 27.8984 27.7394 27.9681C27.8438 28.0379 27.9252 28.1371 27.9732 28.2531C28.0213 28.3691 28.0339 28.4968 28.0094 28.6199C27.9849 28.7431 27.9244 28.8562 27.8356 28.945C27.7468 29.0338 27.6336 29.0943 27.5105 29.1188C27.3873 29.1433 27.2596 29.1307 27.1436 29.0827C27.0275 29.0346 26.9284 28.9532 26.8586 28.8488C26.7888 28.7444 26.7516 28.6216 26.7516 28.4961C26.7521 28.3278 26.8192 28.1666 26.9381 28.0477C27.0571 27.9287 27.2183 27.8617 27.3866 27.8611ZM27.3866 30.7778C27.5121 30.7782 27.6347 30.8158 27.7388 30.8858C27.843 30.9558 27.9241 31.0551 27.9718 31.1711C28.0196 31.2872 28.0319 31.4148 28.0071 31.5378C27.9824 31.6608 27.9218 31.7738 27.8329 31.8624C27.744 31.951 27.6309 32.0113 27.5077 32.0356C27.3846 32.0599 27.257 32.0472 27.1411 31.9991C27.0252 31.951 26.9262 31.8696 26.8565 31.7653C26.7868 31.6609 26.7496 31.5382 26.7496 31.4127C26.7496 31.2457 26.8154 31.0854 26.9328 30.9666C27.0501 30.8477 27.2096 30.7799 27.3766 30.7778H27.3866ZM11.1047 13.4861C14.9901 9.08731 16.786 10.1766 18.0738 11.3691C20.1693 13.3076 27.202 22.504 25.1601 25.0595C25.1601 25.0595 24.6541 25.8215 23.9873 26.1072C23.1102 26.4861 17.5063 26.0814 10.1482 21.0695C9.72153 20.7044 6.58223 18.5992 11.0947 13.4861H11.1047ZM6.29847 37.6786C4.43116 32.123 6.27267 31.1072 7.94948 30.5873C10.676 29.7421 22.1597 28.248 23.3543 31.2977C23.3543 31.2977 23.7512 32.1171 23.6777 32.8373C23.5666 33.7877 20.4134 38.4365 12.3945 42.3016C11.8627 42.4782 8.46939 44.1449 6.29847 37.6786ZM31.8971 50.9624C31.782 51.51 31.53 55.2818 24.8446 53.9286C19.0898 52.7659 19.1394 50.6667 19.5264 48.9544C20.1574 46.1766 24.6045 35.4802 27.845 35.9703C27.845 35.9703 28.7598 36.0278 29.3412 36.4604C30.1171 37.0318 32.5678 42.0854 31.907 50.9624H31.8971ZM29.9663 32.3115C30.092 32.3115 30.2148 32.3488 30.3193 32.4187C30.4237 32.4885 30.5051 32.5878 30.5531 32.704C30.6011 32.8201 30.6136 32.9478 30.5889 33.0711C30.5643 33.1943 30.5036 33.3074 30.4146 33.3961C30.3256 33.4848 30.2122 33.5452 30.0889 33.5694C29.9656 33.5937 29.8379 33.5808 29.7219 33.5325C29.6059 33.4841 29.5069 33.4024 29.4373 33.2978C29.3678 33.1931 29.3309 33.0701 29.3313 32.9445C29.3323 32.861 29.3498 32.7786 29.3829 32.7019C29.4159 32.6253 29.4637 32.5559 29.5237 32.4978C29.5836 32.4397 29.6545 32.3941 29.7321 32.3635C29.8098 32.3328 29.8927 32.3179 29.9762 32.3195L29.9663 32.3115ZM29.3551 27.0536C29.3551 26.928 29.3923 26.8053 29.4621 26.7009C29.5319 26.5964 29.631 26.5151 29.7471 26.467C29.8631 26.419 29.9908 26.4064 30.114 26.4309C30.2371 26.4554 30.3503 26.5158 30.4391 26.6046C30.5279 26.6934 30.5884 26.8066 30.6129 26.9297C30.6374 27.0529 30.6248 27.1806 30.5768 27.2966C30.5287 27.4126 30.4473 27.5117 30.3429 27.5815C30.2385 27.6513 30.1157 27.6885 29.9901 27.6885C29.8249 27.6855 29.6674 27.6183 29.5508 27.5014C29.4342 27.3844 29.3675 27.2267 29.365 27.0615L29.3551 27.0536ZM32.5043 32.0417C32.3787 32.0417 32.2559 32.0045 32.1515 31.9347C32.0471 31.8649 31.9657 31.7658 31.9176 31.6498C31.8696 31.5337 31.857 31.4061 31.8815 31.2829C31.906 31.1598 31.9665 31.0466 32.0553 30.9578C32.1441 30.869 32.2572 30.8086 32.3804 30.7841C32.5036 30.7596 32.6313 30.7721 32.7473 30.8202C32.8633 30.8682 32.9625 30.9496 33.0323 31.054C33.1021 31.1584 33.1393 31.2812 33.1393 31.4068C33.1393 31.4902 33.1229 31.5727 33.091 31.6498C33.0591 31.7268 33.0123 31.7968 32.9533 31.8557C32.8944 31.9147 32.8244 31.9615 32.7473 31.9934C32.6703 32.0253 32.5877 32.0417 32.5043 32.0417ZM32.5043 29.125C32.3787 29.125 32.2559 29.0878 32.1515 29.018C32.0471 28.9483 31.9657 28.8491 31.9176 28.7331C31.8696 28.6171 31.857 28.4894 31.8815 28.3662C31.906 28.2431 31.9665 28.1299 32.0553 28.0412C32.1441 27.9524 32.2572 27.8919 32.3804 27.8674C32.5036 27.8429 32.6313 27.8555 32.7473 27.9035C32.8633 27.9516 32.9625 28.033 33.0323 28.1374C33.1021 28.2418 33.1393 28.3645 33.1393 28.4901C33.1401 28.574 33.1243 28.6572 33.0927 28.7349C33.0611 28.8126 33.0145 28.8833 32.9554 28.9429C32.8964 29.0025 32.8261 29.0498 32.7487 29.0821C32.6713 29.1144 32.5882 29.131 32.5043 29.131V29.125ZM31.4466 23.5099C31.4466 23.5099 30.5338 23.4544 29.9524 23.0199C29.1864 22.4484 26.7337 17.3949 27.3965 8.51787C27.5096 7.97025 27.7636 4.19842 34.449 5.54167C40.2037 6.70636 40.1541 8.80556 39.7672 10.5159C39.1341 13.3036 34.6891 23.9941 31.4466 23.5099ZM48.2068 45.9941C44.3233 50.385 42.5374 49.3036 41.2396 48.1131C39.1441 46.1727 32.1114 36.9782 34.1533 34.4227C34.1533 34.4227 34.6593 33.6607 35.3261 33.373C36.2032 32.9941 41.8071 33.3988 49.1633 38.4108C49.582 38.7699 52.7213 40.875 48.2068 45.9862V45.9941ZM51.354 28.8929C48.6275 29.7401 37.1438 31.2342 35.9492 28.1826C35.9492 28.1826 35.5523 27.3631 35.6257 26.6429C35.7369 25.6945 38.8901 21.0437 46.909 17.1786C47.4408 17.004 50.8341 15.3373 53.005 21.8016C54.8723 27.3572 53.0308 28.3671 51.354 28.885V28.8929Z" fill="#D3C9C2"/>
</svg>
