<svg width="14" height="14" viewBox="0 0 14 14" fill="none" xmlns="http://www.w3.org/2000/svg">
<path d="M1.0653 5.10223C0.896991 5.15576 0.743437 5.24769 0.616774 5.37077C0.490112 5.49385 0.393815 5.6447 0.335492 5.81139C0.166916 6.36022 -0.192852 6.55138 0.129911 6.88849C0.452674 7.2256 1.08175 9.07765 3.50762 8.9646C3.50762 8.9646 2.94227 9.28732 2.82097 10.3172C2.69968 11.347 3.37193 11.2689 3.43772 11.8136C3.5035 12.3583 2.98955 12.4426 3.54462 12.8414C4.09969 13.2401 3.82421 13.9349 4.65887 13.4683C5.4259 13.0433 6.12736 12.5095 6.74141 11.8835C7.2122 11.3799 7.54935 11.4539 8.10031 11.6224C8.65127 11.791 7.92557 12.3357 9.07271 12.7632C10.2199 13.1908 10.0718 13.086 10.6475 12.827C11.2231 12.568 10.9867 12.5104 11.3608 11.828C11.735 11.1455 11.552 11.4045 12.3332 11.4045C13.1144 11.4045 13.7497 11.2976 13.9614 10.6111C14.1732 9.92454 13.468 8.63982 12.9335 8.59871C12.399 8.5576 12.436 8.74671 12.6108 8.03343C12.7855 7.32016 13.0651 6.84944 12.5203 6.51644C11.9755 6.18344 12.5635 6.37872 12.0228 5.88128C11.4821 5.38384 12.3682 6.18344 11.034 5.23172L9.70179 4.28206C9.70179 4.28206 10.4254 3.34679 9.65451 2.62735C8.88358 1.90791 8.48064 1.45569 8.09003 1.45569C7.69943 1.45569 8.13732 1.54407 7.37666 2.06207C6.61601 2.58007 6.52967 2.85551 6.31792 2.3704C6.10617 1.88529 6.33436 1.48858 5.79574 0.991134C5.25712 0.493691 5.38458 0.247025 4.99192 0.473135C4.59925 0.699245 4.60131 1.64685 4.20454 1.42074C3.80776 1.19463 3.82421 1.09186 3.58779 1.09802C3.35137 1.10419 4.06885 0.275804 3.68236 0.105193C3.29587 -0.065417 2.87854 -0.0222529 2.39336 0.189468C1.90819 0.40119 1.22977 0.253191 0.870003 0.444357C0.510235 0.635523 0.458841 0.54508 0.428004 1.29947C0.397166 2.05385 0.131966 2.26146 0.428004 2.47318C0.724041 2.6849 1.12081 2.91101 1.04475 3.08984C0.968683 3.26868 0.125796 2.65613 0.0949592 3.24812C0.0641219 3.84012 0.310821 4.35401 0.606859 4.56367C0.798939 4.70568 0.955794 4.88995 1.0653 5.10223Z" fill="#EAE0C7"/>
</svg>
