<svg width="16" height="16" viewBox="0 0 16 16" fill="none" xmlns="http://www.w3.org/2000/svg">
<path d="M8.09998 11V12.4" stroke="white" stroke-linecap="round" stroke-linejoin="round"/>
<path d="M4.76666 14.666H11.4333V13.9993C11.4333 13.266 10.8333 12.666 10.1 12.666H6.1C5.36666 12.666 4.76666 13.266 4.76666 13.9993V14.666V14.666Z" stroke="white" stroke-miterlimit="10"/>
<path d="M4.09998 14.666H12.1" stroke="white" stroke-linecap="round" stroke-linejoin="round"/>
<path d="M7.99998 10.6673C5.41998 10.6673 3.33331 8.58065 3.33331 6.00065V4.00065C3.33331 2.52732 4.52665 1.33398 5.99998 1.33398H9.99998C11.4733 1.33398 12.6666 2.52732 12.6666 4.00065V6.00065C12.6666 8.58065 10.58 10.6673 7.99998 10.6673Z" stroke="white" stroke-linecap="round" stroke-linejoin="round"/>
<path d="M3.64665 7.76706C3.14665 7.60706 2.70665 7.31372 2.35999 6.96706C1.75999 6.30039 1.35999 5.50039 1.35999 4.56706C1.35999 3.63372 2.09332 2.90039 3.02665 2.90039H3.45999C3.32665 3.20706 3.25999 3.54706 3.25999 3.90039V5.90039C3.25999 6.56706 3.39999 7.19372 3.64665 7.76706Z" stroke="white" stroke-linecap="round" stroke-linejoin="round"/>
<path d="M12.3533 7.76706C12.8533 7.60706 13.2933 7.31372 13.64 6.96706C14.24 6.30039 14.64 5.50039 14.64 4.56706C14.64 3.63372 13.9067 2.90039 12.9733 2.90039H12.54C12.6733 3.20706 12.74 3.54706 12.74 3.90039V5.90039C12.74 6.56706 12.6 7.19372 12.3533 7.76706Z" stroke="white" stroke-linecap="round" stroke-linejoin="round"/>
</svg>
