<svg width="16" height="16" viewBox="0 0 16 16" fill="none" xmlns="http://www.w3.org/2000/svg">
<path d="M13.6666 7.533V4.69301C13.6666 2.00635 13.04 1.33301 10.52 1.33301H5.47998C2.95998 1.33301 2.33331 2.00635 2.33331 4.69301V12.1997C2.33331 13.973 3.30665 14.393 4.48665 13.1263L4.49331 13.1197C5.03997 12.5397 5.87331 12.5863 6.34664 13.2197L7.01998 14.1197" stroke="#10A7FC" stroke-width="1.5" stroke-linecap="round" stroke-linejoin="round"/>
<path d="M12.1333 14.2667C13.3115 14.2667 14.2667 13.3115 14.2667 12.1333C14.2667 10.9551 13.3115 10 12.1333 10C10.9551 10 10 10.9551 10 12.1333C10 13.3115 10.9551 14.2667 12.1333 14.2667Z" stroke="#10A7FC" stroke-width="1.5" stroke-linecap="round" stroke-linejoin="round"/>
<path d="M14.6667 14.6667L14 14" stroke="#10A7FC" stroke-width="1.5" stroke-linecap="round" stroke-linejoin="round"/>
<path d="M5.33331 4.66699H10.6666" stroke="#10A7FC" stroke-width="1.5" stroke-linecap="round" stroke-linejoin="round"/>
<path d="M6 7.33301H10" stroke="#10A7FC" stroke-width="1.5" stroke-linecap="round" stroke-linejoin="round"/>
</svg>
