<svg width="3" height="3" viewBox="0 0 3 3" fill="none" xmlns="http://www.w3.org/2000/svg">
<path d="M0 1.54279C0.0164805 1.48159 0.0706361 1.14732 0.277819 1.03432C0.485002 0.921327 0.362573 0.817749 0.760459 0.798917C1.0702 0.760507 1.35504 0.609723 1.56094 0.375188C1.7328 0.229237 2.04358 -0.00852019 2.14953 0.000895988C2.25547 0.0103122 2.30727 -0.0202916 2.4038 0.0291434C2.50033 0.0785783 2.58273 -0.13564 2.62746 0.160969C2.67328 0.393418 2.69146 0.630467 2.68161 0.867183C2.66902 1.17049 2.6119 1.47031 2.5121 1.75701C2.46467 1.95845 2.38003 2.14926 2.26254 2.31963C2.11186 2.53856 1.91173 2.85165 1.85287 2.90108C1.79402 2.95051 1.78225 3.07528 1.45028 2.93639C1.27351 2.87658 1.10623 2.79175 0.953517 2.6845C0.759545 2.57157 0.587323 2.42489 0.444976 2.25136C0.373473 2.15012 0.294792 2.05414 0.209541 1.96417L0.0117761 1.66521L0 1.54279Z" fill="#8C5325"/>
</svg>
