<svg width="10" height="8" viewBox="0 0 10 8" fill="none" xmlns="http://www.w3.org/2000/svg">
<path d="M5.56186 2.47201C5.56186 2.47201 6.95732 0.247638 9.7968 3.92392C9.7968 3.92392 10.0921 4.45979 9.97074 5.40009C9.84939 6.3404 9.37614 8.23112 7.62472 7.79838C5.87331 7.36563 6.2515 6.57497 5.90567 6.47588C5.55983 6.3768 6.31015 7.11893 4.76502 7.04411C3.21989 6.96929 2.68395 6.96929 2.52822 6.47184C2.3725 5.97439 1.92149 5.47087 2.57069 5.28483C2.93759 5.1829 3.29878 5.06139 3.65269 4.92084C3.65269 4.92084 3.36753 4.08974 3.09046 4.00885C2.81338 3.92796 2.67586 3.88752 2.45744 4.12614C2.23901 4.36475 2.42305 5.01589 1.96801 5.03408C1.51296 5.05228 0.966912 5.11901 0.966912 5.11901C0.966912 5.11901 0.463327 5.04824 0.453215 4.82176C0.443103 4.59528 0.829385 5.08059 0.453215 4.59325C0.0770441 4.10591 -0.139353 4.04727 0.101315 3.21616C0.341983 2.38506 0.85163 0.880574 1.29859 0.635893C1.74554 0.391212 1.78599 -0.274077 2.64754 0.124288C3.28262 0.394029 3.89186 0.720942 4.46773 1.10099C4.77513 1.3396 5.00164 1.33151 5.19984 1.68944C5.39804 2.04736 5.56186 2.47201 5.56186 2.47201Z" fill="#D8CBA4"/>
</svg>
