<svg width="34" height="28" viewBox="0 0 34 28" fill="none" xmlns="http://www.w3.org/2000/svg">
<g clip-path="url(#clip0_792_25790)">
<path d="M30.4286 7.03134C30.4492 7.32884 30.4492 7.62634 30.4492 7.92658C30.4492 17.075 23.4847 27.626 10.7498 27.626V27.6205C6.98782 27.626 3.30403 26.5484 0.137092 24.5167C0.684108 24.5825 1.23387 24.6154 1.785 24.6167C4.90258 24.6195 7.93104 23.5734 10.3837 21.6472C7.42104 21.591 4.82306 19.6593 3.91548 16.8392C4.9533 17.0394 6.02266 16.9983 7.04128 16.72C3.81129 16.0674 1.4875 13.2295 1.4875 9.93368C1.4875 9.90352 1.4875 9.87472 1.4875 9.84593C2.44991 10.382 3.52749 10.6795 4.62975 10.7124C1.58758 8.67924 0.649834 4.63215 2.48693 1.46795C6.00209 5.79336 11.1885 8.42287 16.756 8.70118C16.198 6.2965 16.9602 3.77666 18.7589 2.08626C21.5475 -0.535031 25.9332 -0.400676 28.5545 2.3865C30.1051 2.08078 31.5912 1.51182 32.9512 0.705695C32.4343 2.30836 31.3526 3.66973 29.9076 4.53481C31.28 4.37303 32.6208 4.00561 33.8835 3.44489C32.9539 4.83779 31.7831 6.0511 30.4286 7.03134Z" fill="#1D9BF0"/>
</g>
<defs>
<clipPath id="clip0_792_25790">
<rect width="33.0521" height="27.188" fill="white" transform="scale(1.02868)"/>
</clipPath>
</defs>
</svg>
