<svg width="4" height="4" viewBox="0 0 4 4" fill="none" xmlns="http://www.w3.org/2000/svg">
<path d="M4 1.99718C4.00051 2.3929 3.88358 2.77989 3.66401 3.10913C3.44444 3.43838 3.13211 3.69509 2.76655 3.84676C2.40099 3.99843 1.99865 4.03824 1.61045 3.96117C1.22225 3.88409 0.865654 3.69358 0.585796 3.41376C0.305938 3.13394 0.115393 2.77738 0.0383042 2.38923C-0.0387847 2.00108 0.00104368 1.59879 0.152735 1.23329C0.304427 0.867778 0.561168 0.555486 0.890457 0.335947C1.21975 0.116407 1.60678 -0.000503447 2.00256 1.62963e-06C2.53231 1.62963e-06 3.04036 0.210413 3.41496 0.584957C3.78955 0.959502 4 1.46749 4 1.99718Z" fill="#9E8B7D"/>
</svg>
