<svg width="32" height="32" viewBox="0 0 32 32" fill="none" xmlns="http://www.w3.org/2000/svg">
<path d="M16.7066 27.2268H8.27996C4.06663 27.2268 2.66663 24.4268 2.66663 21.6134V10.3868C2.66663 6.17344 4.06663 4.77344 8.27996 4.77344H16.7066C20.92 4.77344 22.32 6.17344 22.32 10.3868V21.6134C22.32 25.8268 20.9066 27.2268 16.7066 27.2268Z" stroke="#F5FBFF" stroke-width="2" stroke-linecap="round" stroke-linejoin="round"/>
<path d="M26.0266 22.8002L22.3199 20.2002V11.7868L26.0266 9.18684C27.8399 7.92018 29.3333 8.69351 29.3333 10.9202V21.0802C29.3333 23.3068 27.8399 24.0802 26.0266 22.8002Z" stroke="#F5FBFF" stroke-width="2" stroke-linecap="round" stroke-linejoin="round"/>
<path d="M15.3334 14.6665C16.4379 14.6665 17.3334 13.7711 17.3334 12.6665C17.3334 11.5619 16.4379 10.6665 15.3334 10.6665C14.2288 10.6665 13.3334 11.5619 13.3334 12.6665C13.3334 13.7711 14.2288 14.6665 15.3334 14.6665Z" stroke="#F5FBFF" stroke-width="2" stroke-linecap="round" stroke-linejoin="round"/>
</svg>
