<svg width="3" height="2" viewBox="0 0 3 2" fill="none" xmlns="http://www.w3.org/2000/svg">
<path opacity="0.6" d="M2.99961 1.4593C3.01578 1.38049 2.49633 1.24104 2.45388 1.14404C2.41144 1.04703 2.11636 0.867172 2.33666 0.754001C2.55697 0.640829 2.89652 0.719645 2.80961 0.551909C2.75859 0.451715 2.68277 0.366246 2.58937 0.303633C2.49597 0.241021 2.3881 0.203352 2.27602 0.194209C1.9688 0.141666 2.3023 -0.141263 1.46755 0.089121C0.6328 0.319505 0.297283 0.408424 0.228563 0.479156C0.159843 0.549888 -0.0483359 0.648914 0.0102783 0.842921C0.0688925 1.03693 0.224531 1.4492 0.378141 1.53812C0.53175 1.62704 0.745987 1.92411 1.03906 1.9423C1.29695 1.96403 1.55665 1.93799 1.80509 1.8655C2.00071 1.79012 2.20407 1.73657 2.41145 1.70585C2.54432 1.70574 2.67646 1.686 2.80356 1.64725C2.86217 1.60077 2.98748 1.53004 2.99961 1.4593Z" fill="white"/>
</svg>
