<svg width="20" height="8" viewBox="0 0 20 8" fill="none" xmlns="http://www.w3.org/2000/svg">
<path d="M20.0001 6.75106V7.28529C20.0001 6.68268 19.8204 6.05336 19.4301 5.64628C16.8061 3.53714 14.2569 1.58614 10.8512 0.909801C10.2926 0.762335 9.70531 0.762335 9.14675 0.909801C5.74318 1.58934 3.19291 3.53714 0.569936 5.64628C0.178574 6.05336 0 6.68268 0 7.28529V6.75106C0 6.14845 0.178574 5.51913 0.569936 5.11205C3.19291 3.00291 5.74425 0.793339 9.15209 0.110594C9.71102 -0.0368648 10.2987 -0.0368648 10.8576 0.110594C14.2633 0.790134 16.8114 2.99543 19.4355 5.10884C19.8204 5.51913 20.0001 6.14845 20.0001 6.75106Z" fill="#D95B29"/>
</svg>
