<svg width="16" height="16" viewBox="0 0 16 16" fill="none" xmlns="http://www.w3.org/2000/svg">
<path d="M4 6.66699H6" stroke="white" stroke-linecap="round" stroke-linejoin="round"/>
<path d="M4.50665 14.6668H11.4933C13.3333 14.6668 14.0667 13.5402 14.1533 12.1668L14.5 6.66017C14.54 6.04017 14.3467 5.46017 14.0067 5.00684" stroke="white" stroke-linecap="round" stroke-linejoin="round"/>
<path d="M12 3.99967C11.5933 3.99967 11.22 3.76634 11.0333 3.40634L10.5533 2.43967C10.2467 1.83301 9.44668 1.33301 8.76668 1.33301H7.24001C6.55334 1.33301 5.75334 1.83301 5.44668 2.43967L4.96668 3.40634C4.78001 3.76634 4.40668 3.99967 4.00001 3.99967C2.55334 3.99967 1.40668 5.21967 1.50001 6.65967L1.84668 12.1663C1.88001 12.713 2.02001 13.2263 2.29334 13.6397" stroke="white" stroke-linecap="round" stroke-linejoin="round"/>
<path d="M6.66666 11.5397C7.03332 11.8264 7.49999 11.9997 7.99999 11.9997C9.19332 11.9997 10.1667 11.0264 10.1667 9.83302C10.1667 9.40635 10.0467 9.01302 9.83332 8.67969" stroke="white" stroke-linecap="round" stroke-linejoin="round"/>
<path d="M14.6667 1.33301L1.33334 14.6663" stroke="white" stroke-linecap="round" stroke-linejoin="round"/>
</svg>
