<svg width="69" height="85" viewBox="0 0 69 85" fill="none" xmlns="http://www.w3.org/2000/svg">
<path fill-rule="evenodd" clip-rule="evenodd" d="M0 23.6342V38.2261C0 66.2054 18.1984 76.8048 31.5892 83.7321L34.0391 84.9998L36.489 83.7321C49.8798 76.8048 68.0782 66.2054 68.0782 38.2261V23.6342C63.8093 23.6342 60.1394 21.6555 57.7927 18.089C55.4461 14.5218 55.0805 10.3678 56.7693 6.44608C54.9872 5.7732 53.1559 5.12307 51.2859 4.50119C45.1594 2.46413 39.2939 0.958617 34.0391 0C28.7842 0.958617 22.9188 2.46413 16.7922 4.50119C14.9217 5.12307 13.091 5.7732 11.3089 6.44608C12.9976 10.3678 12.6321 14.5218 10.2854 18.089C7.93815 21.6555 4.26825 23.6342 0 23.6342ZM17.4016 9.7109C17.785 13.5902 16.8279 17.4794 14.5709 20.9101C12.2562 24.4281 8.96282 26.8794 5.13013 28.0272V38.2261C5.13013 48.4581 7.74096 57.7259 14.6096 65.4667C19.9775 71.5159 26.8498 75.5027 33.9457 79.1744L34.0391 79.2229L34.1325 79.1744C41.2284 75.5033 48.1007 71.5165 53.4686 65.4667C60.3378 57.7259 62.9486 48.4581 62.9486 38.2261V28.0272C59.116 26.8794 55.8226 24.4281 53.5085 20.9101C51.2509 17.4794 50.2938 13.5902 50.6771 9.7109C50.3411 9.59661 50.0051 9.48354 49.6684 9.3717C44.5709 7.6763 39.3234 6.23592 34.0397 5.22138C28.756 6.23592 23.5085 7.67692 18.411 9.3717C18.0737 9.48293 17.7377 9.59661 17.4016 9.7109Z" fill="#B3B3B3"/>
</svg>
