<svg width="39" height="44" viewBox="0 0 39 44" fill="none" xmlns="http://www.w3.org/2000/svg">
<rect width="393" height="852" transform="translate(-306.966 -162.305) scale(1.01897)" fill="#F5FBFF"/>
<path d="M33.1892 42.217H5.70896C4.66778 42.217 3.66925 41.8034 2.93303 41.0672C2.19681 40.331 1.78321 39.3324 1.78321 38.2913V20.6254C1.78321 19.5842 2.19681 18.5857 2.93303 17.8495C3.66925 17.1132 4.66778 16.6996 5.70896 16.6996H33.1892C34.2304 16.6996 35.2289 17.1132 35.9651 17.8495C36.7014 18.5857 37.115 19.5842 37.115 20.6254V38.2913C37.115 39.3324 36.7014 40.331 35.9651 41.0672C35.2289 41.8034 34.2304 42.217 33.1892 42.217Z" stroke="#221602" stroke-width="3.5"/>
<path d="M28.282 30.4394C28.0217 30.4394 27.7721 30.336 27.588 30.152C27.4039 29.9679 27.3005 29.7183 27.3005 29.458C27.3005 29.1977 27.4039 28.9481 27.588 28.764C27.7721 28.58 28.0217 28.4766 28.282 28.4766C28.5423 28.4766 28.7919 28.58 28.976 28.764C29.16 28.9481 29.2634 29.1977 29.2634 29.458C29.2634 29.7183 29.16 29.9679 28.976 30.152C28.7919 30.336 28.5423 30.4394 28.282 30.4394Z" stroke="#221602" stroke-width="3.5" stroke-linecap="round" stroke-linejoin="round"/>
<path d="M31.2263 16.6993V13.9572C31.2262 13.3556 31.0877 12.762 30.8217 12.2224C30.5557 11.6828 30.1692 11.2116 29.6921 10.8451C29.215 10.4786 28.6601 10.2266 28.0701 10.1087C27.4802 9.99075 26.871 10.01 26.2897 10.1649L4.69808 15.922C3.86199 16.1448 3.12294 16.6376 2.59582 17.3238C2.06869 18.0099 1.78301 18.851 1.78321 19.7163V20.6251" stroke="#221602" stroke-width="3.5"/>
<line x1="13.3773" y1="3.85095" x2="16.4653" y2="7.61363" stroke="#221602" stroke-width="2" stroke-linecap="round"/>
<line x1="22.1204" y1="1.27796" x2="22.9258" y2="6.02438" stroke="#221602" stroke-width="2" stroke-linecap="round"/>
<line x1="30.9843" y1="1.01967" x2="29.3103" y2="5.59037" stroke="#221602" stroke-width="2" stroke-linecap="round"/>
</svg>
