<svg width="1" height="3" viewBox="0 0 1 3" fill="none" xmlns="http://www.w3.org/2000/svg">
<path opacity="0.6" d="M0.758916 0C0.501313 0.331016 0.347336 0.730796 0.316345 1.14907C0.273486 1.35403 0.253804 1.56315 0.257664 1.7725C0.282116 1.92897 0.301676 2.13433 0.333463 2.26146C0.36525 2.38859 0.46306 2.65754 0.489956 2.71621C0.516192 2.76392 0.524013 2.81958 0.511954 2.87267C0.497283 2.9509 0.533972 3.03159 0.416605 2.98758C0.299238 2.94358 0.225885 2.92891 0.189208 2.84823C0.123747 2.75895 0.0847608 2.65303 0.0767258 2.54262C0.0498292 2.31526 0.0107074 2.07077 0.00092684 1.88497C-0.00885375 1.69916 0.0620531 1.16619 0.059608 0.99994C0.07702 0.781073 0.136805 0.567674 0.235651 0.371618C0.284554 0.327611 0.421483 0.0978026 0.480166 0.0709095C0.53885 0.0440164 0.758916 0 0.758916 0Z" fill="#A8632A"/>
</svg>
