<svg width="1" height="2" viewBox="0 0 1 2" fill="none" xmlns="http://www.w3.org/2000/svg">
<path d="M0.548974 1.08029L0.654628 0.783969C0.748505 0.689652 0.834683 0.587973 0.912337 0.479909C0.966264 0.388308 0.996394 0.284662 0.999965 0.178429C0.984503 0.111433 0.999963 -0.0302879 0.925228 0.00578674C0.829082 0.051997 0.741843 0.114802 0.667518 0.191314C0.615853 0.245529 0.573995 0.308304 0.543814 0.376841C0.543814 0.425799 0.543817 0.557212 0.481967 0.536598C0.437375 0.512815 0.397951 0.480408 0.365994 0.441259C0.365994 0.441259 0.252603 0.418069 0.221677 0.477334C0.210877 0.50031 0.20528 0.525385 0.20528 0.550772C0.20528 0.57616 0.210877 0.601231 0.221677 0.624207C0.221677 0.680896 0.309303 0.791698 0.306726 0.850963C0.299086 0.934428 0.267794 1.01398 0.216526 1.08029C0.169189 1.13502 0.118404 1.18666 0.0644783 1.2349L0.00520228 1.36374C0.00520228 1.36374 -0.0179875 1.47711 0.0335544 1.49773C0.0850963 1.51834 0.0799349 1.53638 0.146939 1.52092C0.294985 1.38749 0.429641 1.23991 0.548974 1.08029Z" fill="#8C5325"/>
</svg>
