<svg width="16" height="16" viewBox="0 0 16 16" fill="none" xmlns="http://www.w3.org/2000/svg">
<path d="M8 8L14 2" stroke="#4D4D4D" stroke-linecap="round" stroke-linejoin="round"/>
<path d="M12.2438 3.75569C11.18 2.68879 9.75456 2.0601 8.24944 1.99406C6.74432 1.92803 5.26925 2.42945 4.11619 3.3991C2.96313 4.36874 2.21612 5.73594 2.023 7.23008C1.82988 8.72422 2.20473 10.2364 3.07337 11.4674C3.942 12.6983 5.2411 13.5583 6.71355 13.8771C8.186 14.1959 9.72449 13.9503 11.0245 13.1889C12.3245 12.4276 13.2913 11.2059 13.7335 9.76565C14.1758 8.32545 14.0612 6.7717 13.4125 5.41194" stroke="#4D4D4D" stroke-linecap="round" stroke-linejoin="round"/>
<path d="M10.1187 5.8817C9.62327 5.3876 8.97036 5.08268 8.27345 5.01989C7.57653 4.95711 6.87964 5.14042 6.30383 5.538C5.72801 5.93558 5.30965 6.5223 5.12142 7.19624C4.93319 7.87018 4.98698 8.58877 5.27345 9.22718C5.55991 9.86559 6.06096 10.3835 6.68955 10.6909C7.31813 10.9983 8.03455 11.0759 8.71435 10.91C9.39415 10.7442 9.99438 10.3455 10.4108 9.7831C10.8272 9.22075 11.0335 8.53031 10.9937 7.8317" stroke="#4D4D4D" stroke-linecap="round" stroke-linejoin="round"/>
</svg>
