<svg width="15" height="15" viewBox="0 0 15 15" fill="none" xmlns="http://www.w3.org/2000/svg">
<path d="M10.7907 12.3287H4.25981C3.96801 12.3287 3.64147 12.0994 3.5442 11.8215L0.66785 3.77608C0.257936 2.62276 0.737328 2.26842 1.7239 2.97709L4.4335 4.9155C4.88511 5.22815 5.39924 5.06835 5.59377 4.56117L6.81657 1.30269C7.20564 0.260539 7.85177 0.260539 8.24085 1.30269L9.46364 4.56117C9.65818 5.06835 10.1723 5.22815 10.617 4.9155L13.1598 3.10215C14.2437 2.32401 14.7647 2.72003 14.3201 3.97756L11.5132 11.8354C11.409 12.0994 11.0825 12.3287 10.7907 12.3287Z" stroke="white" stroke-linecap="round" stroke-linejoin="round"/>
<path d="M3.70403 14.4253H11.3465" stroke="white" stroke-linecap="round" stroke-linejoin="round"/>
<path d="M5.78834 8.8685H9.26219" stroke="white" stroke-linecap="round" stroke-linejoin="round"/>
</svg>
