<svg width="56" height="72" viewBox="0 0 56 72" fill="none" xmlns="http://www.w3.org/2000/svg">
<path fill-rule="evenodd" clip-rule="evenodd" d="M0 22.5713V32.0497C0 42.037 2.52258 51.105 9.24636 58.6824C14.4209 64.5135 21.1225 68.443 27.9602 71.9997C34.798 68.443 41.4996 64.5135 46.6741 58.6824C53.3979 51.105 55.9204 42.037 55.9204 32.0497V22.5713C52.071 21.2373 48.8733 18.6708 46.623 15.2509C44.4638 11.969 43.355 8.0913 43.5577 4.17413C43.4745 4.1464 43.3907 4.11867 43.3076 4.09033C38.2821 2.41981 33.1606 1.00872 27.9602 0C22.7592 1.00872 17.6383 2.4192 12.6129 4.09033C12.5291 4.11805 12.4459 4.14578 12.3628 4.17413C12.5661 8.0913 11.4572 11.9684 9.29749 15.2509C7.04781 18.6708 3.84947 21.2373 0 22.5713Z" fill="#9500AF"/>
</svg>
