<svg width="2" height="2" viewBox="0 0 2 2" fill="none" xmlns="http://www.w3.org/2000/svg">
<path opacity="0.6" d="M2.00004 1.0199C1.92376 0.814796 1.8597 0.60536 1.80816 0.392687C1.77126 0.188533 1.78601 -0.0328356 1.58429 0.00405973C1.41609 0.012522 1.25796 0.0867231 1.14396 0.210672C0.991437 0.365633 0.841368 0.456638 0.858588 0.537807C0.887822 0.641164 0.922318 0.74296 0.961919 0.842806C0.961919 0.842806 0.639654 0.759177 0.619974 0.596837C0.600294 0.434498 1.08983 -0.155826 0.565846 0.1049C0.0418642 0.365627 -0.0270058 0.434498 0.00743429 0.535345C0.0455376 0.657003 0.104641 0.771057 0.182085 0.872328C0.250966 0.9412 0.573238 1.02237 0.762659 1.14043C0.952079 1.2585 1.22268 1.4233 1.39242 1.3864C1.48007 1.37589 1.56418 1.34561 1.63842 1.29785C1.74686 1.24947 1.8609 1.21477 1.9779 1.19455L2.00004 1.0199Z" fill="white"/>
</svg>
