<svg width="3" height="2" viewBox="0 0 3 2" fill="none" xmlns="http://www.w3.org/2000/svg">
<path d="M0.0700079 0.177511L0.446699 0.115674C0.806524 0.0032431 1.48119 -0.111995 1.78479 0.211243C2.08839 0.534481 2.04904 0.540103 2.25987 0.624426C2.47071 0.708749 3.0245 0.773396 2.9992 0.905502C2.9739 1.03761 1.92254 1.6897 1.64424 1.57165C1.49636 1.52064 1.35486 1.45274 1.22257 1.36928C0.994864 1.23436 0.78684 1.05166 0.660339 0.975771C0.533838 0.899881 0.292079 0.880206 0.202123 0.756532C0.112167 0.632858 -0.0199542 0.590694 0.00253489 0.511992C0.025024 0.433291 0.0700079 0.177511 0.0700079 0.177511Z" fill="#8C5325"/>
</svg>
