<svg width="20" height="20" viewBox="0 0 20 20" fill="none" xmlns="http://www.w3.org/2000/svg">
<path d="M2.15802 13.2965L6.69489 17.8334C8.55771 19.6962 11.5823 19.6962 13.4551 17.8334L17.8518 13.4367C19.7146 11.5739 19.7146 8.54931 17.8518 6.67647L13.3049 2.14962C12.3535 1.19818 11.0415 0.687408 9.69944 0.757514L4.69186 0.997878C2.68883 1.08801 1.09642 2.68042 0.996264 4.67344L0.7559 9.68102C0.695809 11.0331 1.20658 12.3451 2.15802 13.2965Z" stroke="#10A7FC" stroke-width="1.5" stroke-linecap="round" stroke-linejoin="round"/>
<path d="M7.49609 9.99169C8.87889 9.99169 9.99988 8.8707 9.99988 7.4879C9.99988 6.10509 8.87889 4.98411 7.49609 4.98411C6.11328 4.98411 4.9923 6.10509 4.9923 7.4879C4.9923 8.8707 6.11328 9.99169 7.49609 9.99169Z" stroke="#10A7FC" stroke-width="1.5" stroke-linecap="round"/>
<path d="M11.0014 14.9993L15.0075 10.9932" stroke="#10A7FC" stroke-width="1.5" stroke-miterlimit="10" stroke-linecap="round" stroke-linejoin="round"/>
</svg>
