<svg width="7" height="9" viewBox="0 0 7 9" fill="none" xmlns="http://www.w3.org/2000/svg">
<path opacity="0.5" d="M5.58913 8.73123C5.53967 8.62804 5.68374 8.46034 5.7461 8.30125C5.8507 7.62463 5.91817 6.9428 5.94822 6.25881C5.93532 6.11906 6.03207 5.78367 5.84071 5.51278C5.72222 5.29305 5.54794 5.10841 5.3354 4.97744C5.04942 4.799 4.87956 4.6055 4.72474 4.50231C4.5694 4.35904 4.44374 4.18664 4.3549 3.99492C4.25828 3.75122 4.21785 3.48887 4.23664 3.22739C4.27749 3.0124 4.3205 2.75225 4.3721 2.53511C4.42088 2.33832 4.44258 2.13579 4.43661 1.93313C4.41296 1.88153 4.45596 1.72888 4.29684 1.81058C4.13773 1.89228 3.56147 2.10942 3.50126 2.13522C3.27574 2.19321 3.05885 2.28068 2.8562 2.39537C2.69493 2.52651 2.64117 2.50931 2.59602 2.63186C2.53114 2.7673 2.45938 2.89934 2.38099 3.02745C2.30574 3.15859 2.28424 3.30264 2.13372 3.40369C1.99642 3.51607 1.84362 3.60803 1.68003 3.67673C1.33599 3.84012 1.20267 3.92397 1.01776 4.00567C0.916695 4.04867 0.0114563 4.34106 0.000705156 4.25721C-0.0100459 4.17337 0.101764 4.04222 0.361941 3.82723C0.45225 3.70898 0.439347 3.76703 0.501704 3.53483C0.531807 3.50688 0.469452 3.44238 1.10807 3.17364C1.26668 3.10522 1.41796 3.02095 1.55962 2.9221C1.64555 2.87566 1.71981 2.81031 1.7768 2.73098C1.83379 2.65165 1.87202 2.56042 1.8886 2.46416C1.91562 2.32359 1.97045 2.18982 2.04987 2.07072C2.11867 1.96323 2.12512 1.89873 2.20683 1.84068C2.28854 1.78263 2.3724 1.64719 2.49066 1.64289C2.60892 1.63859 2.90995 1.66438 2.99381 1.66438C3.07767 1.66438 3.3916 1.2516 3.51846 1.2086C3.64533 1.1656 3.68403 0.976405 3.73348 0.952755C3.78294 0.929106 4.04097 0.903308 4.07107 0.83021C4.10117 0.757113 4.26674 0.389472 4.26674 0.389472C4.26674 0.389472 4.38285 -0.077063 4.50541 0.0110844C4.62798 0.0992319 5.08382 0.176629 5.10963 0.251876C5.15308 0.404568 5.15159 0.566549 5.10533 0.718413C5.07952 0.795811 4.99352 1.06455 4.99352 1.06455C4.99352 1.06455 5.13543 1.15485 5.17198 1.1269C5.20854 1.09895 5.2881 1.09895 5.3139 0.989304C5.34309 0.873725 5.38718 0.762431 5.44506 0.658215C5.47301 0.634565 5.54397 0.548567 5.57838 0.570066C5.66497 0.603946 5.75324 0.633368 5.84285 0.658215C6.22559 0.780761 6.19119 0.948457 6.18474 1.05165C6.18864 1.17465 6.16893 1.29726 6.12668 1.41284C6.08798 1.49024 6.15679 1.55259 6.06218 1.82133C6.04283 1.87508 5.98047 1.89658 5.95251 1.94388C5.87809 2.02 5.78327 2.07301 5.67944 2.09652C5.59773 2.10942 5.46441 2.19112 5.45151 2.24702C5.43861 2.30292 5.49237 2.37171 5.53107 2.40396C5.57829 2.49281 5.60406 2.59147 5.60633 2.69205C5.61194 2.75678 5.62867 2.82006 5.65578 2.8791C5.65578 2.8791 6.53522 3.30909 6.73089 3.74983C6.83195 3.96482 6.99752 4.20131 6.94592 4.46361C6.9078 4.72767 6.89699 4.99496 6.91366 5.26123C6.93087 5.43753 6.97172 5.95566 6.98032 6.11046C7.00114 6.33055 7.00546 6.5519 6.99322 6.77264C6.96527 6.84574 6.49652 7.52727 6.47286 7.58532C6.44921 7.64336 6.24494 8.0153 6.23204 8.06905C6.21914 8.1228 6.44706 8.28405 6.46212 8.37864C6.47717 8.47324 6.52878 8.64739 6.39116 8.69683C6.20951 8.75835 6.02424 8.80861 5.8364 8.84733C5.78695 8.83873 5.63643 8.83443 5.58913 8.73123Z" fill="#A8632A"/>
</svg>
