<svg width="2" height="2" viewBox="0 0 2 2" fill="none" xmlns="http://www.w3.org/2000/svg">
<path opacity="0.6" d="M1.15291 0C1.17529 0.18943 1.13929 0.381175 1.04972 0.54959C0.90089 0.747999 0.833417 0.934506 0.94454 1.0972C1.06615 1.23182 1.14851 1.39721 1.18266 1.57536C1.17437 1.71865 1.15245 1.86083 1.11719 1.99996C0.963707 1.9017 0.82015 1.78874 0.688563 1.66266C0.564811 1.52968 0.426337 1.4112 0.275815 1.3095C0.186861 1.27359 0.0944357 1.247 0 1.23013L0.0932586 0.940456C0.0932586 0.940456 0.190497 0.982122 0.569507 0.621018L0.950499 0.261898C0.964389 0.24801 1.15291 0 1.15291 0Z" fill="white"/>
</svg>
