<svg width="94" height="107" viewBox="0 0 94 107" fill="none" xmlns="http://www.w3.org/2000/svg">
<path d="M76.4329 106.419C70.6465 106.545 65.0891 99.5679 65.0891 99.5679V97.4257C64.7405 97.3911 64.4121 97.3408 64.1069 97.2741C60.7135 96.5495 59.8375 94.0632 59.8375 94.0632V91.6781C54.8929 87.4602 47.0325 85.041 47.0325 85.041C39.0732 85.4996 28.3793 96.0426 28.3793 96.0426L27.7023 98.8018C24.2698 103.542 18.1648 106.418 18.1648 106.418L18.6601 99.173L18.8779 96.008L23.0698 34.793L72.4632 35.2955C71.8622 52.3013 74.916 89.2401 76.0334 101.987C76.2818 104.785 76.4329 106.419 76.4329 106.419Z" fill="url(#paint0_linear_791_10302)"/>
<path d="M76.4329 106.419C70.6465 106.545 65.0891 99.5684 65.0891 99.5684V97.4262C64.7405 97.3916 64.4121 97.3413 64.1069 97.2746C60.7135 96.55 59.8375 94.0637 59.8375 94.0637V91.6786C54.8929 87.4607 47.0325 85.0415 47.0325 85.0415C39.0732 85.5001 28.3793 96.0431 28.3793 96.0431L27.7023 98.8023C24.2698 103.543 18.1648 106.419 18.1648 106.419L18.6601 99.1735C18.6601 99.1735 23.8599 98.5407 27.7018 92.3484C27.7018 92.3484 37.1992 82.8602 46.5555 80.8009C46.5555 80.8009 55.3937 84.6836 60.0123 87.7524V89.8626C60.0123 89.8626 61.228 94.4951 65.5301 93.9561V95.5593C65.5301 95.5593 69.0841 101.837 76.0339 101.988C76.2818 104.786 76.4329 106.419 76.4329 106.419Z" fill="url(#paint1_linear_791_10302)"/>
<path opacity="0.5" d="M76.433 106.419C76.433 106.419 71.491 70.1276 70.05 69.4049C68.6066 68.6823 65.0897 97.4261 65.0897 97.4261C64.7411 97.3916 64.4127 97.3413 64.1075 97.2746C64.1075 97.2746 62.9925 75.8603 61.6706 75.9408C60.3467 76.0213 59.8375 91.6786 59.8375 91.6786C54.893 87.4607 47.0325 85.0415 47.0325 85.0415C39.0733 85.5 28.3794 96.0431 28.3794 96.0431C27.0026 77.5554 24.0343 77.78 23.5756 78.129C23.1168 78.4775 18.9012 96.0431 18.9012 96.0431C18.9012 96.0431 18.8942 96.0317 18.878 96.0085L23.0699 34.794L72.4633 35.2965C71.7319 56.0365 76.433 106.419 76.433 106.419Z" fill="#8E3D9C"/>
<path d="M29.7847 38.5718L24.9716 41.1163L21.4462 58.5931C20.2418 58.6805 16.9921 56.8635 14.1635 55.0702C11.6515 53.4788 7.625 48.8137 7.6087 48.3749C7.6087 48.3734 7.6087 48.3734 7.6087 48.3734C8.59731 47.3876 9.47876 46.8792 9.47876 46.8792C9.47876 46.8792 4.45128 40.3246 4.11845 39.4998C3.88537 38.9203 2.16494 35.7128 1.95803 34.9255C1.95704 34.9255 1.95704 34.9245 1.95704 34.9245C1.86964 34.5908 7.73363 34.5222 7.73363 34.5222C7.73363 34.5222 7.73265 34.5222 7.73265 34.5207C7.66894 34.4733 6.25418 32.9121 5.61469 31.9673C4.27943 29.9973 -0.169799 20.3448 0.00500994 20.3448C11.9552 20.3448 24.6121 30.5615 25.1967 31.5087C25.3365 31.7343 25.4836 31.991 25.6382 32.2714C26.7043 34.2103 28.1305 37.2558 29.7847 38.5718Z" fill="url(#paint2_linear_791_10302)"/>
<path opacity="0.4" d="M29.7841 38.5718L24.9709 41.1164L21.4456 58.5931C19.1716 58.759 10.7764 53.6496 7.60809 48.3749C7.64315 48.6143 10.7754 50.3789 13.4049 49.8222C14.9708 49.4909 23.2589 43.4176 22.496 42.8657C22.0259 42.5256 14.8918 43.7281 9.47814 46.8797C9.47814 46.8797 4.45067 40.3251 4.11784 39.5003C3.88476 38.9208 2.16383 35.7133 1.95693 34.9255C2.22013 35.3066 3.29318 36.9039 6.23678 38.8615C7.76117 39.8754 13.1689 41.5497 16.1619 42.0981C18.0976 42.4531 24.9388 39.4025 24.3591 38.3225C24.0722 37.7879 21.0605 34.925 7.73302 34.5217C7.73302 34.5217 7.73203 34.5217 7.73203 34.5202C7.66833 34.4729 6.25357 32.9116 5.61408 31.9668C4.27882 29.9968 -0.159052 20.4065 0.00439882 20.3438C0.00439882 20.3438 2.45962 25.8727 9.06927 29.8482C10.0243 30.4223 25.2228 32.3903 25.1966 31.5082C26.2968 33.2931 27.8908 37.0653 29.7841 38.5718Z" fill="#D42F55"/>
<path opacity="0.5" d="M7.05646 29.0464C7.96754 30.046 11.2825 34.406 11.1082 34.4332C9.82772 34.6345 8.09543 34.2239 7.77347 33.9914C5.79329 32.5609 3.12869 27.5671 2.12675 25.1701C1.54455 23.7786 6.21303 28.1209 7.05646 29.0464Z" fill="#D42F55"/>
<path opacity="0.5" d="M7.3684 40.3611C7.74024 40.7901 10.2088 46.507 9.47845 46.2143C8.74811 45.9216 4.39863 40.6277 3.3078 37.3876C3.03423 36.5756 6.72447 39.6182 7.3684 40.3611Z" fill="#D42F55"/>
<path opacity="0.5" d="M8.61529 49.5795C8.64887 49.8767 13.1796 55.4638 20.8247 58.2932C21.7319 58.6288 21.0707 55.1538 20.3156 54.1622C18.6663 51.9957 8.51257 48.6747 8.61529 49.5795Z" fill="#D42F55"/>
<path d="M9.06892 29.8498C12.3616 30.7961 23.8205 31.9077 24.736 31.6979C25.5088 31.5207 3.43405 25.1862 4.84586 26.6705C5.75792 27.6291 8.44968 29.6716 9.06892 29.8498Z" fill="white"/>
<path opacity="0.2" d="M25.259 32.807C22.426 31.5088 8.57264 29.985 8.61363 30.2842C8.70696 30.9698 11.3548 34.2118 11.7315 34.3737C12.3355 34.6324 16.4247 33.8989 28.2712 38.1977C28.7033 38.3547 26.5449 33.3964 25.259 32.807Z" fill="#DA0553"/>
<path opacity="0.3" d="M29.7845 38.5716L24.9713 41.1162L21.446 58.5929C20.2416 58.6803 16.9918 56.8633 14.1633 55.07C14.1633 55.07 13.5174 51.0407 13.4053 49.822C13.2932 48.6047 14.6586 44.5344 14.6586 44.5344C14.6586 44.5344 12.3322 41.7243 12.4068 41.1305C12.6665 39.0756 18.3355 35.3809 18.3355 35.3809C18.3355 35.3809 28.1302 37.2556 29.7845 38.5716Z" fill="#DA0553"/>
<path d="M64.2148 38.5718L69.028 41.1163L72.5533 58.5931C73.7577 58.6805 77.0075 56.8635 79.836 55.0702C82.348 53.4788 86.3745 48.8137 86.3908 48.3749C86.3908 48.3734 86.3908 48.3734 86.3908 48.3734C85.4022 47.3876 84.5208 46.8792 84.5208 46.8792C84.5208 46.8792 89.5483 40.3246 89.8811 39.4998C90.1142 38.9203 91.8346 35.7128 92.0415 34.9255C92.043 34.9255 92.043 34.9245 92.043 34.9245C92.1304 34.5908 86.2659 34.5222 86.2659 34.5222C86.2659 34.5222 86.2674 34.5222 86.2674 34.5207C86.3311 34.4733 87.7458 32.9121 88.3853 31.9673C89.7206 29.9973 94.1698 20.3448 93.995 20.3448C82.0448 20.3448 69.388 30.5615 68.8033 31.5087C68.6635 31.7343 68.5164 31.991 68.3618 32.2714C67.2957 34.2103 65.8696 37.2558 64.2148 38.5718Z" fill="url(#paint3_linear_791_10302)"/>
<path opacity="0.4" d="M64.2153 38.5718L69.0285 41.1164L72.5538 58.5931C74.8278 58.759 83.223 53.6496 86.3913 48.3749C86.3563 48.6143 83.224 50.3789 80.5945 49.8222C79.0286 49.4909 70.7405 43.4176 71.5034 42.8657C71.9735 42.5256 79.1076 43.7281 84.5213 46.8797C84.5213 46.8797 89.5487 40.3251 89.8816 39.5003C90.1146 38.9208 91.8356 35.7133 92.0425 34.9255C91.7793 35.3066 90.7062 36.9039 87.7626 38.8615C86.2382 39.8754 80.8305 41.5497 77.8375 42.0981C75.9013 42.4531 69.0606 39.4025 69.6403 38.3225C69.9272 37.7879 72.9389 34.925 86.2664 34.5217C86.2664 34.5217 86.2679 34.5217 86.2679 34.5202C86.3316 34.4729 87.7463 32.9116 88.3858 31.9668C89.7211 29.9968 94.159 20.4065 93.9955 20.3438C93.9955 20.3438 91.5403 25.8727 84.9311 29.8482C83.9761 30.4223 68.7776 32.3903 68.8038 31.5082C67.7026 33.2931 66.1086 37.0653 64.2153 38.5718Z" fill="#D42F55"/>
<path opacity="0.5" d="M86.9427 29.0464C86.0316 30.046 82.7172 34.406 82.891 34.4332C84.1714 34.6345 85.9037 34.2239 86.2257 33.9914C88.2058 32.5609 90.8704 27.5671 91.8724 25.1701C92.4546 23.7786 87.7861 28.1209 86.9427 29.0464Z" fill="#D42F55"/>
<path opacity="0.5" d="M86.6312 40.3611C86.2594 40.7901 83.7908 46.507 84.5212 46.2143C85.2515 45.9216 89.601 40.6277 90.6918 37.3876C90.9654 36.5756 87.2751 39.6182 86.6312 40.3611Z" fill="#D42F55"/>
<path opacity="0.5" d="M85.3844 49.5792C85.3508 49.8763 80.7959 54.0054 80.2996 54.4506C79.5796 55.0963 73.1902 59.5215 73.4011 58.2934C73.7823 56.0736 74.3601 53.4091 75.2943 52.5527C75.9896 51.9154 85.4283 49.1942 85.3844 49.5792Z" fill="#D42F55"/>
<path opacity="0.2" d="M84.9308 29.8498C81.6381 30.7961 70.1792 31.9077 69.2637 31.6979C68.4909 31.5207 90.5657 25.1862 89.1539 26.6705C88.2413 27.6291 85.5496 29.6716 84.9308 29.8498Z" fill="#DA0553"/>
<path opacity="0.2" d="M68.7407 32.807C71.5742 31.5088 85.427 29.985 85.386 30.2842C85.2927 30.9698 82.6449 34.2118 82.2681 34.3737C81.6642 34.6324 77.575 33.8989 65.7285 38.1977C65.2964 38.3547 67.4548 33.3964 68.7407 32.807Z" fill="#DA0553"/>
<path opacity="0.3" d="M64.2148 38.5716L69.028 41.1162L72.5533 58.5929C73.7577 58.6803 77.0075 56.8633 79.836 55.07C79.836 55.07 80.4819 51.0407 80.594 49.822C80.7061 48.6047 79.3407 44.5344 79.3407 44.5344C79.3407 44.5344 81.667 41.7243 81.5925 41.1305C81.3327 39.0756 75.6638 35.3809 75.6638 35.3809C75.6638 35.3809 65.8696 37.2556 64.2148 38.5716Z" fill="#DA0553"/>
<path d="M76.0424 44.5308C73.7012 53.3294 72.006 63.1566 67.9597 71.1842C65.5287 76.0078 60.3101 79.9315 56.2426 83.4593C53.256 86.0493 50.2018 88.5687 47.0651 90.975C39.9745 85.5779 31.5061 79.6052 26.5591 72.093H26.5577C26.3532 71.7756 26.1735 71.472 26.0318 71.1842C22.0265 63.0431 20.2892 53.323 17.9496 44.5308C17.7427 41.693 18.2256 38.7792 18.83 36.0126C37.658 35.3867 56.4919 35.3872 75.3199 36.018C75.8449 38.7985 76.2532 41.6989 76.0424 44.5308Z" fill="url(#paint4_linear_791_10302)"/>
<path opacity="0.7" d="M76.0421 44.5309C73.7009 53.3295 71.9405 62.9623 67.9594 71.1843C67.8552 65.0957 69.9549 58.4601 71.258 52.5669C72.4847 47.0207 73.8342 41.5001 75.3196 36.0176C75.8445 38.7986 76.2529 41.6991 76.0421 44.5309Z" fill="#D42F55"/>
<path opacity="0.3" d="M47.0655 90.9753C46.7731 90.8464 46.5287 83.543 48.3 81.4027C50.5962 78.6291 55.0627 76.5061 58.4601 74.5238C59.9628 73.6471 67.4875 69.6948 67.8519 70.8014C68.1768 71.7882 65.096 75.3175 63.8437 76.6142C61.6072 78.9312 58.8586 81.1376 56.4533 83.2769C53.1067 86.2539 47.0655 90.9753 47.0655 90.9753Z" fill="#B30053"/>
<path opacity="0.7" d="M26.5591 72.0945H26.5577C26.3532 71.7771 26.1735 71.4736 26.0318 71.1858C22.0265 63.0447 20.2892 53.3245 17.9496 44.5323C17.7427 41.6946 18.2256 38.7808 18.83 36.0141C19.8295 35.9796 20.3292 35.9633 21.3292 35.9317C22.7489 47.9091 23.5118 60.395 26.5591 72.0945Z" fill="#D42F55"/>
<path d="M69.6703 37.7455C67.7464 36.0391 65.7687 34.4803 63.6586 33.0103C63.6571 33.0093 63.6561 33.0083 63.6547 33.0073C58.9314 29.9781 53.9291 27.5322 48.5362 25.9467H48.5347C48.0641 25.8085 47.6429 25.693 47.2755 25.5983C47.196 25.577 47.156 25.5667 47.077 25.5459C46.9979 25.5667 46.9584 25.5775 46.8799 25.5983C38.541 27.7672 30.9027 32.0379 24.4787 37.7415C24.3765 37.8358 24.3252 37.8832 24.2229 37.978C24.2407 38.1187 24.2496 38.1893 24.2679 38.3299C24.3118 38.6735 24.3597 39.0422 24.4116 39.4322C24.8461 42.7023 25.3345 45.9947 25.895 49.2367C26.9167 55.1502 27.7764 62.1688 30.8558 67.5171C30.8612 67.5265 30.8642 67.5309 30.8701 67.5403C30.8765 67.5492 30.8795 67.5531 30.8854 67.562C33.2118 70.5207 36.8087 72.7015 39.8323 74.8082C40.933 75.5752 42.0361 76.3097 43.0583 76.984C44.2766 77.7876 45.5057 78.5803 46.7431 79.3553C46.8725 79.4368 46.9372 79.4772 47.0661 79.5587C47.196 79.4772 47.2607 79.4368 47.3905 79.3553C47.4404 79.3247 47.4903 79.2921 47.5416 79.2596C49.7974 77.8148 52.097 76.3344 54.3029 74.8072C57.3319 72.7098 60.9254 70.5276 63.2517 67.5605C63.2581 67.5516 63.2611 67.5477 63.267 67.5388C63.2729 67.5294 63.2754 67.525 63.2813 67.5156C66.3607 62.1624 67.221 55.1566 68.2476 49.2382C68.7458 46.3649 69.1913 43.4546 69.5858 40.5536C69.6969 39.7352 69.7967 38.9894 69.8801 38.3339C69.8984 38.1932 69.9078 38.1226 69.9265 37.9819C69.8238 37.8877 69.7725 37.8403 69.6703 37.7455ZM65.4664 48.8843C64.5485 54.4379 63.7722 60.8459 61.0859 65.9405C58.7921 68.4924 55.7004 70.4516 52.9187 72.3643C51.0057 73.6798 49.0408 74.9676 47.0656 76.2159C45.0913 74.9681 43.1275 73.6803 41.2149 72.3653C38.4338 70.4531 35.3608 68.4786 33.0493 65.9415C30.3595 60.8356 29.5936 54.4522 28.6756 48.8828C28.1467 45.6748 27.686 42.4249 27.2934 39.1814C33.0878 34.2996 39.7533 30.5951 47.0745 28.5668C54.3947 30.5951 61.0587 34.3021 66.8521 39.1844C66.4541 42.4274 65.9968 45.6773 65.4664 48.8843Z" fill="url(#paint5_linear_791_10302)"/>
<path d="M66.8531 39.1855C66.4541 42.428 65.9968 45.6779 65.467 48.8849C64.549 54.4385 63.7727 60.8465 61.0864 65.9411C58.962 69.0844 55.9443 71.5189 52.9044 73.6444C51.0171 74.9638 49.0364 76.2491 47.0661 77.497C45.0963 76.2491 43.1171 74.9643 41.2303 73.6448C38.1884 71.5184 35.1777 69.0849 33.0503 65.9421C30.6277 61.3362 29.8815 55.6696 28.9739 50.6412C28.9724 50.6397 28.9724 50.6397 28.9724 50.6397C28.8752 50.0745 28.7744 49.4876 28.6766 48.8834C28.1547 45.6661 27.687 42.4255 27.2945 39.182C28.4243 38.177 29.6337 37.2021 30.8632 36.3428C35.1347 33.3564 39.8437 30.8938 44.8341 29.2506C45.6859 28.9702 46.4434 28.7422 47.0755 28.5674C49.5204 29.2535 51.8996 30.142 54.2022 31.1475C58.7907 33.1526 62.9979 35.9286 66.8531 39.1855Z" fill="url(#paint6_linear_791_10302)"/>
<path opacity="0.5" d="M69.1563 38.2787C68.2324 38.639 67.7717 38.8202 66.8537 39.1844C61.0608 34.3021 54.3968 30.5956 47.0761 28.5669C47.0766 27.6601 47.0766 27.207 47.0766 26.2997C47.6588 26.1576 47.9506 26.087 48.5348 25.9463H48.5363C53.9292 27.5318 58.9315 29.9776 63.6548 33.0069C63.6563 33.0084 63.6573 33.0089 63.6587 33.0099C65.5026 34.7548 67.3361 36.5101 69.1563 38.2787Z" fill="url(#paint7_linear_791_10302)"/>
<path d="M69.5858 40.5539C69.1923 43.4568 68.7458 46.3657 68.2476 49.2385C67.221 55.1568 66.3607 62.1627 63.2813 67.5159C63.2754 67.5252 63.2729 67.5297 63.267 67.539C63.2611 67.5479 63.2576 67.5519 63.2517 67.5608C60.9259 70.5278 57.3324 72.7101 54.3029 74.8074C52.0975 76.3342 49.8265 77.8214 47.5416 79.2598C47.3515 79.0456 47.2567 78.939 47.0661 78.7247C47.0661 78.2341 47.0661 77.9883 47.0661 77.4971C49.0364 76.2493 51.0171 74.9639 52.9044 73.6445C55.9443 71.519 58.9625 69.084 61.0868 65.9407C63.7732 60.8462 64.5494 54.4381 65.4674 48.8845C65.9978 45.6776 66.4551 42.4276 66.8536 39.1851C67.7716 38.8203 68.2323 38.6392 69.1562 38.2793C69.3285 39.1896 69.4145 39.6447 69.5858 40.5539Z" fill="url(#paint8_linear_791_10302)"/>
<path d="M75.3044 36.001C74.8452 35.5099 74.3455 35.0286 73.8536 34.5607C73.787 34.497 73.7173 34.4328 73.6447 34.3662C71.3989 32.2901 68.9052 30.4652 66.3749 28.7504C66.3749 28.7504 65.5334 28.5574 64.2747 27.7548C63.055 26.9774 62.6466 26.5292 62.6224 26.5025L62.6209 26.501C58.064 24.0883 53.3146 22.0047 48.372 20.6419C48.334 20.6315 48.2945 20.6202 48.2545 20.6093C47.6926 20.4592 47.3099 20.3576 47.1568 20.321C47.1415 20.3181 47.1262 20.3136 47.1104 20.3107C47.0995 20.3077 47.0901 20.3047 47.0792 20.3018C47.0792 20.3018 47.0748 20.3033 47.0669 20.3047C47.059 20.3062 47.0452 20.3092 47.0299 20.3136C36.8835 22.8103 26.713 28.0524 19.3543 35.4753C19.179 35.6521 19.0037 35.8317 18.8308 36.0129C18.8368 36.0583 18.8397 36.081 18.8456 36.1264C18.8807 36.4107 18.9874 37.2188 19.1577 38.4099C19.1592 38.4202 19.1597 38.4252 19.1617 38.4355C19.9118 43.6658 20.7848 48.8862 21.8727 54.0578C23.0001 59.4154 24.087 65.4829 26.9649 70.1016C29.3806 73.9784 34.4105 76.8793 38.1354 79.4762C41.0602 81.5153 44.0359 83.4888 47.0659 85.3694C50.0964 83.4878 53.0721 81.5143 55.9984 79.4742C59.7168 76.8818 64.7611 73.965 67.1709 70.0991C70.0528 65.4764 71.1441 59.4208 72.2705 54.0583C73.3564 48.8872 74.2358 43.6698 74.9889 38.44C74.9904 38.4296 74.9914 38.4247 74.9928 38.4143C75.1637 37.2232 75.2704 36.4152 75.3059 36.1314C75.3119 36.0859 75.3148 36.0632 75.3207 36.0178C75.3207 36.0178 75.3148 36.0124 75.3044 36.001ZM67.5541 49.1498C66.5586 54.9655 65.7423 61.8849 62.7192 67.1488C60.3889 70.0088 56.9317 72.1421 53.9575 74.1975C51.7092 75.7514 49.3952 77.2629 47.0664 78.7249C44.7356 77.2683 42.4251 75.7519 40.1778 74.199C37.2258 72.1589 33.7321 70.0038 31.4181 67.1508C28.3954 61.8914 27.5816 54.9601 26.5901 49.1488C25.9763 45.5539 25.4479 41.912 24.9931 38.2761C31.3242 32.6628 38.8632 28.4419 47.0773 26.3011C55.2913 28.4572 62.8209 32.6593 69.1565 38.2795C68.6997 41.9145 68.1694 45.5558 67.5541 49.1498Z" fill="url(#paint9_linear_791_10302)"/>
<path d="M74.7971 36.0425C74.1838 33.955 67.4077 29.86 63.6834 27.5929C58.7216 24.572 49.5742 20.3018 47.2652 20.6271C47.2168 20.635 47.0385 20.635 46.9896 20.6271C44.6811 20.3018 35.4068 24.0873 30.445 27.1082C26.7207 29.3753 20.0711 33.955 19.4563 36.0425C18.9481 37.7751 20.0365 43.3351 20.5668 43.338C21.0612 43.3395 23.5109 42.5048 24.8418 41.8246C25.1529 41.6667 24.5899 38.6394 24.9919 38.2751C32.5062 31.4529 40.1943 28.3234 46.2252 26.3001C46.9911 26.043 47.2454 26.1259 47.5027 26.2241C52.2403 28.0292 61.7481 31.4534 69.2624 38.2751C69.6644 38.6394 69.1015 41.6667 69.4126 41.8246C70.7424 42.5048 73.1932 43.3395 73.6875 43.338C74.2183 43.3351 75.3072 37.7751 74.7971 36.0425Z" fill="white"/>
<path opacity="0.7" d="M27.2945 39.185C27.6935 42.4275 28.1507 45.6774 28.6806 48.8844C29.5986 54.438 30.3749 60.846 33.0612 65.9406C35.1856 69.0839 38.2032 71.5189 41.2436 73.6444C43.131 74.9638 45.1111 76.2491 47.0819 77.497C47.0405 69.349 47.0044 61.198 47.077 53.051C47.1496 44.8975 47.3116 36.7209 47.0721 28.5674C39.7513 30.5962 33.0874 34.3027 27.2945 39.185Z" fill="#FFF5F2"/>
<path opacity="0.3" d="M66.8531 39.1859C66.4541 42.4284 65.9968 45.6784 65.467 48.8853C64.549 54.4389 63.7727 60.847 61.0864 65.9415C58.962 69.0848 55.9443 71.5193 52.9044 73.6448C51.0171 74.9642 49.0364 76.2496 47.0661 77.4974C45.0963 76.2496 43.1171 74.9647 41.2303 73.6453C38.1884 71.5188 35.1777 69.0853 33.0503 65.9425C30.6277 61.3367 29.8815 55.67 28.9739 50.6416C28.9724 50.6401 28.9724 50.6401 28.9724 50.6401C28.8752 50.075 28.7744 49.488 28.6766 48.8839C28.1547 45.6665 27.687 42.426 27.2945 39.1825C28.4243 38.1775 29.6307 37.2199 30.8632 36.3432C30.8874 36.3309 30.8993 36.325 30.9235 36.3131C29.7369 37.2278 28.6544 38.3547 28.248 39.5625C27.3364 42.27 29.7541 52.8495 30.4707 56.0654C31.4321 60.381 42.9902 54.203 46.556 54.013C50.0443 53.8269 60.6588 62.0247 62.432 58.7704C66.9361 50.5054 63.707 37.055 54.1864 31.1485C54.1864 31.1485 54.1923 31.1485 54.2027 31.1485C58.8149 33.2157 62.9979 35.9291 66.8531 39.1859Z" fill="#B30053"/>
<path opacity="0.8" d="M25.1239 39.2304C25.9955 39.9185 27.5021 40.8356 27.5021 40.8356C29.8186 36.092 35.7512 33.8782 40.4271 32.8392C45.7929 31.6466 51.9763 34.5915 56.6182 37.1933C59.7652 38.957 64.088 41.229 66.1694 44.3195C67.1284 43.6142 67.6109 43.2627 68.5812 42.5633C68.8064 40.8495 68.9214 39.993 69.156 38.2802C58.1159 28.5813 47.0768 26.3018 47.0768 26.3018C47.0768 26.3018 34.2797 29.5749 24.9926 38.2768C25.0454 38.6578 25.0716 38.8489 25.1239 39.2304Z" fill="#D42F55"/>
<path opacity="0.2" d="M73.3653 43.7887C72.4735 43.3331 69.3067 42.6505 68.8099 43.923C68.5082 44.697 67.7384 49.1681 67.2223 52.0162C66.2184 57.5585 65.3715 58.5057 64.692 61.5054C64.4367 62.6328 69.2297 62.5651 69.9264 62.0829C70.4627 61.7112 70.6992 60.6509 71.558 56.5209C72.2804 53.0444 73.1421 49.5437 73.6404 46.0193C73.7831 45.0109 73.9396 44.0824 73.3653 43.7887Z" fill="#DA0553"/>
<path opacity="0.2" d="M24.9924 42.6647C24.6013 42.3646 20.9708 43.2496 20.5634 43.951C20.1259 44.7043 21.1718 50.1843 21.7486 52.9461C22.8898 58.4128 23.7717 61.6025 24.2226 62.3444C25.2171 63.9802 30.1132 64.1421 29.6708 62.6559C28.8827 60.0062 28.0935 58.9346 27.2946 54.0118C26.7647 50.7456 25.6931 43.2027 24.9924 42.6647Z" fill="#DA0553"/>
<path opacity="0.3" d="M47.7567 89.814C47.4095 89.8782 47.3646 85.836 47.5315 85.6119C49.2105 83.3606 56.1455 80.4246 54.1881 84.7506C53.6088 86.0305 48.9917 89.585 47.7567 89.814Z" fill="#B30053"/>
<path d="M63.4834 73.8646C64.0607 73.2466 62.9378 68.274 62.4153 68.5983C61.6153 69.0948 47.3551 78.7074 47.0746 79.0771C46.4504 79.901 47 84.7062 47.2682 84.7507C47.8904 84.8543 61.6178 75.8608 63.4834 73.8646Z" fill="white"/>
<path d="M39.9892 28.5675C40.847 28.1914 40.1961 22.5361 39.2638 22.8644C31.6468 25.5461 23.854 31.5539 23.8727 31.8115C23.8989 32.1669 28.5126 34.4785 30.4345 33.5994C31.8443 32.9542 36.261 30.2029 39.9892 28.5675Z" fill="white"/>
<path opacity="0.8" d="M75.3198 36.0188C75.3138 36.0642 75.3109 36.0869 75.3049 36.1323C75.178 37.0455 75.1153 37.5021 74.9919 38.4153C74.9904 38.4256 74.9894 38.4306 74.9879 38.4409C75.902 34.225 69.3545 31.6538 65.9319 29.1389C64.9354 28.4068 63.8629 27.6891 62.7913 27.0312C58.2937 24.2704 53.1097 21.8996 47.8096 21.3112C43.8586 20.8724 35.9601 24.1894 31.1134 26.7987C27.2004 28.9054 19.9187 34.0434 18.9479 36.8678C18.9464 36.8574 19.1592 38.4212 19.1577 38.4108C19.0343 37.4972 18.9721 37.0406 18.8456 36.1274C18.8397 36.082 18.8368 36.0593 18.8308 36.0139C19.0037 35.8322 19.179 35.6501 19.3543 35.4763C26.7664 28.1304 36.7389 22.7535 47.0299 20.3146C47.0452 20.3102 47.059 20.3072 47.0669 20.3057C47.0748 20.3042 47.0792 20.3028 47.0792 20.3028C47.0901 20.3057 47.0995 20.3087 47.1104 20.3116C47.1257 20.3146 47.1415 20.3191 47.1568 20.322C47.5261 20.4153 47.894 20.5145 48.2545 20.6103C48.2945 20.6206 48.3335 20.632 48.372 20.6429C53.3131 22.0028 58.0641 24.0892 62.6209 26.502L62.6224 26.5035C62.6466 26.5301 63.055 26.9788 64.2747 27.7558C65.5334 28.5579 66.3749 28.7514 66.3749 28.7514C68.9185 30.4731 71.3821 32.2846 73.6447 34.3672C73.7173 34.4343 73.787 34.499 73.8536 34.5617C74.7173 35.3776 75.2141 35.9018 75.3044 36.002C75.3143 36.0129 75.3198 36.0188 75.3198 36.0188Z" fill="#D42F55"/>
<path d="M36.6579 71.6827C36.6579 71.6827 45.503 79.2606 46.9909 79.2606C48.3967 79.2606 56.4537 72.4991 56.4537 72.4991C56.4488 72.4927 48.1143 77.8316 47.1059 77.9659C44.9949 78.2472 36.6579 71.6827 36.6579 71.6827Z" fill="white"/>
<path d="M67.3551 50.334C67.4548 50.3563 62.7187 67.1484 62.7187 67.1484C62.65 67.1168 65.0534 63.125 66.3462 58.2293C66.9432 55.9691 67.3551 50.334 67.3551 50.334Z" fill="white"/>
<path d="M26.7504 50.1036C26.6506 50.1258 31.0515 66.484 31.0515 66.484C31.1201 66.4524 28.5029 61.6289 27.6027 58.2304C27.0042 55.9696 26.7504 50.1036 26.7504 50.1036Z" fill="white"/>
<path opacity="0.2" d="M42.1052 79.2418C44.8587 79.3756 43.1062 77.4949 42.0134 76.7831C40.9833 76.1123 37.9296 75.0871 37.733 75.445C37.42 76.0141 40.2722 79.1529 42.1052 79.2418Z" fill="#EE9C50"/>
<path opacity="0.2" d="M42.7302 80.3454C41.0073 79.6489 40.4043 79.4075 41.2265 80.7723C42.0487 82.1367 43.8403 80.7941 42.7302 80.3454Z" fill="#EE9C50"/>
<path d="M33.25 75.9324C32.8461 76.6432 35.0045 80.2115 36.7887 78.3259C37.0983 77.9991 33.5532 75.3988 33.25 75.9324Z" fill="#ED4800"/>
<path opacity="0.8" d="M33.3051 76.1817C33.2004 76.7193 33.9855 78.1601 34.4912 78.2411C34.9974 78.322 36.0334 77.4246 35.0038 76.7711C33.8552 76.0425 33.3836 75.777 33.3051 76.1817Z" fill="#D42F55"/>
<path d="M34.7405 78.6163C36.1597 79.4263 37.2017 79.0314 37.0382 78.4746C36.8748 77.9178 36.4397 77.7589 36.4397 77.7589C36.4397 77.7589 36.8659 78.0901 36.6368 78.4228C36.4081 78.7545 34.7405 78.6163 34.7405 78.6163Z" fill="white"/>
<path d="M66.3741 28.7509C66.221 28.9004 66.0734 29.0362 65.9316 29.1388C64.3445 30.2919 62.4443 28.9937 62.432 27.1491C62.429 26.7404 62.6216 26.503 62.6216 26.503C62.6458 26.5296 63.0542 26.9783 64.2739 27.7553C65.5331 28.5574 66.3741 28.7509 66.3741 28.7509Z" fill="#ED4800"/>
<path opacity="0.8" d="M62.5448 26.6323C62.3794 27.1353 62.5493 28.6536 63.1567 28.8767C63.7645 29.0998 64.1295 28.04 63.964 27.7839C63.7991 27.5277 62.6312 26.3697 62.5448 26.6323Z" fill="#D42F55"/>
<path d="M63.1178 28.997C63.1178 28.997 64.3049 30.1397 66.1502 28.958C66.1502 28.958 65.9409 30.0805 64.6338 30.0854C63.9286 30.0879 63.1178 28.997 63.1178 28.997Z" fill="white"/>
<path opacity="0.2" d="M47.1982 21.0787C46.9355 22.6617 46.8382 25.423 47.4249 25.9482C48.0115 26.4734 55.7935 29.2095 56.028 29.2095C56.2626 29.2095 56.9687 24.1667 55.7935 23.4633C54.6182 22.76 47.3602 20.1009 47.1982 21.0787Z" fill="#DA0553"/>
<path d="M73.0681 72.7364C71.7146 74.1442 71.4292 74.3944 71.0287 74.6733C68.8441 76.1922 63.9168 76.6117 63.9168 76.6117L64.6378 73.1111L73.0681 72.7364Z" fill="url(#paint10_linear_791_10302)"/>
<path d="M69.0258 66.3907C72.8454 67.9693 73.5209 72.3881 73.0681 72.7371C69.6297 75.3853 64.6378 73.1117 64.6378 73.1117C64.6378 73.1117 62.9633 68.1741 63.6447 67.1469C64.2487 66.2372 69.0258 66.3907 69.0258 66.3907Z" fill="url(#paint11_linear_791_10302)"/>
<path opacity="0.2" d="M72.4858 72.8532C73.071 72.3976 64.096 67.1643 63.6451 67.4393C63.1948 67.7147 63.9172 72.5052 65.054 73.1632C65.4164 73.3729 69.8202 74.9288 72.4858 72.8532Z" fill="#DA0553"/>
<path d="M72.9223 72.4262C73.2299 72.2051 73.1297 69.1067 69.9268 66.9318C68.5777 66.0157 63.8095 66.8045 63.9172 66.918C64.0248 67.031 72.6166 72.6459 72.9223 72.4262Z" fill="white"/>
<path d="M20.8964 72.7364C22.2499 74.1442 22.5353 74.3944 22.9358 74.6733C25.1204 76.1922 30.0477 76.6117 30.0477 76.6117L29.3267 73.1111L20.8964 72.7364Z" fill="url(#paint12_linear_791_10302)"/>
<path d="M24.938 66.3907C21.1183 67.9693 20.4428 72.3881 20.8956 72.7371C24.334 75.3853 29.326 73.1117 29.326 73.1117C29.326 73.1117 31.0005 68.1741 30.319 67.1469C29.7156 66.2372 24.938 66.3907 24.938 66.3907Z" fill="url(#paint13_linear_791_10302)"/>
<path opacity="0.2" d="M21.4791 72.8532C20.8939 72.3976 29.8689 67.1643 30.3198 67.4393C30.7706 67.7147 30.0477 72.5052 28.9109 73.1632C28.5485 73.3729 24.1447 74.9288 21.4791 72.8532Z" fill="#DA0553"/>
<path d="M21.0423 72.4262C20.7346 72.2051 20.8349 69.1067 24.0377 66.9318C25.3868 66.0157 30.1551 66.8045 30.0474 66.918C29.9397 67.031 21.3475 72.6459 21.0423 72.4262Z" fill="white"/>
<path d="M81.5734 40.2178C80.9008 42.0506 80.7398 42.3946 80.485 42.8108C79.0959 45.0794 75.2081 47.4443 75.2081 47.4443L74.0052 43.949L81.5734 40.2178Z" fill="url(#paint14_linear_791_10302)"/>
<path d="M75.3193 36.0319C79.4515 35.9421 81.8479 39.7162 81.5734 40.2177C79.4905 44.0249 74.0052 43.9494 74.0052 43.9494C74.0052 43.9494 70.4858 40.1017 70.6967 38.8874C70.8834 37.8109 75.3193 36.0319 75.3193 36.0319Z" fill="url(#paint15_linear_791_10302)"/>
<path opacity="0.2" d="M81.0869 40.557C81.4395 39.9045 71.1163 38.7203 70.8146 39.1537C70.5129 39.5866 73.1015 43.6831 74.4076 43.8282C74.8229 43.8746 79.481 43.5291 81.0869 40.557Z" fill="#DA0553"/>
<path d="M81.3146 39.9923C81.5072 39.6661 80.1689 36.8698 76.3617 36.1659C74.7578 35.8692 70.7095 38.5081 70.8537 38.5688C70.9979 38.629 81.1235 40.3161 81.3146 39.9923Z" fill="white"/>
<path d="M12.4778 40.2178C13.1509 42.0506 13.3114 42.3946 13.5662 42.8108C14.9552 45.0794 18.4608 47.1066 18.4608 47.1066L20.0459 43.949L12.4778 40.2178Z" fill="url(#paint16_linear_791_10302)"/>
<path d="M18.7315 36.0319C14.5993 35.9421 12.2028 39.7162 12.4774 40.2177C14.5603 44.0249 20.0455 43.9494 20.0455 43.9494C20.0455 43.9494 23.5649 40.1017 23.354 38.8874C23.1674 37.8109 18.7315 36.0319 18.7315 36.0319Z" fill="url(#paint17_linear_791_10302)"/>
<path opacity="0.2" d="M12.9644 40.557C12.6118 39.9045 22.9349 38.7203 23.2367 39.1537C23.5384 39.5866 20.9498 43.6831 19.6437 43.8282C19.2279 43.8746 14.5698 43.5291 12.9644 40.557Z" fill="#DA0553"/>
<path d="M12.7359 39.9923C12.5433 39.6661 13.8815 36.8698 17.6888 36.1659C19.2927 35.8692 23.3409 38.5081 23.1967 38.5688C23.053 38.629 12.927 40.3161 12.7359 39.9923Z" fill="white"/>
<path d="M38.4498 65.8821C38.1614 65.8821 37.9253 65.8096 37.7495 65.6669C36.7091 64.8307 37.4053 61.3967 38.3485 57.3293C38.5441 56.4858 38.746 55.6155 38.7604 55.3697C38.5905 55.1096 37.6429 54.3248 36.8029 53.6288C33.9062 51.2293 31.7112 49.2949 31.9724 48.0495C32.1907 47.0065 34.5205 46.6067 39.3342 46.1521C40.4033 46.0514 41.6096 45.9373 41.8931 45.8386C42.0447 45.6199 42.422 44.6781 42.7568 43.8424C44.2367 40.1493 45.5769 37.0918 46.9872 37.0918C47.1393 37.0918 47.2954 37.1343 47.4509 37.2172L47.4914 37.2384C48.7368 37.9473 50.2918 41.4761 51.6513 44.7275C51.8602 45.2265 52.075 45.7404 52.1673 45.926C52.4715 46.0222 53.5796 46.1057 54.5648 46.1797C58.2313 46.4556 61.3191 46.7789 61.9615 47.9453C62.0119 48.0302 62.0425 48.1359 62.0465 48.2489C62.1072 49.1147 60.612 50.4228 58.1419 52.4727C56.9657 53.4486 55.3553 54.7853 55.2729 55.1757C55.2551 55.4428 55.503 56.5544 55.742 57.63C56.5963 61.4643 57.2279 64.7137 56.303 65.6403C56.1454 65.7982 55.9208 65.8782 55.6348 65.8782C54.387 65.8782 51.6972 64.3041 48.8153 62.5507C48.0356 62.0764 47.2312 61.5872 46.964 61.4712C46.7112 61.5848 45.9739 62.0522 45.2589 62.5048C42.4704 64.2715 39.8537 65.8589 38.4823 65.8811L38.4498 65.8821Z" fill="url(#paint18_linear_791_10302)"/>
<path d="M61.2509 48.0915V48.095C61.3447 49.4258 54.7474 53.7103 54.6753 54.7582C54.6052 55.7829 56.9849 63.4704 55.7795 64.6753C54.7993 65.6566 47.5087 60.5463 46.9699 60.5157H46.9645C46.5033 60.5157 40.7183 64.7711 38.7243 64.8037H38.7223C38.5203 64.8071 38.3584 64.7676 38.2448 64.6758C36.9604 63.6456 39.4462 55.5761 39.3579 54.9048C39.2695 54.231 32.4055 49.6484 32.7605 47.9592C33.0544 46.5579 41.743 46.4374 42.2639 46.0342C42.7844 45.6289 45.1967 37.628 46.9877 37.628C47.085 37.628 47.1877 37.6606 47.2939 37.7218L47.2993 37.7237C48.8849 38.6241 51.4483 45.6565 51.751 46.0885C52.0754 46.5515 60.323 46.3476 61.2129 47.9597C61.2361 47.9982 61.2489 48.0431 61.2509 48.0915Z" fill="url(#paint19_linear_791_10302)"/>
<path opacity="0.2" d="M46.9768 52.1098L39.3579 54.9046C39.2695 54.2308 32.4055 49.6482 32.7605 47.959L46.9768 52.1098Z" fill="#DA0553"/>
<path opacity="0.2" d="M51.751 46.0875L46.9769 52.1095L46.9877 37.627L47.2939 37.7208L47.2993 37.7228C48.8849 38.6231 51.4483 45.6551 51.751 46.0875Z" fill="#DA0553"/>
<path opacity="0.2" d="M61.2509 48.0913V48.0948C61.3448 49.4256 54.7475 53.7101 54.6754 54.758L46.9774 52.1088L61.2134 47.9581L61.2509 48.0913Z" fill="#DA0553"/>
<path opacity="0.2" d="M55.7794 64.6753C54.7992 65.6566 47.5086 60.5462 46.9698 60.5156V60.5225C46.9664 60.5171 46.9644 60.5156 46.9644 60.5156L46.9768 52.1094L55.7794 64.6753Z" fill="#DA0553"/>
<path opacity="0.2" d="M46.9767 52.1094L46.9693 60.5156V60.5225C46.9659 60.5171 46.9639 60.5156 46.9639 60.5156C46.5027 60.5156 40.7177 64.771 38.7237 64.8036H38.7217L38.2442 64.6757L46.9767 52.1094Z" fill="#DA0553"/>
<path d="M46.977 52.1091L32.7607 47.9584C33.0545 46.557 41.7431 46.4365 42.264 46.0333L46.977 52.1091Z" fill="white"/>
<path opacity="0.5" d="M32.7606 47.9577C30.3725 48.6586 36.9663 61.4258 38.1377 60.8034C39.309 60.181 46.0258 53.5143 46.9769 52.1085C46.9769 52.1085 34.3422 47.4932 32.7606 47.9577Z" fill="#D42F55"/>
<path opacity="0.5" d="M61.2165 47.9577C63.6045 48.6586 57.0107 61.4258 55.8394 60.8034C54.6681 60.181 47.9513 53.5143 47.0002 52.1085C47.0002 52.1085 59.6348 47.4932 61.2165 47.9577Z" fill="#D42F55"/>
<path opacity="0.3" d="M46.9876 37.6265C46.6977 37.6927 46.9693 60.5152 46.9693 60.5152C47.7994 60.8257 54.9078 65.4513 55.7789 64.6749C57.1665 63.4389 54.5053 55.7904 54.6747 54.7578C54.8441 53.7251 61.672 49.1686 61.2162 47.9578C60.592 46.3007 52.135 46.4602 51.7509 46.0865C51.0521 45.4073 48.5352 37.2721 46.9876 37.6265Z" fill="#DA0553"/>
<path opacity="0.5" d="M46.9767 52.1092C44.7926 55.1908 38.2447 63.938 38.2447 64.6755C38.2447 65.7209 55.4441 65.833 55.7794 64.6755C56.1147 63.518 47.3861 51.5312 46.9767 52.1092Z" fill="#D42F55"/>
<path opacity="0.5" d="M51.4408 50.5517C52.9277 52.2778 51.0927 55.3826 50.5732 56.2509C50.0537 57.1191 47.7797 58.753 47.0005 58.7959C46.2212 58.8389 44.2662 57.7835 43.6011 56.1808C42.9364 54.578 42.4278 51.9303 43.6011 51.1237C44.7744 50.3172 50.5989 49.5738 51.4408 50.5517Z" fill="#7E527C"/>
<path d="M50.5844 49.9884C52.3201 52.9081 50.3103 56.0085 47.5845 56.4917C44.8592 56.975 41.6988 54.4477 42.7397 50.9174C43.7812 47.3871 49.06 47.4246 50.5844 49.9884Z" fill="url(#paint20_linear_791_10302)"/>
<path d="M47.5849 56.4921C49.6417 56.1273 51.291 54.2718 51.2307 52.1286C50.9379 54.5784 49.1533 56.7152 45.5904 55.8731C45.1554 55.7704 42.7406 54.6529 42.5407 52.1192C42.4365 55.0014 45.1796 56.9191 47.5849 56.4921Z" fill="url(#paint21_linear_791_10302)"/>
<path opacity="0.5" d="M42.8876 50.5041C43.0392 50.8669 44.933 49.0223 44.6841 48.6358H44.6826C43.9059 49.0184 43.256 49.6349 42.8876 50.5041Z" fill="url(#paint22_linear_791_10302)"/>
<path d="M43.5026 50.78C42.3145 53.2332 46.0591 58.2942 49.458 54.4505C53.2233 50.1921 46.0714 45.4762 43.5026 50.78Z" fill="url(#paint23_linear_791_10302)"/>
<path d="M44.482 50.7628C43.7487 52.2352 44.2964 53.7308 45.6341 54.6465C47.1733 55.7003 49.0587 54.454 49.7105 53.1637C50.6418 51.32 48.868 49.4088 47.7668 49.0958C46.6661 48.7829 45.0055 49.7119 44.482 50.7628Z" fill="url(#paint24_linear_791_10302)"/>
<path opacity="0.4" d="M44.2227 52.0561C44.1694 52.2876 44.2227 53.5809 45.2059 54.2532C46.1891 54.9255 46.8834 55.04 46.9579 54.9289C47.033 54.8179 47.03 53.9254 46.9841 53.8795C46.9382 53.8336 46.1708 53.4595 45.8009 52.9501C45.4311 52.4407 45.3047 52.2625 45.199 52.2526C45.0938 52.2422 44.2588 51.8982 44.2227 52.0561Z" fill="#B82774"/>
<path d="M45.4025 52.194C45.2643 52.7908 46.9729 53.9019 47.1284 53.8797C47.8632 53.7746 48.7535 52.1501 48.7693 51.6224C48.7802 51.2655 47.4044 50.1149 46.965 50.2527C46.5255 50.3909 45.5102 51.7295 45.4025 52.194Z" fill="white"/>
<path opacity="0.8" d="M47.1289 53.8803C46.9254 53.9657 46.999 54.8902 47.0686 54.8986C47.8424 54.9909 48.6389 54.559 49.4142 53.5495C50.0428 52.7311 49.991 51.6274 49.7214 51.2893C49.6226 51.1654 48.7737 51.4769 48.7698 51.623C48.7456 52.5051 47.798 53.5999 47.1289 53.8803Z" fill="#B82774"/>
<path opacity="0.75" d="M44.166 51.8535C44.1571 51.9922 45.1758 52.3258 45.2514 52.2404C45.3753 52.1012 46.9116 50.2922 46.918 50.1806C46.9284 50.0004 46.9728 49.1228 46.7126 49.1105C46.6257 49.106 45.5151 49.4362 44.846 50.2364C44.1774 51.0365 44.1774 51.6782 44.166 51.8535Z" fill="white"/>
<path d="M44.4825 50.7628C44.4825 50.7628 44.9595 49.9538 45.7965 49.4913C45.7965 49.4913 46.2493 49.629 45.8948 50.1996C45.5402 50.7707 44.4825 50.7628 44.4825 50.7628Z" fill="white"/>
<path d="M46.6124 53.6065C46.5813 53.6564 46.9087 54.2961 46.9985 54.2783C47.0884 54.2606 47.4331 53.7586 47.3906 53.762C47.3481 53.7645 46.681 53.4969 46.6124 53.6065Z" fill="white"/>
<path d="M48.628 51.33C48.4956 51.4914 48.6122 52.0512 48.6872 52.07C48.7623 52.0887 49.1015 51.4529 49.06 51.4135C49.0186 51.3735 48.7499 51.1815 48.628 51.33Z" fill="white"/>
<path d="M45.8456 55.6557C45.8456 55.6557 47.6994 56.2238 49.4584 54.4498C51.0721 52.8219 50.4094 51.0093 50.3378 50.8301C50.3378 50.8301 51.5358 52.9709 49.4386 54.9291C47.6357 56.6133 45.8456 55.6557 45.8456 55.6557Z" fill="#FFD2FF"/>
<path opacity="0.5" d="M45.2042 55.3221C44.2018 54.05 42.9302 51.4383 44.6704 49.6386C46.4106 47.8389 49.0406 49.536 49.8041 49.884C49.8041 49.884 48.1681 47.02 44.8062 48.6011C43.5213 49.2053 43.187 50.1125 43.2952 52.1635C43.3939 54.0431 45.2042 55.3221 45.2042 55.3221Z" fill="#D42F55"/>
<path opacity="0.5" d="M46.9773 58.2807C50.3866 58.2807 53.1504 55.5181 53.1504 52.1101C53.1504 48.7022 50.3866 45.9395 46.9773 45.9395C43.5679 45.9395 40.8041 48.7022 40.8041 52.1101C40.8041 55.5181 43.5679 58.2807 46.9773 58.2807Z" fill="url(#paint25_radial_791_10302)"/>
<path d="M45.0245 22.974C44.3712 24.3226 46.4294 27.1041 48.2975 24.9914C50.367 22.6512 46.4363 20.0593 45.0245 22.974Z" fill="url(#paint26_linear_791_10302)"/>
<path d="M45.5637 22.9646C45.1607 23.7736 45.4615 24.596 46.1967 25.099C47.0426 25.678 48.0792 24.9933 48.4372 24.284C48.9488 23.2706 47.974 22.2202 47.3691 22.0485C46.7641 21.8767 45.8511 22.3871 45.5637 22.9646Z" fill="url(#paint27_linear_791_10302)"/>
<path opacity="0.4" d="M45.4204 23.675C45.3907 23.8023 45.4204 24.5131 45.9606 24.8824C46.5008 25.2516 46.8825 25.3148 46.9235 25.2536C46.9645 25.1928 46.963 24.7022 46.9378 24.6765C46.9127 24.6514 46.4909 24.4455 46.2875 24.1656C46.0845 23.8858 46.0144 23.7875 45.9566 23.7821C45.8994 23.7772 45.4406 23.5886 45.4204 23.675Z" fill="#B82774"/>
<path d="M46.0694 23.7508C45.9933 24.0785 46.9326 24.6896 47.018 24.6773C47.4219 24.6195 47.9113 23.7266 47.9197 23.4368C47.9256 23.2409 47.1696 22.6081 46.9281 22.6841C46.6866 22.7596 46.1281 23.4956 46.0694 23.7508Z" fill="white"/>
<path opacity="0.8" d="M47.0181 24.6771C46.9065 24.724 46.9465 25.2324 46.985 25.2368C47.4102 25.2877 47.8477 25.0502 48.2744 24.4954C48.62 24.0457 48.5914 23.4391 48.4433 23.253C48.3889 23.1849 47.9223 23.3562 47.9203 23.4361C47.907 23.9213 47.386 24.5231 47.0181 24.6771Z" fill="#B82774"/>
<path opacity="0.75" d="M45.3893 23.5627C45.3843 23.6387 45.9443 23.8224 45.9858 23.7755C46.0539 23.699 46.8983 22.7048 46.9018 22.6431C46.9077 22.5439 46.9319 22.0617 46.7892 22.0547C46.7413 22.0523 46.131 22.2339 45.7631 22.6737C45.3957 23.114 45.3957 23.4665 45.3893 23.5627Z" fill="white"/>
<path d="M45.5638 22.9641C45.5638 22.9641 45.826 22.5199 46.2857 22.2657C46.2857 22.2657 46.5346 22.3412 46.3401 22.6551C46.145 22.9686 45.5638 22.9641 45.5638 22.9641Z" fill="white"/>
<path d="M46.7345 24.5272C46.7172 24.5549 46.8975 24.9063 46.9468 24.8964C46.9962 24.8866 47.1853 24.6106 47.1621 24.6126C47.1389 24.6141 46.772 24.467 46.7345 24.5272Z" fill="white"/>
<path d="M47.8422 23.2768C47.7696 23.3657 47.8333 23.6732 47.8748 23.6835C47.9158 23.6939 48.1024 23.3444 48.0797 23.3227C48.0565 23.3005 47.9088 23.1949 47.8422 23.2768Z" fill="white"/>
<path d="M46.313 25.6532C46.313 25.6532 47.3318 25.9656 48.2982 24.9903C49.1851 24.0953 48.8211 23.0992 48.7816 23.001C48.7816 23.001 49.4399 24.1778 48.2873 25.2538C47.2972 26.1794 46.313 25.6532 46.313 25.6532Z" fill="#FFF7C4"/>
<path opacity="0.5" d="M45.9602 25.47C45.4091 24.7711 44.9459 23.5405 45.9024 22.5513C46.8589 21.5621 48.0683 22.2897 48.488 22.4812C48.488 22.4812 47.0431 20.5068 45.3735 21.6821C44.5573 22.2566 44.4743 23.2147 44.7212 23.8806C45.0812 24.8505 45.9602 25.47 45.9602 25.47Z" fill="#E54136"/>
<path d="M45.0248 81.2114C44.3714 82.5599 46.4296 85.3414 48.2977 83.2288C50.3673 80.8886 46.4366 78.2966 45.0248 81.2114Z" fill="url(#paint28_linear_791_10302)"/>
<path d="M45.5637 81.203C45.1607 82.012 45.4615 82.8344 46.1967 83.3373C47.0426 83.9164 48.0792 83.2317 48.4372 82.5224C48.9488 81.509 47.974 80.4586 47.3691 80.2868C46.7641 80.1151 45.8511 80.625 45.5637 81.203Z" fill="url(#paint29_linear_791_10302)"/>
<path opacity="0.4" d="M45.4204 81.9135C45.3907 82.0409 45.4204 82.7517 45.9606 83.1209C46.5008 83.4901 46.8825 83.5533 46.9235 83.4921C46.9645 83.4314 46.963 82.9407 46.9378 82.9151C46.9127 82.8899 46.4909 82.684 46.2875 82.4042C46.0845 82.1243 46.0144 82.0261 45.9566 82.0206C45.8994 82.0157 45.4406 81.8267 45.4204 81.9135Z" fill="#B82774"/>
<path d="M46.0694 81.9891C45.9933 82.3169 46.9326 82.928 47.018 82.9156C47.4219 82.8579 47.9113 81.9649 47.9197 81.6752C47.9256 81.4792 47.1696 80.8464 46.9281 80.9224C46.6866 80.9979 46.1281 81.7334 46.0694 81.9891Z" fill="white"/>
<path opacity="0.8" d="M47.0182 82.9154C46.9066 82.9623 46.9466 83.4707 46.9852 83.4752C47.4103 83.526 47.8478 83.2886 48.2745 82.7338C48.6202 82.2841 48.5915 81.6774 48.4434 81.4914C48.3891 81.4232 47.9224 81.5945 47.9204 81.6745C47.9071 82.1597 47.3861 82.7614 47.0182 82.9154Z" fill="#B82774"/>
<path opacity="0.75" d="M45.3893 81.8011C45.3843 81.8771 45.9443 82.0607 45.9858 82.0138C46.0539 81.9373 46.8983 80.9432 46.9018 80.8815C46.9077 80.7823 46.9319 80.3 46.7892 80.2931C46.7413 80.2906 46.131 80.4723 45.7631 80.9121C45.3957 81.3519 45.3957 81.7043 45.3893 81.8011Z" fill="white"/>
<path d="M45.5639 81.2034C45.5639 81.2034 45.8261 80.7592 46.2859 80.505C46.2859 80.505 46.5347 80.5805 46.3402 80.8944C46.1451 81.2079 45.5639 81.2034 45.5639 81.2034Z" fill="white"/>
<path d="M46.7346 82.7654C46.7173 82.793 46.8976 83.1444 46.947 83.1346C46.9963 83.1247 47.1855 82.8488 47.1623 82.8508C47.1391 82.8527 46.7722 82.7056 46.7346 82.7654Z" fill="white"/>
<path d="M47.8422 81.5149C47.7696 81.6037 47.8333 81.9112 47.8748 81.9216C47.9158 81.932 48.1024 81.5825 48.0797 81.5608C48.0565 81.5391 47.9088 81.4334 47.8422 81.5149Z" fill="white"/>
<path d="M46.3132 83.8915C46.3132 83.8915 47.3319 84.204 48.2983 83.2286C49.1852 82.3337 48.8212 81.3376 48.7817 81.2394C48.7817 81.2394 49.44 82.4161 48.2874 83.4922C47.2973 84.4172 46.3132 83.8915 46.3132 83.8915Z" fill="#FFF7C4"/>
<path opacity="0.5" d="M45.9602 83.7084C45.4091 83.0094 44.9459 81.7788 45.9024 80.7897C46.8589 79.8005 48.0683 80.528 48.488 80.7196C48.488 80.7196 47.0431 78.7451 45.3735 79.9204C44.5573 80.495 44.4743 81.4531 44.7212 82.1189C45.0812 83.0889 45.9602 83.7084 45.9602 83.7084Z" fill="#E54136"/>
<path d="M22.9965 33.9125C22.3432 35.2611 24.4014 38.0426 26.2695 35.9299C28.3391 33.5897 24.4083 30.9978 22.9965 33.9125Z" fill="url(#paint30_linear_791_10302)"/>
<path d="M23.5357 33.9041C23.1328 34.7131 23.4335 35.5355 24.1688 36.0385C25.0147 36.6175 26.0512 35.9328 26.4092 35.2235C26.9208 34.2101 25.946 33.1597 25.3411 32.988C24.7362 32.8162 23.8231 33.3261 23.5357 33.9041Z" fill="url(#paint31_linear_791_10302)"/>
<path opacity="0.4" d="M23.3923 34.6146C23.3626 34.742 23.3923 35.4528 23.9325 35.822C24.4727 36.1912 24.8544 36.2544 24.8954 36.1932C24.9364 36.132 24.9349 35.6413 24.9097 35.6162C24.8846 35.591 24.4628 35.3852 24.2594 35.1053C24.0564 34.8254 23.9863 34.7272 23.9285 34.7218C23.8713 34.7168 23.4125 34.5278 23.3923 34.6146Z" fill="#B82774"/>
<path d="M24.0408 34.6897C23.9647 35.0175 24.904 35.6286 24.9894 35.6162C25.3933 35.5585 25.8827 34.6656 25.8911 34.3753C25.897 34.1793 25.141 33.5465 24.8995 33.6226C24.658 33.6986 24.1 34.4341 24.0408 34.6897Z" fill="white"/>
<path opacity="0.8" d="M24.9895 35.6165C24.8779 35.6634 24.9179 36.1713 24.9564 36.1763C25.3816 36.2271 25.8191 35.9897 26.2458 35.4349C26.5914 34.9852 26.5628 34.3786 26.4147 34.1925C26.3603 34.1243 25.8937 34.2956 25.8917 34.3756C25.8784 34.8603 25.3574 35.462 24.9895 35.6165Z" fill="#B82774"/>
<path opacity="0.75" d="M23.3611 34.5027C23.3562 34.5787 23.9162 34.7623 23.9577 34.7154C24.0258 34.6389 24.8702 33.6448 24.8737 33.5836C24.8796 33.4844 24.9038 33.0021 24.7611 32.9952C24.7132 32.9927 24.1028 33.1744 23.735 33.6142C23.3676 34.0535 23.3676 34.4064 23.3611 34.5027Z" fill="white"/>
<path d="M23.5358 33.9036C23.5358 33.9036 23.798 33.4593 24.2578 33.2051C24.2578 33.2051 24.5066 33.2806 24.3121 33.5946C24.117 33.908 23.5358 33.9036 23.5358 33.9036Z" fill="white"/>
<path d="M24.7065 35.4665C24.6892 35.4941 24.8695 35.8456 24.9189 35.8357C24.9682 35.8258 25.1574 35.5499 25.1342 35.5519C25.1105 35.5538 24.744 35.4067 24.7065 35.4665Z" fill="white"/>
<path d="M25.8142 34.2151C25.7416 34.3039 25.8053 34.6115 25.8468 34.6218C25.8878 34.6322 26.0744 34.2827 26.0517 34.261C26.0285 34.2388 25.8809 34.1336 25.8142 34.2151Z" fill="white"/>
<path d="M24.2851 36.5926C24.2851 36.5926 25.3038 36.9051 26.2702 35.9297C27.1571 35.0348 26.7931 34.0387 26.7536 33.9405C26.7536 33.9405 27.4119 35.1172 26.2593 36.1933C25.2687 37.1183 24.2851 36.5926 24.2851 36.5926Z" fill="#FFF7C4"/>
<path opacity="0.5" d="M23.9322 36.4095C23.3811 35.7105 22.9179 34.48 23.8744 33.4908C24.8309 32.5016 26.0403 33.2292 26.46 33.4207C26.46 33.4207 25.0151 31.4462 23.3456 32.6215C22.5293 33.1961 22.4463 34.1542 22.6932 34.8201C23.0532 35.7895 23.9322 36.4095 23.9322 36.4095Z" fill="#E54136"/>
<path d="M22.9457 33.8982C22.2924 35.2467 24.3506 38.0282 26.2187 35.9156C28.2883 33.5749 24.358 30.9829 22.9457 33.8982Z" fill="url(#paint32_linear_791_10302)"/>
<path d="M23.4848 33.8884C23.0818 34.6975 23.3826 35.5198 24.1179 36.0228C24.9638 36.6018 26.0003 35.9172 26.3583 35.2079C26.8699 34.1945 25.8951 33.1441 25.2902 32.9723C24.6852 32.8005 23.7727 33.3109 23.4848 33.8884Z" fill="url(#paint33_linear_791_10302)"/>
<path opacity="0.4" d="M23.342 34.5988C23.3123 34.7262 23.342 35.437 23.8822 35.8062C24.4224 36.1759 24.8041 36.2386 24.8451 36.1774C24.8861 36.1162 24.8846 35.626 24.8594 35.6004C24.8343 35.5752 24.4125 35.3694 24.2091 35.0895C24.0061 34.8096 23.936 34.7114 23.8782 34.7059C23.8205 34.701 23.3617 34.5125 23.342 34.5988Z" fill="#B82774"/>
<path d="M23.9905 34.6741C23.9144 35.0019 24.8537 35.613 24.9391 35.6006C25.343 35.5429 25.8324 34.6499 25.8408 34.3597C25.8467 34.1637 25.0907 33.5309 24.8492 33.6069C24.6078 33.6829 24.0497 34.4189 23.9905 34.6741Z" fill="white"/>
<path opacity="0.8" d="M24.9392 35.6009C24.8276 35.6478 24.8676 36.1557 24.9061 36.1607C25.3313 36.2115 25.7688 35.9741 26.195 35.4193C26.5407 34.9696 26.512 34.3629 26.3639 34.1768C26.3096 34.1087 25.8429 34.28 25.8409 34.36C25.8281 34.8452 25.3071 35.4469 24.9392 35.6009Z" fill="#B82774"/>
<path opacity="0.75" d="M23.3109 34.487C23.3059 34.5631 23.8659 34.7467 23.9074 34.6998C23.9755 34.6233 24.8199 33.6292 24.8234 33.5679C24.8293 33.4687 24.8535 32.9865 24.7108 32.9796C24.6629 32.9771 24.0526 33.1587 23.6847 33.5985C23.3168 34.0384 23.3168 34.3908 23.3109 34.487Z" fill="white"/>
<path d="M23.485 33.888C23.485 33.888 23.7472 33.4437 24.207 33.1895C24.207 33.1895 24.4558 33.265 24.2608 33.579C24.0667 33.8924 23.485 33.888 23.485 33.888Z" fill="white"/>
<path d="M24.6557 35.4511C24.6385 35.4787 24.8187 35.8301 24.8681 35.8203C24.9175 35.8104 25.1066 35.5345 25.0834 35.5365C25.0602 35.5379 24.6933 35.3908 24.6557 35.4511Z" fill="white"/>
<path d="M25.7633 34.2006C25.6907 34.2895 25.7544 34.597 25.7959 34.6074C25.8374 34.6177 26.0235 34.2683 26.0008 34.2466C25.9776 34.2243 25.83 34.1187 25.7633 34.2006Z" fill="white"/>
<path d="M24.2343 36.577C24.2343 36.577 25.253 36.8895 26.2194 35.9141C27.1063 35.0192 26.7423 34.0231 26.7028 33.9248C26.7028 33.9248 27.3611 35.1016 26.2085 36.1777C25.2184 37.1032 24.2343 36.577 24.2343 36.577Z" fill="#FFF7C4"/>
<path opacity="0.5" d="M23.8814 36.3939C23.3303 35.6949 22.8671 34.4643 23.8236 33.4751C24.7802 32.4859 25.9895 33.2135 26.4092 33.405C26.4092 33.405 24.9643 31.4306 23.2948 32.6059C22.4785 33.1805 22.3955 34.1386 22.6425 34.8044C23.0024 35.7744 23.8814 36.3939 23.8814 36.3939Z" fill="#E54136"/>
<path d="M67.3969 33.8982C66.7435 35.2467 68.8017 38.0282 70.6698 35.9156C72.7394 33.5749 68.8087 30.9829 67.3969 33.8982Z" fill="url(#paint34_linear_791_10302)"/>
<path d="M67.936 33.8884C67.5331 34.6975 67.8338 35.5198 68.5691 36.0228C69.415 36.6018 70.451 35.9172 70.8095 35.2079C71.3211 34.1945 70.3463 33.1441 69.7414 32.9723C69.1365 32.8005 68.2234 33.3109 67.936 33.8884Z" fill="url(#paint35_linear_791_10302)"/>
<path opacity="0.4" d="M67.7927 34.5988C67.7631 34.7262 67.7927 35.437 68.3329 35.8062C68.8732 36.1759 69.2549 36.2386 69.2959 36.1774C69.3369 36.1162 69.3354 35.626 69.3102 35.6004C69.285 35.5752 68.8633 35.3694 68.6598 35.0895C68.4569 34.8096 68.3868 34.7114 68.329 34.7059C68.2717 34.701 67.813 34.5125 67.7927 34.5988Z" fill="#B82774"/>
<path d="M68.4417 34.6741C68.3657 35.0019 69.3044 35.613 69.3903 35.6006C69.7943 35.5429 70.2831 34.6499 70.292 34.3597C70.298 34.1637 69.5419 33.5309 69.3005 33.6069C69.0585 33.6829 68.5005 34.4189 68.4417 34.6741Z" fill="white"/>
<path opacity="0.8" d="M69.39 35.6009C69.2779 35.6478 69.3184 36.1557 69.357 36.1607C69.7821 36.2115 70.2196 35.9741 70.6458 35.4193C70.9915 34.9696 70.9628 34.3629 70.8147 34.1768C70.7604 34.1087 70.2937 34.28 70.2917 34.36C70.2784 34.8452 69.7574 35.4469 69.39 35.6009Z" fill="#B82774"/>
<path opacity="0.75" d="M67.7616 34.487C67.7567 34.5631 68.3166 34.7467 68.3581 34.6998C68.4263 34.6233 69.2707 33.6292 69.2741 33.5679C69.2801 33.4687 69.3043 32.9865 69.1615 32.9796C69.1136 32.9771 68.5033 33.1587 68.1354 33.5985C67.768 34.0384 67.768 34.3908 67.7616 34.487Z" fill="white"/>
<path d="M67.9361 33.888C67.9361 33.888 68.1983 33.4437 68.6581 33.1895C68.6581 33.1895 68.9069 33.265 68.7124 33.579C68.5173 33.8924 67.9361 33.888 67.9361 33.888Z" fill="white"/>
<path d="M69.1068 35.4511C69.0896 35.4787 69.2698 35.8301 69.3192 35.8203C69.3686 35.8104 69.5577 35.5345 69.5345 35.5365C69.5108 35.5379 69.1444 35.3908 69.1068 35.4511Z" fill="white"/>
<path d="M70.2149 34.2006C70.1423 34.2895 70.2065 34.597 70.2475 34.6074C70.289 34.6177 70.4751 34.2683 70.4524 34.2466C70.4292 34.2243 70.2816 34.1187 70.2149 34.2006Z" fill="white"/>
<path d="M68.6854 36.577C68.6854 36.577 69.7041 36.8895 70.671 35.9141C71.5579 35.0192 71.1939 34.0231 71.1544 33.9248C71.1544 33.9248 71.8127 35.1016 70.6601 36.1777C69.6691 37.1032 68.6854 36.577 68.6854 36.577Z" fill="#FFF7C4"/>
<path opacity="0.5" d="M68.3325 36.3939C67.7814 35.6949 67.3187 34.4643 68.2748 33.4751C69.2313 32.4859 70.4406 33.2135 70.8603 33.405C70.8603 33.405 69.4155 31.4306 67.7459 32.6059C66.9296 33.1805 66.8467 34.1386 67.0936 34.8044C67.4535 35.7744 68.3325 36.3939 68.3325 36.3939Z" fill="#E54136"/>
<path opacity="0.3" d="M36.7055 23.8369C39.3123 28.3846 48.7011 31.0496 53.1968 31.1473C57.7388 31.246 56.8139 23.8369 56.8139 23.8369H36.7055Z" fill="#DA0553"/>
<path d="M38.1762 10.1914C38.1762 10.1914 37.5663 11.6831 37.8083 12.2359C38.0502 12.7888 38.427 13.2612 37.912 14.28C37.912 14.28 38.745 14.3886 38.427 11.7823C38.3056 10.7882 38.1762 10.1914 38.1762 10.1914Z" fill="url(#paint36_linear_791_10302)"/>
<path d="M47.2934 15.4281C47.1279 15.473 46.9625 15.5164 46.7971 15.5628C44.1577 16.2766 41.5345 17.0447 38.9287 17.8714C37.827 17.0195 36.671 16.2722 35.4809 15.586C33.8622 14.6531 32.1798 13.8303 30.4722 13.0074C34.0622 13.0464 37.6527 14.3264 37.9124 14.28C38.5455 14.1654 38.6151 12.5257 38.11 10.4574C37.7994 9.18787 42.8194 11.9896 45.7448 14.1462C46.1398 14.4379 46.4968 14.7178 46.7971 14.9735C46.9872 15.1364 47.1541 15.2874 47.2934 15.4281Z" fill="url(#paint37_linear_791_10302)"/>
<path d="M55.4169 10.1914C55.4169 10.1914 56.0268 11.3726 55.7848 11.9255C55.5428 12.4783 55.1661 13.2617 55.6811 14.2805C55.6811 14.2805 54.8481 14.3891 55.1661 11.7828C55.2875 10.7882 55.4169 10.1914 55.4169 10.1914Z" fill="url(#paint38_linear_791_10302)"/>
<path d="M63.048 13.0078C61.6614 13.7694 60.3039 14.4442 58.986 15.154C57.4922 15.9566 56.0478 16.8041 54.6641 17.8723C52.0583 17.045 49.4362 16.2774 46.7968 15.5637C46.6313 15.5173 46.4659 15.4738 46.3005 15.4289C46.4397 15.2882 46.6066 15.1357 46.7968 14.9748C47.1103 14.7063 47.4876 14.4131 47.9044 14.107C50.8371 11.9564 55.792 9.1961 55.4824 10.4588C54.9772 12.5265 55.0468 14.1663 55.6814 14.2813C55.9401 14.3272 59.4576 13.0472 63.048 13.0078Z" fill="url(#paint39_linear_791_10302)"/>
<path opacity="0.8" d="M58.9858 15.1543C57.492 15.9569 56.0476 16.8045 54.6639 17.8726C52.0581 17.0453 49.436 16.2778 46.7965 15.564C44.1571 16.2778 41.534 17.0458 38.9282 17.8726C37.8265 17.0207 36.6705 16.2733 35.4804 15.5872C35.8666 15.3695 36.1233 15.2274 36.1233 15.2274C39.3464 14.5585 42.6722 14.251 45.7442 14.1478C46.4805 14.1232 47.202 14.1103 47.9047 14.1074C53.9761 14.0782 58.5952 14.7649 58.5952 14.7649L58.9858 15.1543Z" fill="#D42F55"/>
<path d="M58.0219 19.2419C57.5187 19.9201 57.175 20.4122 57.175 20.4122C57.175 20.4122 56.9819 23.5615 56.814 23.8364C56.6466 24.1109 55.5805 24.7664 55.1217 24.9954C45.8495 29.6289 38.3979 24.9954 38.3979 24.9954C38.3979 24.9954 36.873 24.1114 36.7056 23.8364C36.5382 23.5615 36.3446 20.4122 36.3446 20.4122C36.3436 20.4108 36.3431 20.4103 36.3421 20.4093C36.3017 20.351 35.756 19.5534 34.999 18.5982L34.9985 18.5967C33.5373 16.6968 30.4712 13.0081 30.4712 13.0081C30.5522 12.7499 37.9278 16.6386 38.5682 16.4313C39.3633 16.1741 40.0605 11.1102 41.0032 8.72357C42.1207 5.89321 43.8792 1.5988 46.7052 0.0212249C46.7062 0.0128335 46.7067 0.00888497 46.7072 0C46.7225 0 46.7418 0.00197522 46.7591 0.00543049C46.7783 0.00197522 46.7956 0 46.8129 0C46.8129 0.00839137 46.8129 0.0128335 46.8129 0.0212249C52.2927 3.30324 53.2739 15.3073 54.9617 16.186C55.9034 16.6761 63.0489 13.0086 63.0489 13.0086C63.119 13.1517 59.5996 17.1149 58.0219 19.2419Z" fill="url(#paint40_linear_791_10302)"/>
<path opacity="0.5" d="M58.022 19.2423C57.5079 19.922 57.1751 20.4127 57.1751 20.4127C49.9674 24.2564 43.74 23.436 36.3452 20.4127C36.3442 20.4112 36.3437 20.4107 36.3427 20.4097C36.3022 20.3515 35.7566 19.5538 34.9996 18.5987C37.5856 20.9028 42.7904 22.8136 47.0747 22.8136C50.6677 22.8136 54.5174 20.9423 58.022 19.2423Z" fill="#D42F55"/>
<path opacity="0.5" d="M38.398 24.9961C38.3955 25.0001 41.4976 27.0555 46.5108 27.055C51.5832 27.0545 55.1219 24.9966 55.1219 24.9966C55.1204 24.9942 51.0667 26.5238 46.3004 26.5238C41.8013 26.5234 38.398 24.9961 38.398 24.9961Z" fill="#D42F55"/>
<path d="M55.7576 14.263C55.7487 14.2458 59.6197 12.9377 63.0487 13.0078C63.4191 13.0152 56.3798 17.1265 54.9512 16.4305C53.9794 15.9571 53.1967 11.9248 53.1967 11.9248C53.2017 11.9238 54.7601 15.4551 55.7334 15.6037C56.8025 15.7666 60.6365 13.8079 60.6365 13.8079C60.4306 13.6515 55.7576 14.263 55.7576 14.263Z" fill="url(#paint41_linear_791_10302)"/>
<path d="M37.5773 14.2291C37.5852 14.2133 32.6658 12.7567 30.4141 12.9324C30.1123 12.9561 37.1975 17.1483 38.5679 16.4311C39.5653 15.9089 40.1619 11.5986 40.1619 11.5986C40.1569 11.5972 38.7683 15.4182 37.7862 15.6048C36.7032 15.8106 32.9206 13.6743 32.9206 13.6743C32.9582 13.5677 37.5773 14.2291 37.5773 14.2291Z" fill="url(#paint42_linear_791_10302)"/>
<path d="M50.9614 5.41589C50.9614 5.41589 48.6592 0 46.7077 0C44.8846 0 42.3676 5.52448 42.3676 5.52448C42.3676 5.52448 45.05 1.9468 46.7601 1.82635C48.3022 1.71825 50.9614 5.41589 50.9614 5.41589Z" fill="url(#paint43_linear_791_10302)"/>
<path opacity="0.2" d="M46.8468 20.9663C45.7407 21.1297 40.0238 16.778 40.1636 14.5686C40.366 11.3597 43.2277 4.32969 46.5905 3.456C49.4862 2.70374 52.5306 10.5146 52.8861 13.9378C53.2491 17.4321 48.3944 20.7378 46.8468 20.9663Z" fill="#D42F55"/>
<path d="M38.7629 24.7238C37.8088 23.159 38.2197 21.7611 38.4849 21.6066C38.8824 21.3746 43.8323 22.9201 44.2797 23.3382C44.6585 23.6921 46.6391 26.1923 45.4046 26.1809C44.0269 26.1676 39.1421 25.3462 38.7629 24.7238Z" fill="white"/>
<path opacity="0.2" d="M34.8433 15.8358C33.6818 15.3822 31.634 14.042 31.634 14.042C31.5525 14.1393 34.5771 18.3068 36.2625 19.4199C36.8313 19.7955 35.4576 16.0757 34.8433 15.8358Z" fill="#DA0553"/>
<path opacity="0.4" d="M50.713 23.2096C49.7836 24.1919 50.2285 26.225 50.4132 26.1806C51.8591 25.8356 54.0936 25.2832 55.1217 24.2842C55.8348 23.5906 55.658 21.5264 55.4195 21.5955C53.9672 22.0155 51.6255 22.2456 50.713 23.2096Z" fill="#DA0553"/>
<path opacity="0.4" d="M51.3494 21.7018C51.6111 22.0503 55.407 20.449 56.4771 19.5018C56.9309 19.1 57.7393 16.8876 57.325 16.8733C56.9107 16.859 53.4723 16.6734 52.9434 17.3398C52.0042 18.5239 51.1662 21.4574 51.3494 21.7018Z" fill="#DA0553"/>
<path d="M56.9207 19.5887C57.0131 19.6509 61.8272 14.6437 61.8277 14.4616C61.8297 14.1151 58.6041 15.7593 58.2669 16.3269C57.3336 17.8981 56.9207 19.5887 56.9207 19.5887Z" fill="white"/>
<path d="M56.9275 20.8812C56.4317 21.0955 56.285 20.9227 56.1808 21.2993C56.0771 21.676 55.5231 24.7556 56.4771 23.836C56.6944 23.6262 57.2282 20.7514 56.9275 20.8812Z" fill="white"/>
<path opacity="0.2" d="M36.433 20.9024C36.348 20.9458 36.5135 23.3403 36.9154 23.8255C37.3179 24.3107 38.5159 24.9396 38.4211 24.6508C38.0453 23.5081 36.433 20.9024 36.433 20.9024Z" fill="#DA0553"/>
<path d="M36.779 17.3634C36.3721 17.8383 36.4422 19.0387 37.5873 19.6192C38.7325 20.1997 43.8804 22.0068 43.7353 21.2452C43.5901 20.4835 41.1047 17.0569 40.5053 16.8471C39.9053 16.6378 37.1928 16.8802 36.779 17.3634Z" fill="white"/>
<path d="M38.4268 22.2983C39.6702 25.5557 43.876 24.0581 43.7382 23.6405C43.601 23.2234 37.8728 20.8471 38.4268 22.2983Z" fill="white"/>
<path d="M45.9493 1.18402C43.6713 1.66332 43.1834 4.20343 43.4412 4.23552C43.699 4.2676 47.1255 0.936722 45.9493 1.18402Z" fill="white"/>
<path d="M32.7032 13.9386C31.203 13.866 35.151 15.7408 35.4438 15.7047C36.2625 15.6045 34.0913 14.0057 32.7032 13.9386Z" fill="white"/>
<path d="M61.4727 14.0064C60.8752 13.7833 59.8545 14.1244 59.2047 14.7073C58.8397 15.0346 58.3291 15.6556 58.4877 15.585C58.6467 15.5144 61.8075 14.1313 61.4727 14.0064Z" fill="white"/>
<path d="M43.564 14.2751C41.3715 16.6889 44.2879 22.6739 48.626 20.5341C53.7547 18.0043 49.2137 8.05612 43.564 14.2751Z" fill="url(#paint44_linear_791_10302)"/>
<path d="M44.808 14.7882C43.4371 16.2034 43.6603 18.0924 44.8652 19.4923C46.0859 20.9109 48.2676 20.4193 49.3599 19.5051C51.0053 18.1285 50.2621 15.3776 49.2769 14.454C48.2088 13.4535 45.8395 13.723 44.808 14.7882Z" fill="url(#paint45_linear_791_10302)"/>
<path opacity="0.4" d="M44.0666 16.2207C43.9313 16.4631 43.6168 17.9064 44.5244 18.9657C45.3545 19.9346 46.0132 20.2579 46.1229 20.1839C46.2325 20.1098 46.5298 19.2993 46.4996 19.2406C46.4695 19.1814 45.8063 18.5441 45.5822 17.8866C45.3461 17.1956 45.2636 16.9463 45.1476 16.889C45.0296 16.8318 44.1595 16.0538 44.0666 16.2207Z" fill="#B82774"/>
<path d="M45.397 16.9144C45.0425 17.5003 46.48 19.257 46.6439 19.2901C47.4024 19.4431 48.8942 18.2274 49.1347 17.7116C49.3011 17.3537 48.4137 15.4874 47.8799 15.4345C47.3377 15.3817 45.681 16.4454 45.397 16.9144Z" fill="white"/>
<path opacity="0.8" d="M46.6439 19.2909C46.4108 19.3003 46.1753 20.1622 46.241 20.1913C46.9535 20.5087 47.8463 20.3808 48.9362 19.7495C49.8379 19.2273 50.2774 18.1818 50.184 17.7504C50.149 17.5885 49.2023 17.5673 49.1347 17.7129C48.7396 18.5668 47.4029 19.2608 46.6439 19.2909Z" fill="#B82774"/>
<path opacity="0.75" d="M44.0618 15.9549C44.008 16.1139 45.0963 16.9594 45.2114 16.8987C45.399 16.7995 47.8054 15.4549 47.8607 15.3271C47.9506 15.1183 48.397 14.0629 48.1101 13.9035C48.0133 13.8497 46.5704 13.6517 45.444 14.3166C44.3378 14.9692 44.1304 15.7521 44.0618 15.9549Z" fill="white"/>
<path d="M44.808 14.7881C44.808 14.7881 45.689 14.0146 46.8811 13.8838C46.8811 13.8838 47.3492 14.3093 46.7028 14.832C46.0687 15.3439 44.808 14.7881 44.808 14.7881Z" fill="white"/>
<path d="M46.2162 18.8507C46.1668 18.8878 46.2824 19.601 46.3782 19.6144C46.4735 19.6277 46.9885 19.2836 46.9456 19.2718C46.9026 19.26 46.3244 18.7703 46.2162 18.8507Z" fill="white"/>
<path d="M49.1249 17.3593C48.9254 17.4713 48.8005 18.0784 48.8647 18.1253C48.9289 18.1717 49.5274 17.6732 49.5056 17.6169C49.4834 17.5602 49.3086 17.2556 49.1249 17.3593Z" fill="white"/>
<path d="M44.7878 20.4751C44.7878 20.4751 46.4159 21.4865 48.6262 20.5339C50.6938 19.6424 50.9446 17.7395 50.9658 17.5352C50.9658 17.5352 51.0172 19.9149 48.4296 20.9233C46.2361 21.7778 44.7878 20.4751 44.7878 20.4751Z" fill="#FFF7C4"/>
<path opacity="0.5" d="M44.2164 19.9717C43.4633 18.3843 43.0712 15.5041 45.8366 14.1683C48.6819 12.7936 50.3702 15.6043 50.9356 16.3348C50.9356 16.3348 50.0981 10.2402 45.2326 11.3651C42.8139 11.9244 42.1073 14.2873 42.3819 16.048C42.733 18.2979 44.2164 19.9717 44.2164 19.9717Z" fill="#E54136"/>
<defs>
<linearGradient id="paint0_linear_791_10302" x1="18.1648" y1="70.607" x2="76.4331" y2="70.607" gradientUnits="userSpaceOnUse">
<stop stop-color="#F23113"/>
<stop offset="1" stop-color="#AD0C1F"/>
</linearGradient>
<linearGradient id="paint1_linear_791_10302" x1="18.1648" y1="93.6109" x2="76.4331" y2="93.6109" gradientUnits="userSpaceOnUse">
<stop stop-color="#FFA933"/>
<stop offset="0.7937" stop-color="#FFBD2B"/>
<stop offset="0.9009" stop-color="#E5942F"/>
<stop offset="1" stop-color="#CA6B34"/>
</linearGradient>
<linearGradient id="paint2_linear_791_10302" x1="14.8918" y1="20.3449" x2="14.8918" y2="58.5961" gradientUnits="userSpaceOnUse">
<stop stop-color="#FFEA34"/>
<stop offset="0.7611" stop-color="#FF8100"/>
<stop offset="1" stop-color="#FFA400"/>
</linearGradient>
<linearGradient id="paint3_linear_791_10302" x1="79.1078" y1="20.3449" x2="79.1078" y2="58.5961" gradientUnits="userSpaceOnUse">
<stop stop-color="#FFEA34"/>
<stop offset="0.7611" stop-color="#FF8100"/>
<stop offset="1" stop-color="#FFA400"/>
</linearGradient>
<linearGradient id="paint4_linear_791_10302" x1="47" y1="90.9755" x2="47" y2="35.5442" gradientUnits="userSpaceOnUse">
<stop stop-color="#FF5900"/>
<stop offset="0.635" stop-color="#FE6800"/>
<stop offset="0.908" stop-color="#FA9300"/>
<stop offset="1" stop-color="#F63F00"/>
</linearGradient>
<linearGradient id="paint5_linear_791_10302" x1="47.0741" y1="79.5589" x2="47.0741" y2="25.5461" gradientUnits="userSpaceOnUse">
<stop stop-color="#FFBA00"/>
<stop offset="0.2095" stop-color="#FE6800"/>
<stop offset="1" stop-color="#D41B00"/>
</linearGradient>
<linearGradient id="paint6_linear_791_10302" x1="27.2946" y1="53.0326" x2="66.853" y2="53.0326" gradientUnits="userSpaceOnUse">
<stop stop-color="#F23113"/>
<stop offset="1" stop-color="#AD0C1F"/>
</linearGradient>
<linearGradient id="paint7_linear_791_10302" x1="58.1162" y1="39.1848" x2="58.1162" y2="25.947" gradientUnits="userSpaceOnUse">
<stop stop-color="#662D87"/>
<stop offset="1" stop-color="#D01C5C"/>
</linearGradient>
<linearGradient id="paint8_linear_791_10302" x1="47.0661" y1="58.7695" x2="69.5857" y2="58.7695" gradientUnits="userSpaceOnUse">
<stop stop-color="#FFAB00"/>
<stop offset="1" stop-color="#FFBA00"/>
</linearGradient>
<linearGradient id="paint9_linear_791_10302" x1="47.0755" y1="85.3695" x2="47.0755" y2="20.3022" gradientUnits="userSpaceOnUse">
<stop stop-color="#FFEA34"/>
<stop offset="0.6341" stop-color="#FF8100"/>
<stop offset="0.6955" stop-color="#FFA400"/>
<stop offset="1" stop-color="#FFBA00"/>
</linearGradient>
<linearGradient id="paint10_linear_791_10302" x1="68.4923" y1="72.7366" x2="68.4923" y2="76.612" gradientUnits="userSpaceOnUse">
<stop stop-color="#FF5900"/>
<stop offset="1" stop-color="#F63F00"/>
</linearGradient>
<linearGradient id="paint11_linear_791_10302" x1="68.3364" y1="66.3811" x2="68.3365" y2="74.02" gradientUnits="userSpaceOnUse">
<stop stop-color="#FFEA34"/>
<stop offset="0.7611" stop-color="#FF8100"/>
<stop offset="1" stop-color="#FFA400"/>
</linearGradient>
<linearGradient id="paint12_linear_791_10302" x1="25.4719" y1="72.7366" x2="25.4719" y2="76.612" gradientUnits="userSpaceOnUse">
<stop stop-color="#FF5900"/>
<stop offset="1" stop-color="#F63F00"/>
</linearGradient>
<linearGradient id="paint13_linear_791_10302" x1="25.6275" y1="66.3811" x2="25.6274" y2="74.02" gradientUnits="userSpaceOnUse">
<stop stop-color="#FFEA34"/>
<stop offset="0.7611" stop-color="#FF8100"/>
<stop offset="1" stop-color="#FFA400"/>
</linearGradient>
<linearGradient id="paint14_linear_791_10302" x1="75.5173" y1="47.5739" x2="79.0479" y2="39.1582" gradientUnits="userSpaceOnUse">
<stop stop-color="#DA2700"/>
<stop offset="1" stop-color="#D41B00"/>
</linearGradient>
<linearGradient id="paint15_linear_791_10302" x1="76.1409" y1="36.0301" x2="76.1412" y2="43.9491" gradientUnits="userSpaceOnUse">
<stop stop-color="#FFEA34"/>
<stop offset="0.7611" stop-color="#FF8100"/>
<stop offset="1" stop-color="#FFA400"/>
</linearGradient>
<linearGradient id="paint16_linear_791_10302" x1="18.3558" y1="47.1507" x2="15.0028" y2="39.1583" gradientUnits="userSpaceOnUse">
<stop stop-color="#DA2700"/>
<stop offset="1" stop-color="#D41B00"/>
</linearGradient>
<linearGradient id="paint17_linear_791_10302" x1="17.9099" y1="36.0301" x2="17.9098" y2="43.9491" gradientUnits="userSpaceOnUse">
<stop stop-color="#FFEA34"/>
<stop offset="0.7611" stop-color="#FF8100"/>
<stop offset="1" stop-color="#FFA400"/>
</linearGradient>
<linearGradient id="paint18_linear_791_10302" x1="47.0001" y1="65.8822" x2="47.0001" y2="37.0925" gradientUnits="userSpaceOnUse">
<stop stop-color="#832645"/>
<stop offset="1" stop-color="#B41E2D"/>
</linearGradient>
<linearGradient id="paint19_linear_791_10302" x1="46.9996" y1="37.627" x2="46.9996" y2="64.8037" gradientUnits="userSpaceOnUse">
<stop stop-color="#FFAB00"/>
<stop offset="0.486" stop-color="#FFBA00"/>
<stop offset="1" stop-color="#EF6C00"/>
</linearGradient>
<linearGradient id="paint20_linear_791_10302" x1="46.8841" y1="56.5727" x2="46.8841" y2="48.661" gradientUnits="userSpaceOnUse">
<stop stop-color="#FFEA34"/>
<stop offset="0.6341" stop-color="#FF8100"/>
<stop offset="0.6955" stop-color="#FFA400"/>
<stop offset="1" stop-color="#FFBA00"/>
</linearGradient>
<linearGradient id="paint21_linear_791_10302" x1="51.2319" y1="54.3354" x2="42.5371" y2="54.3354" gradientUnits="userSpaceOnUse">
<stop stop-color="#FF5900"/>
<stop offset="1" stop-color="#F63F00"/>
</linearGradient>
<linearGradient id="paint22_linear_791_10302" x1="44.7066" y1="49.5935" x2="42.8878" y2="49.5935" gradientUnits="userSpaceOnUse">
<stop stop-color="#EBBD38"/>
<stop offset="1" stop-color="#FFF29E"/>
</linearGradient>
<linearGradient id="paint23_linear_791_10302" x1="50.5312" y1="52.1339" x2="43.2774" y2="52.1339" gradientUnits="userSpaceOnUse">
<stop stop-color="#832645"/>
<stop offset="1" stop-color="#B41E2D"/>
</linearGradient>
<linearGradient id="paint24_linear_791_10302" x1="49.0466" y1="54.0576" x2="45.0321" y2="50.0414" gradientUnits="userSpaceOnUse">
<stop stop-color="#EB175A"/>
<stop offset="1" stop-color="#FF1F19"/>
</linearGradient>
<radialGradient id="paint25_radial_791_10302" cx="0" cy="0" r="1" gradientUnits="userSpaceOnUse" gradientTransform="translate(46.9773 52.11) scale(6.17292 6.17041)">
<stop offset="0.0952" stop-color="#B41E2D"/>
<stop offset="0.3436" stop-color="#7B141F"/>
<stop offset="0.6559" stop-color="#39090E"/>
<stop offset="0.8833" stop-color="#100304"/>
<stop offset="1"/>
</radialGradient>
<linearGradient id="paint26_linear_791_10302" x1="45.8407" y1="22.5244" x2="48.3234" y2="25.202" gradientUnits="userSpaceOnUse">
<stop stop-color="#832645"/>
<stop offset="1" stop-color="#B41E2D"/>
</linearGradient>
<linearGradient id="paint27_linear_791_10302" x1="48.0723" y1="24.7757" x2="45.8659" y2="22.5684" gradientUnits="userSpaceOnUse">
<stop stop-color="#EB175A"/>
<stop offset="1" stop-color="#FF1F19"/>
</linearGradient>
<linearGradient id="paint28_linear_791_10302" x1="45.841" y1="80.7619" x2="48.3237" y2="83.4395" gradientUnits="userSpaceOnUse">
<stop stop-color="#832645"/>
<stop offset="1" stop-color="#B41E2D"/>
</linearGradient>
<linearGradient id="paint29_linear_791_10302" x1="48.0723" y1="83.0137" x2="45.8659" y2="80.8064" gradientUnits="userSpaceOnUse">
<stop stop-color="#EB175A"/>
<stop offset="1" stop-color="#FF1F19"/>
</linearGradient>
<linearGradient id="paint30_linear_791_10302" x1="23.8126" y1="33.4629" x2="26.2954" y2="36.1405" gradientUnits="userSpaceOnUse">
<stop stop-color="#832645"/>
<stop offset="1" stop-color="#B41E2D"/>
</linearGradient>
<linearGradient id="paint31_linear_791_10302" x1="26.0442" y1="35.7148" x2="23.8378" y2="33.5075" gradientUnits="userSpaceOnUse">
<stop stop-color="#EB175A"/>
<stop offset="1" stop-color="#FF1F19"/>
</linearGradient>
<linearGradient id="paint32_linear_791_10302" x1="23.762" y1="33.4484" x2="26.2449" y2="36.1259" gradientUnits="userSpaceOnUse">
<stop stop-color="#832645"/>
<stop offset="1" stop-color="#B41E2D"/>
</linearGradient>
<linearGradient id="paint33_linear_791_10302" x1="25.9935" y1="35.6994" x2="23.7871" y2="33.4921" gradientUnits="userSpaceOnUse">
<stop stop-color="#EB175A"/>
<stop offset="1" stop-color="#FF1F19"/>
</linearGradient>
<linearGradient id="paint34_linear_791_10302" x1="68.213" y1="33.4484" x2="70.6957" y2="36.1259" gradientUnits="userSpaceOnUse">
<stop stop-color="#832645"/>
<stop offset="1" stop-color="#B41E2D"/>
</linearGradient>
<linearGradient id="paint35_linear_791_10302" x1="70.4446" y1="35.6993" x2="68.2381" y2="33.492" gradientUnits="userSpaceOnUse">
<stop stop-color="#EB175A"/>
<stop offset="1" stop-color="#FF1F19"/>
</linearGradient>
<linearGradient id="paint36_linear_791_10302" x1="37.7515" y1="12.2362" x2="38.4993" y2="12.2362" gradientUnits="userSpaceOnUse">
<stop stop-color="#DA2700"/>
<stop offset="1" stop-color="#D41B00"/>
</linearGradient>
<linearGradient id="paint37_linear_791_10302" x1="38.8828" y1="17.8719" x2="38.8828" y2="10.14" gradientUnits="userSpaceOnUse">
<stop offset="0.0503" stop-color="#FF3F00"/>
<stop offset="1" stop-color="#FF7C04"/>
</linearGradient>
<linearGradient id="paint38_linear_791_10302" x1="55.094" y1="12.2362" x2="55.8416" y2="12.2362" gradientUnits="userSpaceOnUse">
<stop stop-color="#DA2700"/>
<stop offset="1" stop-color="#D41B00"/>
</linearGradient>
<linearGradient id="paint39_linear_791_10302" x1="54.674" y1="17.8722" x2="54.674" y2="10.1401" gradientUnits="userSpaceOnUse">
<stop offset="0.0503" stop-color="#FF3F00"/>
<stop offset="1" stop-color="#FF7C04"/>
</linearGradient>
<linearGradient id="paint40_linear_791_10302" x1="30.4716" y1="13.5274" x2="63.0498" y2="13.5274" gradientUnits="userSpaceOnUse">
<stop stop-color="#FFEA34"/>
<stop offset="0.7134" stop-color="#FF8100"/>
<stop offset="0.7987" stop-color="#FFA400"/>
<stop offset="1" stop-color="#FFBA00"/>
</linearGradient>
<linearGradient id="paint41_linear_791_10302" x1="53.1967" y1="14.2176" x2="63.0628" y2="14.2176" gradientUnits="userSpaceOnUse">
<stop stop-color="#FFDE00"/>
<stop offset="1" stop-color="#FFE834"/>
</linearGradient>
<linearGradient id="paint42_linear_791_10302" x1="40.1614" y1="14.0562" x2="30.4046" y2="14.0562" gradientUnits="userSpaceOnUse">
<stop stop-color="#FFDE00"/>
<stop offset="1" stop-color="#FFE834"/>
</linearGradient>
<linearGradient id="paint43_linear_791_10302" x1="42.3677" y1="2.76204" x2="50.9614" y2="2.76204" gradientUnits="userSpaceOnUse">
<stop stop-color="#FFDE00"/>
<stop offset="1" stop-color="#FFE834"/>
</linearGradient>
<linearGradient id="paint44_linear_791_10302" x1="45.6807" y1="13.5859" x2="48.5606" y2="20.9414" gradientUnits="userSpaceOnUse">
<stop stop-color="#832645"/>
<stop offset="1" stop-color="#B41E2D"/>
</linearGradient>
<linearGradient id="paint45_linear_791_10302" x1="48.4242" y1="20.0652" x2="45.8376" y2="14.1252" gradientUnits="userSpaceOnUse">
<stop stop-color="#EB175A"/>
<stop offset="1" stop-color="#FF1F19"/>
</linearGradient>
</defs>
</svg>
