<svg width="16" height="16" viewBox="0 0 16 16" fill="none" xmlns="http://www.w3.org/2000/svg">
<path d="M4.18669 14.6668C5.33544 14.6668 6.26669 13.7356 6.26669 12.5868C6.26669 11.4381 5.33544 10.5068 4.18669 10.5068C3.03794 10.5068 2.10669 11.4381 2.10669 12.5868C2.10669 13.7356 3.03794 14.6668 4.18669 14.6668Z" stroke="#10A7FC" stroke-linecap="round" stroke-linejoin="round"/>
<path d="M13.8933 11.2001V3.06673C13.8933 1.3334 12.8066 1.0934 11.7066 1.3934L7.5466 2.52673C6.7866 2.7334 6.2666 3.3334 6.2666 4.20006V5.64673V6.62006V12.5801" stroke="#10A7FC" stroke-linecap="round" stroke-linejoin="round"/>
<path d="M11.8134 13.2801C12.9622 13.2801 13.8934 12.3489 13.8934 11.2001C13.8934 10.0514 12.9622 9.12012 11.8134 9.12012C10.6646 9.12012 9.7334 10.0514 9.7334 11.2001C9.7334 12.3489 10.6646 13.2801 11.8134 13.2801Z" stroke="#10A7FC" stroke-linecap="round" stroke-linejoin="round"/>
<path d="M6.2666 6.3466L13.8933 4.2666" stroke="#10A7FC" stroke-linecap="round" stroke-linejoin="round"/>
</svg>
