<svg width="1" height="3" viewBox="0 0 1 3" fill="none" xmlns="http://www.w3.org/2000/svg">
<path opacity="0.6" d="M0.569792 0C0.462772 0.180283 0.380882 0.374339 0.326392 0.576784C0.280405 0.779412 0.2632 0.987507 0.27528 1.19494C0.260362 1.40206 0.26852 1.61021 0.299614 1.81553C0.343426 1.96642 0.389676 2.16841 0.44079 2.29009C0.504071 2.43636 0.574746 2.57932 0.652547 2.71842C0.686812 2.76174 0.702559 2.81686 0.696357 2.87174C0.696357 2.94962 0.737733 3.02263 0.618467 2.99343C0.499201 2.96422 0.421314 2.96422 0.375068 2.88877C0.298763 2.80914 0.246461 2.70961 0.224161 2.6016C0.165745 2.38257 0.0951635 2.14407 0.0610876 1.96398C0.0270116 1.78389 0.0245726 1.24605 0.00266661 1.08299C-0.00953501 0.865191 0.0202156 0.647078 0.0902943 0.440499C0.134106 0.389391 0.238767 0.146022 0.294749 0.111951C0.384391 0.0698114 0.476201 0.0324412 0.569792 0Z" fill="#A8632A"/>
</svg>
