<svg width="16" height="16" viewBox="0 0 16 16" fill="none" xmlns="http://www.w3.org/2000/svg">
<path d="M8.10664 7.24634C8.03998 7.23967 7.95998 7.23967 7.88664 7.24634C6.29998 7.19301 5.03998 5.89301 5.03998 4.29301C5.03998 2.65967 6.35998 1.33301 7.99998 1.33301C9.63331 1.33301 10.96 2.65967 10.96 4.29301C10.9533 5.89301 9.69331 7.19301 8.10664 7.24634Z" stroke="#10A7FC" stroke-width="1.5" stroke-linecap="round" stroke-linejoin="round"/>
<path d="M4.77335 9.70699C3.16002 10.787 3.16002 12.547 4.77335 13.6203C6.60669 14.847 9.61335 14.847 11.4467 13.6203C13.06 12.5403 13.06 10.7803 11.4467 9.70699C9.62002 8.48699 6.61335 8.48699 4.77335 9.70699Z" stroke="#10A7FC" stroke-width="1.5" stroke-linecap="round" stroke-linejoin="round"/>
</svg>
