<svg width="11" height="8" viewBox="0 0 11 8" fill="none" xmlns="http://www.w3.org/2000/svg">
<path d="M4.59325 2.18689C4.59325 2.18689 3.96549 -0.520883 8.84613 0.0896513C8.84613 0.0896513 9.4696 0.269596 10.0845 1.06436C10.6994 1.85913 11.7685 3.62433 10.1338 4.61832C8.49904 5.61231 8.19052 4.734 7.85629 4.92037C7.52206 5.10674 8.64902 5.09175 7.42779 6.20571C6.20656 7.31967 5.81662 7.70527 5.32599 7.45677C4.83535 7.20827 4.11761 7.16757 4.46898 6.53561C4.66617 6.18454 4.84495 5.82344 5.00461 5.45379C5.00461 5.45379 4.16689 5.04462 3.89908 5.19243C3.63127 5.34025 3.49843 5.40666 3.51343 5.75584C3.52842 6.10502 4.15618 6.44778 3.83052 6.80339C3.50486 7.159 3.14706 7.61743 3.14706 7.61743C3.14706 7.61743 2.71856 7.9452 2.53859 7.78025C2.35862 7.61529 3.01422 7.69241 2.36076 7.61743C1.70729 7.54246 1.50375 7.65385 1.0624 6.85266C0.621039 6.05147 -0.128838 4.54334 0.018995 4.02492C0.166828 3.5065 -0.298093 2.97737 0.64461 2.63033C1.3213 2.35276 2.02196 2.13764 2.73784 1.98766C3.14492 1.93625 3.30775 1.75845 3.72339 1.87627C4.13904 1.99409 4.59325 2.18689 4.59325 2.18689Z" fill="#EAE0C7"/>
</svg>
