<svg width="2" height="1" viewBox="0 0 2 1" fill="none" xmlns="http://www.w3.org/2000/svg">
<path d="M1.29733 0.0292638L0.949145 0.0877743C0.80223 0.0477729 0.652617 0.0184398 0.501473 6.25142e-06C0.380914 -0.00047242 0.261832 0.0265437 0.153284 0.078998C0.0976908 0.131658 -0.0603116 0.184319 0.0245412 0.248682C0.125403 0.315762 0.235909 0.367059 0.352247 0.400808C0.434537 0.420784 0.519607 0.426723 0.603875 0.418365C0.653616 0.400812 0.785291 0.327669 0.794069 0.392032C0.794943 0.448967 0.785013 0.505554 0.764808 0.558792C0.764808 0.558792 0.802841 0.684589 0.878916 0.684589C0.95499 0.684589 0.98133 0.649484 1.03107 0.608526C1.08081 0.567568 1.1481 0.430064 1.20955 0.400808C1.29538 0.360965 1.39117 0.347722 1.48459 0.362779C1.56494 0.378907 1.64412 0.40041 1.72159 0.427142H1.88253C1.88253 0.427142 2.00834 0.386182 1.99956 0.324745C1.99078 0.263308 1.99956 0.257459 1.96152 0.198947C1.74628 0.120569 1.5238 0.0637294 1.29733 0.0292638Z" fill="#8C5325"/>
</svg>
