<svg width="16" height="16" viewBox="0 0 16 16" fill="none" xmlns="http://www.w3.org/2000/svg">
<path d="M4.18667 14.6659C5.33542 14.6659 6.26667 13.7346 6.26667 12.5859C6.26667 11.4371 5.33542 10.5059 4.18667 10.5059C3.03791 10.5059 2.10667 11.4371 2.10667 12.5859C2.10667 13.7346 3.03791 14.6659 4.18667 14.6659Z" stroke="#4D4D4D" stroke-linecap="round" stroke-linejoin="round"/>
<path d="M13.8933 11.1996V3.06624C13.8933 1.33291 12.8067 1.09291 11.7067 1.39291L7.54666 2.52624C6.78666 2.73291 6.26666 3.33291 6.26666 4.19957V5.64624V6.61957V12.5796" stroke="#4D4D4D" stroke-linecap="round" stroke-linejoin="round"/>
<path d="M11.8133 13.2791C12.9621 13.2791 13.8933 12.3479 13.8933 11.1991C13.8933 10.0504 12.9621 9.11914 11.8133 9.11914C10.6646 9.11914 9.73334 10.0504 9.73334 11.1991C9.73334 12.3479 10.6646 13.2791 11.8133 13.2791Z" stroke="#4D4D4D" stroke-linecap="round" stroke-linejoin="round"/>
<path d="M6.26666 6.34758L13.8933 4.26758" stroke="#4D4D4D" stroke-linecap="round" stroke-linejoin="round"/>
</svg>
