<svg width="21" height="21" viewBox="0 0 21 21" fill="none" xmlns="http://www.w3.org/2000/svg">
<path d="M5.91485 19.2493H15.0846C17.4996 19.2493 18.4621 17.7705 18.5758 15.9681L19.0308 8.74075C19.1533 6.8508 17.6483 5.24958 15.7496 5.24958C15.2159 5.24958 14.7259 4.94334 14.4809 4.47085L13.8509 3.20213C13.4484 2.4059 12.3985 1.74967 11.506 1.74967H9.50227C8.60104 1.74967 7.55106 2.4059 7.14857 3.20213L6.51859 4.47085C6.27359 4.94334 5.78361 5.24958 5.24987 5.24958C3.35116 5.24958 1.8462 6.8508 1.96869 8.74075L2.42368 15.9681C2.52868 17.7705 3.49991 19.2493 5.91485 19.2493Z" fill="white" stroke="white" stroke-width="2" stroke-linecap="round" stroke-linejoin="round"/>
<path d="M9.18728 6.99967H11.8122H9.18728Z" fill="white"/>
<path d="M9.18728 6.99967H11.8122" stroke="white" stroke-width="2" stroke-linecap="round" stroke-linejoin="round"/>
<path d="M10.4998 15.75C12.066 15.75 13.3434 14.4725 13.3434 12.9063C13.3434 11.3401 12.066 10.0626 10.4998 10.0626C8.93354 10.0626 7.65607 11.3401 7.65607 12.9063C7.65607 14.4725 8.93354 15.75 10.4998 15.75Z" fill="#39748F" stroke="#39748F" stroke-linecap="round" stroke-linejoin="round"/>
</svg>
