<svg width="16" height="16" viewBox="0 0 16 16" fill="none" xmlns="http://www.w3.org/2000/svg">
<path d="M8 14C11.3137 14 14 11.3137 14 8C14 4.68629 11.3137 2 8 2C4.68629 2 2 4.68629 2 8C2 11.3137 4.68629 14 8 14Z" stroke="#4D4D4D" stroke-linecap="round" stroke-linejoin="round"/>
<path d="M8.00001 5.375L5.50626 7.1875L6.45626 10.125H9.54376L10.4938 7.1875L8.00001 5.375Z" stroke="#4D4D4D" stroke-linecap="round" stroke-linejoin="round"/>
<path d="M8 4V5.375" stroke="#4D4D4D" stroke-linecap="round" stroke-linejoin="round"/>
<path d="M10.1875 2.41211L8 3.99961L5.8125 2.41211" stroke="#4D4D4D" stroke-linecap="round" stroke-linejoin="round"/>
<path d="M4.19376 6.76172L5.50626 7.18672" stroke="#4D4D4D" stroke-linecap="round" stroke-linejoin="round"/>
<path d="M3.36251 4.19336L4.19376 6.76211L2.00626 8.35586" stroke="#4D4D4D" stroke-linecap="round" stroke-linejoin="round"/>
<path d="M5.64999 11.2375L6.45624 10.125" stroke="#4D4D4D" stroke-linecap="round" stroke-linejoin="round"/>
<path d="M2.94376 11.2383H5.65001L6.48751 13.807" stroke="#4D4D4D" stroke-linecap="round" stroke-linejoin="round"/>
<path d="M10.35 11.2375L9.54375 10.125" stroke="#4D4D4D" stroke-linecap="round" stroke-linejoin="round"/>
<path d="M9.5125 13.807L10.35 11.2383H13.0562" stroke="#4D4D4D" stroke-linecap="round" stroke-linejoin="round"/>
<path d="M11.8062 6.76172L10.4937 7.18672" stroke="#4D4D4D" stroke-linecap="round" stroke-linejoin="round"/>
<path d="M13.9937 8.35586L11.8062 6.76211L12.6375 4.19336" stroke="#4D4D4D" stroke-linecap="round" stroke-linejoin="round"/>
</svg>
