<svg width="2" height="2" viewBox="0 0 2 2" fill="none" xmlns="http://www.w3.org/2000/svg">
<path opacity="0.6" d="M1.8844 0C1.95276 0.0812398 1.99301 0.182401 1.99915 0.288388C2.0053 0.394376 1.977 0.499511 1.9185 0.588104C1.71604 0.854455 1.68834 1.06114 1.46671 1.13572C1.30552 1.21317 1.1314 1.26013 0.953121 1.27422C0.835384 1.25998 0.716354 1.2871 0.616406 1.35093C0.571653 1.39355 0.369198 1.66202 0.29461 1.64711C0.220022 1.63219 0.0815054 1.8261 0.045277 1.66416C0.00904857 1.50222 -0.0463607 1.3424 0.070849 1.22308C0.183921 1.07289 0.342322 0.963073 0.522638 0.909851C0.79237 0.834509 1.04251 0.701463 1.25573 0.519917C1.40278 0.370761 1.68195 0.176854 1.73736 0.117192C1.78359 0.0747545 1.83272 0.0355972 1.8844 0Z" fill="#A8632A"/>
</svg>
