<svg width="17" height="17" viewBox="0 0 17 17" fill="none" xmlns="http://www.w3.org/2000/svg">
<path d="M8.07548 9.7623C9.16906 9.7623 10.0556 8.87578 10.0556 7.7822C10.0556 6.68862 9.16906 5.8021 8.07548 5.8021C6.9819 5.8021 6.09538 6.68862 6.09538 7.7822C6.09538 8.87578 6.9819 9.7623 8.07548 9.7623Z" stroke="white" stroke-width="1.5" stroke-linecap="round" stroke-linejoin="round"/>
<path d="M11.7327 14.3217C11.7327 12.6799 10.0979 11.341 8.07548 11.341C6.0531 11.341 4.41828 12.6728 4.41828 14.3217" stroke="white" stroke-width="1.5" stroke-linecap="round" stroke-linejoin="round"/>
<path d="M14.7979 8.89601C14.7979 12.5955 11.8031 15.5903 8.10365 15.5903C4.40418 15.5903 1.40937 12.5955 1.40937 8.89601C1.40937 5.19653 4.40418 2.20172 8.10365 2.20172C9.02676 2.20172 9.90758 2.38493 10.7109 2.72317C10.6193 3.00503 10.57 3.30099 10.57 3.61105C10.57 4.13954 10.7179 4.63985 10.9787 5.06265C11.1196 5.30223 11.3028 5.52066 11.5142 5.70387C12.0075 6.15485 12.6628 6.42969 13.3886 6.42969C13.6987 6.42969 13.9946 6.38035 14.2694 6.2817C14.6077 7.08501 14.7979 7.9729 14.7979 8.89601Z" stroke="white" stroke-width="1.5" stroke-linecap="round" stroke-linejoin="round"/>
<path d="M16.2072 3.61139C16.2072 3.83688 16.179 4.05532 16.1227 4.26672C16.0592 4.54858 15.9465 4.82341 15.7985 5.06299C15.4603 5.63377 14.9177 6.07769 14.2694 6.28204C13.9946 6.38069 13.6986 6.43004 13.3886 6.43004C12.6628 6.43004 12.0074 6.1552 11.5142 5.70421C11.3028 5.521 11.1196 5.30258 10.9786 5.06299C10.7179 4.64019 10.5699 4.13989 10.5699 3.61139C10.5699 3.30134 10.6192 3.00537 10.7109 2.72351C10.8447 2.31481 11.0702 1.9484 11.3662 1.6454C11.8806 1.1169 12.5993 0.792744 13.3886 0.792744C14.2201 0.792744 14.9741 1.15213 15.4814 1.72996C15.9324 2.23027 16.2072 2.89264 16.2072 3.61139Z" stroke="white" stroke-width="1.5" stroke-miterlimit="10" stroke-linecap="round" stroke-linejoin="round"/>
<path d="M14.4385 3.59728H12.3386" stroke="white" stroke-width="1.5" stroke-miterlimit="10" stroke-linecap="round" stroke-linejoin="round"/>
<path d="M13.3885 2.56816V4.67509" stroke="white" stroke-width="1.5" stroke-miterlimit="10" stroke-linecap="round" stroke-linejoin="round"/>
</svg>
