<svg width="1" height="4" viewBox="0 0 1 4" fill="none" xmlns="http://www.w3.org/2000/svg">
<path opacity="0.6" d="M0.232304 0.19856C0.150793 0.357277 0.0952574 0.528035 0.0678067 0.704331C0.0205131 0.996279 -0.0576241 1.06824 0.0678067 1.41158C0.164623 1.67147 0.283636 1.92254 0.423533 2.16201C0.573639 2.43546 0.71141 2.55265 0.703185 2.77881C0.688612 2.97502 0.651349 3.16889 0.592146 3.35654C0.543641 3.48927 0.487337 3.61902 0.423533 3.74511C0.374183 3.84586 0.310442 4.00005 0.310442 4.00005C0.404833 3.94504 0.493669 3.88101 0.575699 3.80885C0.625512 3.70354 0.664107 3.59328 0.690848 3.47989C0.731973 3.34009 0.777207 3.18178 0.816276 2.98235C0.859452 2.7742 0.876039 2.56143 0.86563 2.34911C0.843011 2.22781 0.738142 2.06333 0.678511 1.87418C0.593145 1.67634 0.551079 1.46254 0.555135 1.24711C0.581867 1.02506 0.495503 0.79068 0.54074 0.574803C0.577609 0.382214 0.55539 0.18298 0.476997 0.00324287C0.433816 -0.0296527 0.232304 0.19856 0.232304 0.19856Z" fill="#A8632A"/>
</svg>
