<svg width="16" height="16" viewBox="0 0 16 16" fill="none" xmlns="http://www.w3.org/2000/svg">
<path d="M8 8L14 2" stroke="#10A7FC" stroke-linecap="round" stroke-linejoin="round"/>
<path d="M12.2438 3.75618C11.1801 2.68928 9.75457 2.06059 8.24945 1.99455C6.74433 1.92852 5.26926 2.42994 4.1162 3.39959C2.96314 4.36923 2.21612 5.73643 2.02301 7.23057C1.82989 8.72471 2.20474 10.2369 3.07337 11.4679C3.942 12.6988 5.24111 13.5588 6.71356 13.8776C8.18601 14.1964 9.72449 13.9508 11.0245 13.1894C12.3245 12.428 13.2913 11.2063 13.7335 9.76614C14.1758 8.32594 14.0612 6.77219 13.4125 5.41243" stroke="#10A7FC" stroke-linecap="round" stroke-linejoin="round"/>
<path d="M10.1187 5.88121C9.62318 5.38711 8.97028 5.08219 8.27336 5.0194C7.57645 4.95662 6.87956 5.13994 6.30374 5.53751C5.72793 5.93509 5.30957 6.52181 5.12134 7.19575C4.93311 7.8697 4.9869 8.58828 5.27336 9.2267C5.55983 9.86511 6.06087 10.383 6.68946 10.6904C7.31805 10.9978 8.03447 11.0754 8.71427 10.9095C9.39407 10.7437 9.9943 10.345 10.4107 9.78262C10.8271 9.22026 11.0334 8.52982 10.9937 7.83121" stroke="#10A7FC" stroke-linecap="round" stroke-linejoin="round"/>
</svg>
