<svg width="1" height="3" viewBox="0 0 1 3" fill="none" xmlns="http://www.w3.org/2000/svg">
<path opacity="0.6" d="M0.0125437 2.99993C0.123107 2.82447 0.209683 2.63501 0.269966 2.43659C0.325087 2.23653 0.352064 2.02976 0.350111 1.82225C0.374385 1.61657 0.374385 1.40875 0.350111 1.20306C0.319662 1.03928 0.280744 0.877183 0.233532 0.717423C0.189819 0.593584 0.070827 0.336194 0.0416848 0.280346C0.0255439 0.258656 0.0139892 0.233907 0.00772642 0.207607C0.00146359 0.181306 0.000617915 0.154007 0.00525106 0.127372C0.00525106 0.0496693 -0.0311702 -0.0256062 0.0878272 0.00838857C0.206825 0.0423834 0.282109 0.0472401 0.330679 0.122514C0.405035 0.204496 0.453235 0.306796 0.469106 0.416324C0.517677 0.637291 0.578389 0.877683 0.605103 1.06223C0.631817 1.24677 0.605105 1.77854 0.622104 1.94123C0.62417 2.15901 0.583752 2.37511 0.503109 2.57743C0.456967 2.62599 0.342821 2.86395 0.284537 2.89552C0.195883 2.93535 0.105078 2.97021 0.0125437 2.99993Z" fill="#A8632A"/>
</svg>
