<svg width="21" height="21" viewBox="0 0 21 21" fill="none" xmlns="http://www.w3.org/2000/svg">
<path d="M10.4999 10.5003C12.9162 10.5003 14.8749 8.54152 14.8749 6.12527C14.8749 3.70901 12.9162 1.75025 10.4999 1.75025C8.08364 1.75025 6.12488 3.70901 6.12488 6.12527C6.12488 8.54152 8.08364 10.5003 10.4999 10.5003Z" stroke="#222121" stroke-width="1.20259" stroke-linecap="round" stroke-linejoin="round"/>
<path d="M2.98373 19.2504C2.98373 15.8641 6.35249 13.1254 10.5 13.1254C11.34 13.1254 12.1538 13.2391 12.915 13.4491" stroke="#222121" stroke-width="1.20259" stroke-linecap="round" stroke-linejoin="round"/>
<path d="M19.2503 15.7508C19.2503 16.0308 19.2153 16.302 19.1453 16.5645C19.0665 16.9145 18.9265 17.2558 18.7428 17.5533C18.139 18.5683 17.0278 19.2508 15.7503 19.2508C14.849 19.2508 14.0353 18.9095 13.4227 18.3495C13.1602 18.122 12.9327 17.8508 12.7577 17.5533C12.434 17.0283 12.2502 16.407 12.2502 15.7508C12.2502 14.8058 12.6265 13.9395 13.239 13.3095C13.8778 12.6533 14.7703 12.2507 15.7503 12.2507C16.7828 12.2507 17.719 12.697 18.349 13.4145C18.909 14.0358 19.2503 14.8583 19.2503 15.7508Z" stroke="#222121" stroke-width="1.20259" stroke-miterlimit="10" stroke-linecap="round" stroke-linejoin="round"/>
<path d="M17.0539 15.7335H14.4464" stroke="#222121" stroke-width="1.20259" stroke-miterlimit="10" stroke-linecap="round" stroke-linejoin="round"/>
<path d="M15.7502 14.4555V17.0718" stroke="#222121" stroke-width="1.20259" stroke-miterlimit="10" stroke-linecap="round" stroke-linejoin="round"/>
</svg>
