<svg width="16" height="16" viewBox="0 0 16 16" fill="none" xmlns="http://www.w3.org/2000/svg">
<path d="M14.6667 11.1605V3.11378C14.6667 2.31378 14.0133 1.72045 13.22 1.78712H13.18C11.78 1.90712 9.65334 2.62045 8.46668 3.36712L8.35334 3.44045C8.16001 3.56045 7.84001 3.56045 7.64668 3.44045L7.48001 3.34045C6.29334 2.60045 4.17334 1.89378 2.77334 1.78045C1.98001 1.71378 1.33334 2.31378 1.33334 3.10712V11.1605C1.33334 11.8005 1.85334 12.4005 2.49334 12.4805L2.68668 12.5071C4.13334 12.7005 6.36668 13.4338 7.64668 14.1338L7.67334 14.1471C7.85334 14.2471 8.14001 14.2471 8.31334 14.1471C9.59334 13.4405 11.8333 12.7005 13.2867 12.5071L13.5067 12.4805C14.1467 12.4005 14.6667 11.8005 14.6667 11.1605Z" stroke="#4D4D4D" stroke-linecap="round" stroke-linejoin="round"/>
<path d="M8 3.66016V13.6602" stroke="#4D4D4D" stroke-linecap="round" stroke-linejoin="round"/>
<path d="M5.16666 5.66016H3.66666" stroke="#4D4D4D" stroke-linecap="round" stroke-linejoin="round"/>
<path d="M5.66666 7.66016H3.66666" stroke="#4D4D4D" stroke-linecap="round" stroke-linejoin="round"/>
</svg>
