<svg width="26" height="26" viewBox="0 0 26 26" fill="none" xmlns="http://www.w3.org/2000/svg">
<path d="M13 13.0003C15.9915 13.0003 18.4166 10.5752 18.4166 7.58366C18.4166 4.59212 15.9915 2.16699 13 2.16699C10.0084 2.16699 7.58331 4.59212 7.58331 7.58366C7.58331 10.5752 10.0084 13.0003 13 13.0003Z" stroke="white" stroke-width="1.5" stroke-linecap="round" stroke-linejoin="round"/>
<path d="M3.69415 23.8333C3.69415 19.6408 7.86498 16.25 13 16.25C14.04 16.25 15.0475 16.3908 15.99 16.6508" stroke="white" stroke-width="1.5" stroke-linecap="round" stroke-linejoin="round"/>
<path d="M23.8334 19.5003C23.8334 19.847 23.79 20.1828 23.7034 20.5078C23.6059 20.9412 23.4325 21.3637 23.205 21.732C22.4575 22.9887 21.0817 23.8337 19.5 23.8337C18.3842 23.8337 17.3767 23.4111 16.6183 22.7178C16.2933 22.4361 16.0117 22.1003 15.795 21.732C15.3942 21.082 15.1667 20.3128 15.1667 19.5003C15.1667 18.3303 15.6325 17.2578 16.3909 16.4778C17.1817 15.6653 18.2867 15.167 19.5 15.167C20.7784 15.167 21.9375 15.7195 22.7175 16.6078C23.4109 17.377 23.8334 18.3953 23.8334 19.5003Z" stroke="white" stroke-width="1.5" stroke-miterlimit="10" stroke-linecap="round" stroke-linejoin="round"/>
<path d="M21.1142 19.4785H17.8859" stroke="white" stroke-width="1.5" stroke-miterlimit="10" stroke-linecap="round" stroke-linejoin="round"/>
<path d="M19.5 17.8965V21.1356" stroke="white" stroke-width="1.5" stroke-miterlimit="10" stroke-linecap="round" stroke-linejoin="round"/>
</svg>
