<svg width="1" height="1" viewBox="0 0 1 1" fill="none" xmlns="http://www.w3.org/2000/svg">
<path d="M0.808093 0.00454218C0.808093 0.00454218 0.648125 -0.0450923 0.474372 0.18379C0.30062 0.412671 0.19858 0.641553 0.135147 0.682917C0.0924212 0.707241 0.0470818 0.726664 0 0.740824C0.123667 0.767269 0.244624 0.805119 0.361303 0.853888C0.468017 0.929465 0.590692 0.979473 0.719836 1.00004C0.799817 1.00004 0.871526 1.00004 0.89359 0.914555C0.910405 0.813125 0.902838 0.709147 0.871521 0.611216C0.826014 0.536359 0.796876 0.452715 0.786025 0.365789C0.77263 0.274356 0.77263 0.18146 0.786025 0.0900275L0.808093 0.00454218Z" fill="#8C5325"/>
</svg>
