<svg width="7" height="8" viewBox="0 0 7 8" fill="none" xmlns="http://www.w3.org/2000/svg">
<path opacity="0.5" d="M6.97298 0.720799C6.90632 0.810361 6.69801 0.768707 6.53136 0.791618C5.91016 1.02366 5.30173 1.28855 4.70865 1.58518C4.59616 1.66224 4.26703 1.7393 4.12955 2.02882C4.00119 2.23271 3.9293 2.46703 3.92124 2.70782C3.90457 3.03482 3.82124 3.27018 3.80666 3.44931C3.75854 3.64867 3.67224 3.83682 3.55252 4.00334C3.39134 4.19903 3.18852 4.35628 2.95884 4.46364C2.75053 4.53029 2.51722 4.61777 2.30891 4.67193C2.11896 4.72189 1.93724 4.79906 1.76939 4.90104C1.73606 4.94478 1.58608 4.98019 1.73189 5.076C1.87771 5.17181 2.33183 5.55713 2.38182 5.5967C2.53726 5.75769 2.71303 5.89773 2.90468 6.01327C3.09216 6.08617 3.09841 6.13199 3.22964 6.12158C3.37306 6.10985 3.51699 6.10568 3.66085 6.10908C3.80691 6.08144 3.95765 6.0922 4.0983 6.14032C4.25775 6.20394 4.40719 6.29023 4.542 6.39651C4.84196 6.60479 4.97737 6.68394 5.13152 6.80058C5.21693 6.86515 5.89185 7.49208 5.82727 7.54207C5.7627 7.59205 5.6023 7.54207 5.2815 7.44417C5.13985 7.42334 5.1961 7.40668 4.96904 7.465C4.93154 7.45251 4.90654 7.53582 4.37744 7.12134C4.24401 7.01952 4.10099 6.93093 3.9504 6.85682C3.87054 6.80651 3.78033 6.77494 3.68653 6.76448C3.59272 6.75401 3.49777 6.76493 3.40879 6.79641C3.27458 6.84044 3.13298 6.85743 2.99217 6.8464C2.86927 6.8464 2.81094 6.86307 2.72345 6.82141C2.63596 6.77975 2.48181 6.7735 2.4214 6.67353C2.36099 6.57355 2.24434 6.31112 2.20268 6.23822C2.16101 6.16532 1.66732 6.09867 1.57775 6.01119C1.48817 5.92371 1.30278 5.97995 1.25903 5.94662C1.21529 5.9133 1.07155 5.71126 0.996558 5.72168C0.921567 5.73209 0.529945 5.76333 0.529945 5.76333C0.529945 5.76333 0.0820765 5.88622 0.0987414 5.73834C0.115406 5.59046 -0.0345791 5.17389 0.0154153 5.11349C0.126855 5.00604 0.267362 4.93363 0.419541 4.90521L0.765331 4.83439C0.765331 4.83439 0.765332 4.67401 0.734085 4.65735C0.702839 4.64069 0.654926 4.56987 0.550771 4.59903C0.439415 4.6293 0.324545 4.64471 0.209146 4.64485C0.175816 4.63236 0.0674918 4.61361 0.0695749 4.57403C0.0575166 4.48505 0.0408312 4.39676 0.0195824 4.30952C-0.0554093 3.92836 0.102904 3.87629 0.192477 3.83463C0.293739 3.77272 0.40635 3.73165 0.523696 3.71383C0.609103 3.71383 0.627851 3.62218 0.900737 3.57428C0.954898 3.57428 1.00281 3.6076 1.05697 3.6076C1.15634 3.63593 1.24581 3.69148 1.31527 3.76798C1.34408 3.8029 1.37953 3.83174 1.41959 3.85284C1.45964 3.87394 1.50349 3.88686 1.54858 3.89087C1.60066 3.87629 1.63607 3.79714 1.6444 3.74924C1.65273 3.70133 1.7673 3.6076 1.85271 3.54095C1.90417 3.5058 1.94926 3.46213 1.98603 3.41181C1.98603 3.41181 1.94228 2.45788 2.21725 2.08922C2.3589 1.8976 2.47348 1.65182 2.71512 1.56435C2.95617 1.47126 3.18718 1.35402 3.40462 1.21443C3.54419 1.11654 3.96498 0.837439 4.09205 0.758292C4.26757 0.635043 4.45289 0.526373 4.64615 0.433371C4.72114 0.422957 5.51898 0.497936 5.57938 0.489605C5.6398 0.481274 6.05017 0.479192 6.10016 0.464612C6.15016 0.450032 6.18557 0.179265 6.25639 0.123028C6.32722 0.0667919 6.45221 -0.0602592 6.55636 0.0334681C6.69509 0.158502 6.82588 0.292061 6.94799 0.433371C6.96882 0.502104 7.03756 0.631238 6.97298 0.720799Z" fill="#A8632A"/>
</svg>
