<svg width="16" height="16" viewBox="0 0 16 16" fill="none" xmlns="http://www.w3.org/2000/svg">
<path d="M9.33337 10.6666C9.33337 11.8466 8.82004 12.9133 8.00004 13.64C7.29337 14.28 6.36004 14.6666 5.33337 14.6666C3.12671 14.6666 1.33337 12.8733 1.33337 10.6666C1.33337 8.82664 2.58671 7.26664 4.28004 6.80664C4.74004 7.96664 5.72671 8.85997 6.94671 9.19331C7.28004 9.28664 7.63337 9.33331 8.00004 9.33331C8.36671 9.33331 8.72004 9.28664 9.05337 9.19331C9.23337 9.64664 9.33337 10.1466 9.33337 10.6666Z" stroke="white" stroke-width="1.5" stroke-linecap="round" stroke-linejoin="round"/>
<path d="M12 5.33301C12 5.85301 11.9 6.35301 11.72 6.80634C11.26 7.96634 10.2733 8.85967 9.05333 9.19301C8.72 9.28634 8.36667 9.33301 8 9.33301C7.63333 9.33301 7.28 9.28634 6.94667 9.19301C5.72667 8.85967 4.74 7.96634 4.28 6.80634C4.1 6.35301 4 5.85301 4 5.33301C4 3.12634 5.79333 1.33301 8 1.33301C10.2067 1.33301 12 3.12634 12 5.33301Z" stroke="white" stroke-width="1.5" stroke-linecap="round" stroke-linejoin="round"/>
<path d="M14.6667 10.6666C14.6667 12.8733 12.8733 14.6666 10.6667 14.6666C9.64 14.6666 8.70667 14.28 8 13.64C8.82 12.9133 9.33333 11.8466 9.33333 10.6666C9.33333 10.1466 9.23333 9.64664 9.05333 9.19331C10.2733 8.85997 11.26 7.96664 11.72 6.80664C13.4133 7.26664 14.6667 8.82664 14.6667 10.6666Z" stroke="white" stroke-width="1.5" stroke-linecap="round" stroke-linejoin="round"/>
</svg>
