<svg width="3" height="3" viewBox="0 0 3 3" fill="none" xmlns="http://www.w3.org/2000/svg">
<path d="M2.97961 0.145883C2.97961 0.145883 3.05859 -0.0541757 2.90589 0.0142654C2.7532 0.0827065 2.74793 0.0142654 2.51889 0.2775C2.3727 0.474551 2.20784 0.657032 2.02657 0.822399C1.81069 1.00666 1.70538 1.11195 1.53952 1.2462C1.37366 1.38045 1.18148 1.55156 1.18148 1.55156C1.06432 1.69464 0.930908 1.82362 0.783942 1.93588C0.561554 2.08813 0.350396 2.25615 0.152097 2.43866C0.0599525 2.53869 -0.0795845 2.55712 0.0573156 2.63082C0.135382 2.69132 0.226356 2.73301 0.323156 2.75264C0.419956 2.77227 0.519972 2.76932 0.615446 2.74401C0.847123 2.65714 0.765514 2.81245 1.03142 2.50183C1.21718 2.26314 1.41672 2.03549 1.62903 1.82006C1.8923 1.57525 2.39778 0.988235 2.54784 0.817133C2.70675 0.603385 2.85101 0.379121 2.97961 0.145883Z" fill="#8C5325"/>
</svg>
