<svg width="329" height="196" viewBox="0 0 329 196" fill="none" xmlns="http://www.w3.org/2000/svg">
<path d="M4.00691 110.884C12.7328 104.367 32.8633 85.0539 43.578 59.9346C56.9713 28.5354 79.4963 -24.7838 98.9775 23.2035C118.459 71.1909 134.287 123.918 166.553 129.25C198.818 134.582 195.166 88.3715 209.168 88.3715C223.17 88.3715 227.937 62.608 255.942 62.608C283.946 62.608 275.749 23.0398 325.061 23.0398" stroke="#10A7FC" stroke-width="2.86479"/>
<path d="M7.94259 110.425C7.94259 112.507 6.2683 114.189 4.21044 114.189C2.15258 114.189 0.47829 112.507 0.47829 110.425C0.47829 108.343 2.15258 106.661 4.21044 106.661C6.2683 106.661 7.94259 108.343 7.94259 110.425Z" fill="#10A7FC" stroke="#10A7FC" stroke-width="0.95493"/>
<path d="M49.5596 54.2707C49.5596 56.3399 47.9687 57.9766 46.0552 57.9766C44.1418 57.9766 42.5509 56.3399 42.5509 54.2707C42.5509 52.2014 44.1418 50.5647 46.0552 50.5647C47.9687 50.5647 49.5596 52.2014 49.5596 54.2707Z" fill="#10A7FC" stroke="#10A7FC" stroke-width="0.95493"/>
<path d="M81.6149 4.18424C81.6149 6.25351 80.024 7.8902 78.1105 7.8902C76.1971 7.8902 74.6062 6.25351 74.6062 4.18424C74.6062 2.11497 76.1971 0.47829 78.1105 0.47829C80.024 0.47829 81.6149 2.11497 81.6149 4.18424Z" fill="#10A7FC" stroke="#10A7FC" stroke-width="0.95493"/>
<path d="M131.701 93.3381C131.701 95.4073 130.11 97.044 128.197 97.044C126.284 97.044 124.693 95.4073 124.693 93.3381C124.693 91.2688 126.284 89.6321 128.197 89.6321C130.11 89.6321 131.701 91.2688 131.701 93.3381Z" fill="#10A7FC" stroke="#10A7FC" stroke-width="0.95493"/>
<path d="M176.779 128.399C176.779 130.468 175.188 132.105 173.275 132.105C171.361 132.105 169.77 130.468 169.77 128.399C169.77 126.329 171.361 124.693 173.275 124.693C175.188 124.693 176.779 126.329 176.779 128.399Z" fill="#10A7FC" stroke="#10A7FC" stroke-width="0.95493"/>
<path d="M211.84 87.3277C211.84 89.397 210.249 91.0336 208.335 91.0336C206.422 91.0336 204.831 89.397 204.831 87.3277C204.831 85.2584 206.422 83.6217 208.335 83.6217C210.249 83.6217 211.84 85.2584 211.84 87.3277Z" fill="#10A7FC" stroke="#10A7FC" stroke-width="0.95493"/>
<path d="M260.924 62.2845C260.924 64.3538 259.333 65.9904 257.42 65.9904C255.506 65.9904 253.916 64.3538 253.916 62.2845C253.916 60.2152 255.506 58.5785 257.42 58.5785C259.333 58.5785 260.924 60.2152 260.924 62.2845Z" fill="#10A7FC" stroke="#10A7FC" stroke-width="0.95493"/>
<path d="M327.087 23.4225C327.087 25.4918 325.496 27.1285 323.582 27.1285C321.669 27.1285 320.078 25.4918 320.078 23.4225C320.078 21.3532 321.669 19.7166 323.582 19.7166C325.496 19.7166 327.087 21.3532 327.087 23.4225Z" fill="#10A7FC" stroke="#10A7FC" stroke-width="0.95493"/>
<path opacity="0.2" d="M43.2444 58.786C32.6201 83.3894 12.6593 102.306 4.00691 108.689V194.335H327.565V22.8093C278.669 22.8093 287.717 61.6063 259.948 61.6063C232.18 61.6063 221.322 86.6389 207.438 86.6389C193.554 86.6389 200.284 133.945 168.29 128.722C136.297 123.5 117.494 69.8111 98.1768 22.8093C78.964 -23.9395 56.7652 27.4722 43.4597 58.2873L43.2444 58.786Z" fill="#10A7FC" stroke="#10A7FC" stroke-width="2.86479"/>
</svg>
