<svg width="2" height="1" viewBox="0 0 2 1" fill="none" xmlns="http://www.w3.org/2000/svg">
<path opacity="0.6" d="M1.46843 0C1.28531 0.141788 1.08504 0.259937 0.87237 0.351649C0.730779 0.431569 0.399652 0.324249 0.399652 0.324249C0.399652 0.324249 0.242075 0.262594 0.171279 0.342514C0.114442 0.409382 0.0717056 0.487053 0.0456633 0.570856L0 0.744399C0.0527916 0.824824 0.111564 0.901155 0.175837 0.972741C0.239782 1.03668 0.490992 0.97274 0.776458 0.936205C1.06192 0.89967 1.18525 0.995575 1.42047 0.85172C1.65569 0.707864 1.81326 0.579989 1.84295 0.484085C1.85285 0.36727 1.84124 0.249634 1.80871 0.137007L1.46843 0Z" fill="white"/>
</svg>
