<svg width="12" height="12" viewBox="0 0 12 12" fill="none" xmlns="http://www.w3.org/2000/svg">
<path d="M10.985 5.99965C10.985 7.46965 10.345 8.79965 9.32501 9.70465C8.44501 10.5046 7.28001 10.9846 6.00001 10.9846C3.25001 10.9846 1.01501 8.74965 1.01501 5.99965C1.01501 3.24965 3.25001 1.01465 6.00001 1.01465C7.28001 1.01465 8.44501 1.49465 9.32501 2.29465C10.345 3.19965 10.985 4.52965 10.985 5.99965Z" stroke="white" stroke-linecap="round" stroke-linejoin="round"/>
<path d="M5.98501 8.19512C5.97501 9.02012 5.36001 9.22012 4.78501 8.99012C3.60001 8.51512 2.76501 7.35512 2.76501 6.00012C2.76501 4.64512 3.60001 3.48512 4.78501 3.00512C5.36001 2.77512 5.97501 2.98012 5.98501 3.80012V8.19512Z" fill="white" stroke="white" stroke-width="1.5" stroke-linecap="round" stroke-linejoin="round"/>
</svg>
