<svg width="35" height="43" viewBox="0 0 35 43" fill="none" xmlns="http://www.w3.org/2000/svg">
<path d="M15.3851 15.6265C15.7167 15.4456 16.0628 15.5996 16.223 15.923C16.4327 16.3435 16.6352 16.7475 16.8305 17.1349C16.8429 17.1607 16.8357 17.1731 16.8067 17.172C16.658 17.1658 16.4482 17.2031 16.318 17.1276C15.8779 16.8724 15.4739 16.641 15.1041 16.4334C15.0855 16.423 15.0762 16.4075 15.0741 16.3869C15.0503 16.078 15.0865 15.7887 15.3851 15.6265Z" fill="url(#paint0_linear_791_8432)"/>
<path d="M18.7977 15.8877C19.0457 15.3907 19.7679 15.4672 19.9053 15.99C19.9342 16.1015 19.9414 16.2369 19.927 16.3939C19.9259 16.4104 19.9156 16.4259 19.9011 16.4342C19.5054 16.6594 19.0973 16.8919 18.6789 17.1326C18.6283 17.1616 18.5725 17.175 18.5094 17.1729C18.3927 17.1698 18.2832 17.1677 18.1809 17.1688C18.1695 17.1688 18.1623 17.1574 18.1675 17.1471C18.3813 16.7214 18.5911 16.3009 18.7977 15.8877Z" fill="url(#paint1_linear_791_8432)"/>
<path d="M15.8366 17.7782C15.8665 17.7947 15.882 17.8205 15.882 17.8546V19.5728C15.882 19.5893 15.8738 19.5976 15.8572 19.5976H12.2742C12.2504 19.5976 12.2391 19.5862 12.2391 19.5624C12.2411 18.8795 12.2401 18.1501 12.2359 17.3721C12.2349 17.1862 12.2566 17.0353 12.301 16.9186C12.4643 16.4877 12.9364 16.2708 13.3704 16.3968C13.452 16.4206 13.6504 16.525 13.9665 16.7099C14.5782 17.0684 15.2022 17.4238 15.8366 17.7782Z" fill="url(#paint2_linear_791_8432)"/>
<path d="M21.4385 16.4851C21.9179 16.2113 22.5027 16.4118 22.7052 16.9201C22.7486 17.0286 22.7693 17.2041 22.7672 17.449C22.762 18.1588 22.761 18.8624 22.7662 19.5619C22.7662 19.5856 22.7538 19.598 22.73 19.598H19.1469C19.1304 19.598 19.1221 19.5898 19.1221 19.5732V17.8396C19.1221 17.821 19.1304 17.8065 19.1469 17.7972C19.8836 17.3757 20.6481 16.9376 21.4385 16.4851Z" fill="url(#paint3_linear_791_8432)"/>
<path d="M18.3111 19.581C18.3111 19.5903 18.3028 19.5985 18.2935 19.5985H16.7096C16.7003 19.5985 16.6921 19.5903 16.6921 19.581V17.9972C16.6921 17.9879 16.7003 17.9796 16.7096 17.9796H18.2935C18.3028 17.9796 18.3111 17.9879 18.3111 17.9972V19.581Z" fill="url(#paint4_linear_791_8432)"/>
<path d="M14.0275 21.3582C13.2526 22.005 12.1771 21.3975 12.2412 20.4191C12.2412 20.4129 12.2463 20.4077 12.2525 20.4077H15.1217C15.1558 20.4077 15.1599 20.4191 15.133 20.4408C14.7869 20.7269 14.4181 21.0328 14.0275 21.3582Z" fill="url(#paint5_linear_791_8432)"/>
<path d="M14.886 22.4513C15.0286 22.0815 15.2074 21.7291 15.3592 21.3603C15.384 21.2993 15.4223 21.2487 15.4729 21.2064C15.7921 20.945 16.1042 20.6857 16.41 20.4284C16.4255 20.415 16.4451 20.4077 16.4647 20.4077H16.9844C17.0072 20.4077 17.0165 20.4191 17.0123 20.4418L15.9967 26.1986C15.9946 26.213 15.9874 26.2162 15.975 26.2069C14.8096 25.3122 14.3591 23.8223 14.886 22.4513Z" fill="url(#paint6_linear_791_8432)"/>
<path d="M20.2483 22.8665C20.5376 24.1301 20.0685 25.4113 19.0374 26.2016C19.0188 26.2161 19.0074 26.2109 19.0033 26.1882L17.9887 20.4427C17.9856 20.42 17.9949 20.4087 18.0176 20.4087H18.5363C18.559 20.4087 18.5797 20.4159 18.5972 20.4314C18.901 20.6866 19.2099 20.9438 19.525 21.2042C19.5777 21.2486 19.6191 21.3024 19.6459 21.3674C19.8484 21.8479 20.1346 22.3696 20.2483 22.8665Z" fill="url(#paint7_linear_791_8432)"/>
<path d="M22.762 20.4335C22.793 21.0802 22.358 21.5906 21.7071 21.6196C21.3651 21.6351 21.1161 21.4842 20.8424 21.2517C20.5097 20.9697 20.1842 20.699 19.8681 20.4397C19.8557 20.4293 19.8629 20.4087 19.8794 20.4087H22.7362C22.7537 20.4087 22.762 20.4169 22.762 20.4335Z" fill="url(#paint8_linear_791_8432)"/>
<path d="M14.0513 22.2819C14.0802 22.2705 14.0905 22.2808 14.0802 22.3098C13.793 23.1394 13.7868 23.9835 14.0616 24.842C14.0647 24.8513 14.0575 24.8617 14.0482 24.8617H6.64647C6.63097 24.8617 6.62167 24.8431 6.63303 24.8307C7.25191 24.1199 7.86768 23.4163 8.47726 22.721C8.63327 22.5433 8.6343 22.317 8.47623 22.1455C8.43077 22.0969 8.38531 22.0494 8.33675 22.0039C8.33055 21.9977 8.33468 21.9864 8.34295 21.9854L11.9064 21.8314C11.925 21.8304 11.9405 21.8366 11.9549 21.849C12.5676 22.4348 13.2671 22.5784 14.0513 22.2819Z" fill="url(#paint9_linear_791_8432)"/>
<path d="M17.4897 22.3949C17.4969 22.3536 17.5042 22.3536 17.5124 22.3949L17.9443 24.8414C17.9464 24.8517 17.9381 24.8621 17.9267 24.8621H17.0878C17.065 24.8621 17.0558 24.8507 17.0599 24.829L17.4897 22.3949Z" fill="url(#paint10_linear_791_8432)"/>
<path d="M20.9405 24.838C21.0511 24.4992 21.1131 24.153 21.1317 23.8038C21.1327 23.7738 21.1461 23.7687 21.1689 23.7884L22.42 24.8308C22.4448 24.8515 22.4417 24.8618 22.4087 24.8618H20.9581C20.9405 24.8618 20.9354 24.8535 20.9405 24.838Z" fill="url(#paint11_linear_791_8432)"/>
<path d="M7.32633 25.7022C7.10626 26.4967 6.56694 26.912 5.79826 27.1187C5.7776 27.1238 5.7683 27.1166 5.77036 27.0949C5.79929 26.5938 5.91191 26.1269 6.10718 25.694C6.11338 25.6785 6.12578 25.6702 6.14334 25.6702H7.3036C7.32427 25.6712 7.3315 25.6816 7.32633 25.7022Z" fill="url(#paint12_linear_791_8432)"/>
<path d="M16.6476 27.0602C16.6673 27.0292 16.6797 26.993 16.6869 26.9517C16.7613 26.5136 16.8347 26.0963 16.907 25.7016C16.9101 25.6809 16.9225 25.6716 16.9431 25.6716H18.06C18.0796 25.6716 18.091 25.6809 18.0951 25.7005C18.1571 26.0497 18.2274 26.4558 18.308 26.9155C18.3627 27.2286 18.651 27.3857 18.9372 27.2266C19.6511 26.8298 20.1904 26.3194 20.5541 25.6964C20.5644 25.6789 20.582 25.6685 20.6027 25.6685C22.4748 25.6737 24.3469 25.6737 26.2201 25.6665C26.7046 25.6644 27.0373 25.6799 27.2191 25.7129C27.7109 25.8028 28.1366 26.0508 28.4972 26.4558C28.5054 26.4651 28.4992 26.4816 28.4858 26.4816C27.5188 26.4816 26.5558 26.4816 25.5981 26.4816C25.2892 26.4816 25.0908 26.8122 25.2478 27.0808C25.2964 27.1624 25.3584 27.2472 25.4348 27.3339C26.2479 28.2555 27.2605 28.7763 28.4734 28.8951C28.5964 28.9075 28.8423 28.9116 29.2101 28.9085C29.2297 28.9085 29.239 28.9178 29.239 28.9374C29.24 29.267 29.24 29.6121 29.239 29.9747C29.2369 30.4252 29.0634 30.7868 28.7193 31.0575C28.4176 31.2951 28.1025 31.3457 27.6965 31.3395C27.4041 31.3354 27.1065 31.3354 26.8059 31.3395C26.7935 31.3395 26.7821 31.3303 26.78 31.3168C26.6685 30.5513 26.342 29.9117 25.8006 29.3972C24.567 28.2225 22.6266 28.2091 21.3775 29.3683C20.8124 29.8931 20.4756 30.543 20.3661 31.3189C20.365 31.3292 20.3557 31.3374 20.3444 31.3374H13.4427C13.4324 31.3374 13.4231 31.3302 13.4221 31.3199C13.0563 28.8744 10.3246 27.6842 8.31299 29.1265C7.60526 29.6338 7.17132 30.357 7.00912 31.2961C7.00498 31.3178 6.99155 31.3282 6.96985 31.3272C6.44913 31.2951 6.01416 30.9253 5.83852 30.45C5.78377 30.3012 5.7569 30.1049 5.75793 29.8652C5.7631 29.2195 5.7631 28.6007 5.75897 28.0097C5.75897 27.9963 5.76723 27.9838 5.78067 27.9797C6.16088 27.8567 6.57931 27.7421 6.91096 27.5344C7.58873 27.1108 8.00303 26.4992 8.15491 25.7005C8.15801 25.6809 8.17041 25.6716 8.19004 25.6716H14.4015C14.4201 25.6716 14.4366 25.6809 14.447 25.6974C14.8385 26.3442 15.3779 26.8525 16.0639 27.2224C16.3067 27.3515 16.5009 27.2978 16.6476 27.0602Z" fill="url(#paint13_linear_791_8432)"/>
<path d="M29.145 28.0944C28.2058 28.1471 27.3142 27.8888 26.5868 27.3174C26.5631 27.2988 26.5662 27.2906 26.5961 27.2906H28.9373C28.9539 27.2906 28.9652 27.2988 28.9704 27.3143C29.0541 27.5437 29.1202 27.7916 29.1708 28.0603C29.176 28.082 29.1667 28.0923 29.145 28.0944Z" fill="url(#paint14_linear_791_8432)"/>
<path d="M10.214 32.5517C10.6608 32.5517 11.023 32.1894 11.023 31.7427C11.023 31.2959 10.6608 30.9337 10.214 30.9337C9.76725 30.9337 9.40506 31.2959 9.40506 31.7427C9.40506 32.1894 9.76725 32.5517 10.214 32.5517Z" fill="url(#paint15_linear_791_8432)"/>
<path d="M10.214 29.3163C8.87399 29.3163 7.78709 30.4031 7.78709 31.7442C7.78709 33.0842 8.87399 34.1711 10.214 34.1711C11.5551 34.1711 12.642 33.0842 12.642 31.7442C12.642 30.4031 11.5551 29.3163 10.214 29.3163ZM10.214 33.3611C9.32033 33.3611 8.59607 32.6368 8.59607 31.7432C8.59607 30.8495 9.32033 30.1252 10.214 30.1252C11.1077 30.1252 11.832 30.8495 11.832 31.7432C11.832 32.6368 11.1077 33.3611 10.214 33.3611Z" fill="url(#paint16_linear_791_8432)"/>
<path d="M23.5731 32.5505C24.0193 32.5505 24.381 32.1888 24.381 31.7426C24.381 31.2964 24.0193 30.9347 23.5731 30.9347C23.1269 30.9347 22.7651 31.2964 22.7651 31.7426C22.7651 32.1888 23.1269 32.5505 23.5731 32.5505Z" fill="url(#paint17_linear_791_8432)"/>
<path d="M23.5731 29.3163C22.232 29.3163 21.1461 30.4031 21.1461 31.7442C21.1461 33.0842 22.233 34.1711 23.5731 34.1711C24.9131 34.1711 26 33.0842 26 31.7442C26 30.4031 24.9131 29.3163 23.5731 29.3163ZM23.5731 33.3611C22.6794 33.3611 21.9551 32.6368 21.9551 31.7432C21.9551 30.8495 22.6794 30.1252 23.5731 30.1252C24.4668 30.1252 25.191 30.8495 25.191 31.7432C25.191 32.6368 24.4668 33.3611 23.5731 33.3611Z" fill="url(#paint18_linear_791_8432)"/>
<path d="M10.214 32.5517C10.6608 32.5517 11.023 32.1894 11.023 31.7427C11.023 31.2959 10.6608 30.9337 10.214 30.9337C9.76725 30.9337 9.40506 31.2959 9.40506 31.7427C9.40506 32.1894 9.76725 32.5517 10.214 32.5517Z" fill="url(#paint19_linear_791_8432)"/>
<path d="M23.5731 32.5505C24.0193 32.5505 24.381 32.1888 24.381 31.7426C24.381 31.2964 24.0193 30.9347 23.5731 30.9347C23.1269 30.9347 22.7651 31.2964 22.7651 31.7426C22.7651 32.1888 23.1269 32.5505 23.5731 32.5505Z" fill="url(#paint20_linear_791_8432)"/>
<path d="M10.214 32.5517C10.6608 32.5517 11.023 32.1894 11.023 31.7427C11.023 31.2959 10.6608 30.9337 10.214 30.9337C9.76725 30.9337 9.40506 31.2959 9.40506 31.7427C9.40506 32.1894 9.76725 32.5517 10.214 32.5517Z" fill="url(#paint21_linear_791_8432)"/>
<path d="M23.5731 32.5505C24.0193 32.5505 24.381 32.1888 24.381 31.7426C24.381 31.2964 24.0193 30.9347 23.5731 30.9347C23.1269 30.9347 22.7651 31.2964 22.7651 31.7426C22.7651 32.1888 23.1269 32.5505 23.5731 32.5505Z" fill="url(#paint22_linear_791_8432)"/>
<path d="M17.5 42.36C7.8501 42.36 0 34.51 0 24.8603C0 15.2106 7.8501 7.36064 17.5 7.36064C27.1499 7.36064 35 15.2106 35 24.8603C35 34.51 27.1499 42.36 17.5 42.36ZM17.5 10.0251C9.31928 10.0251 2.66457 16.6797 2.66457 24.8603C2.66457 33.0409 9.31928 39.6955 17.5 39.6955C25.6807 39.6955 32.3354 33.0409 32.3354 24.8603C32.3354 16.6808 25.6807 10.0251 17.5 10.0251Z" fill="url(#paint23_linear_791_8432)"/>
<path d="M18.1395 0.639546C18.1395 0.992887 17.8533 1.27903 17.5 1.27903C17.1466 1.27903 16.8604 0.992887 16.8604 0.639546C16.8604 0.286205 17.1466 0 17.5 0C17.8533 0 18.1395 0.286205 18.1395 0.639546Z" fill="url(#paint24_linear_791_8432)"/>
<path d="M26.5837 3.31403L24.6826 9.01602C22.4933 8.02316 20.0581 7.47971 17.5041 7.47971C14.9418 7.47971 12.5066 8.03142 10.308 9.01602L8.41626 3.31403C8.40799 3.29749 8.41626 3.27992 8.42452 3.26339C8.45035 3.24686 8.46688 3.22928 8.49271 3.22101C8.50924 3.21275 8.52681 3.22101 8.54334 3.22927L13.0749 7.21732C13.1771 7.30204 13.329 7.2855 13.3972 7.17495L17.0888 1.64239C17.0888 1.63412 17.1053 1.63407 17.1146 1.63407C17.3688 1.73635 17.6239 1.73641 17.8781 1.64239C17.8946 1.63412 17.9122 1.64239 17.9205 1.65065L21.6027 7.18321C21.6792 7.28549 21.8238 7.31031 21.9251 7.21732L26.4566 3.22927C26.4731 3.22101 26.4907 3.22101 26.5072 3.22101C26.5331 3.22928 26.5496 3.23756 26.5754 3.26339C26.5919 3.28095 26.5919 3.29749 26.5837 3.31403Z" fill="url(#paint25_linear_791_8432)"/>
<path d="M8.50822 2.35286C8.50822 2.7062 8.22203 2.9924 7.86868 2.9924C7.51533 2.9924 7.22914 2.7062 7.22914 2.35286C7.22914 1.99952 7.51533 1.71337 7.86868 1.71337C8.22203 1.71234 8.50822 1.99848 8.50822 2.35286Z" fill="url(#paint26_linear_791_8432)"/>
<path d="M27.7718 2.35286C27.7718 2.7062 27.4856 2.9924 27.1323 2.9924C26.7789 2.9924 26.4927 2.7062 26.4927 2.35286C26.4927 1.99952 26.7789 1.71337 27.1323 1.71337C27.4856 1.71234 27.7718 1.99848 27.7718 2.35286Z" fill="url(#paint27_linear_791_8432)"/>
<path d="M13.2175 3.20924C13.2175 3.4448 13.0263 3.63589 12.7908 3.63589C12.5552 3.63589 12.364 3.4448 12.364 3.20924C12.364 2.97367 12.5552 2.78251 12.7908 2.78251C13.0263 2.78251 13.2175 2.97367 13.2175 3.20924Z" fill="url(#paint28_linear_791_8432)"/>
<path d="M22.6349 3.20924C22.6349 3.4448 22.4437 3.63589 22.2082 3.63589C21.9726 3.63589 21.7815 3.4448 21.7815 3.20924C21.7815 2.97367 21.9726 2.78251 22.2082 2.78251C22.4437 2.78251 22.6349 2.97367 22.6349 3.20924Z" fill="url(#paint29_linear_791_8432)"/>
<path d="M12.3558 3.94156C12.6048 4.1048 12.9757 4.10273 13.2278 3.94156C13.2526 3.92606 13.2732 3.93022 13.2887 3.95398L14.1432 5.23509C14.1556 5.25369 14.1556 5.27123 14.1432 5.28983L13.1895 6.71868C13.1833 6.72798 13.1689 6.73008 13.1606 6.72284L11.4662 5.232C11.4579 5.22477 11.4569 5.2134 11.4621 5.20514L12.2948 3.95398C12.3113 3.93022 12.331 3.92503 12.3558 3.94156Z" fill="url(#paint30_linear_791_8432)"/>
<path d="M21.7732 3.94277C22.0305 4.11014 22.39 4.09878 22.6462 3.94277C22.67 3.92831 22.6907 3.93244 22.7072 3.9562L23.5327 5.19708C23.542 5.21155 23.5399 5.23219 23.5265 5.24356L21.8486 6.71996C21.8362 6.73133 21.8166 6.72822 21.8073 6.71479L20.8557 5.28795C20.8454 5.27245 20.8454 5.25798 20.8557 5.24249L21.7133 3.9562C21.7288 3.93038 21.7484 3.92624 21.7732 3.94277Z" fill="url(#paint31_linear_791_8432)"/>
<defs>
<linearGradient id="paint0_linear_791_8432" x1="15.0683" y1="16.3629" x2="16.8362" y2="16.3629" gradientUnits="userSpaceOnUse">
<stop stop-color="#FFCA57"/>
<stop offset="0.2151" stop-color="#9C642C"/>
<stop offset="0.2516" stop-color="#A76F31"/>
<stop offset="0.379" stop-color="#C6903E"/>
<stop offset="0.5105" stop-color="#DFA949"/>
<stop offset="0.6459" stop-color="#F1BC51"/>
<stop offset="0.7877" stop-color="#FCC656"/>
<stop offset="0.9462" stop-color="#FFCA57"/>
</linearGradient>
<linearGradient id="paint1_linear_791_8432" x1="18.1656" y1="16.3629" x2="19.9336" y2="16.3629" gradientUnits="userSpaceOnUse">
<stop stop-color="#FFCA57"/>
<stop offset="0.2151" stop-color="#9C642C"/>
<stop offset="0.2516" stop-color="#A76F31"/>
<stop offset="0.379" stop-color="#C6903E"/>
<stop offset="0.5105" stop-color="#DFA949"/>
<stop offset="0.6459" stop-color="#F1BC51"/>
<stop offset="0.7877" stop-color="#FCC656"/>
<stop offset="0.9462" stop-color="#FFCA57"/>
</linearGradient>
<linearGradient id="paint2_linear_791_8432" x1="12.2345" y1="17.9799" x2="15.882" y2="17.9799" gradientUnits="userSpaceOnUse">
<stop stop-color="#FFCA57"/>
<stop offset="0.2151" stop-color="#9C642C"/>
<stop offset="0.2516" stop-color="#A76F31"/>
<stop offset="0.379" stop-color="#C6903E"/>
<stop offset="0.5105" stop-color="#DFA949"/>
<stop offset="0.6459" stop-color="#F1BC51"/>
<stop offset="0.7877" stop-color="#FCC656"/>
<stop offset="0.9462" stop-color="#FFCA57"/>
</linearGradient>
<linearGradient id="paint3_linear_791_8432" x1="19.1206" y1="17.9809" x2="22.7671" y2="17.9809" gradientUnits="userSpaceOnUse">
<stop stop-color="#FFCA57"/>
<stop offset="0.2151" stop-color="#9C642C"/>
<stop offset="0.2516" stop-color="#A76F31"/>
<stop offset="0.379" stop-color="#C6903E"/>
<stop offset="0.5105" stop-color="#DFA949"/>
<stop offset="0.6459" stop-color="#F1BC51"/>
<stop offset="0.7877" stop-color="#FCC656"/>
<stop offset="0.9462" stop-color="#FFCA57"/>
</linearGradient>
<linearGradient id="paint4_linear_791_8432" x1="16.6917" y1="18.789" x2="18.311" y2="18.789" gradientUnits="userSpaceOnUse">
<stop stop-color="#FFCA57"/>
<stop offset="0.2151" stop-color="#9C642C"/>
<stop offset="0.2516" stop-color="#A76F31"/>
<stop offset="0.379" stop-color="#C6903E"/>
<stop offset="0.5105" stop-color="#DFA949"/>
<stop offset="0.6459" stop-color="#F1BC51"/>
<stop offset="0.7877" stop-color="#FCC656"/>
<stop offset="0.9462" stop-color="#FFCA57"/>
</linearGradient>
<linearGradient id="paint5_linear_791_8432" x1="12.2385" y1="21.0176" x2="15.1507" y2="21.0176" gradientUnits="userSpaceOnUse">
<stop stop-color="#FFCA57"/>
<stop offset="0.2151" stop-color="#9C642C"/>
<stop offset="0.2516" stop-color="#A76F31"/>
<stop offset="0.379" stop-color="#C6903E"/>
<stop offset="0.5105" stop-color="#DFA949"/>
<stop offset="0.6459" stop-color="#F1BC51"/>
<stop offset="0.7877" stop-color="#FCC656"/>
<stop offset="0.9462" stop-color="#FFCA57"/>
</linearGradient>
<linearGradient id="paint6_linear_791_8432" x1="14.6675" y1="23.3106" x2="17.0134" y2="23.3106" gradientUnits="userSpaceOnUse">
<stop stop-color="#FFCA57"/>
<stop offset="0.2151" stop-color="#9C642C"/>
<stop offset="0.2516" stop-color="#A76F31"/>
<stop offset="0.379" stop-color="#C6903E"/>
<stop offset="0.5105" stop-color="#DFA949"/>
<stop offset="0.6459" stop-color="#F1BC51"/>
<stop offset="0.7877" stop-color="#FCC656"/>
<stop offset="0.9462" stop-color="#FFCA57"/>
</linearGradient>
<linearGradient id="paint7_linear_791_8432" x1="17.9889" y1="23.3086" x2="20.3325" y2="23.3086" gradientUnits="userSpaceOnUse">
<stop stop-color="#FFCA57"/>
<stop offset="0.2151" stop-color="#9C642C"/>
<stop offset="0.2516" stop-color="#A76F31"/>
<stop offset="0.379" stop-color="#C6903E"/>
<stop offset="0.5105" stop-color="#DFA949"/>
<stop offset="0.6459" stop-color="#F1BC51"/>
<stop offset="0.7877" stop-color="#FCC656"/>
<stop offset="0.9462" stop-color="#FFCA57"/>
</linearGradient>
<linearGradient id="paint8_linear_791_8432" x1="19.862" y1="21.0143" x2="22.764" y2="21.0143" gradientUnits="userSpaceOnUse">
<stop stop-color="#FFCA57"/>
<stop offset="0.2151" stop-color="#9C642C"/>
<stop offset="0.2516" stop-color="#A76F31"/>
<stop offset="0.379" stop-color="#C6903E"/>
<stop offset="0.5105" stop-color="#DFA949"/>
<stop offset="0.6459" stop-color="#F1BC51"/>
<stop offset="0.7877" stop-color="#FCC656"/>
<stop offset="0.9462" stop-color="#FFCA57"/>
</linearGradient>
<linearGradient id="paint9_linear_791_8432" x1="6.62776" y1="23.3467" x2="14.0844" y2="23.3467" gradientUnits="userSpaceOnUse">
<stop stop-color="#FFCA57"/>
<stop offset="0.2151" stop-color="#9C642C"/>
<stop offset="0.2516" stop-color="#A76F31"/>
<stop offset="0.379" stop-color="#C6903E"/>
<stop offset="0.5105" stop-color="#DFA949"/>
<stop offset="0.6459" stop-color="#F1BC51"/>
<stop offset="0.7877" stop-color="#FCC656"/>
<stop offset="0.9462" stop-color="#FFCA57"/>
</linearGradient>
<linearGradient id="paint10_linear_791_8432" x1="17.0596" y1="23.6128" x2="17.9444" y2="23.6128" gradientUnits="userSpaceOnUse">
<stop stop-color="#FFCA57"/>
<stop offset="0.2151" stop-color="#9C642C"/>
<stop offset="0.2516" stop-color="#A76F31"/>
<stop offset="0.379" stop-color="#C6903E"/>
<stop offset="0.5105" stop-color="#DFA949"/>
<stop offset="0.6459" stop-color="#F1BC51"/>
<stop offset="0.7877" stop-color="#FCC656"/>
<stop offset="0.9462" stop-color="#FFCA57"/>
</linearGradient>
<linearGradient id="paint11_linear_791_8432" x1="20.9385" y1="24.3189" x2="22.4355" y2="24.3189" gradientUnits="userSpaceOnUse">
<stop stop-color="#FFCA57"/>
<stop offset="0.2151" stop-color="#9C642C"/>
<stop offset="0.2516" stop-color="#A76F31"/>
<stop offset="0.379" stop-color="#C6903E"/>
<stop offset="0.5105" stop-color="#DFA949"/>
<stop offset="0.6459" stop-color="#F1BC51"/>
<stop offset="0.7877" stop-color="#FCC656"/>
<stop offset="0.9462" stop-color="#FFCA57"/>
</linearGradient>
<linearGradient id="paint12_linear_791_8432" x1="5.77005" y1="26.396" x2="7.32798" y2="26.396" gradientUnits="userSpaceOnUse">
<stop stop-color="#FFCA57"/>
<stop offset="0.2151" stop-color="#9C642C"/>
<stop offset="0.2516" stop-color="#A76F31"/>
<stop offset="0.379" stop-color="#C6903E"/>
<stop offset="0.5105" stop-color="#DFA949"/>
<stop offset="0.6459" stop-color="#F1BC51"/>
<stop offset="0.7877" stop-color="#FCC656"/>
<stop offset="0.9462" stop-color="#FFCA57"/>
</linearGradient>
<linearGradient id="paint13_linear_791_8432" x1="5.75845" y1="28.5032" x2="29.2416" y2="28.5032" gradientUnits="userSpaceOnUse">
<stop stop-color="#FFCA57"/>
<stop offset="0.2151" stop-color="#9C642C"/>
<stop offset="0.2516" stop-color="#A76F31"/>
<stop offset="0.379" stop-color="#C6903E"/>
<stop offset="0.5105" stop-color="#DFA949"/>
<stop offset="0.6459" stop-color="#F1BC51"/>
<stop offset="0.7877" stop-color="#FCC656"/>
<stop offset="0.9462" stop-color="#FFCA57"/>
</linearGradient>
<linearGradient id="paint14_linear_791_8432" x1="26.572" y1="27.6955" x2="29.1731" y2="27.6955" gradientUnits="userSpaceOnUse">
<stop stop-color="#FFCA57"/>
<stop offset="0.2151" stop-color="#9C642C"/>
<stop offset="0.2516" stop-color="#A76F31"/>
<stop offset="0.379" stop-color="#C6903E"/>
<stop offset="0.5105" stop-color="#DFA949"/>
<stop offset="0.6459" stop-color="#F1BC51"/>
<stop offset="0.7877" stop-color="#FCC656"/>
<stop offset="0.9462" stop-color="#FFCA57"/>
</linearGradient>
<linearGradient id="paint15_linear_791_8432" x1="9.40547" y1="31.7428" x2="11.0229" y2="31.7428" gradientUnits="userSpaceOnUse">
<stop stop-color="#FFCA57"/>
<stop offset="0.2151" stop-color="#9C642C"/>
<stop offset="0.2516" stop-color="#A76F31"/>
<stop offset="0.379" stop-color="#C6903E"/>
<stop offset="0.5105" stop-color="#DFA949"/>
<stop offset="0.6459" stop-color="#F1BC51"/>
<stop offset="0.7877" stop-color="#FCC656"/>
<stop offset="0.9462" stop-color="#FFCA57"/>
</linearGradient>
<linearGradient id="paint16_linear_791_8432" x1="7.78667" y1="31.7436" x2="12.6417" y2="31.7436" gradientUnits="userSpaceOnUse">
<stop stop-color="#FFCA57"/>
<stop offset="0.2151" stop-color="#9C642C"/>
<stop offset="0.2516" stop-color="#A76F31"/>
<stop offset="0.379" stop-color="#C6903E"/>
<stop offset="0.5105" stop-color="#DFA949"/>
<stop offset="0.6459" stop-color="#F1BC51"/>
<stop offset="0.7877" stop-color="#FCC656"/>
<stop offset="0.9462" stop-color="#FFCA57"/>
</linearGradient>
<linearGradient id="paint17_linear_791_8432" x1="22.7648" y1="31.7427" x2="24.3815" y2="31.7427" gradientUnits="userSpaceOnUse">
<stop stop-color="#FFCA57"/>
<stop offset="0.2151" stop-color="#9C642C"/>
<stop offset="0.2516" stop-color="#A76F31"/>
<stop offset="0.379" stop-color="#C6903E"/>
<stop offset="0.5105" stop-color="#DFA949"/>
<stop offset="0.6459" stop-color="#F1BC51"/>
<stop offset="0.7877" stop-color="#FCC656"/>
<stop offset="0.9462" stop-color="#FFCA57"/>
</linearGradient>
<linearGradient id="paint18_linear_791_8432" x1="21.146" y1="31.7436" x2="26.0003" y2="31.7436" gradientUnits="userSpaceOnUse">
<stop stop-color="#FFCA57"/>
<stop offset="0.2151" stop-color="#9C642C"/>
<stop offset="0.2516" stop-color="#A76F31"/>
<stop offset="0.379" stop-color="#C6903E"/>
<stop offset="0.5105" stop-color="#DFA949"/>
<stop offset="0.6459" stop-color="#F1BC51"/>
<stop offset="0.7877" stop-color="#FCC656"/>
<stop offset="0.9462" stop-color="#FFCA57"/>
</linearGradient>
<linearGradient id="paint19_linear_791_8432" x1="9.40547" y1="31.7428" x2="11.0229" y2="31.7428" gradientUnits="userSpaceOnUse">
<stop stop-color="#FFCA57"/>
<stop offset="0.2151" stop-color="#9C642C"/>
<stop offset="0.2516" stop-color="#A76F31"/>
<stop offset="0.379" stop-color="#C6903E"/>
<stop offset="0.5105" stop-color="#DFA949"/>
<stop offset="0.6459" stop-color="#F1BC51"/>
<stop offset="0.7877" stop-color="#FCC656"/>
<stop offset="0.9462" stop-color="#FFCA57"/>
</linearGradient>
<linearGradient id="paint20_linear_791_8432" x1="22.7648" y1="31.7427" x2="24.3815" y2="31.7427" gradientUnits="userSpaceOnUse">
<stop stop-color="#FFCA57"/>
<stop offset="0.2151" stop-color="#9C642C"/>
<stop offset="0.2516" stop-color="#A76F31"/>
<stop offset="0.379" stop-color="#C6903E"/>
<stop offset="0.5105" stop-color="#DFA949"/>
<stop offset="0.6459" stop-color="#F1BC51"/>
<stop offset="0.7877" stop-color="#FCC656"/>
<stop offset="0.9462" stop-color="#FFCA57"/>
</linearGradient>
<linearGradient id="paint21_linear_791_8432" x1="9.40547" y1="31.7428" x2="11.0229" y2="31.7428" gradientUnits="userSpaceOnUse">
<stop stop-color="#FFCA57"/>
<stop offset="0.2151" stop-color="#9C642C"/>
<stop offset="0.2516" stop-color="#A76F31"/>
<stop offset="0.379" stop-color="#C6903E"/>
<stop offset="0.5105" stop-color="#DFA949"/>
<stop offset="0.6459" stop-color="#F1BC51"/>
<stop offset="0.7877" stop-color="#FCC656"/>
<stop offset="0.9462" stop-color="#FFCA57"/>
</linearGradient>
<linearGradient id="paint22_linear_791_8432" x1="22.7648" y1="31.7427" x2="24.3815" y2="31.7427" gradientUnits="userSpaceOnUse">
<stop stop-color="#FFCA57"/>
<stop offset="0.2151" stop-color="#9C642C"/>
<stop offset="0.2516" stop-color="#A76F31"/>
<stop offset="0.379" stop-color="#C6903E"/>
<stop offset="0.5105" stop-color="#DFA949"/>
<stop offset="0.6459" stop-color="#F1BC51"/>
<stop offset="0.7877" stop-color="#FCC656"/>
<stop offset="0.9462" stop-color="#FFCA57"/>
</linearGradient>
<linearGradient id="paint23_linear_791_8432" x1="16.7537" y1="42.3443" x2="18.2462" y2="7.37696" gradientUnits="userSpaceOnUse">
<stop stop-color="#FFCA57"/>
<stop offset="0.2151" stop-color="#9C642C"/>
<stop offset="0.2516" stop-color="#A76F31"/>
<stop offset="0.379" stop-color="#C6903E"/>
<stop offset="0.5105" stop-color="#DFA949"/>
<stop offset="0.6459" stop-color="#F1BC51"/>
<stop offset="0.7877" stop-color="#FCC656"/>
<stop offset="0.9462" stop-color="#FFCA57"/>
</linearGradient>
<linearGradient id="paint24_linear_791_8432" x1="16.9456" y1="0.960098" x2="18.0543" y2="0.31982" gradientUnits="userSpaceOnUse">
<stop offset="0.0376" stop-color="#9C642C"/>
<stop offset="0.303" stop-color="#D7A146"/>
<stop offset="0.5" stop-color="#FFCA57"/>
<stop offset="1" stop-color="#9C642C"/>
</linearGradient>
<linearGradient id="paint25_linear_791_8432" x1="10.6229" y1="9.56143" x2="25.3157" y2="1.07845" gradientUnits="userSpaceOnUse">
<stop offset="0.0376" stop-color="#9C642C"/>
<stop offset="0.303" stop-color="#D7A146"/>
<stop offset="0.5" stop-color="#FFCA57"/>
<stop offset="1" stop-color="#9C642C"/>
</linearGradient>
<linearGradient id="paint26_linear_791_8432" x1="7.31355" y1="2.67275" x2="8.42234" y2="2.03258" gradientUnits="userSpaceOnUse">
<stop offset="0.0376" stop-color="#9C642C"/>
<stop offset="0.303" stop-color="#D7A146"/>
<stop offset="0.5" stop-color="#FFCA57"/>
<stop offset="1" stop-color="#9C642C"/>
</linearGradient>
<linearGradient id="paint27_linear_791_8432" x1="26.5776" y1="2.67275" x2="27.6864" y2="2.03258" gradientUnits="userSpaceOnUse">
<stop offset="0.0376" stop-color="#9C642C"/>
<stop offset="0.303" stop-color="#D7A146"/>
<stop offset="0.5" stop-color="#FFCA57"/>
<stop offset="1" stop-color="#9C642C"/>
</linearGradient>
<linearGradient id="paint28_linear_791_8432" x1="12.4211" y1="3.42245" x2="13.1598" y2="2.99594" gradientUnits="userSpaceOnUse">
<stop offset="0.0376" stop-color="#9C642C"/>
<stop offset="0.303" stop-color="#D7A146"/>
<stop offset="0.5" stop-color="#FFCA57"/>
<stop offset="1" stop-color="#9C642C"/>
</linearGradient>
<linearGradient id="paint29_linear_791_8432" x1="21.839" y1="3.42245" x2="22.5777" y2="2.99594" gradientUnits="userSpaceOnUse">
<stop offset="0.0376" stop-color="#9C642C"/>
<stop offset="0.303" stop-color="#D7A146"/>
<stop offset="0.5" stop-color="#FFCA57"/>
<stop offset="1" stop-color="#9C642C"/>
</linearGradient>
<linearGradient id="paint30_linear_791_8432" x1="11.8276" y1="5.86231" x2="13.8353" y2="4.70318" gradientUnits="userSpaceOnUse">
<stop offset="0.0376" stop-color="#9C642C"/>
<stop offset="0.303" stop-color="#D7A146"/>
<stop offset="0.5" stop-color="#FFCA57"/>
<stop offset="1" stop-color="#9C642C"/>
</linearGradient>
<linearGradient id="paint31_linear_791_8432" x1="21.1063" y1="5.72232" x2="23.1539" y2="4.54016" gradientUnits="userSpaceOnUse">
<stop offset="0.0376" stop-color="#9C642C"/>
<stop offset="0.303" stop-color="#D7A146"/>
<stop offset="0.5" stop-color="#FFCA57"/>
<stop offset="1" stop-color="#9C642C"/>
</linearGradient>
</defs>
</svg>
