<svg width="351" height="40" viewBox="0 0 351 40" fill="none" xmlns="http://www.w3.org/2000/svg">
<path opacity="0.35" d="M312.149 19.6493C312.149 18.5805 313.015 17.7141 314.084 17.7141H328.969C330.038 17.7141 330.904 18.5805 330.904 19.6493V25.008C330.904 26.0768 330.038 26.9432 328.969 26.9432H314.084C313.015 26.9432 312.149 26.0768 312.149 25.008V19.6493Z" stroke="white" stroke-width="0.89313"/>
<path opacity="0.4" d="M332.245 20.543V24.1155C332.964 23.8129 333.431 23.109 333.431 22.3292C333.431 21.5494 332.964 20.8455 332.245 20.543Z" fill="white"/>
<path d="M313.489 20.2436C313.489 19.5859 314.022 19.0527 314.679 19.0527H328.374C329.032 19.0527 329.565 19.5859 329.565 20.2436V24.4115C329.565 25.0692 329.032 25.6024 328.374 25.6024H314.679C314.022 25.6024 313.489 25.0692 313.489 24.4115V20.2436Z" fill="white"/>
<path fill-rule="evenodd" clip-rule="evenodd" d="M300.386 19.2976C302.365 19.2977 304.269 20.0582 305.703 21.4218C305.811 21.5271 305.984 21.5257 306.09 21.4188L307.123 20.3768C307.177 20.3226 307.207 20.2491 307.206 20.1727C307.206 20.0963 307.175 20.0232 307.12 19.9696C303.356 16.3617 297.417 16.3617 293.652 19.9696C293.597 20.0231 293.566 20.0962 293.566 20.1726C293.565 20.2491 293.595 20.3225 293.649 20.3768L294.682 21.4188C294.788 21.5259 294.961 21.5272 295.069 21.4218C296.504 20.0581 298.407 19.2976 300.386 19.2976ZM300.386 22.6873C301.474 22.6873 302.522 23.0914 303.328 23.8213C303.437 23.9249 303.609 23.9226 303.715 23.8162L304.747 22.7743C304.801 22.7196 304.831 22.6455 304.83 22.5684C304.829 22.4914 304.798 22.4178 304.742 22.3643C302.288 20.0811 298.487 20.0811 296.032 22.3643C295.977 22.4178 295.945 22.4914 295.944 22.5685C295.944 22.6455 295.974 22.7197 296.028 22.7743L297.059 23.8162C297.166 23.9226 297.337 23.9249 297.446 23.8213C298.252 23.0919 299.3 22.6878 300.386 22.6873ZM302.453 24.9694C302.454 25.0467 302.424 25.1212 302.369 25.1753L300.585 26.9755C300.533 27.0285 300.461 27.0582 300.387 27.0582C300.312 27.0582 300.241 27.0285 300.189 26.9755L298.405 25.1753C298.35 25.1211 298.319 25.0466 298.321 24.9693C298.323 24.8921 298.356 24.8189 298.413 24.7671C299.553 23.8035 301.221 23.8035 302.36 24.7671C302.418 24.819 302.451 24.8922 302.453 24.9694Z" fill="white"/>
<path fill-rule="evenodd" clip-rule="evenodd" d="M288.183 17.5625H287.29C286.796 17.5625 286.397 17.9624 286.397 18.4556V26.1961C286.397 26.6894 286.796 27.0892 287.29 27.0892H288.183C288.676 27.0892 289.076 26.6894 289.076 26.1961V18.4556C289.076 17.9624 288.676 17.5625 288.183 17.5625ZM283.122 19.6461H284.015C284.508 19.6461 284.908 20.0459 284.908 20.5392V26.1957C284.908 26.6889 284.508 27.0888 284.015 27.0888H283.122C282.628 27.0888 282.228 26.6889 282.228 26.1957V20.5392C282.228 20.0459 282.628 19.6461 283.122 19.6461ZM279.847 21.7296H278.954C278.461 21.7296 278.061 22.1295 278.061 22.6228V26.1953C278.061 26.6885 278.461 27.0884 278.954 27.0884H279.847C280.34 27.0884 280.74 26.6885 280.74 26.1953V22.6228C280.74 22.1295 280.34 21.7296 279.847 21.7296ZM275.679 23.517H274.786C274.293 23.517 273.893 23.9169 273.893 24.4102V26.1964C273.893 26.6897 274.293 27.0895 274.786 27.0895H275.679C276.172 27.0895 276.572 26.6897 276.572 26.1964V24.4102C276.572 23.9169 276.172 23.517 275.679 23.517Z" fill="white"/>
<path d="M28.8667 27.0249C31.2675 27.0249 32.6935 25.1475 32.6935 21.9683C32.6935 20.7712 32.4646 19.7639 32.0263 18.9854C31.3918 17.7752 30.2993 17.1211 28.9191 17.1211C26.865 17.1211 25.4128 18.5013 25.4128 20.4376C25.4128 22.2562 26.7211 23.5775 28.52 23.5775C29.6256 23.5775 30.5217 23.0608 30.9666 22.1646H30.9862C30.9862 22.1646 31.0123 22.1646 31.0189 22.1646C31.032 22.1646 31.0778 22.1646 31.0778 22.1646C31.0778 24.3233 30.2601 25.6119 28.8798 25.6119C28.0687 25.6119 27.4407 25.1671 27.2248 24.4541H25.5437C25.825 26.0044 27.1398 27.0249 28.8667 27.0249ZM28.9256 22.2365C27.8397 22.2365 27.0678 21.4646 27.0678 20.3853C27.0678 19.3321 27.879 18.5275 28.9322 18.5275C29.9853 18.5275 30.7965 19.3452 30.7965 20.4115C30.7965 21.4646 30.005 22.2365 28.9256 22.2365Z" fill="white"/>
<path d="M35.4543 26.9333C36.0757 26.9333 36.5009 26.4885 36.5009 25.8998C36.5009 25.3045 36.0757 24.8662 35.4543 24.8662C34.8394 24.8662 34.4076 25.3045 34.4076 25.8998C34.4076 26.4885 34.8394 26.9333 35.4543 26.9333ZM35.4543 22.0272C36.0757 22.0272 36.5009 21.5889 36.5009 21.0002C36.5009 20.4049 36.0757 19.9666 35.4543 19.9666C34.8394 19.9666 34.4076 20.4049 34.4076 21.0002C34.4076 21.5889 34.8394 22.0272 35.4543 22.0272Z" fill="white"/>
<path d="M42.624 26.7959H44.2397V25.0363H45.5153V23.6102H44.2397V17.3566H41.8586C40.1906 19.8685 38.8626 21.9683 38.0123 23.5317V25.0363H42.624V26.7959ZM39.5757 23.5514C40.6746 21.6151 41.6559 20.0648 42.5586 18.7303H42.6502V23.6495H39.5757V23.5514Z" fill="white"/>
<path d="M49.1134 26.7959H50.8011V17.3566H49.1199L46.6538 19.0835V20.7058L49.0022 19.0574H49.1134V26.7959Z" fill="white"/>
</svg>
