<svg width="18" height="17" viewBox="0 0 18 17" fill="none" xmlns="http://www.w3.org/2000/svg">
<path d="M2.19589 7.58134C2.19462 6.68256 2.37119 5.79242 2.71542 4.96218C3.05964 4.13193 3.56472 3.37799 4.20158 2.74378C4.83843 2.10958 5.59446 1.60763 6.42613 1.26686C7.25779 0.926091 8.14867 0.753228 9.04743 0.758229C12.8001 0.786658 15.8042 3.90444 15.8042 7.66663V8.33946C15.8042 11.7321 16.5149 13.7032 17.1404 14.7835C17.2068 14.8986 17.2418 15.0291 17.242 15.1619C17.2421 15.2948 17.2073 15.4253 17.1411 15.5405C17.0748 15.6557 16.9795 15.7514 16.8646 15.8181C16.7498 15.8849 16.6194 15.9202 16.4865 15.9207H1.51358C1.38072 15.9202 1.25033 15.8849 1.13545 15.8181C1.02057 15.7514 0.925248 15.6557 0.859025 15.5405C0.792802 15.4253 0.758006 15.2948 0.758124 15.1619C0.758241 15.0291 0.793268 14.8986 0.859695 14.7835C1.48515 13.7032 2.19589 11.7321 2.19589 8.33946V7.58134Z" stroke="black" stroke-width="1.5" stroke-linecap="round" stroke-linejoin="round"/>
</svg>
