<svg width="10" height="10" viewBox="0 0 10 10" fill="none" xmlns="http://www.w3.org/2000/svg">
<path d="M9.78623 4.99936C9.78623 5.94586 9.50553 6.87111 8.97961 7.6581C8.45369 8.44509 7.70618 9.05847 6.83161 9.42068C5.95704 9.78289 4.99469 9.87766 4.06625 9.69301C3.13781 9.50835 2.28499 9.05257 1.61562 8.3833C0.946257 7.71402 0.490412 6.8613 0.305734 5.93298C0.121056 5.00467 0.215842 4.04244 0.5781 3.16799C0.940359 2.29353 1.55382 1.54612 2.34091 1.02027C3.128 0.494422 4.05337 0.21375 5 0.21375C6.26939 0.21375 7.48679 0.717947 8.38438 1.61542C9.28197 2.5129 9.78623 3.73013 9.78623 4.99936Z" stroke="#9E8B7D" stroke-width="0.413611" stroke-miterlimit="10"/>
</svg>
