<svg width="4" height="4" viewBox="0 0 4 4" fill="none" xmlns="http://www.w3.org/2000/svg">
<path d="M3.78567 1.9977C3.78608 2.351 3.68165 2.69649 3.48559 2.99042C3.28953 3.28435 3.01066 3.51352 2.68428 3.64891C2.3579 3.7843 1.99869 3.81983 1.65211 3.751C1.30552 3.68217 0.987158 3.51208 0.737299 3.26226C0.487441 3.01243 0.317328 2.69411 0.248492 2.34757C0.179655 2.00103 0.215186 1.64187 0.350595 1.31553C0.486005 0.989198 0.715205 0.710366 1.00918 0.514332C1.30315 0.318298 1.64867 0.213874 2.00203 0.214279C2.47492 0.214821 2.92827 0.402889 3.26266 0.737228C3.59704 1.07157 3.78513 1.52487 3.78567 1.9977Z" stroke="#9E8B7D" stroke-width="0.413611" stroke-miterlimit="10"/>
</svg>
