<svg width="16" height="16" viewBox="0 0 16 16" fill="none" xmlns="http://www.w3.org/2000/svg">
<path d="M2.36876 12.9937L5.73126 3.73742C5.76004 3.65822 5.80838 3.58757 5.87178 3.53205C5.93518 3.47653 6.01159 3.43793 6.0939 3.41985C6.17621 3.40177 6.26176 3.40478 6.34259 3.42861C6.42343 3.45245 6.49692 3.49633 6.55626 3.55617L12.4438 9.44367C12.5036 9.50301 12.5475 9.57651 12.5713 9.65734C12.5951 9.73817 12.5982 9.82372 12.5801 9.90603C12.562 9.98834 12.5234 10.0647 12.4679 10.1281C12.4124 10.1916 12.3417 10.2399 12.2625 10.2687L3.00626 13.6312C2.91721 13.6652 2.82021 13.6727 2.72697 13.6529C2.63373 13.633 2.54824 13.5865 2.48083 13.5191C2.41342 13.4517 2.36696 13.3662 2.34707 13.273C2.32719 13.1797 2.33472 13.0827 2.36876 12.9937Z" fill="#4D4D4D" stroke="#4D4D4D" stroke-linecap="round" stroke-linejoin="round"/>
<path d="M10.5 4.5C10.5 4.5 10.5 3 12 3C13.5 3 13.5 1.5 13.5 1.5" stroke="#4D4D4D" stroke-linecap="round" stroke-linejoin="round"/>
<path d="M6.40001 12.3996L3.60001 9.59961" stroke="white" stroke-linecap="round" stroke-linejoin="round"/>
<path d="M9 1V2.5" stroke="#4D4D4D" stroke-linecap="round" stroke-linejoin="round"/>
<path d="M13.5 7L14.5 8" stroke="#4D4D4D" stroke-linecap="round" stroke-linejoin="round"/>
<path d="M13.5 5L15 4.5" stroke="#4D4D4D" stroke-linecap="round" stroke-linejoin="round"/>
<path d="M4.79999 6.30078L9.69999 11.2008" stroke="white" stroke-linecap="round" stroke-linejoin="round"/>
</svg>
