<svg width="40" height="26" viewBox="0 0 40 26" fill="none" xmlns="http://www.w3.org/2000/svg">
<path d="M14.1001 5.34549L12.7515 5.11342C12.7515 5.11342 3.67179 -2.09886 1.21739 5.03702C-0.709427 10.6325 8.0836 17.5897 8.0836 17.5897L14.5646 21.5636L14.536 21.5569C14.5178 21.5503 14.4993 21.5449 14.4805 21.5406C14.4356 21.5273 14.3725 21.5091 14.2951 21.4833L14.0017 21.3878C13.5429 21.2217 12.4438 21.2589 11.5167 20.7614C11.4546 20.7289 11.2013 20.6955 11.1344 20.6659C7.59233 18.7195 0.310373 13.4564 0.0112186 5.60907C-0.450415 -6.37924 13.4875 4.84506 13.6184 4.9568L14.1001 5.34549Z" fill="url(#paint0_linear_0_1078)"/>
<path d="M13.7512 5.1975L13.0421 4.88425C13.0421 4.88425 4.95059 -1.58693 1.47734 2.83956C-2.5837 8.0062 4.47747 16.8391 10.9537 20.5351C7.17273 18.3777 0.275945 13.4422 0.015977 5.59861C-0.395001 -6.79559 13.9701 5.24143 14.103 5.34553L13.7512 5.1975Z" fill="#FF8B3E"/>
<path d="M25.8962 5.34636L27.2448 5.11429C27.2448 5.11429 36.3245 -2.09799 38.7789 5.03789C40.7067 10.6333 31.9137 17.5858 31.9137 17.5858L25.4326 21.5597L25.4613 21.553C25.4791 21.5466 25.4973 21.5411 25.5158 21.5367C25.5607 21.5234 25.6238 21.5052 25.7069 21.4794L25.9994 21.3839C26.4591 21.2178 27.5582 21.255 28.4844 20.7575C28.5475 20.725 28.7998 20.6916 28.8667 20.6619C32.403 18.7156 39.6907 13.4525 39.9889 5.60517C40.4505 -6.38315 26.5126 4.84115 26.3817 4.95289L25.8962 5.34636Z" fill="url(#paint1_linear_0_1078)"/>
<path d="M26.2452 5.1975L26.9544 4.88425C26.9544 4.88425 35.0459 -1.58693 38.5192 2.83956C42.5802 8.0062 35.5181 16.8391 29.0428 20.5351C32.8228 18.3777 39.7196 13.4422 39.9796 5.59861C40.3906 -6.79559 26.0254 5.24143 25.8926 5.34553L26.2452 5.1975Z" fill="#FF8B3E"/>
<path d="M30.6346 13.07C30.6352 13.0714 30.6355 13.0728 30.6355 13.0743C30.6355 13.0758 30.6352 13.0773 30.6346 13.0786C30.5006 13.4958 30.341 13.9044 30.1567 14.302C30.7588 12.2372 30.6929 8.87941 29.1331 7.92153C29.1331 7.92153 28.1248 4.28196 27.9862 3.33745C27.9697 3.2676 27.9677 3.19511 27.9804 3.12448C28.1324 2.86472 31.577 4.48633 31.8933 8.2214C32.0549 10.0627 31.0169 11.9402 30.6346 13.07Z" fill="url(#paint2_linear_0_1078)"/>
<g style="mix-blend-mode:multiply" opacity="0.5">
<path d="M30.6347 13.0685C30.6354 13.0699 30.6357 13.0713 30.6357 13.0728C30.6357 13.0743 30.6354 13.0757 30.6347 13.0771C30.5007 13.4943 30.3411 13.9029 30.1569 14.3005C30.759 12.2357 30.693 8.87789 29.1332 7.92001C29.1332 7.92001 28.1249 4.28045 27.9863 3.33594H28.0255C28.0255 3.33594 29.7143 4.61757 30.3499 6.67849C30.9855 8.73942 30.9081 11.7047 30.6347 13.0685Z" fill="#BE2F55"/>
</g>
<g style="mix-blend-mode:lighten" opacity="0.5">
<path d="M28.5845 3.83789C28.5845 3.83789 30.8907 5.75365 30.8324 11.1161C30.8324 11.1142 31.5665 6.29706 28.5845 3.83789Z" fill="white"/>
</g>
<g style="mix-blend-mode:multiply" opacity="0.5">
<path d="M30.5526 13.1219C30.5526 13.1219 31.4979 7.86934 29.4057 5.38629C27.8555 3.54216 29.1782 9.03637 29.1782 9.03637L30.5526 13.1219Z" fill="#BE2F55"/>
</g>
<path d="M9.77058 12.9958C9.76997 12.9972 9.76967 12.9986 9.76967 13.0001C9.76967 13.0016 9.76997 13.0031 9.77058 13.0044C9.90844 13.4232 10.0722 13.8331 10.2609 14.2316C9.63964 12.165 9.68743 8.8396 11.2539 7.90082C11.2539 7.90082 12.2374 4.34338 12.3645 3.43039C12.3785 3.36202 12.3785 3.29152 12.3645 3.22315C12.2097 2.97198 8.78041 4.54298 8.47553 8.18923C8.33025 10.0019 9.38732 11.868 9.77058 12.9958Z" fill="url(#paint3_linear_0_1078)"/>
<g style="mix-blend-mode:multiply" opacity="0.5">
<path d="M9.77058 12.995C9.76997 12.9964 9.76967 12.9978 9.76967 12.9993C9.76967 13.0008 9.76997 13.0022 9.77058 13.0036C9.90844 13.4224 10.0722 13.8323 10.2609 14.2308C9.63964 12.1641 9.68743 8.83877 11.2539 7.89999C11.2539 7.89999 12.2374 4.34255 12.3645 3.42956L12.3244 3.42383C12.3244 3.42383 10.6461 4.66535 10.021 6.67757C9.39305 8.70793 9.4915 11.6351 9.77058 12.995Z" fill="#BE2F55"/>
</g>
<g style="mix-blend-mode:lighten" opacity="0.5">
<path d="M11.7787 3.91016C11.7787 3.91016 9.48484 5.77244 9.56608 11.0479C9.56608 11.0479 8.81006 6.30343 11.7787 3.91016Z" fill="white"/>
</g>
<g style="mix-blend-mode:multiply" opacity="0.5">
<path d="M9.81455 13.1219C9.81455 13.1219 8.8693 7.86934 10.9615 5.38629C12.5117 3.54216 11.1889 9.03637 11.1889 9.03637L9.81455 13.1219Z" fill="#BE2F55"/>
</g>
<path d="M33.5211 12.2179C33.0317 14.7706 30.5792 17.7216 28.0293 19.5343C27.3377 20.0354 26.592 20.4573 25.8062 20.792C25.9409 20.6402 30.1071 15.8584 31.3668 12.2924C32.6093 8.75404 31.2282 8.41119 31.2922 8.10081C31.3276 7.92891 32.1907 8.21255 32.8492 9.03959C33.394 9.71383 33.8021 10.7538 33.5211 12.2179Z" fill="url(#paint4_linear_0_1078)"/>
<g style="mix-blend-mode:multiply" opacity="0.8">
<path d="M33.5213 12.2173C33.032 14.7701 30.5795 17.7211 28.0295 19.5337C27.4904 19.8202 27.0527 20.0198 26.8271 20.0446C26.8271 20.0446 31.2523 15.9486 32.426 13.3347C33.5729 10.7676 32.8494 9.03711 32.8494 9.03711C33.3942 9.71326 33.8023 10.7533 33.5213 12.2173Z" fill="#BE2F55"/>
</g>
<path d="M29.2314 17.6211C29.2314 17.6211 32.1637 14.1783 32.6053 12.6464C33.0421 11.1299 33.0641 10.1328 33.0641 10.1328C33.0641 10.1328 34.0475 13.037 29.2314 17.6211Z" fill="#FF8B3E"/>
<path d="M6.85671 12.1312C7.35275 14.683 9.85398 17.6703 12.4747 19.5412C13.1915 20.0598 13.9629 20.4985 14.7752 20.8495C14.6347 20.692 10.3252 15.7956 9.03107 12.2133C7.76755 8.70555 9.15627 8.3732 9.09033 8.06664C9.05496 7.89856 8.19 8.17456 7.53053 8.98632C6.98383 9.65197 6.5738 10.6777 6.85671 12.1312Z" fill="url(#paint5_linear_0_1078)"/>
<g style="mix-blend-mode:multiply" opacity="0.8">
<path d="M6.85669 12.1312C7.35273 14.683 9.85396 17.6703 12.4747 19.5412C13.0309 19.841 13.483 20.0464 13.7172 20.0741C13.7172 20.0741 9.162 15.8787 7.96538 13.2495C6.80317 10.6929 7.53242 8.98633 7.53242 8.98633C6.98381 9.65197 6.57378 10.6777 6.85669 12.1312Z" fill="#BE2F55"/>
</g>
<path d="M11.2327 17.5902C11.2327 17.5902 8.23451 14.1005 7.7853 12.5677C7.34278 11.0588 7.32079 10.0723 7.32079 10.0723C7.32079 10.0723 6.32489 12.945 11.2327 17.5902Z" fill="#FF8B3E"/>
<path d="M20.0676 2.21875C17.7744 2.21912 15.5471 2.98516 13.7394 4.39518C11.9317 5.8052 10.6474 7.77834 10.0904 10.0012C9.69313 12.6132 10.3179 15.2778 11.8349 17.4418C13.352 19.6057 15.6448 21.1027 18.2374 21.6219C20.8299 22.1412 23.523 21.6428 25.7575 20.2302C27.992 18.8176 29.5961 16.5994 30.237 14.0361C30.3134 13.5259 30.3518 13.0107 30.3517 12.4947C30.3514 9.76944 29.2678 7.15586 27.3393 5.22879C25.4107 3.30173 22.7951 2.219 20.0676 2.21875ZM29.0451 13.8031C28.4625 16.0459 27.0425 17.9806 25.0768 19.2099C23.1111 20.4393 20.749 20.8699 18.4755 20.4134C16.202 19.9568 14.1898 18.6478 12.852 16.7551C11.5143 14.8624 10.9526 12.5297 11.2823 10.2361C11.4618 9.01887 11.8874 7.85088 12.5333 6.8033C13.1791 5.75572 14.0316 4.85048 15.0388 4.14271C16.0461 3.43495 17.1869 2.93947 18.392 2.68647C19.597 2.43347 20.841 2.42824 22.0481 2.6711C23.2553 2.91396 24.4003 3.39983 25.4134 4.0991C26.4266 4.79837 27.2867 5.69642 27.9413 6.73853C28.5959 7.78064 29.0314 8.94501 29.2212 10.1607C29.4109 11.3764 29.351 12.618 29.0451 13.8098V13.8031Z" fill="url(#paint6_linear_0_1078)"/>
<path d="M20.068 2.21875C18.1 2.21907 16.1734 2.78363 14.5169 3.84542C12.8604 4.90721 11.5436 6.42163 10.7228 8.20892C9.902 9.9962 9.61165 11.9813 9.88625 13.9285C10.1608 15.8758 10.9889 17.7034 12.272 19.1945C13.5551 20.6855 15.2394 21.7774 17.125 22.3405C19.0107 22.9035 21.0184 22.9141 22.9099 22.371C24.8013 21.8279 26.4972 20.7539 27.796 19.2765C29.0948 17.7991 29.9421 15.9804 30.2373 14.0361C30.3138 13.5259 30.3521 13.0107 30.352 12.4947C30.3518 9.76944 29.2682 7.15586 27.3396 5.22879C25.411 3.30173 22.7954 2.219 20.068 2.21875ZM11.2826 10.2361C11.8637 7.99076 13.2838 6.05328 15.2508 4.82226C17.2179 3.59124 19.5823 3.16029 21.8577 3.61807C24.133 4.07584 26.1463 5.38752 27.4833 7.28328C28.8203 9.17904 29.3794 11.5147 29.0455 13.8098C28.866 15.027 28.4403 16.195 27.7945 17.2426C27.1487 18.2902 26.2962 19.1954 25.2889 19.9032C24.2817 20.6109 23.1408 21.1064 21.9358 21.3594C20.7307 21.6124 19.4868 21.6176 18.2796 21.3748C17.0725 21.1319 15.9275 20.6461 14.9143 19.9468C13.9012 19.2475 13.0411 18.3495 12.3865 17.3074C11.7318 16.2652 11.2964 15.1009 11.1066 13.8852C10.9168 12.6695 10.9767 11.4279 11.2826 10.2361Z" fill="url(#paint7_linear_0_1078)"/>
<path d="M30.2373 14.0352C30.3138 13.525 30.3521 13.0097 30.352 12.4938C30.3535 9.98493 29.4364 7.56219 27.7736 5.68235C26.1107 3.80251 23.8171 2.59547 21.3251 2.28879C18.8331 1.98211 16.3149 2.59699 14.2453 4.0175C12.1757 5.43801 10.6976 7.566 10.0898 10.0003C10.2989 8.62582 10.7849 7.30806 11.5183 6.12671C12.2518 4.94537 13.2175 3.925 14.3571 3.12737C15.4966 2.32973 16.7862 1.77141 18.1479 1.48619C19.5097 1.20097 20.9151 1.19478 22.2793 1.468C23.6435 1.74121 24.938 2.28816 26.0845 3.07572C27.231 3.86329 28.2057 4.87511 28.9496 6.04996C29.6934 7.2248 30.191 8.53823 30.4122 9.91077C30.6334 11.2833 30.5736 12.6864 30.2364 14.0352H30.2373Z" fill="#FF8B3E"/>
<mask id="mask0_0_1078" style="mask-type:luminance" maskUnits="userSpaceOnUse" x="9" y="2" width="22" height="21">
<path d="M20.0676 2.21875C18.0334 2.218 16.0447 2.82005 14.353 3.94877C12.6613 5.07749 11.3425 6.68217 10.5636 8.55985C9.78469 10.4375 9.58054 12.5039 9.977 14.4975C10.3735 16.4911 11.3527 18.3225 12.7909 19.7599C14.2291 21.1974 16.0616 22.1764 18.0567 22.5731C20.0517 22.9698 22.1197 22.7664 23.9991 21.9886C25.8785 21.2108 27.4848 19.8935 28.6148 18.2034C29.7449 16.5134 30.348 14.5264 30.3478 12.4938C30.3476 9.76924 29.2645 7.15633 27.3367 5.22953C25.4089 3.30272 22.7943 2.21976 20.0676 2.21875ZM20.0676 21.5588C18.2733 21.5588 16.5193 21.0271 15.0274 20.031C13.5355 19.035 12.3727 17.6192 11.6861 15.9628C10.9994 14.3064 10.8198 12.4837 11.1698 10.7253C11.5199 8.96683 12.3839 7.3516 13.6527 6.08384C14.9214 4.81607 16.5379 3.95271 18.2977 3.60294C20.0576 3.25316 21.8817 3.43268 23.5394 4.11879C25.1971 4.8049 26.6139 5.96678 27.6108 7.45752C28.6077 8.94825 29.1397 10.7009 29.1397 12.4938C29.1395 14.8979 28.1836 17.2035 26.4823 18.9034C24.781 20.6034 22.4736 21.5585 20.0676 21.5588Z" fill="white"/>
</mask>
<g mask="url(#mask0_0_1078)">
<path fill-rule="evenodd" clip-rule="evenodd" d="M23.5954 22.4532L14.8827 21.8496L11.7134 22.2469L23.5954 22.4532Z" fill="#801B34"/>
<g style="mix-blend-mode:multiply" opacity="0.2">
<path fill-rule="evenodd" clip-rule="evenodd" d="M6.84766 4.15635C6.84766 4.15635 11.4477 2.93202 15.9274 3.17173C20.4071 3.41144 22.2775 3.79631 28.0876 4.15635C33.8977 4.51639 34.6823 7.48172 34.6823 7.48172L34.3851 8.87986C34.3851 8.87986 32.3541 5.32529 26.3806 4.41898C20.4071 3.51267 18.6513 3.81923 13.5141 3.72373C8.37688 3.62823 7.01491 4.86116 7.01491 4.86116L6.84766 4.15635Z" fill="url(#paint8_linear_0_1078)"/>
<path fill-rule="evenodd" clip-rule="evenodd" d="M7.27197 5.9385C7.27197 5.9385 8.90537 5.18881 16.7789 5.23656C24.6525 5.28431 30.0058 6.07602 31.3065 7.70719C32.6073 9.33836 31.1383 11.8329 24.4891 13.0553C17.8398 14.2777 8.19619 14.3923 8.19619 14.3923L8.16561 14.0829C8.16561 14.0829 19.112 14.3149 24.7452 12.8595C30.3785 11.4041 31.6745 8.36615 30.3785 7.31086C29.0825 6.25556 15.2268 3.97785 7.40768 6.48381L7.27197 5.9385Z" fill="url(#paint9_linear_0_1078)"/>
<path fill-rule="evenodd" clip-rule="evenodd" d="M8.13379 9.56085C8.13379 9.56085 20.2347 5.49821 27.1602 8.73285C27.1602 8.73285 26.5131 11.3926 21.0175 11.3926C15.5218 11.3926 16.4824 9.44051 14.178 8.99357C11.8737 8.54662 8.27047 10.1396 8.27047 10.1396L8.13379 9.56085Z" fill="url(#paint10_linear_0_1078)"/>
<path fill-rule="evenodd" clip-rule="evenodd" d="M8.34227 15.4299C8.34227 15.4299 27.5455 13.7988 33.7283 11.1562L33.6327 11.692C33.6327 11.692 20.5904 14.8436 8.34131 15.7098L8.34227 15.4299Z" fill="url(#paint11_linear_0_1078)"/>
<path fill-rule="evenodd" clip-rule="evenodd" d="M8.53662 16.9528C8.53662 16.9528 27.9271 16.7513 33.3272 13.4316L33.266 13.7812C33.266 13.7812 26.9207 16.736 8.56337 17.1858L8.53662 16.9528Z" fill="url(#paint12_linear_0_1078)"/>
<path fill-rule="evenodd" clip-rule="evenodd" d="M8.97705 21.3494C8.97705 21.3494 24.6783 15.7473 33.3987 18.1425L33.242 19.0746C33.242 19.0746 29.8012 17.1798 20.1318 18.747C10.4623 20.3142 9.50463 22.209 9.50463 22.209L9.05733 22.2013L8.97705 21.3494Z" fill="url(#paint13_linear_0_1078)"/>
<path fill-rule="evenodd" clip-rule="evenodd" d="M29.9257 19.5453C29.9257 19.5453 25.4451 17.6591 18.8838 20.0896C18.8838 20.0896 26.8529 20.5366 29.9257 19.5453Z" fill="url(#paint14_linear_0_1078)"/>
<path fill-rule="evenodd" clip-rule="evenodd" d="M22.6284 22.3865C22.6284 22.3865 29.0014 21.4439 33.1762 19.5215L33.1275 19.8796C33.1275 19.8796 27.6854 21.5986 22.9324 22.4438L22.6284 22.3865Z" fill="url(#paint15_linear_0_1078)"/>
<path fill-rule="evenodd" clip-rule="evenodd" d="M7.68115 7.973C7.68115 7.973 13.4501 5.54726 21.036 5.93691C28.6219 6.32655 29.7526 8.164 29.7335 9.28997C29.7144 10.4159 23.3566 14.0459 8.0453 13.7585L8.06537 13.6066C8.06537 13.6066 16.4025 13.8702 22.8682 12.3508C29.334 10.8314 29.8453 9.07318 28.794 7.86222C27.7426 6.65126 18.1009 4.54545 7.68115 7.973Z" fill="url(#paint16_linear_0_1078)"/>
<path fill-rule="evenodd" clip-rule="evenodd" d="M22.2603 14.9568C22.2603 14.9568 26.0527 14.781 28.7594 13.9492L22.2603 14.9568Z" fill="url(#paint17_linear_0_1078)"/>
<path fill-rule="evenodd" clip-rule="evenodd" d="M27.1616 22.4424L30.9503 21.4023L28.1336 22.5331L27.1616 22.4424Z" fill="url(#paint18_linear_0_1078)"/>
<path fill-rule="evenodd" clip-rule="evenodd" d="M34.4008 5.01912C34.4008 5.01912 33.1736 3.14251 29.5972 3.217C29.5972 3.217 32.9395 3.36026 34.4008 5.01912Z" fill="url(#paint19_linear_0_1078)"/>
</g>
<path style="mix-blend-mode:multiply" opacity="0.2" fill-rule="evenodd" clip-rule="evenodd" d="M18.8673 8.30588C18.8673 8.30588 23.9807 7.17896 25.7565 9.06989C25.7565 9.06989 23.8363 10.8204 20.4271 10.5807C17.0179 10.341 15.1943 8.72895 15.1943 8.72895C15.1943 8.72895 17.5035 10.5674 20.625 10.3649C23.7465 10.1624 23.908 7.87421 18.8673 8.30588Z" fill="url(#paint20_linear_0_1078)"/>
<path fill-rule="evenodd" clip-rule="evenodd" d="M26.8529 16.1895L24.0162 16.5218L18.8838 16.5953L26.8529 16.1895Z" fill="#DC634F"/>
<path fill-rule="evenodd" clip-rule="evenodd" d="M13.0742 11.6931L34.0198 10.5977L33.9806 10.7829L13.0742 11.6931Z" fill="#892334"/>
<path fill-rule="evenodd" clip-rule="evenodd" d="M8.64062 17.9157L18.8835 16.5949L25.3971 16.189L27.1614 16.125L18.8835 16.7009L13.2379 17.547L8.64062 17.9157Z" fill="#801B34"/>
<path style="mix-blend-mode:multiply" opacity="0.6" fill-rule="evenodd" clip-rule="evenodd" d="M22.6283 22.3863L14.8828 21.8496L16.0985 22.3233L22.6283 22.3863Z" fill="url(#paint21_linear_0_1078)"/>
<path opacity="0.4" fill-rule="evenodd" clip-rule="evenodd" d="M8.34229 15.7093C8.34229 15.7093 15.8431 15.1096 22.6281 13.9062C22.6281 13.9062 18.223 15.0055 8.34229 15.7093Z" fill="#D9772F"/>
<path opacity="0.4" fill-rule="evenodd" clip-rule="evenodd" d="M23.1797 13.8095C23.1797 13.8095 32.0817 12.2146 33.8345 11.5996L33.7686 11.8002C33.7686 11.8002 27.0582 13.1744 23.1797 13.8095Z" fill="#D9772F"/>
<path fill-rule="evenodd" clip-rule="evenodd" d="M17.894 11.4831L19.6469 11.6933L22.1319 11.2988L17.894 11.4831Z" fill="#E6774F"/>
<path fill-rule="evenodd" clip-rule="evenodd" d="M17.894 11.4812L19.3774 11.4946L22.1319 11.2969L19.9002 11.0801L17.894 11.4812Z" fill="#892334"/>
<path fill-rule="evenodd" clip-rule="evenodd" d="M28.5034 11.0466L29.7335 11.6005L28.6611 10.9922L28.5034 11.0466Z" fill="#892334"/>
<path fill-rule="evenodd" clip-rule="evenodd" d="M13.2285 17.3253L14.5943 16.5957L13.5592 17.2833L13.2285 17.3253Z" fill="#892334"/>
<path fill-rule="evenodd" clip-rule="evenodd" d="M24.8208 21.2827L25.7488 20.6753L27.5333 20.6113L25.7565 20.8434L24.8208 21.2827Z" fill="#801B34"/>
<path fill-rule="evenodd" clip-rule="evenodd" d="M16.3066 15.921L16.6746 15.709H17.6476L16.3066 15.921Z" fill="#801B34"/>
<path fill-rule="evenodd" clip-rule="evenodd" d="M27.3325 1.15039L29.0108 1.93446L29.8615 3.17216L30.7255 3.90848L29.3215 2.94869L27.7253 1.99749L27.3325 1.15039Z" fill="#A73234"/>
<path fill-rule="evenodd" clip-rule="evenodd" d="M30.7255 3.90848L29.5011 2.94869L27.6164 1.76351L27.3325 1.15039L29.0108 1.93446L29.7334 2.98689L30.7255 3.90848Z" fill="#892334"/>
<path fill-rule="evenodd" clip-rule="evenodd" d="M25.0444 21.1784L27.2656 20.6465L25.7565 20.8442L25.0444 21.1784Z" fill="#DC634F"/>
<path fill-rule="evenodd" clip-rule="evenodd" d="M16.3066 15.921L16.9766 16.0127L17.6476 15.709L16.3066 15.921Z" fill="#DC634F"/>
<path fill-rule="evenodd" clip-rule="evenodd" d="M13.5591 17.2833L14.5942 16.5957L13.8315 17.248L13.5591 17.2833Z" fill="#DC634F"/>
<path fill-rule="evenodd" clip-rule="evenodd" d="M28.4506 11.0215L29.2716 11.3911L28.1333 11.0387L28.4506 11.0215Z" fill="#DC634F"/>
<path fill-rule="evenodd" clip-rule="evenodd" d="M28.9575 2.73047L29.272 3.06281L29.7336 3.22899L28.9575 2.73047Z" fill="#E6774F"/>
<path fill-rule="evenodd" clip-rule="evenodd" d="M10.0659 15.085L10.4253 14.957H11.3782L10.0659 15.085Z" fill="#801B34"/>
<path fill-rule="evenodd" clip-rule="evenodd" d="M10.0659 18.7409L10.5859 18.5996H10.7856L10.2418 18.7409H10.0659Z" fill="#801B34"/>
<path fill-rule="evenodd" clip-rule="evenodd" d="M29.0557 21.2827L30.6298 20.9121L30.0659 21.2827H29.0557Z" fill="#801B34"/>
<path fill-rule="evenodd" clip-rule="evenodd" d="M12.3823 4.23358L12.52 4.06836L13.0332 4.23358L12.8956 4.49907H12.5563L12.3823 4.23358Z" fill="#892334"/>
<path fill-rule="evenodd" clip-rule="evenodd" d="M13.7109 4.6636L13.775 4.59961L14.0502 4.73427L13.8744 4.84696L13.7109 4.72376V4.6636Z" fill="#892334"/>
<path fill-rule="evenodd" clip-rule="evenodd" d="M12.3823 4.23242L12.5544 4.44444L12.8382 4.47691H12.9061L12.8956 4.49792L12.5563 4.51797L12.3823 4.23242Z" fill="#F2774F"/>
<path fill-rule="evenodd" clip-rule="evenodd" d="M13.7109 4.72266L13.8266 4.79237H13.9432L14.0502 4.73316L13.9097 4.84585H13.8744L13.7109 4.72266Z" fill="#F2774F"/>
<path fill-rule="evenodd" clip-rule="evenodd" d="M15.6504 18.9559L15.7536 18.9253L16.8671 18.5996L18.7079 18.4277L15.6504 18.9559Z" fill="#801B34"/>
<path fill-rule="evenodd" clip-rule="evenodd" d="M29.1188 5.23214L27.7014 4.85013L25.7603 4.83008C26.887 4.89496 28.0086 5.02923 29.1188 5.23214Z" fill="#892334"/>
<path fill-rule="evenodd" clip-rule="evenodd" d="M33.9806 10.7812L32.7907 15.5134L30.3096 16.0128L32.8863 15.9326L33.9806 10.7812Z" fill="#982F34"/>
<path fill-rule="evenodd" clip-rule="evenodd" d="M8.97705 21.3487L11.6455 20.4863L9.03726 21.6648L8.97705 21.3487Z" fill="#801B34"/>
<path fill-rule="evenodd" clip-rule="evenodd" d="M12.4102 2.66862L13.2818 3.62841L12.7074 2.6543L12.4102 2.66862Z" fill="#B64034"/>
<path fill-rule="evenodd" clip-rule="evenodd" d="M12.5356 2.80664L12.6446 3.14185L13.2821 3.62891L12.5356 2.80664Z" fill="#F2774F"/>
<path fill-rule="evenodd" clip-rule="evenodd" d="M8.19824 10.2812H10.8658L21.0179 10.33L11.7623 10.5964L8.19824 10.2812Z" fill="#9D2B34"/>
<path fill-rule="evenodd" clip-rule="evenodd" d="M8.19824 10.2812L11.7623 10.4388L21.0179 10.33L8.19824 10.2812Z" fill="#7A1C34"/>
</g>
<path d="M32.1642 19.2491C31.7179 21.0264 25.1604 21.5822 23.1695 22.7961C21.5342 23.7969 21.7598 24.284 22.0618 24.4654C22.1249 24.5017 22.1937 24.5269 22.2654 24.5399C22.5521 24.5905 22.0408 23.7912 22.9105 23.5849C23.7803 23.3786 23.808 24.3355 23.5671 24.6469C23.5671 24.6469 22.8025 25.8703 21.5868 25.8254C20.5756 25.7862 20.1961 23.3681 20.5861 22.0053C20.6466 21.7515 20.7658 21.5153 20.934 21.3158C21.7942 20.3961 25.5427 21.482 28.5218 18.8079C31.4063 16.2198 32.148 14.5734 32.299 14.2105C32.3496 14.0882 32.4012 14.4263 32.4318 14.9917V14.9964C32.4863 16.0938 32.4567 18.0859 32.1642 19.2491Z" fill="url(#paint22_linear_0_1078)"/>
<g style="mix-blend-mode:multiply" opacity="0.5">
<path d="M32.1637 19.2506C31.7173 21.0278 25.1599 21.5837 23.169 22.7975C21.5337 23.7983 21.7593 24.2854 22.0613 24.4669C22.0613 24.4669 20.8111 23.2693 21.4811 21.6429C22.1435 20.0346 25.3997 21.6429 29.0221 20.1922C31.7995 19.0767 32.33 16.1649 32.4313 14.9902C32.4858 16.0952 32.4561 18.0874 32.1637 19.2506Z" fill="#BE2F55"/>
</g>
<g style="mix-blend-mode:multiply" opacity="0.5">
<path d="M23.5671 24.6377C23.5671 24.6377 22.8025 25.861 21.5868 25.8162C20.5756 25.777 20.1961 23.3589 20.5861 21.9961C20.5861 22.1107 20.5402 24.7886 21.626 25.2632C22.728 25.7464 23.2833 24.3865 23.31 24.0761C23.3368 23.7657 22.9105 23.5766 22.9105 23.5766C23.7726 23.3694 23.808 24.3263 23.5671 24.6377Z" fill="#BE2F55"/>
</g>
<path d="M24.3335 20.8544C24.3335 20.8544 27.7953 20.9155 29.8769 19.4429C31.9194 17.9999 32.3409 15.6562 32.3409 15.6562C32.3409 15.6562 32.2453 18.7123 29.5309 19.9815C27.1119 21.117 24.3335 20.8544 24.3335 20.8544Z" fill="#FF8B3E"/>
<g style="mix-blend-mode:multiply" opacity="0.5">
<path d="M22.033 21.1568C21.5198 21.4233 21.1269 22.6638 21.5169 23.2865C21.9068 23.9092 22.4851 22.7822 25.0867 21.9963C27.6309 21.2265 23.5058 20.3909 22.033 21.1568Z" fill="#BE2F55"/>
</g>
<path d="M21.2951 25.0183C21.0609 24.3498 22.2174 24.8569 22.7163 24.6296C23.2152 24.4023 22.7115 25.3936 22.0406 25.364C21.3696 25.3344 21.2951 25.0183 21.2951 25.0183Z" fill="#FF8B3E"/>
<path d="M8.16879 19.1125C8.62755 20.927 15.3714 21.5659 17.4483 22.837C19.1687 23.8875 18.9431 24.3956 18.6315 24.5761C18.5666 24.613 18.4958 24.6385 18.4222 24.6516C18.1212 24.7003 18.642 23.8751 17.7341 23.6469C16.8261 23.4186 16.8156 24.4157 17.065 24.7432C17.065 24.7432 17.8803 26.0277 19.1486 25.9962C20.1999 25.9685 20.5459 23.454 20.113 22.0377C20.0444 21.7739 19.9159 21.5294 19.7373 21.3233C18.8303 20.3683 14.9767 21.4475 11.8877 18.6846C8.9334 16.0411 8.17835 14.3813 8.02448 14.0175C7.97382 13.8943 7.92125 14.2323 7.89067 14.7987V14.8044C7.84097 15.9179 7.87345 17.9292 8.16879 19.1125Z" fill="url(#paint23_linear_0_1078)"/>
<g style="mix-blend-mode:multiply" opacity="0.5">
<path d="M8.1686 19.1127C8.62737 20.9272 15.3712 21.5661 17.4481 22.8372C19.1685 23.8878 18.9429 24.3958 18.6313 24.5763C18.6313 24.5763 19.9092 23.3472 19.1809 21.6578C18.466 19.997 15.1323 21.6186 11.3886 20.0944C8.54422 18.9312 7.99943 15.9812 7.8943 14.8008C7.84078 15.9181 7.87327 17.9294 8.1686 19.1127Z" fill="#BE2F55"/>
</g>
<g style="mix-blend-mode:multiply" opacity="0.5">
<path d="M17.0694 24.7466C17.0694 24.7466 17.8847 26.0311 19.153 25.9996C20.2043 25.9719 20.5503 23.4573 20.1174 22.041C20.1174 22.1604 20.2225 24.9385 19.1004 25.4208C17.9612 25.9107 17.36 24.4878 17.3275 24.165C17.295 23.8422 17.7337 23.6502 17.7337 23.6502C16.8362 23.4277 16.8152 24.419 17.0694 24.7466Z" fill="#BE2F55"/>
</g>
<path d="M16.2183 20.8266C16.2183 20.8266 12.6542 20.8553 10.5057 19.3301C8.41638 17.847 7.98438 15.4785 7.98438 15.4785C7.98438 15.4785 8.08664 18.5632 10.8631 19.883C13.3596 21.0692 16.2183 20.8266 16.2183 20.8266Z" fill="#FF8B3E"/>
<g style="mix-blend-mode:multiply" opacity="0.5">
<path d="M18.6047 21.16C19.1418 21.4398 19.5729 22.7243 19.1781 23.3651C18.7834 24.0059 18.1641 22.8322 15.4592 21.9927C12.8261 21.1753 17.063 20.3597 18.6047 21.16Z" fill="#BE2F55"/>
</g>
<path d="M19.4411 25.1699C19.6714 24.4785 18.4777 24.9904 17.9539 24.7478C17.4301 24.5052 17.9721 25.5404 18.6707 25.5213C19.3694 25.5022 19.4411 25.1699 19.4411 25.1699Z" fill="#FF8B3E"/>
<g style="mix-blend-mode:lighten" opacity="0.2">
<path d="M9.08116 6.48183C9.0458 6.62604 9.88306 5.95084 10.186 5.52681C11.7783 3.29972 12.3757 3.47066 11.7783 3.53178C11.181 3.59291 9.43193 5.07891 9.08116 6.48183Z" fill="white"/>
</g>
<g style="mix-blend-mode:lighten" opacity="0.2">
<path d="M31.1129 6.32167C31.1482 6.46493 30.311 5.79068 30.008 5.36666C28.4157 3.13956 27.8184 3.31051 28.4157 3.37163C29.0131 3.43275 30.7602 4.91589 31.1129 6.32167Z" fill="white"/>
</g>
<path style="mix-blend-mode:screen" d="M11.9977 5.97653C12.2084 4.83058 11.423 3.72613 10.2436 3.50967C9.06415 3.29321 7.93727 4.0467 7.72662 5.19265C7.51598 6.3386 8.30134 7.44306 9.48077 7.65952C10.6602 7.87598 11.7871 7.12248 11.9977 5.97653Z" fill="url(#paint24_radial_0_1078)"/>
<path style="mix-blend-mode:screen" d="M27.9383 5.06807C28.1543 3.92205 29.2879 3.16663 30.4711 3.3882C31.6544 3.60976 32.4381 4.72522 32.223 5.87124C32.008 7.01726 30.8735 7.77268 29.6903 7.55111C28.507 7.32955 27.7233 6.21695 27.9383 5.06807Z" fill="url(#paint25_radial_0_1078)"/>
<defs>
<linearGradient id="paint0_linear_0_1078" x1="18.3273" y1="18.4398" x2="2.06666" y2="0.223336" gradientUnits="userSpaceOnUse">
<stop stop-color="#4F092A"/>
<stop offset="1" stop-color="#A13A1A"/>
</linearGradient>
<linearGradient id="paint1_linear_0_1078" x1="22.7245" y1="18.619" x2="38.9845" y2="0.403284" gradientUnits="userSpaceOnUse">
<stop stop-color="#4F092A"/>
<stop offset="1" stop-color="#A13A1A"/>
</linearGradient>
<linearGradient id="paint2_linear_0_1078" x1="29.9464" y1="14.302" x2="29.9464" y2="3.10156" gradientUnits="userSpaceOnUse">
<stop stop-color="#300099"/>
<stop offset="0.06" stop-color="#4A07A2"/>
<stop offset="0.18" stop-color="#7A13B3"/>
<stop offset="0.31" stop-color="#A31EC1"/>
<stop offset="0.44" stop-color="#C427CD"/>
<stop offset="0.57" stop-color="#DE2DD6"/>
<stop offset="0.7" stop-color="#F032DC"/>
<stop offset="0.84" stop-color="#FB35E0"/>
<stop offset="1" stop-color="#FF36E1"/>
</linearGradient>
<linearGradient id="paint3_linear_0_1078" x1="10.4234" y1="14.2316" x2="10.4234" y2="3.19736" gradientUnits="userSpaceOnUse">
<stop stop-color="#300099"/>
<stop offset="0.06" stop-color="#4A07A2"/>
<stop offset="0.18" stop-color="#7A13B3"/>
<stop offset="0.31" stop-color="#A31EC1"/>
<stop offset="0.44" stop-color="#C427CD"/>
<stop offset="0.57" stop-color="#DE2DD6"/>
<stop offset="0.7" stop-color="#F032DC"/>
<stop offset="0.84" stop-color="#FB35E0"/>
<stop offset="1" stop-color="#FF36E1"/>
</linearGradient>
<linearGradient id="paint4_linear_0_1078" x1="29.7095" y1="20.792" x2="29.7095" y2="8.0502" gradientUnits="userSpaceOnUse">
<stop stop-color="#690F2C"/>
<stop offset="1" stop-color="#C24621"/>
</linearGradient>
<linearGradient id="paint5_linear_0_1078" x1="10.7696" y1="20.8495" x2="10.7696" y2="8.01984" gradientUnits="userSpaceOnUse">
<stop stop-color="#690F2C"/>
<stop offset="1" stop-color="#C24621"/>
</linearGradient>
<linearGradient id="paint6_linear_0_1078" x1="20.1632" y1="21.8147" x2="20.1632" y2="2.21875" gradientUnits="userSpaceOnUse">
<stop stop-color="#4F092A"/>
<stop offset="1" stop-color="#A13A1A"/>
</linearGradient>
<linearGradient id="paint7_linear_0_1078" x1="20.068" y1="22.7697" x2="20.068" y2="2.21875" gradientUnits="userSpaceOnUse">
<stop stop-color="#8C2747"/>
<stop offset="1" stop-color="#D65731"/>
</linearGradient>
<linearGradient id="paint8_linear_0_1078" x1="6.84766" y1="6.01004" x2="34.6823" y2="6.01004" gradientUnits="userSpaceOnUse">
<stop stop-color="#C77CBD"/>
<stop offset="1" stop-color="#974577"/>
</linearGradient>
<linearGradient id="paint9_linear_0_1078" x1="7.27197" y1="9.81395" x2="31.7309" y2="9.81395" gradientUnits="userSpaceOnUse">
<stop stop-color="#C77CBD"/>
<stop offset="1" stop-color="#974577"/>
</linearGradient>
<linearGradient id="paint10_linear_0_1078" x1="8.13379" y1="9.43765" x2="27.1602" y2="9.43765" gradientUnits="userSpaceOnUse">
<stop stop-color="#C77CBD"/>
<stop offset="1" stop-color="#974577"/>
</linearGradient>
<linearGradient id="paint11_linear_0_1078" x1="8.34226" y1="13.433" x2="33.7283" y2="13.433" gradientUnits="userSpaceOnUse">
<stop stop-color="#C77CBD"/>
<stop offset="1" stop-color="#974577"/>
</linearGradient>
<linearGradient id="paint12_linear_0_1078" x1="8.53662" y1="15.3082" x2="33.3272" y2="15.3082" gradientUnits="userSpaceOnUse">
<stop stop-color="#C77CBD"/>
<stop offset="1" stop-color="#974577"/>
</linearGradient>
<linearGradient id="paint13_linear_0_1078" x1="8.97705" y1="19.8778" x2="33.3987" y2="19.8778" gradientUnits="userSpaceOnUse">
<stop stop-color="#C77CBD"/>
<stop offset="1" stop-color="#974577"/>
</linearGradient>
<linearGradient id="paint14_linear_0_1078" x1="18.8838" y1="19.5185" x2="29.9257" y2="19.5185" gradientUnits="userSpaceOnUse">
<stop stop-color="#C77CBD"/>
<stop offset="1" stop-color="#974577"/>
</linearGradient>
<linearGradient id="paint15_linear_0_1078" x1="22.6284" y1="20.9807" x2="33.1762" y2="20.9807" gradientUnits="userSpaceOnUse">
<stop stop-color="#C77CBD"/>
<stop offset="1" stop-color="#974577"/>
</linearGradient>
<linearGradient id="paint16_linear_0_1078" x1="7.68115" y1="9.83433" x2="29.7335" y2="9.83433" gradientUnits="userSpaceOnUse">
<stop stop-color="#C77CBD"/>
<stop offset="1" stop-color="#974577"/>
</linearGradient>
<linearGradient id="paint17_linear_0_1078" x1="22.2603" y1="14.4525" x2="28.7575" y2="14.4525" gradientUnits="userSpaceOnUse">
<stop stop-color="#C77CBD"/>
<stop offset="1" stop-color="#974577"/>
</linearGradient>
<linearGradient id="paint18_linear_0_1078" x1="27.1616" y1="21.9677" x2="30.9503" y2="21.9677" gradientUnits="userSpaceOnUse">
<stop stop-color="#C77CBD"/>
<stop offset="1" stop-color="#974577"/>
</linearGradient>
<linearGradient id="paint19_linear_0_1078" x1="29.5972" y1="4.11758" x2="34.4008" y2="4.11758" gradientUnits="userSpaceOnUse">
<stop stop-color="#C77CBD"/>
<stop offset="1" stop-color="#974577"/>
</linearGradient>
<linearGradient id="paint20_linear_0_1078" x1="15.1943" y1="9.2905" x2="25.7565" y2="9.2905" gradientUnits="userSpaceOnUse">
<stop stop-color="#C77CBD"/>
<stop offset="1" stop-color="#974577"/>
</linearGradient>
<linearGradient id="paint21_linear_0_1078" x1="14.8828" y1="22.118" x2="22.6283" y2="22.118" gradientUnits="userSpaceOnUse">
<stop stop-color="#C77CBD"/>
<stop offset="1" stop-color="#974577"/>
</linearGradient>
<linearGradient id="paint22_linear_0_1078" x1="26.4449" y1="25.8177" x2="26.4449" y2="14.1732" gradientUnits="userSpaceOnUse">
<stop stop-color="#8C2747"/>
<stop offset="1" stop-color="#D65731"/>
</linearGradient>
<linearGradient id="paint23_linear_0_1078" x1="14.0869" y1="25.9991" x2="14.0869" y2="13.9917" gradientUnits="userSpaceOnUse">
<stop stop-color="#8C2747"/>
<stop offset="1" stop-color="#D65731"/>
</linearGradient>
<radialGradient id="paint24_radial_0_1078" cx="0" cy="0" r="1" gradientUnits="userSpaceOnUse" gradientTransform="translate(9.84939 5.42672) rotate(10.3998) scale(2.17088 2.10655)">
<stop stop-color="#B823A2"/>
<stop offset="0.12" stop-color="#A92095"/>
<stop offset="0.36" stop-color="#831973"/>
<stop offset="0.68" stop-color="#450D3D"/>
<stop offset="1"/>
</radialGradient>
<radialGradient id="paint25_radial_0_1078" cx="0" cy="0" r="1" gradientUnits="userSpaceOnUse" gradientTransform="translate(30.3588 5.74437) rotate(10.6987) scale(2.18069 2.11388)">
<stop stop-color="#B823A2"/>
<stop offset="0.12" stop-color="#A92095"/>
<stop offset="0.36" stop-color="#831973"/>
<stop offset="0.68" stop-color="#450D3D"/>
<stop offset="1"/>
</radialGradient>
</defs>
</svg>
