<svg width="16" height="16" viewBox="0 0 16 16" fill="none" xmlns="http://www.w3.org/2000/svg">
<path d="M13.05 4.5H2.95C2.82697 4.50058 2.70836 4.54594 2.61634 4.62761C2.52432 4.70927 2.46519 4.82166 2.45 4.94375L1.5625 12.9438C1.55461 13.0135 1.56147 13.084 1.58264 13.1509C1.60381 13.2178 1.63882 13.2795 1.68539 13.3319C1.73196 13.3844 1.78904 13.4265 1.85294 13.4554C1.91683 13.4844 1.9861 13.4996 2.05625 13.5H13.9438C14.0139 13.4996 14.0832 13.4844 14.1471 13.4554C14.211 13.4265 14.268 13.3844 14.3146 13.3319C14.3612 13.2795 14.3962 13.2178 14.4174 13.1509C14.4385 13.084 14.4454 13.0135 14.4375 12.9438L13.55 4.94375C13.5348 4.82166 13.4757 4.70927 13.3837 4.62761C13.2916 4.54594 13.173 4.50058 13.05 4.5V4.5Z" stroke="#4D4D4D" stroke-linecap="round" stroke-linejoin="round"/>
<path d="M5.5 4.5C5.5 3.83696 5.76339 3.20107 6.23223 2.73223C6.70107 2.26339 7.33696 2 8 2C8.66304 2 9.29893 2.26339 9.76777 2.73223C10.2366 3.20107 10.5 3.83696 10.5 4.5" stroke="#4D4D4D" stroke-linecap="round" stroke-linejoin="round"/>
</svg>
