<svg width="92" height="38" viewBox="0 0 92 38" fill="none" xmlns="http://www.w3.org/2000/svg">
<path d="M0.359473 10.0034C-0.827324 17.7838 1.04386 25.3031 4.21854 32.3874C32.2072 42.6103 66.0487 36.7384 92 23.3254C91.011 15.5529 90.1189 7.77052 89.1141 0C61.3727 14.4256 30.5318 17.5069 0.359473 10.0034ZM5.82072 32.1797C5.12051 31.9325 4.76645 31.804 4.04052 31.531C3.48668 30.3048 3.23746 29.7333 2.79439 28.6099C3.51833 28.867 3.87437 28.9877 4.57458 29.221C5.02359 30.3741 5.27281 30.9456 5.82072 32.1837V32.1797ZM1.73814 14.6095C1.09331 14.4513 0.768919 14.3682 0.122114 14.2001C0.111021 13.1392 0.201098 12.0796 0.391122 11.0358C1.00826 11.192 1.3188 11.2691 1.93594 11.4194C1.77442 12.476 1.70822 13.545 1.73814 14.6135V14.6095ZM10.4018 33.6433C9.75693 33.4613 9.43254 33.3644 8.76991 33.1587C8.23585 31.9048 7.99256 31.3155 7.55542 30.1506C8.22596 30.3483 8.55629 30.4393 9.211 30.6153C9.6422 31.796 9.88154 32.3894 10.4018 33.6472V33.6433ZM6.12533 15.6241C5.48644 15.4857 5.16798 15.4164 4.52711 15.2701C4.46606 14.1969 4.49584 13.1205 4.61612 12.0523C5.23523 12.1947 5.5438 12.262 6.16291 12.3984C6.06562 13.4723 6.05305 14.5522 6.12533 15.6281V15.6241ZM14.6525 34.7053C14.0492 34.5768 13.7446 34.5075 13.1294 34.3592C12.6369 33.0994 12.4114 32.4981 11.998 31.3095C12.629 31.4539 12.9415 31.5211 13.5626 31.6477C13.9621 32.8462 14.1797 33.4494 14.6525 34.7093V34.7053ZM10.469 16.4765C9.83605 16.3638 9.51957 16.3044 8.88661 16.1818C8.79718 15.1089 8.78528 14.0308 8.85101 12.9561C9.47012 13.0788 9.77869 13.1401 10.3998 13.2548C10.3507 14.3303 10.3738 15.408 10.469 16.4805V16.4765ZM18.6757 35.4331C18.0981 35.3481 17.8074 35.3026 17.2239 35.2017C16.7887 33.9458 16.587 33.3407 16.2151 32.1402C16.8184 32.241 17.119 32.2865 17.7184 32.3735C18.0724 33.58 18.2643 34.1832 18.6757 35.4371V35.4331ZM14.783 17.1628C14.154 17.0758 13.8395 17.0283 13.2006 16.9314C13.0948 15.8675 13.0531 14.7983 13.076 13.7294C13.6951 13.8323 14.0057 13.8817 14.6248 13.9767C14.6188 15.0421 14.6717 16.1071 14.783 17.1667V17.1628ZM22.5763 35.8919C22.0086 35.8405 21.7258 35.8128 21.1561 35.7515C20.7882 34.5056 20.6161 33.9023 20.2937 32.6999C20.8871 32.7632 21.1799 32.7928 21.7673 32.8462C22.0719 34.0527 22.2321 34.6559 22.5763 35.8959V35.8919ZM19.0753 17.681C18.4482 17.6177 18.1357 17.584 17.5067 17.5109C17.3861 16.2688 17.3425 15.6419 17.3089 14.3465C17.928 14.4256 18.2386 14.4632 18.8577 14.5443C18.9032 15.8239 18.9507 16.4468 19.0753 17.6849V17.681ZM26.4552 36.1451C25.8855 36.1194 25.6007 36.1055 25.033 36.0719C24.7323 34.8437 24.5899 34.2425 24.3209 33.04C24.9143 33.0776 25.207 33.0934 25.8004 33.1211C26.0497 34.3295 26.1822 34.9229 26.4552 36.1491V36.1451ZM23.3616 18.0251C22.7346 17.9875 22.4201 17.9657 21.793 17.9183C21.6625 16.6921 21.6091 16.0731 21.5458 14.8192C22.1629 14.8726 22.4735 14.8983 23.0906 14.9438C23.1677 16.1917 23.2251 16.8048 23.3616 18.029V18.0251ZM30.4191 36.2638C29.8257 36.2638 29.5349 36.2479 28.9534 36.2321C28.72 35.0198 28.6072 34.4185 28.3877 33.218C28.9811 33.2339 29.2916 33.2418 29.9008 33.2536C30.1046 34.4581 30.2094 35.0593 30.4191 36.2677V36.2638ZM27.6499 18.1892C27.0229 18.1774 26.7083 18.1695 26.0813 18.1497C25.9369 16.9353 25.8717 16.3262 25.7668 15.1C26.384 15.1277 26.6905 15.1396 27.3077 15.1554C27.4264 16.3756 27.4976 16.9828 27.6479 18.1932L27.6499 18.1892ZM34.5313 36.3073C33.9379 36.3073 33.6333 36.3073 33.0221 36.3073C32.8461 35.1048 32.7571 34.5036 32.579 33.2952C33.2061 33.2952 33.5107 33.2952 34.1041 33.2952C34.2742 34.4996 34.3632 35.1028 34.5313 36.3073ZM31.9006 18.1873L30.3716 18.2011C30.2054 16.9947 30.1224 16.3935 29.976 15.191C30.5911 15.191 30.8898 15.191 31.4872 15.1811C31.6454 16.3796 31.7305 16.9808 31.9006 18.1873ZM38.5823 36.2381C37.9889 36.2539 37.6941 36.2618 37.1007 36.2737C36.9326 35.0712 36.8476 34.468 36.6755 33.2576C37.2689 33.2457 37.5636 33.2398 38.157 33.222C38.3311 34.4304 38.4161 35.0356 38.5842 36.2381H38.5823ZM35.9851 18.0983C35.3917 18.118 35.0871 18.1279 34.4898 18.1437C34.3177 16.9373 34.2326 16.3341 34.0685 15.1356C34.6619 15.1198 34.9665 15.1119 35.5638 15.0901C35.732 16.2886 35.817 16.8899 35.9871 18.0983H35.9851ZM42.6174 36.0699C42.024 36.1016 41.7332 36.1174 41.1418 36.1431C40.9756 34.9407 40.8926 34.3355 40.7224 33.1251C41.3158 33.0974 41.6086 33.0836 42.198 33.0499C42.3701 34.2603 42.4532 34.8655 42.6193 36.0699H42.6174ZM40.0756 17.8926C39.4822 17.9321 39.1776 17.9499 38.5783 17.9816C38.4102 16.7732 38.3271 16.17 38.1629 14.9715C38.7563 14.9378 39.0609 14.92 39.6603 14.8805C39.8264 16.081 39.9095 16.6842 40.0776 17.8926H40.0756ZM46.6347 35.7871C46.0413 35.8366 45.7545 35.8603 45.167 35.9038C45.0028 34.6994 44.9217 34.0942 44.7556 32.8798C45.349 32.8363 45.6378 32.8126 46.2272 32.7612C46.3934 33.9755 46.4745 34.5807 46.6367 35.7871H46.6347ZM44.1642 17.5623C43.5708 17.6196 43.2681 17.6473 42.6708 17.6988C42.5046 16.4884 42.4235 15.8852 42.2593 14.6847C42.8527 14.6313 43.1593 14.6056 43.7567 14.5462C43.9209 15.7388 44.002 16.3519 44.1642 17.5623ZM50.6362 35.3738C50.0428 35.445 49.7599 35.4786 49.1744 35.5419C49.0142 34.3335 48.9331 33.7283 48.7788 32.512C49.3722 32.4467 49.659 32.4131 50.2445 32.3419C50.3988 33.5602 50.4779 34.1674 50.6381 35.3738H50.6362ZM48.2408 17.0995C47.6474 17.1786 47.3467 17.2162 46.7514 17.2854C46.5912 16.0731 46.5101 15.4679 46.3558 14.2654C46.9492 14.1942 47.2518 14.1566 47.8472 14.0775C48.0034 15.28 48.0826 15.8852 48.2428 17.0995H48.2408ZM54.6179 34.818C54.0363 34.911 53.7456 34.9545 53.1621 35.0395C53.0058 33.8311 52.9267 33.222 52.7665 32.0037C53.3599 31.9167 53.6407 31.8732 54.2242 31.7802C54.3845 33.0005 54.4636 33.6077 54.6198 34.818H54.6179ZM52.2937 16.4963C51.7003 16.5952 51.4076 16.6426 50.8142 16.7336C50.6579 15.5173 50.5788 14.9121 50.4186 13.7077C51.012 13.6167 51.3087 13.5673 51.9021 13.4684C52.0623 14.6728 52.1394 15.278 52.2957 16.4963H52.2937ZM58.5798 34.0981C58.0002 34.2148 57.7114 34.2722 57.1319 34.379C56.9776 33.1686 56.9005 32.5595 56.7462 31.3372C57.3277 31.2284 57.6165 31.1731 58.1961 31.0544C58.3503 32.2826 58.4275 32.8917 58.5818 34.1021L58.5798 34.0981ZM56.317 15.7388C55.7236 15.8614 55.4387 15.9188 54.8513 16.0335C54.697 14.8152 54.6198 14.2081 54.4557 13.0016C55.0491 12.8889 55.3379 12.8296 55.9253 12.707C56.0875 13.9153 56.1647 14.5225 56.317 15.7388ZM62.5219 33.2101C61.9463 33.3545 61.6595 33.4237 61.0839 33.5562C60.9296 32.3459 60.8545 31.7347 60.7042 30.5125C61.2798 30.378 61.5685 30.3147 62.1441 30.1644C62.2925 31.3906 62.3617 31.9998 62.5219 33.2121V33.2101ZM60.2967 14.8172C59.7171 14.9635 59.4264 15.0347 58.8468 15.1712C58.6945 13.9509 58.6174 13.3438 58.4631 12.1393C59.0446 12.0009 59.3354 11.9297 59.913 11.7853C60.0672 12.9977 60.1444 13.6048 60.2967 14.8251V14.8172ZM66.472 32.154C65.8786 32.3182 65.5957 32.3993 65.0162 32.5496C64.8639 31.3372 64.7887 30.7281 64.6384 29.5039C65.2179 29.3437 65.5087 29.2645 66.0922 29.1083C66.2425 30.3286 66.3177 30.9377 66.472 32.154ZM64.2487 13.7611C63.6553 13.9272 63.3745 14.0083 62.7969 14.1566C62.6446 12.9383 62.5694 12.3292 62.4131 11.1248L63.867 10.7193C64.0213 11.9277 64.0984 12.5349 64.2487 13.7611ZM70.4972 30.9674C69.9038 31.1493 69.6071 31.2383 69.0177 31.4124C68.8634 30.202 68.7882 29.5909 68.6379 28.3667L70.1174 27.9217C70.2737 29.1479 70.3429 29.759 70.4972 30.9674ZM68.272 12.5744C67.6786 12.7584 67.3819 12.8474 66.7924 13.0234C66.6421 11.8031 66.565 11.196 66.4107 9.98954C67.0041 9.81352 67.2948 9.72452 67.8882 9.54059C68.0425 10.7391 68.1197 11.3463 68.272 12.5744ZM74.566 29.6819C73.9726 29.8796 73.6719 29.9785 73.0765 30.1703C72.9222 28.958 72.8451 28.3469 72.6948 27.1227C73.2882 26.9249 73.5888 26.8319 74.1862 26.6322C74.3365 27.8505 74.4117 28.4616 74.566 29.6739V29.6819ZM72.3328 11.2632C71.7394 11.461 71.4407 11.5638 70.8453 11.7576C70.693 10.5374 70.6159 9.93021 70.4616 8.72379C71.055 8.52602 71.3537 8.43108 71.9491 8.22935C72.1053 9.42786 72.1805 10.035 72.3328 11.2553V11.2632ZM78.6367 28.2599C78.0433 28.4774 77.7466 28.5842 77.1512 28.7958C76.9969 27.5815 76.9198 26.9724 76.7694 25.7442C77.3628 25.5345 77.6615 25.4277 78.2549 25.2082C78.4072 26.4285 78.4824 27.0396 78.6367 28.252V28.2599ZM76.4055 9.81748C75.8121 10.039 75.5154 10.1458 74.922 10.3594C74.7697 9.13713 74.6925 8.52997 74.5264 7.32355C75.1198 7.10996 75.4185 7.00118 76.0099 6.78165C76.1661 7.98807 76.2433 8.59524 76.4055 9.81748ZM82.6777 26.6974C82.0942 26.9348 81.7995 27.0515 81.21 27.2908C81.0557 26.0784 80.9806 25.4673 80.8283 24.2391C81.4217 24.0097 81.7105 23.891 82.296 23.6458C82.4364 24.872 82.5135 25.4831 82.6678 26.6974H82.6777ZM80.4287 8.24517C79.8452 8.48646 79.5505 8.60512 78.963 8.83849C78.8107 7.61625 78.7336 7.00711 78.5674 5.8007C79.1608 5.56732 79.4476 5.45064 80.0331 5.20738C80.1894 6.41379 80.2646 7.02293 80.4188 8.24517H80.4287ZM86.6278 25.0006C86.0581 25.2596 85.7713 25.3862 85.1957 25.6374C85.0394 24.4231 84.9643 23.8119 84.812 22.5838C85.3876 22.3326 85.6744 22.204 86.244 21.945C86.3864 23.1731 86.4636 23.7862 86.6179 25.0006H86.6278ZM84.3709 6.53443C83.8012 6.7955 83.5144 6.92998 82.9408 7.1772C82.7865 5.95298 82.7093 5.34384 82.5452 4.13742C83.1208 3.88427 83.4076 3.75572 83.9753 3.49466C84.1315 4.70107 84.2087 5.31022 84.361 6.53443H84.3709ZM90.4552 23.1474C89.9073 23.4302 89.6304 23.5687 89.0706 23.8416C88.9143 22.6273 88.8392 22.0142 88.6869 20.786C89.2447 20.5111 89.5196 20.3727 90.0715 20.0918C90.2139 21.3279 90.291 21.939 90.4493 23.1533L90.4552 23.1474ZM88.1924 4.67141C87.6445 4.95423 87.3675 5.09267 86.8078 5.36757C86.6535 4.14335 86.5763 3.53421 86.4122 2.32779C86.968 2.05289 87.2449 1.91247 87.7968 1.62965C87.953 2.84398 88.0302 3.45313 88.1825 4.67734L88.1924 4.67141Z" fill="#F9F1D2"/>
</svg>
